**ABCDEFGHIJKLMNOPQRSTUVWXYZabcdefghijklmnopqrstuvwxyz**************************
**PARASOLID !"#$%&'()*+,-./:;<=>?@[\]^_`{|}~0123456789**************************
**PART1;
MC=AMD64;
MC_MODEL=Intel64 Family 6 Model 60 Stepping 3, GenuineIntel;
MC_ID=unknown;
OS=Windows_NT;
OS_RELEASE=unknown;
FRU=Parasolid Version 33.1, build 247,  8- 6-2021;
APPL=SOLIDWORKS 2022-2021255;
SITE=;
USER=unknown;
FORMAT=text;
GUISE=transmit;
KEY=FILESLDA72-2R470G-S1TF.x_t;
DATE=Sat Jun 10 00:07:50 2023;
**PART2;
SCH=SCH_3301247_33103;
USFLD_SIZE=0;
**PART3;
**END_OF_HEADER*****************************************************************
T51 : TRANSMIT FILE created by modeller version 330124723 SCH_3301247_33103_1300
6230 0 10 21 CCCCI7 lattice222 0 CCCI4 mesh1006 0 I8 polyline1008 0 CCCCCCCCCCA1
6 mesh_offset_data206 0 Z1 7 2 3 0 0 0 0 0 0 0 0 1e3 1e-8 0 0 0 1 0 1 4 0 81 255
 2 2 7 5 1 0 0 0 0 0 0 70 11 CI9 list_type0 0 1 uI10 notransmit0 0 1 lCCCDCCDI12
 finger_index0 0 1 dI12 finger_block1012 0 CZ3 0 4 T1 0 0 1 20 1 6 6 11 255 4 5
 0 1 7 8 1 9 0 0 0 12 35 CCCI7 lattice222 0 CCCI4 mesh1006 0 I8 polyline1008 0 C
CCCCCCDI5 owner1040 0 CCCCCCI13 boundary_mesh1006 0 I17 boundary_polyline1008 0
 CCCA16 index_map_offset0 0 1 dA9 index_map82 0 A17 node_id_index_map82 0 A20 sc
hema_embedding_map82 0 A5 child12 0 A14 lowest_node_id0 0 1 dA16 mesh_offset_dat
a206 0 Z7 597 10 11 0 0 0 0 0 0 0 1e3 1e-8 4 12 0 1 0 1 1 13 14 15 16 0 0 17 18
 19 0 0 0 0 0 0 0 100 10 CCCCCCCCCA9 precision229 0 Z8 6 4 0 0 1 0 0 0 1 0 0 0 1
 0 0 0 1 0 ?0 11 9 3 0 1 12 20 1 21 4 0 0 12 12 722 22 23 0 0 0 0 0 0 0 1e3 1e-8
 9 24 7 1 0 1 1 25 26 27 28 0 0 29 30 31 0 0 0 0 0 0 0 100 20 4 9 0 0 1 0 0 0 1
 0 0 0 1 0 0 0 1 0 ?0 11 21 1 0 1 24 32 1 0 9 0 0 12 24 720 33 34 0 0 0 0 0 0 0
 1e3 1e-8 21 35 12 1 0 1 1 36 37 38 39 0 0 40 41 42 0 0 0 0 0 0 0 100 32 2 21 0
 0 1 0 0 0 1 0 0 0 1 0 0 0 1 0 ?0 81 1 33 720 43 24 0 0 0 0 0 70 34 0 4 T24 0 0
 3 20 1 44 44 13 255 36 111 0 24 0 45 0 0 46 0 51 255 37 418 0 47 48 0 0 +0 98e-
5 98e-5 -1 0 0 2e-5 0 0 1 31 255 38 438 0 49 50 0 0 +-.00348 98e-5 98e-5 -1 0 0
 0 0 1 2e-5 29 255 39 277 0 42 51 0 -.0035 98e-5 -98e-5 19 8 CCCCCCCA5 owner12 0
 Z40 40 0 24 46 0 52 V0 16 255 41 279 0 ?53 0 54 55 0 0 24 18 255 42 275 0 56 0
 57 39 ?24 17 255 56 0 58 53 59 42 60 54 0 61 +18 57 271 0 59 42 62 51 ?24 17 59
 0 58 56 63 57 64 65 0 66 +18 62 267 0 63 57 67 68 ?24 29 51 273 0 57 68 39 -.00
35 98e-5 98e-5 29 68 269 0 62 69 51 -.0035 2e-5 98e-5 29 69 266 0 67 70 68 -.003
5 2e-5 -98e-5 18 67 264 0 71 62 72 69 ?24 29 70 256 0 72 73 69 -.003 98e-5 98e-5
 18 72 254 0 74 67 75 70 ?24 29 73 252 0 75 76 70 -.003 98e-5 -98e-5 18 75 250 0
 77 72 78 73 ?24 29 76 248 0 78 79 73 -.003 2e-5 -98e-5 18 78 246 0 80 75 81 76
 ?24 29 79 245 0 81 82 76 -.003 2e-5 98e-5 18 81 243 0 83 78 84 79 ?24 29 82 236
 0 84 85 79 -.00302 98e-5 .001 18 84 234 0 86 81 87 82 ?24 29 85 232 0 87 88 82
 -.00302 2e-5 .001 18 87 230 0 89 84 90 85 ?24 29 88 228 0 90 91 85 -.00348 2e-5
 .001 18 90 226 0 92 87 93 88 ?24 29 91 225 0 93 94 88 -.00348 98e-5 .001 18 93
 223 0 95 90 96 91 ?24 29 94 216 0 96 97 91 -.00302 .001 -98e-5 18 96 214 0 98 9
3 99 94 ?24 29 97 212 0 99 100 94 -.00302 .001 98e-5 18 99 210 0 101 96 102 97 ?
24 29 100 208 0 102 103 97 -.00348 .001 98e-5 18 102 206 0 104 99 105 100 ?24 29
 103 205 0 105 106 100 -.00348 .001 -98e-5 18 105 203 0 107 102 108 103 ?24 29 1
06 196 0 108 109 103 -.00302 2e-5 -.001 18 108 194 0 110 105 111 106 ?24 29 109
 192 0 111 112 106 -.00302 98e-5 -.001 18 111 190 0 113 108 114 109 ?24 29 112 1
88 0 114 115 109 -.00348 98e-5 -.001 18 114 186 0 116 111 117 112 ?24 29 115 185
 0 117 118 112 -.00348 2e-5 -.001 18 117 183 0 119 114 120 115 ?24 29 118 176 0
 120 121 115 -.00302 0 -98e-5 18 120 174 0 122 117 123 118 ?24 29 121 172 0 123
 124 118 -.00302 0 98e-5 18 123 170 0 125 120 126 121 ?24 29 124 168 0 126 127 1
21 -.00348 0 -98e-5 18 126 166 0 128 123 129 124 ?24 29 127 165 0 129 0 124 -.00
348 0 98e-5 18 129 163 0 130 126 0 127 ?24 17 130 0 131 128 125 129 132 133 0 13
4 +15 255 131 164 0 135 136 0 17 128 0 131 135 130 126 137 138 0 139 +17 125 0 1
31 130 135 123 140 141 0 132 +17 132 0 142 143 134 123 130 133 0 144 -16 133 171
 0 ?130 145 138 146 0 0 24 17 134 0 142 132 147 129 148 149 0 150 -15 142 313 0
 143 151 0 17 147 0 142 134 143 90 89 152 0 153 -17 148 0 154 155 150 90 134 149
 0 0 +16 149 369 0 ?148 156 157 158 0 0 24 17 150 0 154 148 155 129 159 160 0 13
7 -15 154 325 0 148 161 0 17 155 0 154 150 148 62 153 156 0 159 +17 159 0 162 16
3 137 62 150 160 0 0 +16 160 378 0 ?159 164 165 166 0 0 24 17 137 0 162 159 139
 129 128 138 0 0 -15 162 333 0 159 167 0 17 139 0 162 137 163 126 71 168 0 169 -
16 138 167 0 ?128 133 49 170 0 0 24 16 49 348 0 ?171 138 172 38 0 0 24 30 255 17
0 169 0 138 0 146 0 --.00348 0 0 0 0 1 30 146 173 0 133 170 173 0 -0 0 98e-5 1 0
 0 30 173 177 0 145 146 174 0 +-.003 0 -98e-5 1 0 0 16 145 175 0 ?135 141 133 17
3 0 0 24 30 174 180 0 141 173 175 0 +-.00302 0 .001 0 0 1 16 141 178 0 ?125 176
 145 174 0 0 24 30 175 189 0 176 174 177 0 --.00348 .001 -.001 0 -1 0 16 176 187
 0 ?116 178 141 175 0 0 24 30 177 193 0 178 175 179 0 +0 98e-5 -.001 1 0 0 16 17
8 191 0 ?113 180 176 177 0 0 24 30 179 197 0 180 177 181 0 --.0035 2e-5 -.001 1
 0 0 16 180 195 0 ?182 183 178 179 0 0 24 30 181 200 0 183 179 184 0 +-.00302 .0
01 -.001 0 -1 0 16 183 198 0 ?110 185 180 181 0 0 24 30 184 209 0 185 181 186 0
 +-.00348 .001 .001 0 0 1 16 185 207 0 ?104 187 183 184 0 0 24 30 186 213 0 187
 184 188 0 +-.003 .001 98e-5 1 0 0 16 187 211 0 ?101 189 185 186 0 0 24 30 188 2
17 0 189 186 190 0 -0 .001 -98e-5 1 0 0 16 189 215 0 ?191 192 187 188 0 0 24 30
 190 220 0 192 188 193 0 --.00302 .001 0 0 0 1 16 192 218 0 ?98 194 189 190 0 0
 24 30 193 229 0 194 190 195 0 +-.00348 .001 .001 0 -1 0 16 194 227 0 ?92 152 19
2 193 0 0 24 30 195 233 0 152 193 196 0 +0 2e-5 .001 1 0 0 16 152 231 0 ?89 197
 194 195 0 0 24 30 196 237 0 197 195 198 0 --.0035 98e-5 .001 1 0 0 16 197 235 0
 ?199 200 152 196 0 0 24 30 198 240 0 200 196 201 0 --.00302 .001 .001 0 -1 0 16
 200 238 0 ?86 202 197 198 0 0 24 30 201 249 0 202 198 203 0 --.003 2e-5 -.001 0
 0 1 16 202 247 0 ?80 204 200 201 0 0 24 30 203 253 0 204 201 205 0 --.003 .001
 -98e-5 0 -1 0 16 204 251 0 ?77 206 202 203 0 0 24 30 205 257 0 206 203 207 0 +-
.003 98e-5 0 0 0 1 16 206 255 0 ?74 208 204 205 0 0 24 30 207 260 0 208 205 209
 0 +-.003 0 98e-5 0 -1 0 16 208 258 0 ?210 211 206 207 0 0 24 30 209 270 0 211 2
07 212 0 +-.0035 2e-5 0 0 0 1 16 211 268 0 ?63 65 208 209 0 0 24 30 212 274 0 65
 209 213 0 --.0035 .001 98e-5 0 -1 0 16 65 272 0 ?59 54 211 212 0 0 24 30 213 27
8 0 54 212 55 0 --.0035 98e-5 -.001 0 0 1 16 54 276 0 ?56 41 65 213 0 0 24 30 55
 281 0 41 213 214 0 +-.0035 0 -98e-5 0 -1 0 31 214 461 0 215 55 216 0 --.00302 2
e-5 -98e-5 1 0 0 0 0 -1 2e-5 16 215 393 0 ?122 217 0 214 0 0 24 31 216 460 0 217
 214 218 0 --.00348 2e-5 -98e-5 -1 0 0 0 0 1 2e-5 16 217 391 0 ?119 219 215 216
 0 0 24 31 218 459 0 219 216 220 0 +-.00302 2e-5 -98e-5 0 -1 0 0 0 -1 2e-5 16 21
9 389 0 ?221 222 217 218 0 0 24 31 220 458 0 222 218 223 0 +-.00302 2e-5 -98e-5
 0 0 -1 -1 0 0 2e-5 16 222 388 0 ?224 168 219 220 0 0 24 31 223 457 0 168 220 22
5 0 +-.00348 2e-5 -98e-5 0 0 -1 -1 0 0 2e-5 16 168 387 0 ?71 226 222 223 0 0 24
 31 225 456 0 226 223 227 0 +-.00348 2e-5 -98e-5 0 -1 2541098841762895e-30 0 -25
41098841762895e-30 -1 2e-5 16 226 386 0 ?228 229 168 225 0 0 24 31 227 455 0 229
 225 230 0 --.00302 98e-5 -98e-5 0 1 0 0 0 1 2e-5 16 229 384 0 ?231 165 226 227
 0 0 24 31 230 454 0 165 227 166 0 --.00302 2e-5 98e-5 0 0 1 1 0 0 2e-5 16 165 3
81 0 ?232 160 229 230 0 0 24 31 166 453 0 160 230 233 0 --.00348 2e-5 98e-5 0 0
 1 1 0 0 2e-5 31 233 452 0 164 166 234 0 --.00348 98e-5 -98e-5 0 1 0 0 0 1 2e-5
 16 164 375 0 ?235 236 160 233 0 0 24 31 234 451 0 236 233 237 0 +-.00302 98e-5
 -98e-5 1 0 0 0 0 -1 2e-5 16 236 373 0 ?238 239 164 234 0 0 24 31 237 450 0 239
 234 240 0 +-.00302 98e-5 -98e-5 0 0 -1 -1 0 0 2e-5 16 239 372 0 ?241 242 236 23
7 0 0 24 31 240 449 0 242 237 243 0 +-.00302 2e-5 98e-5 0 -1 2541098841762895e-3
0 0 -2541098841762895e-30 -1 2e-5 16 242 371 0 ?244 157 239 240 0 0 24 31 243 44
8 0 157 240 158 0 +-.00302 2e-5 98e-5 1 0 0 0 0 -1 2e-5 16 157 370 0 ?144 149 24
2 243 0 0 24 31 158 447 0 149 243 245 0 +-.00348 2e-5 98e-5 -1 0 0 0 0 1 2e-5 31
 245 446 0 156 158 246 0 +-.00348 2e-5 98e-5 0 -1 0 0 0 -1 2e-5 16 156 368 0 ?15
5 247 149 245 0 0 24 31 246 445 0 247 245 248 0 +-.00348 98e-5 -98e-5 0 0 -1 -1
 0 0 2e-5 16 247 367 0 ?107 249 156 246 0 0 24 31 248 444 0 249 246 250 0 +-.003
48 98e-5 -98e-5 -1 0 0 0 0 1 2e-5 16 249 366 0 ?251 252 247 248 0 0 24 31 250 44
3 0 252 248 253 0 --.00302 98e-5 98e-5 0 0 1 1 0 0 2e-5 16 252 362 0 ?254 255 24
9 250 0 0 24 31 253 442 0 255 250 256 0 --.00302 98e-5 98e-5 0 1 0 0 0 1 2e-5 16
 255 359 0 ?257 258 252 253 0 0 24 31 256 441 0 258 253 259 0 --.00348 98e-5 98e
-5 0 1 0 0 0 1 2e-5 16 258 354 0 ?66 260 255 256 0 0 24 31 259 440 0 260 256 50
 0 --.00348 98e-5 98e-5 0 0 1 1 0 0 2e-5 16 260 351 0 ?261 172 258 259 0 0 24 31
 50 439 0 172 259 38 0 +-.00302 98e-5 98e-5 1 0 0 0 0 -1 2e-5 16 172 349 0 ?262
 49 260 50 0 0 24 17 262 0 263 264 265 84 266 172 0 257 +15 263 305 0 265 267 0
 17 264 0 263 265 262 72 257 255 0 268 -17 265 0 263 262 264 99 254 252 0 269 -1
7 266 0 270 271 272 99 262 172 0 265 -17 257 0 273 274 268 84 264 255 0 0 +15 27
3 315 0 257 275 0 17 274 0 273 276 257 87 86 200 0 143 -17 268 0 273 257 276 72
 210 208 0 0 -17 276 0 273 268 274 81 244 242 0 210 -17 210 0 277 80 74 81 268 2
08 0 0 +15 277 244 0 74 45 0 17 80 0 277 77 210 78 83 202 0 278 +17 74 0 277 210
 77 72 279 206 0 254 +17 77 0 277 74 80 75 278 204 0 279 +17 279 0 280 281 254 7
5 74 206 0 241 -17 254 0 280 279 269 72 265 252 0 264 +15 280 317 0 254 282 0 17
 269 0 280 254 281 99 98 192 0 0 -17 281 0 280 269 279 96 241 239 0 238 -17 98 0
 283 191 101 96 269 192 0 284 +15 283 204 0 101 285 0 17 191 0 283 104 98 105 28
4 189 0 0 +17 101 0 283 98 104 99 271 187 0 266 +17 284 0 286 287 288 96 191 189
 0 281 -15 286 321 0 288 289 0 17 287 0 286 290 284 111 238 236 0 291 -17 288 0
 286 284 290 105 251 249 0 292 -17 290 0 286 288 287 114 113 178 0 251 -17 251 0
 293 294 107 114 288 249 0 235 +17 292 0 295 61 261 105 104 185 0 191 -15 295 30
7 0 261 296 0 17 61 0 295 60 292 42 107 247 0 294 -17 261 0 295 292 60 102 297 2
60 0 0 +17 104 0 283 101 191 102 292 185 0 271 +17 271 0 270 298 266 102 101 187
 0 171 -15 270 299 0 298 47 0 17 298 0 270 272 271 93 171 49 0 199 -17 171 0 299
 297 300 102 298 49 0 261 +15 299 303 0 300 301 0 17 297 0 299 300 171 57 261 26
0 0 60 -17 300 0 299 171 297 93 66 258 0 298 -17 66 0 302 64 95 57 300 258 0 297
 +15 302 311 0 66 303 0 17 64 0 302 153 66 62 59 65 0 155 -17 95 0 302 66 153 93
 92 194 0 300 -17 153 0 302 95 64 90 155 156 0 148 -17 92 0 304 89 199 90 95 194
 0 147 +15 304 224 0 89 305 0 17 89 0 304 86 92 87 147 152 0 274 +17 199 0 304 9
2 86 93 272 197 0 0 +17 86 0 304 199 89 84 274 200 0 272 +17 272 0 270 266 298 8
4 199 197 0 262 -14 255 305 96 306 ?285 307 304 36 308 -0 0 285 307 52 81 1 306
 694 309 305 310 0 0 311 312 14 285 1 311 ?136 305 283 36 313 +0 0 136 305 52 14
 307 98 314 ?305 315 58 36 316 -0 0 305 315 52 50 255 308 103 0 305 317 316 0 +0
 .001 .001 0 0 -1 -1 0 0 13 52 41 0 0 0 0 0 0 40 45 14 45 102 318 ?315 0 277 36
 319 +0 0 315 0 52 81 1 318 697 309 45 320 0 314 321 322 14 315 100 321 ?307 45
 323 36 324 +0 0 307 45 52 50 319 106 0 45 324 325 0 +-.003 .001 0 1 0 0 0 0 -1
 50 324 105 0 315 316 319 0 +0 .001 -.001 0 0 -1 -1 0 0 51 325 437 0 326 319 327
 0 +0 2e-5 -98e-5 -1 0 0 2e-5 0 0 1 14 326 342 328 ?0 329 330 36 325 +0 0 0 329
 52 53 255 327 436 0 329 325 331 0 +-.00302 2e-5 -98e-5 2e-5 1 0 0 0 0 -1 14 329
 340 332 ?326 333 334 36 327 +0 0 326 333 52 53 331 435 0 333 327 335 0 +-.00348
 2e-5 -98e-5 2e-5 -1 2541098841762895e-30 0 -2541098841762895e-30 -1 0 14 333 33
8 336 ?329 337 338 36 331 +0 0 329 337 52 51 335 434 0 337 331 339 0 +-.00302 .0
01 -98e-5 0 -1 0 2e-5 0 0 -1 14 337 336 340 ?333 341 342 36 335 +0 0 333 341 52
 51 339 433 0 341 335 343 0 +-.00302 2e-5 0 0 0 -1 2e-5 -1 0 0 14 341 334 344 ?3
37 167 345 36 339 +0 0 337 167 52 51 343 432 0 167 339 346 0 +-.00348 2e-5 0 0 0
 1 2e-5 1 0 0 14 167 332 347 ?341 348 162 36 343 +0 0 341 348 52 51 346 431 0 34
8 343 349 0 +-.00348 .001 -98e-5 0 1 0 2e-5 0 0 1 14 348 330 350 ?167 351 352 36
 346 +0 0 167 351 52 53 349 430 0 351 346 353 0 +-.00302 98e-5 -98e-5 2e-5 0 1 0
 0 0 1 14 351 328 354 ?348 355 356 36 349 +0 0 348 355 52 53 353 429 0 355 349 3
57 0 +-.00302 2e-5 98e-5 2e-5 0 2541098841762895e-30 1 0 -1 2541098841762895e-30
 14 355 326 358 ?351 161 359 36 353 +0 0 351 161 52 53 357 428 0 161 353 360 0 +
-.00348 2e-5 98e-5 2e-5 0 2541098841762895e-30 1 0 -1 2541098841762895e-30 14 16
1 324 361 ?355 362 154 36 357 +0 0 355 362 52 53 360 427 0 362 357 363 0 +-.0034
8 98e-5 -98e-5 2e-5 0 1 0 0 0 1 14 362 322 364 ?161 289 293 36 360 +0 0 161 289
 52 51 363 426 0 289 360 365 0 +0 98e-5 -98e-5 1 0 0 2e-5 0 0 -1 14 289 320 366
 ?362 282 286 36 363 +0 0 362 282 52 51 365 425 0 282 363 367 0 +-.00302 98e-5 0
 0 0 1 2e-5 1 0 0 14 282 316 368 ?289 275 280 36 365 +0 0 289 275 52 51 367 424
 0 275 365 369 0 +-.00302 .001 98e-5 0 1 0 2e-5 0 0 1 14 275 314 370 ?282 151 27
3 36 367 +0 0 282 151 52 51 369 423 0 151 367 371 0 +0 2e-5 98e-5 1 0 0 2e-5 0 0
 -1 14 151 312 372 ?275 303 142 36 369 +0 0 275 303 52 51 371 422 0 303 369 373
 0 +-.00348 .001 98e-5 0 -1 0 2e-5 0 0 -1 14 303 310 374 ?151 296 302 36 371 +0
 0 151 296 52 51 373 421 0 296 371 375 0 +-.00348 98e-5 0 0 0 -1 2e-5 -1 0 0 14
 296 306 376 ?303 267 295 36 373 +0 0 303 267 52 53 375 420 0 267 373 48 0 +-.00
302 98e-5 98e-5 2e-5 0 0 1 1 0 0 14 267 304 377 ?296 301 263 36 375 +0 0 296 301
 52 53 48 419 0 301 375 37 0 +-.00348 98e-5 98e-5 2e-5 0 1 0 0 0 1 14 301 302 37
8 ?267 47 299 36 48 +0 0 267 47 52 81 1 378 717 309 301 379 0 377 380 381 14 47
 298 380 ?301 136 270 36 37 +0 0 301 136 52 81 1 380 718 309 47 382 0 378 383 38
4 14 136 55 383 ?47 285 131 36 317 -0 0 47 285 52 81 1 383 719 309 136 385 0 380
 0 386 50 317 82 0 136 313 308 0 +0 0 0 0 1 0 0 0 1 50 313 3 0 285 0 317 0 +0 .0
01 0 0 1 0 0 0 1 80 255 1 309 387 388 9000 1 1 1 1 1 1 1 1 0 FFFFTFTFFFFFFF1 81
 1 385 618 389 136 0 383 390 382 391 82 255 1 386 1964114080 80 1 389 0 392 8001
 0 0 0 0 3 5 0 0 0 FFFFTFTFFFFFFF2 81 1 390 617 389 285 0 311 310 385 393 81 1 3
82 619 389 47 0 380 385 379 394 83 255 3 391 .768627450980392 .768627450980392 .
768627450980392 81 1 379 620 389 301 0 378 382 395 396 83 3 394 .768627450980392
 .768627450980392 .768627450980392 81 1 395 621 389 267 0 377 379 397 398 83 3 3
96 .768627450980392 .768627450980392 .768627450980392 81 1 377 716 309 267 395 0
 376 378 399 81 1 397 622 389 296 0 376 395 400 401 83 3 398 .768627450980392 .7
68627450980392 .768627450980392 81 1 376 715 309 296 397 0 374 377 402 81 1 400
 623 389 303 0 374 397 403 404 83 3 401 .768627450980392 .768627450980392 .76862
7450980392 81 1 374 714 309 303 400 0 372 376 405 81 1 403 624 389 151 0 372 400
 406 407 83 3 404 .768627450980392 .768627450980392 .768627450980392 81 1 372 71
3 309 151 403 0 370 374 408 81 1 406 625 389 275 0 370 403 409 410 83 3 407 .768
627450980392 .768627450980392 .768627450980392 81 1 370 712 309 275 406 0 368 37
2 411 81 1 409 626 389 282 0 368 406 412 413 83 3 410 .768627450980392 .76862745
0980392 .768627450980392 81 1 368 711 309 282 409 0 366 370 414 81 1 412 627 389
 289 0 366 409 415 416 83 3 413 .768627450980392 .768627450980392 .7686274509803
92 81 1 366 710 309 289 412 0 364 368 417 81 1 415 628 389 362 0 364 412 418 419
 83 3 416 .768627450980392 .768627450980392 .768627450980392 81 1 364 709 309 36
2 415 0 361 366 420 81 1 418 629 389 161 0 361 415 421 422 83 3 419 .76862745098
0392 .768627450980392 .768627450980392 81 1 361 708 309 161 418 0 358 364 423 81
 1 421 630 389 355 0 358 418 424 425 83 3 422 .768627450980392 .768627450980392
 .768627450980392 81 1 358 707 309 355 421 0 354 361 426 81 1 424 631 389 351 0
 354 421 427 428 83 3 425 .768627450980392 .768627450980392 .768627450980392 81
 1 354 706 309 351 424 0 350 358 429 81 1 427 632 389 348 0 350 424 430 431 83 3
 428 .768627450980392 .768627450980392 .768627450980392 81 1 350 705 309 348 427
 0 347 354 432 81 1 430 633 389 167 0 347 427 433 434 83 3 431 .768627450980392
 .768627450980392 .768627450980392 81 1 347 704 309 167 430 0 344 350 435 81 1 4
33 634 389 341 0 344 430 436 437 83 3 434 .768627450980392 .768627450980392 .768
627450980392 81 1 344 703 309 341 433 0 340 347 438 81 1 436 635 389 337 0 340 4
33 439 440 83 3 437 .768627450980392 .768627450980392 .768627450980392 81 1 340
 702 309 337 436 0 336 344 441 81 1 439 636 389 333 0 336 436 442 443 83 3 440 .
768627450980392 .768627450980392 .768627450980392 81 1 336 701 309 333 439 0 332
 340 444 81 1 442 637 389 329 0 332 439 445 446 83 3 443 .768627450980392 .76862
7450980392 .768627450980392 81 1 332 700 309 329 442 0 328 336 447 81 1 445 638
 389 326 0 328 442 0 448 83 3 446 .768627450980392 .768627450980392 .76862745098
0392 81 1 328 699 309 326 445 0 321 332 449 83 3 448 .768627450980392 .768627450
980392 .768627450980392 81 1 321 698 309 315 450 0 318 328 451 82 1 449 20126107
20 81 1 450 614 389 315 0 321 320 452 453 82 1 451 1965621408 81 1 320 613 389 4
5 0 318 0 450 454 81 1 452 615 389 307 0 314 450 310 455 83 3 453 .7686274509803
92 .768627450980392 .768627450980392 81 1 314 696 309 307 452 0 311 318 456 81 1
 310 616 389 305 0 306 452 390 457 83 3 455 .768627450980392 .768627450980392 .7
68627450980392 83 3 457 .768627450980392 .768627450980392 .768627450980392 81 1
 311 695 309 285 390 0 306 314 458 82 1 456 1965359264 82 1 458 1957626016 83 3
 454 .768627450980392 .768627450980392 .768627450980392 82 1 447 2014183584 82 1
 444 2015035552 82 1 441 2015887520 82 1 438 2017067168 82 1 435 2018181280 82 1
 432 2019295392 82 1 429 2020409504 82 1 426 2021195936 82 1 423 2022047904 82 1
 420 2022899872 82 1 417 2023751840 82 1 414 2024538272 82 1 411 2025652384 82 1
 408 2026766496 82 1 405 2027159712 82 1 402 2028601504 82 1 399 2029715616 83 3
 393 .768627450980392 .768627450980392 .768627450980392 79 255 15 392 SDL/TYSA_C
OLOUR79 14 388 SWEntUnchanged82 1 384 2030895264 82 1 381 2030108832 15 293 323
 0 107 362 0 17 107 0 293 251 294 105 61 247 0 288 +17 294 0 293 107 251 42 235
 164 0 459 -17 235 0 352 460 459 114 294 164 0 0 +17 459 0 352 235 461 42 53 41
 0 0 -15 352 331 0 235 348 0 17 461 0 352 459 460 67 228 226 0 163 -17 53 0 58 6
3 56 67 459 41 0 0 +15 58 265 0 56 307 0 17 63 0 58 59 53 62 163 211 0 64 +17 16
3 0 162 139 159 67 63 211 0 53 -17 460 0 352 461 235 117 116 176 0 182 -17 228 0
 338 169 71 117 461 226 0 460 +15 338 339 0 71 333 0 17 169 0 338 71 228 126 119
 217 0 462 -17 71 0 338 228 169 67 139 168 0 461 +17 119 0 330 463 462 117 169 2
17 0 228 +17 462 0 330 119 122 126 135 145 0 0 -15 330 343 0 119 326 0 17 122 0
 330 462 463 120 464 215 0 224 +17 135 0 131 125 128 120 462 145 0 0 +17 463 0 3
30 122 119 108 182 180 0 464 -17 464 0 334 221 224 108 122 215 0 0 -17 224 0 334
 464 221 120 465 222 0 140 +15 334 341 0 221 329 0 17 221 0 334 224 464 78 466 2
19 0 0 +17 465 0 345 83 140 78 224 222 0 221 -17 140 0 345 465 232 120 125 141 0
 135 -15 345 335 0 232 341 0 17 232 0 345 140 83 123 467 165 0 0 +17 83 0 345 23
2 465 81 80 202 0 467 -17 467 0 359 244 144 81 232 165 0 276 -15 359 327 0 244 3
55 0 17 244 0 359 144 467 87 276 242 0 0 +17 144 0 359 467 244 123 143 157 0 232
 +17 143 0 142 147 132 87 144 157 0 244 -17 466 0 342 468 278 108 221 219 0 463
 -15 342 337 0 231 337 0 17 468 0 342 231 466 111 110 183 0 0 -17 278 0 342 466
 231 78 77 204 0 465 -17 231 0 342 278 468 75 291 229 0 0 +17 291 0 356 238 241
 111 231 229 0 468 -15 356 329 0 238 351 0 17 238 0 356 241 291 96 287 236 0 0 +
17 241 0 356 291 238 75 281 239 0 231 +17 110 0 323 182 113 108 468 183 0 466 +1
5 323 184 0 113 315 0 17 182 0 323 116 110 117 463 180 0 0 +17 113 0 323 110 116
 111 290 178 0 287 +17 116 0 323 113 182 114 460 176 0 290 +50 316 104 0 307 308
 324 0 +-.0035 .001 0 1 0 0 0 0 -1 82 1 322 1965818016 82 1 312 1965097120 17 60
 0 295 261 61 57 56 54 0 0 -19 46 112 0 24 0 40 36 S0 74 4 CI16 index_map_offset
0 0 1 dCCZ20 44 3 0 0 383 445 33 0 0 0 0 0 0 0 0 0 0 0 0 0 0 0 0 0 80 1 43 469 4
70 8017 0 0 0 0 0 0 0 0 0 TTTTTTTTTTTTTF3 79 13 470 SDL/TYSA_NAME81 1 22 722 43
 12 0 0 0 0 0 70 23 0 4 T12 0 0 3 20 1 471 471 13 25 111 0 12 0 472 0 0 473 0 51
 26 417 0 474 475 0 0 +0 98e-5 98e-5 -1 0 0 2e-5 0 0 1 31 27 437 0 476 477 0 0 +
.00348 98e-5 98e-5 1 0 0 0 0 -1 2e-5 29 28 276 0 31 478 0 .0035 98e-5 98e-5 19 2
9 40 0 12 473 0 479 V0 16 30 278 0 ?480 0 481 482 0 0 12 18 31 274 0 483 0 484 2
8 ?12 17 483 0 485 480 486 31 487 481 0 488 +18 484 270 0 486 31 489 478 ?12 17
 486 0 485 483 490 484 491 492 0 487 +18 489 266 0 490 484 493 494 ?12 29 478 27
2 0 484 494 28 .0035 98e-5 -98e-5 29 494 268 0 489 495 478 .0035 2e-5 -98e-5 29
 495 265 0 493 496 494 .0035 2e-5 98e-5 18 493 263 0 497 489 498 495 ?12 29 496
 256 0 498 499 495 .00302 .001 98e-5 18 498 254 0 500 493 501 496 ?12 29 499 252
 0 501 502 496 .00302 .001 -98e-5 18 501 250 0 503 498 504 499 ?12 29 502 248 0
 504 505 499 .00348 .001 -98e-5 18 504 246 0 506 501 507 502 ?12 29 505 245 0 50
7 508 502 .00348 .001 98e-5 18 507 243 0 509 504 510 505 ?12 29 508 236 0 510 51
1 505 .00302 2e-5 .001 18 510 234 0 512 507 513 508 ?12 29 511 232 0 513 514 508
 .00302 98e-5 .001 18 513 230 0 515 510 516 511 ?12 29 514 228 0 516 517 511 .00
348 98e-5 .001 18 516 226 0 518 513 519 514 ?12 29 517 225 0 519 520 514 .00348
 2e-5 .001 18 519 223 0 521 516 522 517 ?12 29 520 215 0 522 523 517 .003 2e-5 -
98e-5 18 522 213 0 524 519 525 520 ?12 29 523 211 0 525 526 520 .003 2e-5 98e-5
 18 525 209 0 527 522 528 523 ?12 29 526 207 0 528 529 523 .003 98e-5 -98e-5 18
 528 205 0 530 525 531 526 ?12 29 529 204 0 531 532 526 .003 98e-5 98e-5 18 531
 202 0 533 528 534 529 ?12 29 532 195 0 534 535 529 .00302 0 -98e-5 18 534 193 0
 536 531 537 532 ?12 29 535 191 0 537 538 532 .00302 0 98e-5 18 537 189 0 539 53
4 540 535 ?12 29 538 187 0 540 541 535 .00348 0 98e-5 18 540 185 0 542 537 543 5
38 ?12 29 541 184 0 543 544 538 .00348 0 -98e-5 18 543 182 0 545 540 546 541 ?12
 29 544 175 0 546 547 541 .00302 2e-5 -.001 18 546 173 0 548 543 549 544 ?12 29
 547 171 0 549 550 544 .00302 98e-5 -.001 18 549 169 0 551 546 552 547 ?12 29 55
0 167 0 552 553 547 .00348 2e-5 -.001 18 552 165 0 554 549 555 550 ?12 29 553 16
4 0 555 0 550 .00348 98e-5 -.001 18 555 162 0 556 552 0 553 ?12 17 556 0 557 554
 551 555 558 559 0 560 +15 557 163 0 554 561 0 17 554 0 557 562 556 552 563 564
 0 565 +17 551 0 557 556 562 549 566 567 0 558 +17 558 0 568 569 560 549 556 559
 0 570 -16 559 170 0 ?556 567 564 571 0 0 12 17 560 0 568 558 572 555 573 574 0
 575 -15 568 312 0 569 576 0 17 572 0 568 560 569 504 503 577 0 578 -17 573 0 57
9 580 575 504 560 574 0 0 +16 574 368 0 ?573 581 582 583 0 0 12 17 575 0 579 573
 580 555 584 585 0 563 -15 579 324 0 573 586 0 17 580 0 579 575 573 484 578 581
 0 584 +17 584 0 587 491 563 484 575 585 0 0 +16 585 377 0 ?584 588 589 590 0 0
 12 17 563 0 587 584 565 555 554 564 0 0 -15 587 332 0 584 591 0 17 565 0 587 56
3 491 552 592 593 0 594 -16 564 166 0 ?554 559 476 595 0 0 12 16 476 347 0 ?596
 564 597 27 0 0 12 30 595 168 0 564 0 571 0 +.00348 0 -.001 0 -1 0 30 571 172 0
 559 595 598 0 -.0035 98e-5 -.001 -1 0 0 30 598 176 0 567 571 599 0 -.00302 .001
 -.001 0 -1 0 16 567 174 0 ?551 600 559 598 0 0 12 30 599 179 0 600 598 601 0 +0
 2e-5 -.001 -1 0 0 16 600 177 0 ?562 602 567 599 0 0 12 30 601 188 0 602 599 603
 0 +.00348 0 .001 0 0 1 16 602 186 0 ?542 604 600 601 0 0 12 30 603 192 0 604 60
1 605 0 +.003 0 98e-5 -1 0 0 16 604 190 0 ?539 606 602 603 0 0 12 30 605 196 0 6
06 603 607 0 -.00302 0 0 0 0 1 16 606 194 0 ?536 608 604 605 0 0 12 30 607 199 0
 608 605 609 0 -0 0 -98e-5 -1 0 0 16 608 197 0 ?610 611 606 607 0 0 12 30 609 20
8 0 611 607 612 0 -.003 98e-5 -.001 0 0 1 16 611 206 0 ?530 613 608 609 0 0 12 3
0 612 212 0 613 609 614 0 -.003 .001 98e-5 0 -1 0 16 613 210 0 ?533 615 611 612
 0 0 12 30 614 216 0 615 612 616 0 +.003 2e-5 0 0 0 1 16 615 214 0 ?527 617 613
 614 0 0 12 30 616 219 0 617 614 618 0 +.003 .001 -98e-5 0 -1 0 16 617 217 0 ?61
9 620 615 616 0 0 12 30 618 229 0 620 616 621 0 -.00348 .001 .001 0 -1 0 16 620
 227 0 ?518 622 617 618 0 0 12 30 621 233 0 622 618 623 0 +0 98e-5 .001 -1 0 0 1
6 622 231 0 ?515 624 620 621 0 0 12 30 623 237 0 624 621 625 0 -.0035 2e-5 .001
 -1 0 0 16 624 235 0 ?521 626 622 623 0 0 12 30 625 240 0 626 623 627 0 +.00302
 0 .001 0 -1 0 16 626 238 0 ?628 629 624 625 0 0 12 30 627 249 0 629 625 630 0 -
.00348 .001 0 0 0 1 16 629 247 0 ?506 577 626 627 0 0 12 30 630 253 0 577 627 63
1 0 +.003 .001 -98e-5 -1 0 0 16 577 251 0 ?503 632 629 630 0 0 12 30 631 257 0 6
32 630 633 0 +.00302 .001 .001 0 0 1 16 632 255 0 ?500 634 577 631 0 0 12 30 633
 260 0 634 631 635 0 -0 .001 98e-5 -1 0 0 16 634 258 0 ?636 637 632 633 0 0 12 3
0 635 269 0 637 633 638 0 -.0035 2e-5 -.001 0 0 1 16 637 267 0 ?490 492 634 635
 0 0 12 30 638 273 0 492 635 639 0 -.0035 .001 -98e-5 0 -1 0 16 492 271 0 ?486 4
81 637 638 0 0 12 30 639 277 0 481 638 482 0 +.0035 98e-5 0 0 0 1 16 481 275 0 ?
483 30 492 639 0 0 12 30 482 280 0 30 639 640 0 +.0035 .001 98e-5 0 -1 0 31 640
 460 0 641 482 642 0 -.00302 2e-5 -98e-5 -1 0 0 0 0 1 2e-5 16 641 392 0 ?548 643
 0 640 0 0 12 31 642 459 0 643 640 644 0 -.00348 2e-5 -98e-5 1 0 0 0 0 -1 2e-5 1
6 643 390 0 ?545 645 641 642 0 0 12 31 644 458 0 645 642 646 0 +.00302 2e-5 -98e
-5 0 0 -1 -1 0 0 2e-5 16 645 388 0 ?524 647 643 644 0 0 12 31 646 457 0 647 644
 648 0 +.00302 2e-5 -98e-5 0 -1 0 0 0 -1 2e-5 16 647 387 0 ?649 593 645 646 0 0
 12 31 648 456 0 593 646 650 0 +.00348 2e-5 -98e-5 -2541098841762895e-30 -1 0 1
 -2541098841762895e-30 0 2e-5 16 593 386 0 ?592 651 647 648 0 0 12 31 650 455 0
 651 648 652 0 +.00348 2e-5 -98e-5 0 0 -1 -1 0 0 2e-5 16 651 385 0 ?653 654 593
 650 0 0 12 31 652 454 0 654 650 655 0 -.00302 2e-5 98e-5 0 0 1 1 0 0 2e-5 16 65
4 383 0 ?656 589 651 652 0 0 12 31 655 453 0 589 652 590 0 -.00302 98e-5 -98e-5
 0 1 0 0 0 1 2e-5 16 589 380 0 ?657 585 654 655 0 0 12 31 590 452 0 585 655 658
 0 -.00348 98e-5 -98e-5 0 1 0 0 0 1 2e-5 31 658 451 0 588 590 659 0 -.00348 2e-5
 98e-5 0 0 1 1 0 0 2e-5 16 588 374 0 ?660 661 585 658 0 0 12 31 659 450 0 661 65
8 662 0 +.00302 2e-5 98e-5 -1 0 0 0 0 1 2e-5 16 661 372 0 ?512 663 588 659 0 0 1
2 31 662 449 0 663 659 664 0 +.00302 2e-5 98e-5 -2541098841762895e-30 -1 0 1 -25
41098841762895e-30 0 2e-5 16 663 371 0 ?665 666 661 662 0 0 12 31 664 448 0 666
 662 667 0 +.00302 98e-5 -98e-5 0 0 -1 -1 0 0 2e-5 16 666 370 0 ?668 582 663 664
 0 0 12 31 667 447 0 582 664 583 0 +.00302 98e-5 -98e-5 -1 0 0 0 0 1 2e-5 16 582
 369 0 ?570 574 666 667 0 0 12 31 583 446 0 574 667 669 0 +.00348 98e-5 -98e-5 1
 0 0 0 0 -1 2e-5 31 669 445 0 581 583 670 0 +.00348 98e-5 -98e-5 0 0 -1 -1 0 0 2
e-5 16 581 367 0 ?580 671 574 669 0 0 12 31 670 444 0 671 669 672 0 +.00348 2e-5
 98e-5 0 -1 0 0 0 -1 2e-5 16 671 366 0 ?673 674 581 670 0 0 12 31 672 443 0 674
 670 675 0 +.00348 2e-5 98e-5 1 0 0 0 0 -1 2e-5 16 674 365 0 ?676 677 671 672 0
 0 12 31 675 442 0 677 672 678 0 -.00302 98e-5 98e-5 0 1 0 0 0 1 2e-5 16 677 361
 0 ?679 680 674 675 0 0 12 31 678 441 0 680 675 681 0 -.00302 98e-5 98e-5 0 0 1
 1 0 0 2e-5 16 680 358 0 ?682 683 677 678 0 0 12 31 681 440 0 683 678 684 0 -.00
348 98e-5 98e-5 0 0 1 1 0 0 2e-5 16 683 353 0 ?488 685 680 681 0 0 12 31 684 439
 0 685 681 477 0 -.00348 98e-5 98e-5 0 1 0 0 0 1 2e-5 16 685 350 0 ?686 597 683
 684 0 0 12 31 477 438 0 597 684 27 0 +.00302 98e-5 98e-5 -1 0 0 0 0 1 2e-5 16 5
97 348 0 ?687 476 685 477 0 0 12 17 687 0 688 689 690 498 691 597 0 682 +15 688
 304 0 690 692 0 17 689 0 688 690 687 531 682 680 0 693 -17 690 0 688 687 689 51
3 679 677 0 694 -17 691 0 695 696 697 513 687 597 0 690 -17 682 0 698 699 693 49
8 689 680 0 0 +15 698 314 0 682 700 0 17 699 0 698 701 682 501 500 632 0 569 -17
 693 0 698 682 701 531 530 611 0 0 -17 701 0 698 693 699 528 668 666 0 702 -17 5
30 0 703 619 533 528 693 611 0 701 +15 703 203 0 530 704 0 17 619 0 703 527 530
 522 705 617 0 0 +17 533 0 703 530 527 531 706 613 0 679 +17 527 0 703 533 619 5
25 707 615 0 706 +17 706 0 708 709 679 525 533 613 0 665 -17 679 0 708 706 694 5
31 690 677 0 689 +15 708 316 0 679 710 0 17 694 0 708 679 709 513 628 626 0 0 -1
7 709 0 708 694 706 510 665 663 0 711 -17 628 0 712 521 515 510 694 626 0 0 +15
 712 224 0 515 713 0 17 521 0 712 518 628 519 711 624 0 714 +17 515 0 712 628 51
8 513 696 622 0 691 +17 518 0 712 515 521 516 714 620 0 696 +17 696 0 695 715 69
1 516 515 622 0 596 -15 695 298 0 715 474 0 17 715 0 695 697 696 507 596 476 0 6
36 -17 596 0 716 717 718 516 715 476 0 686 +15 716 302 0 718 719 0 17 717 0 716
 718 596 31 686 685 0 720 -17 718 0 716 596 717 507 488 683 0 715 -17 686 0 721
 714 720 516 717 685 0 0 +15 721 306 0 686 722 0 17 714 0 721 723 686 519 518 62
0 0 724 -17 720 0 721 686 723 31 480 30 0 0 -17 723 0 721 720 714 493 673 671 0
 480 -17 480 0 485 490 483 493 720 30 0 0 +15 485 264 0 483 472 0 17 490 0 485 4
86 480 489 497 637 0 491 +17 497 0 725 660 726 493 490 637 0 727 -17 491 0 587 5
65 584 489 486 492 0 726 -17 726 0 725 497 728 489 653 651 0 592 -15 725 330 0 6
60 729 0 17 728 0 725 726 660 543 542 602 0 610 -17 653 0 730 594 592 543 726 65
1 0 728 +17 592 0 730 653 594 489 565 593 0 0 +15 730 338 0 592 731 0 17 594 0 7
30 592 653 552 545 643 0 732 -17 545 0 733 734 732 543 594 643 0 653 +17 732 0 7
33 545 548 552 562 600 0 0 -15 733 342 0 545 735 0 17 548 0 733 732 734 546 736
 641 0 649 +17 562 0 557 551 554 546 732 600 0 0 +17 734 0 733 548 545 534 610 6
08 0 736 -17 736 0 737 524 649 534 548 641 0 0 -17 649 0 737 736 524 546 738 647
 0 566 +15 737 340 0 524 739 0 17 524 0 737 649 736 522 740 645 0 738 +17 738 0
 741 705 566 522 649 647 0 707 -17 566 0 741 738 657 546 551 567 0 562 -15 741 3
34 0 657 742 0 17 657 0 741 566 705 549 702 589 0 0 +17 705 0 741 657 738 528 61
9 617 0 0 -17 702 0 743 668 570 528 657 589 0 705 -15 743 326 0 668 744 0 17 668
 0 743 570 702 501 701 666 0 0 +17 570 0 743 702 668 549 569 582 0 657 +17 569 0
 568 572 558 501 570 582 0 668 -14 744 325 745 ?746 586 743 25 747 +0 0 746 586
 479 81 1 745 696 309 744 748 0 0 749 750 14 746 327 749 ?729 744 751 25 752 +0
 0 729 744 479 14 586 323 753 ?744 754 579 25 755 +0 0 744 754 479 53 747 428 0
 744 752 755 0 +.00302 98e-5 -98e-5 2e-5 0 1 0 0 0 1 13 479 41 0 0 0 0 0 0 29 47
2 14 472 102 756 ?561 0 485 25 757 +0 0 561 0 479 81 1 756 699 309 472 758 0 753
 759 760 14 561 100 759 ?704 472 557 25 761 -0 0 704 472 479 50 757 106 0 472 76
1 762 0 +.0035 .001 0 1 0 0 0 0 -1 50 761 105 0 561 763 757 0 +0 .001 -.001 0 0
 1 1 0 0 51 762 436 0 735 757 764 0 +0 2e-5 -98e-5 -1 0 0 2e-5 0 0 1 14 735 341
 765 ?0 739 733 25 762 +0 0 0 739 479 53 764 435 0 739 762 766 0 +.00302 2e-5 -9
8e-5 2e-5 -1 2541098841762895e-30 0 -2541098841762895e-30 -1 0 14 739 339 767 ?7
35 731 737 25 764 +0 0 735 731 479 53 766 434 0 731 764 768 0 +.00348 2e-5 -98e-
5 2e-5 1 0 0 0 0 -1 14 731 337 769 ?739 770 730 25 766 +0 0 739 770 479 51 768 4
33 0 770 766 771 0 +.00302 2e-5 0 0 0 1 2e-5 1 0 0 14 770 335 772 ?731 742 773 2
5 768 +0 0 731 742 479 51 771 432 0 742 768 774 0 +.00302 .001 -98e-5 0 -1 0 2e-
5 0 0 -1 14 742 333 775 ?770 591 741 25 771 +0 0 770 591 479 51 774 431 0 591 77
1 776 0 +.00348 .001 -98e-5 0 1 0 2e-5 0 0 1 14 591 331 777 ?742 729 587 25 774
 +0 0 742 729 479 51 776 430 0 729 774 752 0 +.00348 2e-5 0 0 0 -1 2e-5 -1 0 0 1
4 729 329 778 ?591 746 725 25 776 +0 0 591 746 479 53 752 429 0 746 776 747 0 +.
00302 2e-5 98e-5 2e-5 0 0 1 1 0 0 81 1 778 707 309 729 779 0 777 780 781 81 1 77
9 634 389 729 0 778 782 783 784 81 1 777 706 309 591 783 0 775 778 785 81 1 780
 708 309 754 786 0 778 787 788 82 1 781 2062614689 14 754 321 780 ?586 789 790 2
5 791 +0 0 586 789 479 81 1 786 630 389 754 0 780 792 793 794 81 1 787 709 309 7
89 792 0 780 795 796 82 1 788 2066219169 14 789 319 787 ?754 710 797 25 798 +0 0
 754 710 479 81 1 792 629 389 789 0 787 799 786 800 81 1 795 710 309 710 799 0 7
87 801 802 82 1 796 2067071137 14 710 315 795 ?789 700 708 25 803 +0 0 789 700 4
79 81 1 799 628 389 710 0 795 804 792 805 81 1 801 711 309 700 804 0 795 806 807
 82 1 802 2067857569 14 700 313 801 ?710 576 698 25 808 +0 0 710 576 479 81 1 80
4 627 389 700 0 801 809 799 810 81 1 806 712 309 576 809 0 801 811 812 82 1 807
 2068971681 14 576 311 806 ?700 813 568 25 814 +0 0 700 813 479 81 1 809 626 389
 576 0 806 815 804 816 81 1 811 713 309 813 815 0 806 817 818 82 1 812 207008579
3 14 813 309 811 ?576 722 819 25 820 +0 0 576 722 479 81 1 815 625 389 813 0 811
 821 809 822 81 1 817 714 309 722 821 0 811 823 824 82 1 818 2070479009 14 722 3
05 817 ?813 692 721 25 825 +0 0 813 692 479 81 1 821 624 389 722 0 817 826 815 8
27 81 1 823 715 309 692 826 0 817 828 829 82 1 824 2071920801 14 692 303 823 ?72
2 719 688 25 830 +0 0 722 719 479 81 1 826 623 389 692 0 823 831 821 832 81 1 82
8 716 309 719 831 0 823 833 834 82 1 829 2073034913 14 719 301 828 ?692 474 716
 25 475 +0 0 692 474 479 81 1 831 622 389 719 0 828 835 826 836 81 1 833 717 309
 474 835 0 828 837 838 82 1 834 2073428129 14 474 297 833 ?719 839 695 25 26 +0
 0 719 839 479 81 1 835 621 389 474 0 833 840 831 841 81 1 837 718 309 839 840 0
 833 842 843 82 1 838 2074214561 14 839 55 837 ?474 844 845 25 846 -0 0 474 844
 479 81 1 840 620 389 839 0 837 847 835 848 81 1 842 719 309 844 847 0 837 849 8
50 82 1 843 1977155745 14 844 1 842 ?839 713 851 25 852 +0 0 839 713 479 81 1 84
7 619 389 844 0 842 853 840 854 81 1 849 720 309 713 853 0 842 855 856 82 1 850
 1970667681 14 713 96 849 ?844 704 712 25 857 +0 0 844 704 479 81 1 853 618 389
 713 0 849 858 847 859 81 1 855 721 309 704 858 0 849 0 860 82 1 856 1978138785
 14 704 98 855 ?713 561 703 25 763 -0 0 713 561 479 81 1 858 617 389 704 0 855 8
61 853 862 82 1 860 1978269857 81 1 861 616 389 561 0 759 758 858 863 83 3 862 .
768627450980392 .768627450980392 .768627450980392 81 1 759 700 309 561 861 0 756
 765 864 81 1 758 615 389 472 0 756 0 861 865 83 3 863 .768627450980392 .7686274
50980392 .768627450980392 83 3 865 .768627450980392 .768627450980392 .7686274509
80392 81 1 765 701 309 735 866 0 759 767 867 82 1 864 1978597537 81 1 866 640 38
9 735 0 765 868 0 869 81 1 767 702 309 739 868 0 765 769 870 82 1 867 2055930017
 81 1 868 639 389 739 0 767 871 866 872 81 1 769 703 309 731 871 0 767 772 873 8
2 1 870 2057502881 81 1 871 638 389 731 0 769 874 868 875 81 1 772 704 309 770 8
74 0 769 775 876 82 1 873 2058354849 81 1 874 637 389 770 0 772 877 871 878 81 1
 775 705 309 742 877 0 772 777 879 82 1 876 2059206817 81 1 877 636 389 742 0 77
5 783 874 880 82 1 879 2060386465 81 1 783 635 389 591 0 777 779 877 881 83 3 88
0 .768627450980392 .768627450980392 .768627450980392 83 3 881 .768627450980392 .
768627450980392 .768627450980392 83 3 878 .768627450980392 .768627450980392 .768
627450980392 83 3 875 .768627450980392 .768627450980392 .768627450980392 83 3 87
2 .768627450980392 .768627450980392 .768627450980392 83 3 869 .768627450980392 .
768627450980392 .768627450980392 50 763 104 0 704 857 761 0 +.003 .001 0 1 0 0 0
 0 -1 50 857 103 0 713 846 763 0 +0 .001 .001 0 0 1 1 0 0 50 846 82 0 839 852 85
7 0 +0 0 0 0 1 0 0 0 1 50 852 3 0 844 0 846 0 +0 .001 0 0 1 0 0 0 1 83 3 859 .76
8627450980392 .768627450980392 .768627450980392 83 3 854 .768627450980392 .76862
7450980392 .768627450980392 15 851 244 0 500 844 0 17 500 0 851 636 503 498 699
 632 0 697 +17 636 0 851 506 500 507 697 634 0 0 +17 503 0 851 500 506 501 572 5
77 0 699 +17 697 0 695 691 715 498 636 634 0 687 -17 506 0 851 503 636 504 509 6
29 0 572 +17 509 0 819 488 578 507 506 629 0 718 -15 819 310 0 488 813 0 17 488
 0 819 487 509 31 718 683 0 717 +17 578 0 819 509 487 504 580 581 0 573 -17 487
 0 819 578 488 484 483 481 0 580 -83 3 848 .768627450980392 .768627450980392 .76
8627450980392 15 845 183 0 536 839 0 17 536 0 845 610 539 534 882 606 0 740 +17
 610 0 845 542 536 543 734 608 0 0 +17 539 0 845 536 542 537 883 604 0 884 +17 8
82 0 773 656 740 537 536 606 0 0 -17 740 0 773 882 707 534 524 645 0 734 -15 773
 336 0 656 770 0 17 707 0 773 740 656 522 527 615 0 619 -17 656 0 773 707 882 52
5 885 654 0 0 +17 885 0 751 512 665 537 656 654 0 882 -15 751 328 0 512 746 0 17
 512 0 751 665 885 510 884 661 0 709 +17 665 0 751 885 512 525 709 663 0 656 +17
 884 0 797 883 711 537 512 661 0 885 -15 797 320 0 724 789 0 17 883 0 797 724 88
4 540 539 604 0 676 -17 711 0 797 884 724 510 521 624 0 628 -17 724 0 797 711 88
3 519 676 674 0 673 -17 676 0 790 727 673 540 724 674 0 660 +17 673 0 790 676 72
7 519 723 671 0 0 +15 790 322 0 673 754 0 17 727 0 790 673 676 493 660 588 0 723
 -17 660 0 725 728 497 540 727 588 0 0 +17 542 0 845 539 610 540 728 602 0 883 +
83 3 841 .768627450980392 .768627450980392 .768627450980392 83 3 836 .7686274509
80392 .768627450980392 .768627450980392 53 475 418 0 719 830 26 0 +.00348 98e-5
 98e-5 2e-5 0 0 1 1 0 0 53 830 419 0 692 825 475 0 +.00302 98e-5 98e-5 2e-5 0 1
 0 0 0 1 51 825 420 0 722 820 830 0 +.00348 .001 98e-5 0 -1 0 2e-5 0 0 -1 51 820
 421 0 813 814 825 0 +.00348 98e-5 0 0 0 1 2e-5 1 0 0 51 814 422 0 576 808 820 0
 +0 98e-5 -98e-5 1 0 0 2e-5 0 0 -1 51 808 423 0 700 803 814 0 +.00302 98e-5 0 0
 0 -1 2e-5 -1 0 0 51 803 424 0 710 798 808 0 +.00302 .001 98e-5 0 1 0 2e-5 0 0 1
 51 798 425 0 789 791 803 0 +0 2e-5 98e-5 1 0 0 2e-5 0 0 -1 53 791 426 0 754 755
 798 0 +.00348 2e-5 98e-5 2e-5 0 0 1 1 0 0 53 755 427 0 586 747 791 0 +.00348 98
e-5 -98e-5 2e-5 0 1 0 0 0 1 83 3 832 .768627450980392 .768627450980392 .76862745
0980392 83 3 827 .768627450980392 .768627450980392 .768627450980392 83 3 822 .76
8627450980392 .768627450980392 .768627450980392 83 3 816 .768627450980392 .76862
7450980392 .768627450980392 83 3 810 .768627450980392 .768627450980392 .76862745
0980392 83 3 805 .768627450980392 .768627450980392 .768627450980392 83 3 800 .76
8627450980392 .768627450980392 .768627450980392 81 1 793 631 389 586 0 753 786 7
48 886 83 3 794 .768627450980392 .768627450980392 .768627450980392 81 1 753 698
 309 586 793 0 749 756 887 81 1 748 632 389 744 0 745 793 782 888 83 3 886 .7686
27450980392 .768627450980392 .768627450980392 81 1 782 633 389 746 0 749 748 779
 889 83 3 888 .768627450980392 .768627450980392 .768627450980392 81 1 749 697 30
9 746 782 0 745 753 890 83 3 889 .768627450980392 .768627450980392 .768627450980
392 82 1 890 2063728801 82 1 887 2065367201 82 1 785 2061500577 83 3 784 .768627
450980392 .768627450980392 .768627450980392 82 1 760 1978859681 82 1 750 2064515
233 19 473 112 0 12 0 29 25 S0 74 20 471 3 0 0 855 866 22 0 0 0 0 0 0 0 0 0 0 0
 0 0 0 0 0 0 81 1 10 597 43 7 0 0 0 0 0 70 11 0 4 T7 0 0 3 20 1 891 891 13 13 11
5 0 7 0 892 0 0 893 0 51 14 484 0 894 895 0 0 +0 925e-6 9e-4 -1 0 0 5e-5 0 0 1 3
0 15 382 0 18 896 0 0 +0 75e-6 95e-5 1 0 0 29 16 333 0 19 897 0 -.003 975e-6 9e-
4 19 17 42 0 7 893 0 898 V0 16 18 380 0 ?899 0 900 15 0 0 7 18 19 331 0 901 0 90
2 16 ?7 17 901 0 903 904 905 19 906 907 0 908 +18 902 328 0 909 19 910 897 ?7 17
 909 0 911 908 912 902 913 914 0 904 +18 910 325 0 915 902 916 917 ?7 29 897 330
 0 902 917 16 -.003 975e-6 -9e-4 29 917 327 0 910 918 897 -.003 75e-6 95e-5 29 9
18 324 0 916 919 917 -.003 925e-6 95e-5 18 916 322 0 920 910 921 918 ?7 29 919 3
09 0 921 922 918 -.003 75e-6 -95e-5 18 921 307 0 923 916 924 919 ?7 29 922 306 0
 924 925 919 -.003 925e-6 -95e-5 18 924 304 0 926 921 927 922 ?7 29 925 275 0 92
7 928 922 .003 75e-6 95e-5 18 927 273 0 929 924 930 925 ?7 29 928 272 0 930 931
 925 .003 925e-6 95e-5 18 930 270 0 932 927 933 928 ?7 29 931 269 0 933 934 928
 .003 975e-6 9e-4 18 933 267 0 935 930 936 931 ?7 29 934 266 0 936 937 931 .003
 975e-6 -9e-4 18 936 264 0 938 933 939 934 ?7 29 937 263 0 939 940 934 .003 75e-
6 -95e-5 18 939 261 0 941 936 942 937 ?7 29 940 260 0 942 943 937 .003 925e-6 -9
5e-5 18 942 258 0 944 939 945 940 ?7 29 943 245 0 945 946 940 -.003 25e-6 9e-4 1
8 945 243 0 947 942 948 943 ?7 29 946 242 0 948 949 943 -.003 25e-6 -9e-4 18 948
 240 0 950 945 951 946 ?7 29 949 239 0 951 952 946 .003 25e-6 9e-4 18 951 237 0
 953 948 954 949 ?7 29 952 236 0 954 955 949 .003 25e-6 -9e-4 18 954 234 0 956 9
51 957 952 ?7 29 955 185 0 957 958 952 -.001416427761533584 975e-6 -.00028584072
5765893 18 957 183 0 959 954 960 955 ?7 29 958 181 0 960 961 955 -.0021918117992
4337 975e-6 -.000285840725765893 18 960 179 0 962 957 963 958 ?7 29 961 177 0 96
3 964 958 -.00219181179924337 975e-6 .000285840725765893 18 963 175 0 965 960 96
6 961 ?7 29 964 174 0 966 0 961 -.001416427761533584 975e-6 .000285840725765893
 18 966 172 0 967 963 0 964 ?7 17 967 0 968 969 970 966 959 971 0 972 +15 968 17
3 0 970 892 0 17 969 0 968 973 967 963 972 974 0 0 +17 970 0 968 967 973 957 962
 975 0 0 +17 959 0 976 962 972 957 967 971 0 970 -16 971 187 0 ?967 977 975 978
 0 0 7 17 972 0 976 959 965 966 969 974 0 0 -15 976 188 0 959 979 0 17 965 0 976
 972 962 963 973 980 0 969 -16 974 176 0 ?969 980 981 982 0 0 7 16 980 180 0 ?97
3 975 974 983 0 0 7 16 981 259 0 ?984 974 985 986 0 0 7 30 982 178 0 974 986 983
 0 +0 975e-6 .000285840725765893 -1 0 0 30 986 114 0 981 987 982 0 +.003 975e-6
 -95e-5 0 -1 0 30 983 182 0 980 982 988 0 +-.00219181179924337 975e-6 0 0 0 -1 3
0 988 186 0 975 983 978 0 +0 975e-6 -.000285840725765893 1 0 0 16 975 184 0 ?970
 971 980 988 0 0 7 30 978 189 0 971 988 989 0 +-.001416427761533584 975e-6 0 0 0
 1 30 989 248 0 977 978 990 0 -0 25e-6 9e-4 1 0 0 16 977 246 0 ?947 991 971 989
 0 0 7 30 990 254 0 991 989 992 0 +.003 25e-6 -9e-4 1 0 0 16 991 252 0 ?993 994
 977 990 0 0 7 31 992 278 0 994 990 995 0 +.003 925e-6 9e-4 1 0 0 0 0 -1 5e-5 16
 994 276 0 ?932 996 991 992 0 0 7 31 995 285 0 996 992 997 0 +.003 75e-6 9e-4 1
 0 0 0 0 -1 5e-5 16 996 283 0 ?953 998 994 995 0 0 7 31 997 292 0 998 995 999 0
 +.003 925e-6 -9e-4 1 0 0 0 0 -1 5e-5 16 998 290 0 ?938 1000 996 997 0 0 7 31 99
9 299 0 1000 997 1001 0 +.003 75e-6 -9e-4 1 0 0 0 0 -1 5e-5 16 1000 297 0 ?941 1
002 998 999 0 0 7 30 1001 312 0 1002 999 1003 0 +0 925e-6 -95e-5 1 0 0 16 1002 3
10 0 ?1004 1005 1000 1001 0 0 7 30 1003 318 0 1005 1001 1006 0 --.003 75e-6 -95e
-5 1 0 0 16 1005 316 0 ?923 907 1002 1003 0 0 7 31 1006 336 0 907 1003 1007 0 --
.003 925e-6 9e-4 1 0 0 0 0 -1 5e-5 16 907 334 0 ?901 1008 1005 1006 0 0 7 31 100
7 343 0 1008 1006 1009 0 --.003 75e-6 9e-4 1 0 0 0 0 -1 5e-5 16 1008 341 0 ?915
 1010 907 1007 0 0 7 31 1009 350 0 1010 1007 1011 0 --.003 925e-6 -9e-4 1 0 0 0
 0 -1 5e-5 16 1010 348 0 ?926 1012 1008 1009 0 0 7 31 1011 357 0 1012 1009 1013
 0 --.003 75e-6 -9e-4 1 0 0 0 0 -1 5e-5 16 1012 355 0 ?950 1014 1010 1011 0 0 7
 30 1013 364 0 1014 1011 1015 0 +.003 975e-6 9e-4 1 0 0 16 1014 362 0 ?1016 914
 1012 1013 0 0 7 30 1015 370 0 914 1013 896 0 -0 975e-6 -9e-4 1 0 0 16 914 368 0
 ?909 900 1014 1015 0 0 7 30 896 376 0 900 1015 15 0 --.003 925e-6 95e-5 1 0 0 1
6 900 374 0 ?920 18 914 896 0 0 7 17 920 0 1017 1018 1019 916 1020 900 0 905 +15
 1017 99 0 1018 1021 0 17 1018 0 1017 899 920 910 905 1022 0 1023 +17 1019 0 101
7 920 899 930 1024 1025 0 1020 -17 1020 0 1026 935 906 930 920 900 0 0 -17 905 0
 903 901 915 916 1018 1022 0 906 -15 903 101 0 1027 1028 0 17 915 0 903 905 1029
 910 1030 1008 0 1018 +16 1022 323 0 ?1018 985 1025 1031 0 0 7 17 906 0 1026 102
0 1032 916 901 907 0 0 -15 1026 473 0 906 894 0 17 1032 0 1026 906 935 19 1016 1
014 0 0 -17 935 0 1026 1032 1020 933 932 994 0 1016 -17 1016 0 911 912 908 933 1
032 1014 0 1033 +15 911 5 0 912 892 968 17 912 0 911 909 1016 936 1033 1034 0 91
3 -17 908 0 911 1016 909 19 904 1035 0 1032 +17 1033 0 1036 932 938 933 912 1034
 0 0 +15 1036 105 0 1037 1038 0 17 932 0 1036 1024 1033 930 935 994 0 1019 +17 9
38 0 1036 1033 1039 936 944 998 0 912 +16 1034 265 0 ?1033 1035 1040 1041 0 0 7
 16 1035 329 0 ?908 1025 1034 1042 0 0 7 16 1040 241 0 ?1029 1034 1043 1044 0 0
 7 30 1041 8 0 1034 0 1042 0 +.003 975e-6 0 0 0 1 30 1042 19 0 1035 1041 1045 0
 +-.003 975e-6 0 0 0 1 30 1045 90 0 1043 1042 1044 0 +.003 25e-6 0 0 0 1 16 1043
 235 0 ?1046 1040 0 1045 0 0 7 30 1044 88 0 1040 1045 1047 0 +-.003 25e-6 0 0 0
 1 30 1047 111 0 1025 1044 1031 0 +.003 975e-6 95e-5 0 -1 0 16 1025 271 0 ?1024
 1022 1035 1047 0 0 7 30 1031 112 0 1022 1047 987 0 +-.003 975e-6 95e-5 0 -1 0 3
0 987 113 0 985 1031 986 0 +-.003 975e-6 -95e-5 0 -1 0 16 985 305 0 ?1027 981 10
22 987 0 0 7 17 1027 0 903 950 926 921 1048 985 0 1049 +17 950 0 903 1029 1027 9
48 1049 1012 0 1050 +17 926 0 903 1027 904 924 1051 1010 0 1048 +17 1048 0 1052
 1004 923 924 1027 985 0 1053 -17 1049 0 1054 1055 1056 921 950 1012 0 0 -15 105
4 410 0 1049 1057 0 17 1055 0 1054 956 1049 939 923 1005 0 0 -17 1056 0 1054 104
9 956 948 993 991 0 0 -17 956 0 1054 1056 1055 954 941 1000 0 993 -17 993 0 1058
 1046 1050 954 1056 991 0 1037 +15 1058 59 0 1050 1059 0 17 1046 0 1058 947 993
 951 1037 1043 0 1060 +17 1050 0 1058 993 947 948 1029 1040 0 1056 -17 1037 0 10
36 941 953 954 1046 1043 0 0 -17 941 0 1036 1039 1037 939 956 1000 0 984 +17 953
 0 1036 1037 1024 951 929 996 0 1046 +17 1024 0 1036 953 932 927 1019 1025 0 0 +
17 929 0 1061 1023 1060 927 953 996 0 899 -15 1061 452 0 1030 1062 0 17 1023 0 1
061 1030 929 910 899 18 0 0 -17 1060 0 1061 929 1030 951 947 977 0 0 -17 899 0 1
017 1019 1018 927 1023 18 0 1024 +17 1030 0 1061 1060 1023 945 915 1008 0 0 -17
 947 0 1058 1050 1046 945 1060 977 0 1029 +17 1029 0 903 915 950 945 1050 1040 0
 1030 +14 1062 451 1063 ?894 1064 1061 13 895 +0 0 894 1064 898 81 1 1063 586 30
9 1062 1065 0 0 1066 1067 14 894 472 1066 ?0 1062 1026 13 14 +0 0 0 1062 898 14
 1064 430 1068 ?1062 1057 1069 13 1070 +0 0 1062 1057 898 51 895 463 0 1062 1070
 14 0 +0 75e-6 9e-4 1 0 0 5e-5 0 0 -1 13 898 43 0 0 0 0 0 0 17 892 14 892 190 10
71 ?1038 0 911 13 1072 +979 979 1038 0 898 81 1 1071 589 309 892 1073 0 1068 107
4 1075 14 1038 106 1074 ?1076 892 1036 13 1077 +0 0 1076 892 898 50 1072 3 0 979
 0 1078 0 +0 975e-6 0 0 1 0 0 0 1 14 979 1 1079 ?1059 1021 976 13 1072 +892 892
 1059 1021 898 81 1 1079 591 309 979 1080 0 1074 1081 1082 14 1059 57 1081 ?1057
 979 1058 13 1078 -0 0 1057 979 898 14 1021 100 1083 ?979 1028 1017 13 1084 -0 0
 979 1028 898 81 1 1083 593 309 1021 1085 0 1081 1086 1087 14 1028 102 1086 ?102
1 1076 903 13 1088 -0 0 1021 1076 898 50 1084 107 0 1021 1078 1088 0 +0 975e-6 9
5e-5 0 0 -1 -1 0 0 50 1078 86 0 1059 1072 1084 0 +0 25e-6 0 0 1 0 0 0 1 50 1088
 108 0 1028 1084 1089 0 +-.003 975e-6 0 1 0 0 0 0 -1 50 1089 109 0 1076 1088 107
7 0 +0 975e-6 -95e-5 0 0 -1 -1 0 0 14 1076 104 1090 ?1028 1038 1052 13 1089 +0 0
 1028 1038 898 50 1077 110 0 1038 1089 1091 0 +.003 975e-6 0 1 0 0 0 0 -1 51 109
1 421 0 1057 1077 1070 0 +0 75e-6 -9e-4 -1 0 0 5e-5 0 0 1 14 1057 409 1092 ?1064
 1059 1054 13 1091 +0 0 1064 1059 898 51 1070 442 0 1064 1091 895 0 +0 925e-6 -9
e-4 1 0 0 5e-5 0 0 -1 81 1 1092 596 309 1057 1093 0 1090 0 1094 81 1 1093 551 38
9 1057 0 1092 1095 1096 1097 81 1 1090 595 309 1076 1098 0 1086 1092 1099 82 1 1
094 -810483537 81 1 1098 546 389 1076 0 1090 1100 1101 1102 81 1 1086 594 309 10
28 1101 0 1083 1090 1103 82 1 1099 1488453807 81 1 1101 547 389 1028 0 1086 1098
 1085 1104 82 1 1103 1488584879 81 1 1085 548 389 1021 0 1083 1101 1080 1105 83
 3 1104 1 1 1 81 1 1080 549 389 979 0 1079 1085 1095 1106 83 3 1105 1 1 1 81 1 1
095 550 389 1059 0 1081 1080 1093 1107 83 3 1106 .2980392156862745 .298039215686
2745 .2980392156862745 81 1 1081 592 309 1059 1095 0 1079 1083 1108 83 3 1107 1
 1 1 82 1 1108 1487929519 81 1 1100 545 389 1038 0 1074 1073 1098 1109 83 3 1102
 1 1 1 81 1 1074 590 309 1038 1100 0 1071 1079 1110 81 1 1073 544 389 892 0 1071
 0 1100 1111 83 3 1109 1 1 1 83 3 1111 1 1 1 82 1 1110 1488322735 81 1 1096 552
 389 1064 0 1068 1093 1065 1112 83 3 1097 1 1 1 81 1 1068 588 309 1064 1096 0 10
66 1071 1113 81 1 1065 553 389 1062 0 1063 1096 1114 1115 83 3 1112 1 1 1 81 1 1
114 554 389 894 0 1066 1065 0 1116 83 3 1115 1 1 1 81 1 1066 587 309 894 1114 0
 1063 1068 1117 83 3 1116 1 1 1 82 1 1117 -804585297 82 1 1113 -808517457 15 105
2 103 0 984 1076 0 17 984 0 1052 923 1004 939 1039 981 0 1055 +17 923 0 1052 104
8 984 921 1055 1005 0 1027 +17 1004 0 1052 984 1048 942 1053 1002 0 1039 +17 103
9 0 1036 938 941 942 984 981 0 0 -17 1053 0 1069 1051 944 924 1004 1002 0 0 -15
 1069 431 0 1051 1064 0 17 1051 0 1069 913 1053 902 926 1010 0 0 -17 944 0 1069
 1053 913 942 938 998 0 1004 -17 913 0 1069 944 1051 936 909 914 0 0 -82 1 1087
 1487995055 82 1 1082 1994588328 82 1 1075 1488126127 82 1 1067 -806551377 17 90
4 0 903 926 901 902 908 1035 0 1051 -17 973 0 968 970 969 960 965 980 0 0 +17 96
2 0 976 965 959 960 970 975 0 973 -19 893 116 0 7 0 17 13 S0 74 20 891 3 0 0 109
2 1114 10 0 0 0 0 0 0 0 0 0 0 0 0 0 0 0 0 0 74 20 6 1 0 0 2 0 0 0 0 0 0 0 0 0 0
 0 0 0 0 0 0 0 0 0 80 2 5 1118 1119 9000 0 0 0 0 3 5 0 0 0 TFFFFFFFFFFFFF9 1 79
 18 1119 MULTI_BODY_ID_20011 0 
