**ABCDEFGHIJKLMNOPQRSTUVWXYZabcdefghijklmnopqrstuvwxyz**************************
**PARASOLID !"#$%&'()*+,-./:;<=>?@[\]^_`{|}~0123456789**************************
**PART1;
MC=AMD64;
MC_MODEL=Intel64 Family 6 Model 60 Stepping 3, GenuineIntel;
MC_ID=unknown;
OS=Windows_NT;
OS_RELEASE=unknown;
FRU=Parasolid Version 33.1, build 247,  8- 6-2021;
APPL=SOLIDWORKS 2022-2021255;
SITE=;
USER=unknown;
FORMAT=text;
GUISE=transmit;
KEY=FILE84593 VEML6040.x_t;
DATE=Fri Jun  9 23:57:45 2023;
**PART2;
SCH=SCH_3301247_33103;
USFLD_SIZE=0;
**PART3;
**END_OF_HEADER*****************************************************************
T51 : TRANSMIT FILE created by modeller version 330124723 SCH_3301247_33103_1300
6230 0 10 21 CCCCI7 lattice222 0 CCCI4 mesh1006 0 I8 polyline1008 0 CCCCCCCCCCA1
6 mesh_offset_data206 0 Z1 5 2 3 0 0 0 0 0 0 0 0 1e3 1e-8 0 0 0 1 0 1 4 0 81 255
 2 2 5 5 1 0 0 0 0 0 0 70 11 CI9 list_type0 0 1 uI10 notransmit0 0 1 lCCCDCCDI12
 finger_index0 0 1 dI12 finger_block1012 0 CZ3 0 4 T1 0 0 1 20 1 6 6 11 255 4 3
 0 1 7 8 1 9 0 0 0 12 35 CCCI7 lattice222 0 CCCI4 mesh1006 0 I8 polyline1008 0 C
CCCCCCDI5 owner1040 0 CCCCCCI13 boundary_mesh1006 0 I17 boundary_polyline1008 0
 CCCA16 index_map_offset0 0 1 dA9 index_map82 0 A17 node_id_index_map82 0 A20 sc
hema_embedding_map82 0 A5 child12 0 A14 lowest_node_id0 0 1 dA16 mesh_offset_dat
a206 0 Z7 200 10 11 0 0 0 0 0 0 0 1e3 1e-8 4 12 0 1 0 1 1 13 14 15 16 0 0 17 18
 19 0 0 0 0 0 0 0 100 10 CCCCCCCCCA9 precision229 0 Z8 4 4 0 0 1 0 0 0 1 0 0 0 1
 0 0 0 1 0 ?0 11 9 1 0 1 12 20 1 0 4 0 0 12 12 1373 21 22 0 0 0 0 0 0 0 1e3 1e-8
 9 23 7 1 0 1 1 24 25 26 27 0 0 28 29 30 0 0 0 0 0 0 0 100 20 2 9 0 0 1 0 0 0 1
 0 0 0 1 0 0 0 1 0 ?0 81 1 21 1373 31 12 32 0 0 0 0 70 22 0 4 T12 0 0 6 20 1 33
 33 13 255 24 148 0 12 0 34 0 0 35 0 50 255 25 170 0 36 37 0 0 +.001 0 5e-4 1 0
 0 0 1 0 30 255 26 270 0 38 39 0 0 +-.001 525e-6 1e-4 0 0 -1 29 255 27 1032 0 30
 40 0 .001 -625e-6 .000565940628466662 19 8 CCCCCCCA5 owner12 0 Z28 1 0 12 35 0
 41 V0 16 255 29 141 42 ?43 0 44 45 0 0 12 18 255 30 1028 0 46 0 47 27 ?12 17 25
5 46 0 48 49 50 30 51 52 0 53 +18 47 123 54 55 30 56 57 ?12 81 1 54 412 58 47 0
 0 59 60 61 17 55 0 62 63 64 47 65 66 0 67 +18 56 121 68 69 47 70 71 ?12 29 57 2
08 0 47 72 73 .001 625e-6 0 29 72 207 0 74 75 57 .001 525e-6 -1e-6 29 73 209 0 7
6 57 40 -55e-5 525e-6 0 18 76 61 60 77 78 79 73 ?12 29 40 210 0 80 73 27 .001 -1
75e-6 -1e-6 18 80 106 81 82 83 84 40 ?12 81 1 81 414 58 80 0 0 60 32 85 17 82 0
 86 87 88 80 89 90 0 91 -18 83 115 92 93 70 80 94 ?12 18 84 104 95 96 80 97 98 ?
12 81 1 95 391 58 84 0 0 99 68 100 17 96 0 101 102 103 84 104 105 0 87 -18 97 99
 99 106 84 107 108 ?12 29 98 187 0 84 108 71 .001 -175e-6 0 29 108 186 0 97 109
 98 45e-5 -175e-6 -1e-6 29 71 188 0 56 98 110 -.001 625e-6 0 29 110 189 0 111 71
 112 -.001 -525e-6 -1e-6 18 111 25 113 114 115 116 110 ?12 29 112 190 0 117 110
 118 55e-5 525e-6 0 18 117 43 119 120 121 122 112 ?12 29 118 191 0 70 112 123 -.
001 -625e-6 0 18 70 117 124 125 56 83 118 ?12 29 123 192 0 126 118 127 -55e-5 17
5e-6 0 18 126 70 128 129 130 131 123 ?12 29 127 193 0 132 123 133 -.001 175e-6 0
 18 132 77 134 135 136 130 127 ?12 29 133 194 0 137 127 138 45e-5 -525e-6 -1e-6
 18 137 90 139 140 141 142 133 ?12 29 138 195 0 143 133 144 -.001 -175e-6 0 18 1
43 6 145 146 147 148 138 ?12 29 144 196 0 121 138 149 55e-5 525e-6 -1e-6 18 121
 45 150 151 152 117 144 ?12 29 149 197 0 130 144 153 -55e-5 175e-6 -1e-6 18 130
 72 154 155 132 126 149 ?12 29 153 199 0 141 149 156 .001 -525e-6 -1e-6 18 141 9
2 157 89 107 137 153 ?12 29 156 200 0 158 153 159 -.001 -175e-6 -1e-6 18 158 11
 160 161 162 163 156 ?12 29 159 201 0 79 156 164 -.001 525e-6 0 18 79 60 165 166
 76 74 159 ?12 29 164 202 0 136 159 167 -.001 175e-6 -1e-6 18 136 79 168 169 170
 132 164 ?12 29 167 203 0 170 164 75 .001 -525e-6 0 18 170 87 171 172 142 136 16
7 ?12 29 75 204 0 131 167 72 -.001 525e-6 -1e-6 18 131 65 173 174 126 78 75 ?12
 81 1 173 408 58 131 0 0 171 59 175 17 174 0 176 177 178 131 169 179 0 180 +18 7
8 63 181 182 131 76 183 ?12 81 1 181 375 58 78 0 0 184 185 186 17 182 0 187 188
 189 78 190 191 0 177 -29 183 171 0 78 192 193 -55e-5 525e-6 -1e-6 29 192 1153 0
 194 195 183 -.001 -625e-6 .000565940628466662 29 193 173 0 196 183 197 -55e-5 -
525e-6 -1e-6 18 196 18 185 198 116 162 193 ?12 29 197 174 0 142 193 199 45e-5 -5
25e-6 0 18 142 88 200 201 137 170 197 ?12 29 199 175 0 115 197 202 .001 175e-6 0
 18 115 33 203 104 204 111 199 ?12 29 202 176 0 204 199 205 55e-5 175e-6 0 18 20
4 34 206 207 208 115 202 ?12 29 205 177 0 152 202 94 .001 525e-6 0 18 152 50 209
 210 74 121 205 ?12 29 94 178 0 83 205 211 .001 -625e-6 0 29 211 179 0 147 94 21
2 -55e-5 -175e-6 0 18 147 7 213 214 163 143 211 ?12 29 212 180 0 163 211 215 -55
e-5 -175e-6 -1e-6 18 163 9 216 217 158 147 212 ?12 29 215 181 0 107 212 218 45e-
5 -175e-6 0 18 107 97 219 102 97 141 215 ?12 29 218 182 0 116 215 220 -.001 -525
e-6 0 18 116 23 221 222 111 196 218 ?12 29 220 183 0 162 218 223 -55e-5 -525e-6
 0 18 162 16 224 225 196 158 220 ?12 29 223 184 0 208 220 109 55e-5 175e-6 -1e-6
 18 208 36 226 227 122 204 223 ?12 29 109 185 0 122 223 108 .001 175e-6 -1e-6 18
 122 38 228 229 117 208 109 ?12 81 1 228 389 58 122 0 0 226 99 230 17 229 0 231
 232 233 122 234 235 0 236 +15 255 231 55 0 229 237 0 17 232 0 231 238 229 208 2
39 240 0 241 +17 233 0 231 229 238 74 151 242 0 243 +17 234 0 86 244 236 74 229
 235 0 233 -16 235 56 245 ?229 246 242 247 0 0 12 17 236 0 86 234 104 122 248 24
9 0 239 +15 86 1034 0 53 36 0 17 104 0 86 236 87 115 96 105 0 248 +17 248 0 250
 251 239 115 236 249 0 103 -16 249 39 252 ?236 253 240 254 0 0 12 17 239 0 250 2
48 241 122 232 240 0 0 -15 250 31 0 251 255 0 17 241 0 250 239 251 208 256 257 0
 0 +16 240 37 258 ?232 249 257 259 0 0 12 81 1 258 303 58 240 0 0 260 245 261 16
 257 35 262 ?241 240 263 264 0 0 12 30 259 243 0 240 265 247 0 +.001 175e-6 -1e-
6 -1 0 0 30 265 242 0 266 267 259 0 +.001 -525e-6 -1e-6 -1 0 0 30 247 244 0 235
 259 268 0 +.001 525e-6 -1e-6 0 -1 0 30 268 247 0 269 247 270 0 +-.001 175e-6 0
 0 -1 0 16 269 119 271 ?146 272 273 268 0 0 12 30 270 248 0 274 268 275 0 +45e-5
 -175e-6 1e-4 0 0 -1 16 274 98 276 ?277 278 279 270 0 0 12 30 275 249 0 90 270 2
80 0 +.001 -175e-6 -1e-6 0 -1 0 16 90 110 281 ?89 105 282 275 0 0 12 30 280 250
 0 105 275 283 0 +.001 -175e-6 0 0 1 0 16 105 113 284 ?104 285 90 280 0 0 12 30
 283 251 0 273 280 286 0 +-.001 -525e-6 0 0 -1 0 16 273 118 287 ?288 269 289 283
 0 0 12 30 286 252 0 290 283 291 0 +-.001 -525e-6 -1e-6 0 1 0 16 290 29 292 ?161
 263 293 286 0 0 12 30 291 253 0 272 286 294 0 +-.001 625e-6 0 0 -1 0 16 272 120
 295 ?166 296 269 291 0 0 12 30 294 254 0 297 291 298 0 +-.001 -175e-6 1e-4 0 0
 -1 16 297 12 299 ?300 301 302 294 0 0 12 30 298 255 0 303 294 304 0 +-.001 -175
e-6 0 1 0 0 16 303 5 305 ?306 307 308 298 0 0 12 30 304 256 0 309 298 310 0 +-55
e-5 -175e-6 -1e-6 0 -1 0 16 309 19 311 ?312 313 314 304 0 0 12 30 310 257 0 313
 304 254 0 +-55e-5 -525e-6 0 -1 0 0 16 313 22 315 ?316 317 309 310 0 0 12 30 254
 258 0 249 310 264 0 +.001 175e-6 1e-4 0 0 -1 30 264 260 0 257 254 318 0 +55e-5
 175e-6 1e-4 0 0 -1 30 318 261 0 319 264 320 0 +-55e-5 175e-6 -1e-6 -1 0 0 16 31
9 80 321 ?178 179 322 318 0 0 12 30 320 262 0 323 318 324 0 +.001 525e-6 1e-4 0
 0 -1 16 323 51 325 ?243 242 326 320 0 0 12 30 324 263 0 326 320 327 0 +55e-5 52
5e-6 0 1 0 0 16 326 49 328 ?329 323 330 324 0 0 12 30 327 264 0 331 324 332 0 +.
001 -525e-6 0 -1 0 0 16 331 86 333 ?334 335 179 327 0 0 12 30 332 265 0 246 327
 336 0 +-.001 525e-6 0 1 0 0 16 246 59 337 ?338 339 235 332 0 0 12 30 336 266 0
 301 332 340 0 +-55e-5 -175e-6 0 0 -1 0 16 301 15 341 ?342 314 297 336 0 0 12 30
 340 267 0 253 336 343 0 +55e-5 175e-6 0 0 1 0 16 253 42 344 ?345 346 249 340 0
 0 12 30 343 268 0 347 340 39 0 +.001 -175e-6 1e-4 0 0 -1 16 347 105 348 ?349 28
2 350 343 0 0 12 30 39 269 0 335 343 26 0 +45e-5 -525e-6 1e-4 0 0 -1 16 335 89 3
51 ?352 266 331 39 0 0 12 81 1 351 329 58 335 0 0 348 353 354 17 352 0 355 356 3
34 137 357 335 0 0 +16 266 91 260 ?358 359 335 265 0 0 12 81 1 260 302 58 266 0
 0 360 258 361 17 358 0 362 363 89 137 356 266 0 352 +16 359 93 364 ?88 279 266
 365 0 0 12 81 1 364 286 58 359 0 0 366 367 368 17 88 0 86 82 172 141 369 359 0
 356 +16 279 96 370 ?371 274 359 372 0 0 12 30 365 226 0 359 373 374 0 +.001 -52
5e-6 1e-4 0 0 -1 30 373 225 0 375 376 365 0 +.001 -625e-6 0 0 0 1 30 374 227 0 3
77 365 378 0 +-.001 525e-6 -1e-6 1 0 0 16 377 64 367 ?177 38 339 374 0 0 12 30 3
78 228 0 66 374 379 0 +.001 625e-6 .001 0 0 -1 16 66 1024 380 ?55 375 381 378 0
 0 12 30 379 229 0 317 378 382 0 +-.001 -525e-6 1e-4 0 0 -1 16 317 24 383 ?384 2
93 313 379 0 0 12 30 382 230 0 282 379 385 0 +45e-5 -175e-6 -1e-6 1 0 0 16 282 1
07 386 ?91 90 347 382 0 0 12 30 385 231 0 296 382 45 0 +.001 625e-6 0 -1 0 0 16
 296 122 387 ?63 381 272 385 0 0 12 30 45 232 0 29 385 388 0 +-.001 625e-6 0 0 0
 1 30 388 233 0 293 45 389 0 +-55e-5 -525e-6 -1e-6 -1 0 0 16 293 26 390 ?391 290
 317 388 0 0 12 30 389 234 0 179 388 392 0 +-.001 175e-6 -1e-6 0 1 0 16 179 83 3
93 ?174 331 319 389 0 0 12 30 392 235 0 285 389 394 0 +.001 -625e-6 0 0 1 0 16 2
85 114 395 ?172 289 105 392 0 0 12 30 394 236 0 191 392 396 0 +-55e-5 525e-6 -1e
-6 0 -1 0 16 191 73 397 ?190 398 399 394 0 0 12 30 396 237 0 278 394 400 0 +45e-
5 -525e-6 -1e-6 0 1 0 16 278 100 401 ?363 350 274 396 0 0 12 30 400 238 0 322 39
6 402 0 +-.001 175e-6 1e-4 0 0 -1 16 322 78 403 ?404 319 398 400 0 0 12 30 402 2
39 0 330 400 405 0 +55e-5 175e-6 -1e-6 0 1 0 16 330 46 406 ?238 326 346 402 0 0
 12 30 405 240 0 346 402 267 0 +55e-5 525e-6 1e-4 0 0 -1 16 346 44 407 ?408 330
 253 405 0 0 12 30 267 241 0 399 405 265 0 +-55e-5 175e-6 1e-4 0 0 -1 16 399 71
 360 ?189 191 409 267 0 0 12 81 1 360 301 58 399 0 0 407 260 410 17 189 0 187 18
2 411 130 412 399 0 0 +16 409 69 413 ?411 399 38 414 0 0 12 81 1 413 271 58 409
 0 0 0 415 416 17 411 0 187 189 188 126 77 409 0 0 +16 38 66 353 ?180 409 377 26
 0 0 12 30 414 211 0 409 417 418 0 +-55e-5 525e-6 0 0 -1 0 30 417 1138 0 419 420
 414 0 +-.001 625e-6 .000565940628466662 0 -1 0 30 418 212 0 263 414 421 0 +.001
 175e-6 0 -1 0 0 16 263 32 415 ?251 257 290 418 0 0 12 30 421 213 0 307 418 422
 0 +-55e-5 -175e-6 1e-4 0 0 -1 16 307 8 423 ?424 302 303 421 0 0 12 30 422 214 0
 339 421 425 0 +-55e-5 525e-6 1e-4 0 0 -1 16 339 62 426 ?427 377 246 422 0 0 12
 30 425 215 0 242 422 428 0 +55e-5 525e-6 -1e-6 1 0 0 16 242 53 429 ?233 235 323
 425 0 0 12 30 428 216 0 314 425 430 0 +-55e-5 -525e-6 1e-4 0 0 -1 16 314 17 431
 ?432 309 301 428 0 0 12 30 430 217 0 398 428 433 0 +-55e-5 175e-6 0 -1 0 0 16 3
98 76 434 ?435 322 191 430 0 0 12 30 433 218 0 350 430 372 0 +45e-5 -175e-6 0 1
 0 0 16 350 103 436 ?437 347 278 433 0 0 12 30 372 220 0 279 433 438 0 +45e-5 -5
25e-6 0 0 1 0 30 438 221 0 44 372 439 0 +-.001 -625e-6 .001 0 0 -1 16 44 1041 44
0 ?125 29 375 438 0 0 12 30 439 222 0 289 438 441 0 +-.001 -625e-6 0 1 0 0 16 28
9 116 442 ?443 273 285 439 0 0 12 30 441 223 0 302 439 376 0 +-.001 -175e-6 -1e-
6 1 0 0 16 302 10 444 ?445 297 307 441 0 0 12 30 376 224 0 381 441 373 0 +.001 5
25e-6 0 0 1 0 16 381 124 446 ?67 66 296 376 0 0 12 81 1 446 284 58 381 0 0 444 3
66 447 17 67 0 86 65 244 47 210 381 0 448 +17 65 0 86 53 67 148 55 66 0 0 -17 24
4 0 86 67 234 152 243 323 0 329 -17 210 0 101 120 448 152 67 381 0 244 -17 448 0
 101 210 449 47 63 296 0 0 -15 101 112 0 103 450 0 17 449 0 101 448 451 56 166 2
72 0 0 -17 63 0 62 43 55 56 448 296 0 449 +15 62 1065 0 64 34 0 17 43 0 62 64 63
 452 69 29 0 0 +17 64 0 62 55 43 148 453 454 0 65 +18 452 1106 0 453 148 194 455
 ?12 17 69 0 456 166 457 56 43 29 0 63 -15 456 138 0 458 459 0 17 166 0 456 180
 69 79 449 272 0 460 +17 457 0 456 69 458 452 50 419 0 43 -17 458 0 456 457 288
 194 125 44 0 0 -17 50 0 48 46 453 194 457 419 0 51 +16 419 1075 0 ?50 308 454 4
17 0 0 12 16 308 1087 0 ?53 303 419 420 0 0 12 16 454 1084 0 ?64 419 52 461 0 0
 12 16 52 1091 0 ?46 454 0 462 0 0 12 30 461 1148 0 454 0 462 0 +-.001 625e-6 .0
00565940628466662 1 0 0 30 462 1144 0 52 461 420 0 +-.001 -625e-6 .0005659406284
66662 1 0 0 30 420 1139 0 308 462 417 0 +.001 625e-6 .000565940628466662 0 -1 0
 17 53 0 86 93 65 30 49 308 0 463 +17 93 0 86 172 53 83 463 375 0 443 -17 49 0 4
8 453 46 148 53 308 0 64 -17 463 0 464 51 443 30 93 375 0 0 +15 464 133 0 463 46
5 0 17 51 0 464 125 463 194 46 52 0 458 -17 443 0 464 463 125 83 466 289 0 467 +
16 375 131 366 ?463 44 66 373 0 0 12 81 1 366 285 58 375 0 0 446 364 468 80 255
 1 58 469 470 9000 0 0 0 0 3 6 0 0 0 TTTFTFTTTFFFFF3 84 255 3 468 27379 255 20 4
70 ATTRIB_XPARASOLID_ID17 125 0 464 443 51 70 458 44 0 288 +17 466 0 101 222 467
 70 443 289 0 0 -17 467 0 101 466 471 83 172 285 0 0 -17 471 0 101 467 201 170 3
34 331 0 0 -17 172 0 86 88 93 170 467 285 0 369 +17 369 0 355 334 356 170 88 359
 0 471 -15 355 85 0 334 472 0 17 334 0 355 352 369 142 471 331 0 0 +17 356 0 355
 369 352 141 358 266 0 0 -14 255 472 84 473 ?474 475 355 24 476 +0 0 474 475 41
 81 1 473 1351 477 472 478 0 0 479 480 14 474 81 479 ?481 472 176 24 482 +0 0 48
1 472 41 14 475 94 483 ?472 484 485 24 486 +0 0 472 484 41 50 476 152 0 472 487
 488 0 +.001 -525e-6 1e-4 0 -1 0 0 0 -1 13 41 2 0 0 0 0 0 0 28 34 14 34 142 489
 ?459 0 62 24 490 +0 0 459 0 41 81 1 489 1354 477 34 491 0 483 492 493 14 459 13
7 492 ?465 34 456 24 488 -0 0 465 34 41 50 490 168 0 34 494 37 0 +0 625e-6 5e-4
 0 1 0 1 0 0 50 494 167 0 484 495 490 0 +45e-5 -175e-6 1e-4 0 1 0 1 0 0 50 37 16
9 0 496 490 25 0 +-.001 525e-6 1e-4 0 1 0 1 0 0 14 496 57 497 ?237 498 499 24 37
 +0 0 237 498 41 81 1 497 1356 477 496 500 0 492 501 502 14 237 54 501 ?503 496
 231 24 504 +0 0 503 496 41 14 498 67 505 ?496 481 187 24 506 +0 0 496 481 41 15
 499 58 0 338 496 0 17 338 0 499 427 460 76 451 246 0 0 +17 427 0 499 507 338 78
 188 339 0 0 +17 460 0 499 338 507 79 180 38 0 451 -17 451 0 101 449 77 79 338 2
46 0 0 -17 77 0 101 451 129 76 411 409 0 188 -17 129 0 101 77 135 126 435 398 0
 412 -17 188 0 187 411 182 76 427 339 0 338 -15 187 68 0 411 498 0 17 135 0 101
 129 508 132 146 269 0 509 -17 435 0 510 404 412 132 129 398 0 0 +17 412 0 510 4
35 155 126 189 399 0 411 -15 510 75 0 435 481 0 17 155 0 510 412 404 130 178 319
 0 190 -17 404 0 510 155 435 136 509 322 0 0 +17 178 0 176 174 190 136 155 319 0
 404 +17 190 0 176 178 177 130 182 191 0 189 +15 176 82 0 174 474 0 17 177 0 176
 190 174 78 507 377 0 427 +17 507 0 499 460 427 131 177 377 0 0 -17 509 0 456 14
6 169 132 404 322 0 435 -17 146 0 456 300 509 143 135 269 0 511 +17 169 0 456 50
9 180 136 174 179 0 178 -17 180 0 456 169 166 131 460 38 0 507 +17 300 0 456 114
 146 158 511 297 0 512 +17 511 0 513 306 512 143 300 297 0 508 -15 513 4 0 306 5
14 0 17 306 0 513 424 511 147 508 303 0 0 +17 512 0 513 511 424 158 445 302 0 0
 -17 508 0 101 135 214 143 306 303 0 0 -17 214 0 101 508 225 147 342 301 0 515 -
17 225 0 101 214 222 162 316 313 0 516 -17 342 0 517 432 515 162 214 301 0 0 +17
 515 0 517 342 217 147 424 307 0 306 -15 517 14 0 342 518 0 17 217 0 517 515 432
 163 312 309 0 445 -17 424 0 513 512 306 163 515 307 0 0 +17 432 0 517 217 342 1
96 516 314 0 0 +17 312 0 519 391 445 196 217 309 0 432 +17 445 0 519 312 161 163
 512 302 0 424 +15 519 28 0 161 520 0 17 161 0 519 445 391 158 114 290 0 300 +17
 391 0 519 161 312 111 198 293 0 384 +17 114 0 456 521 300 111 161 290 0 391 -17
 521 0 456 288 114 116 384 317 0 316 -17 288 0 456 458 521 70 222 273 0 466 +17
 384 0 522 198 316 111 521 317 0 0 +17 316 0 522 384 516 116 225 313 0 0 +15 522
 21 0 316 523 0 17 516 0 522 316 198 162 432 314 0 342 -17 198 0 522 516 384 196
 391 293 0 312 -14 523 20 524 ?518 520 522 24 525 +0 0 518 520 41 81 1 524 1359
 477 523 526 0 505 527 528 14 518 13 527 ?514 523 517 24 529 +0 0 514 523 41 14
 520 27 530 ?523 255 519 24 487 +0 0 523 255 41 50 525 159 0 523 531 506 0 +-55e
-5 -525e-6 1e-4 0 -1 0 0 0 -1 50 531 158 0 514 482 525 0 +-.001 -175e-6 1e-4 0 1
 0 1 0 0 50 506 160 0 498 525 532 0 +-55e-5 525e-6 1e-4 1 0 0 0 1 0 50 532 161 0
 255 506 533 0 +.001 175e-6 1e-4 0 -1 0 0 0 -1 14 255 30 534 ?520 535 250 24 532
 +0 0 520 535 41 50 533 162 0 465 532 536 0 +0 -625e-6 5e-4 0 1 0 1 0 0 14 465 1
32 537 ?36 459 464 24 533 -0 0 36 459 41 50 536 163 0 503 533 538 0 +55e-5 525e-
6 1e-4 0 1 0 1 0 0 14 503 47 539 ?535 237 540 24 536 +0 0 535 237 41 50 538 164
 0 535 536 541 0 +55e-5 175e-6 1e-4 -1 0 0 0 0 1 14 535 40 542 ?255 503 543 24 5
38 +0 0 255 503 41 50 541 165 0 481 538 495 0 +-55e-5 175e-6 1e-4 0 -1 0 0 0 -1
 14 481 74 544 ?498 474 510 24 541 +0 0 498 474 41 50 495 166 0 545 541 494 0 +7
25e-6 -35e-5 -1e-6 0 0 -1 0 -1 0 14 545 108 546 ?484 450 362 24 495 +0 0 484 450
 41 81 1 546 1367 477 545 547 0 544 548 549 14 484 101 548 ?475 545 550 24 494 +
0 0 475 545 41 14 450 111 551 ?545 36 101 24 552 -0 0 545 36 41 15 362 109 0 89
 545 0 17 89 0 362 358 91 141 82 90 0 88 +17 91 0 362 89 363 80 106 282 0 349 +1
7 363 0 362 91 358 97 140 278 0 277 +17 106 0 550 553 349 97 91 282 0 363 -17 34
9 0 550 106 437 80 87 347 0 0 +15 550 102 0 437 484 0 17 437 0 550 349 553 84 10
2 350 0 0 +17 87 0 86 104 82 84 349 347 0 437 -17 553 0 550 437 106 107 277 274
 0 371 -17 102 0 101 201 96 107 437 350 0 553 -17 201 0 101 471 102 142 371 279
 0 357 -17 371 0 485 277 357 107 201 279 0 0 +17 357 0 485 371 140 142 352 335 0
 334 -15 485 95 0 371 475 0 17 140 0 485 357 277 137 363 278 0 358 -17 277 0 485
 140 371 97 553 274 0 0 +81 1 551 1369 477 450 554 0 548 555 556 14 36 125 555 ?
450 465 86 24 25 +0 0 450 465 41 50 552 156 0 450 486 482 0 +0 0 0 0 0 1 1 0 0 5
0 486 154 0 475 488 552 0 +45e-5 -525e-6 1e-4 -1 0 0 0 0 1 50 482 157 0 474 552
 531 0 +-775e-6 35e-5 -1e-6 0 0 -1 0 -1 0 50 488 153 0 459 476 486 0 +-.001 0 5e
-4 1 0 0 0 1 0 81 1 555 1370 477 36 557 0 551 558 559 80 1 477 560 561 9000 1 1
 1 1 1 1 1 1 0 FFFFTFTFFFFFFF1 81 1 557 1286 562 36 184 555 563 554 564 81 1 558
 1371 477 565 566 0 555 567 568 82 255 1 559 -1285095299 14 565 1120 558 ?0 514
 48 24 569 -0 0 0 514 41 81 1 566 1304 562 565 0 558 570 0 571 81 1 567 1372 477
 514 570 0 558 0 572 82 1 568 -1248591747 14 514 3 567 ?565 518 513 24 531 +0 0
 565 518 41 81 1 570 1303 562 514 573 567 574 566 575 82 1 572 -682098571 80 1 5
62 0 576 8001 0 0 0 0 3 5 0 0 0 FFFFTFTFFFFFFF2 81 1 573 350 58 514 0 570 577 57
8 579 81 1 574 1302 562 518 580 527 526 570 581 83 255 3 575 1 .807843137254902
 .498039215686275 81 1 580 334 58 518 0 574 582 583 584 81 1 527 1360 477 518 57
4 0 524 530 585 81 1 526 1301 562 523 578 524 586 574 587 83 3 581 1 .8078431372
54902 .498039215686275 81 1 578 352 58 523 0 526 573 588 589 81 1 586 1300 562 5
20 583 530 590 526 591 83 3 587 1 .807843137254902 .498039215686275 81 1 583 336
 58 520 0 586 580 592 593 81 1 530 1361 477 520 586 0 527 534 594 81 1 590 1299
 562 255 595 534 596 586 597 83 3 591 1 .807843137254902 .498039215686275 81 1 5
95 356 58 255 0 590 588 598 599 81 1 534 1362 477 255 590 0 530 537 600 81 1 596
 1298 562 535 601 542 602 590 603 83 3 597 1 .807843137254902 .498039215686275 8
1 1 601 362 58 535 0 596 604 605 606 81 1 542 1365 477 535 596 0 539 544 607 81
 1 602 1297 562 503 604 539 608 596 609 83 3 603 1 .807843137254902 .49803921568
6275 81 1 604 360 58 503 0 602 598 601 610 81 1 539 1364 477 503 602 0 537 542 6
11 81 1 608 1296 562 237 582 501 500 602 612 83 3 609 1 .807843137254902 .498039
215686275 81 1 582 332 58 237 0 608 353 580 613 81 1 501 1357 477 237 608 0 497
 505 614 81 1 500 1295 562 496 615 497 616 608 617 83 3 612 1 .807843137254902 .
498039215686275 81 1 615 372 58 496 0 500 618 184 619 81 1 616 1294 562 498 588
 505 620 500 621 83 3 617 1 .807843137254902 .498039215686275 81 1 588 354 58 49
8 0 616 578 595 622 81 1 505 1358 477 498 616 0 501 524 623 81 1 620 1293 562 48
1 605 544 624 616 625 83 3 621 1 .807843137254902 .498039215686275 81 1 605 364
 58 481 0 620 601 626 627 81 1 544 1366 477 481 620 0 542 546 628 81 1 624 1292
 562 474 577 479 478 620 629 83 3 625 1 .807843137254902 .498039215686275 81 1 5
77 348 58 474 0 624 630 573 631 81 1 479 1352 477 474 624 0 473 483 632 81 1 478
 1291 562 472 592 473 633 624 634 83 3 629 1 .807843137254902 .498039215686275 8
1 1 592 338 58 472 0 478 583 635 636 81 1 633 1290 562 475 637 483 638 478 639 8
3 3 634 1 .807843137254902 .498039215686275 81 1 637 342 58 475 0 633 635 630 64
0 81 1 483 1353 477 475 633 0 479 489 641 81 1 638 1289 562 484 642 548 547 633
 643 83 3 639 1 .807843137254902 .498039215686275 81 1 642 368 58 484 0 638 626
 618 644 81 1 548 1368 477 484 638 0 546 551 645 81 1 547 1288 562 545 626 546 5
54 638 646 83 3 643 1 .807843137254902 .498039215686275 81 1 626 366 58 545 0 54
7 605 642 647 81 1 554 1287 562 450 630 551 557 547 648 83 3 646 1 .807843137254
902 .498039215686275 81 1 630 346 58 450 0 554 637 577 649 83 3 648 .19607843137
2549 .2862745098039215 .207843137254902 84 3 649 43784 3 647 43682 1 645 -680329
099 81 1 618 370 58 34 0 491 642 615 650 84 3 644 43581 1 491 1283 562 34 618 48
9 0 651 652 84 3 650 44181 1 651 1284 562 459 635 492 491 563 653 83 3 652 .0627
450980392157 .176470588235294 .0784313725490196 81 1 635 340 58 459 0 651 592 63
7 654 81 1 492 1355 477 459 651 0 489 497 655 81 1 563 1285 562 465 598 537 651
 557 656 83 3 653 .0627450980392157 .176470588235294 .0784313725490196 81 1 598
 358 58 465 0 563 595 604 657 81 1 537 1363 477 465 563 0 534 539 658 83 3 656 .
0627450980392157 .176470588235294 .0784313725490196 82 1 658 -1287192451 84 3 65
7 43982 1 655 -1289551747 84 3 654 44082 1 641 -682885003 84 3 640 43484 3 636 4
3382 1 632 -682295179 84 3 631 43282 1 628 -680722315 84 3 627 43182 1 623 -6817
05355 84 3 622 43081 1 184 374 58 36 0 557 615 181 659 84 3 619 42984 3 659 4388
2 1 614 -683868043 81 1 353 330 58 38 0 0 351 582 660 84 3 613 42884 3 660 24482
 1 611 -681115531 84 3 610 42782 1 607 -680918923 84 3 606 42682 1 600 -68150874
7 84 3 599 42582 1 594 -683474827 84 3 593 42484 3 589 42382 1 585 -683671435 84
 3 584 42284 3 579 42179 15 576 SDL/TYSA_COLOUR83 3 571 .188235294117647 .439215
68627451 .211764705882353 15 48 1123 0 46 565 0 50 569 1133 0 565 0 504 0 +-.001
 625e-6 .000565940628466662 0 0 -1 -1 0 0 50 504 149 0 237 569 529 0 +775e-6 35e
-5 -1e-6 0 0 -1 0 -1 0 50 529 150 0 518 504 487 0 +-55e-5 -175e-6 1e-4 1 0 0 0 1
 0 50 487 151 0 520 529 476 0 +-775e-6 -35e-5 -1e-6 0 0 -1 0 -1 0 83 3 564 .0627
450980392157 .176470588235294 .0784313725490196 79 14 561 SWEntUnchanged82 1 556
 -682491787 82 1 549 -680525707 15 543 41 0 345 535 0 17 345 0 543 408 256 117 2
07 253 0 0 +17 408 0 543 227 345 121 661 346 0 0 +17 256 0 543 345 227 204 241 2
57 0 251 -17 207 0 101 103 120 204 345 253 0 256 -17 103 0 101 96 207 115 251 26
3 0 0 -17 120 0 101 207 210 117 329 326 0 661 -17 329 0 540 243 661 152 120 326
 0 0 +17 661 0 540 329 151 117 408 346 0 345 -15 540 48 0 329 503 0 17 151 0 540
 661 243 121 233 242 0 238 -17 243 0 540 151 329 74 244 323 0 0 +17 238 0 231 23
3 232 121 227 330 0 408 +17 227 0 543 256 408 208 238 330 0 232 -18 74 52 59 234
 79 152 72 ?12 81 1 59 411 58 74 0 0 173 54 662 84 3 662 19417 251 0 250 241 248
 204 103 263 0 0 +82 1 528 -681901963 17 222 0 101 225 466 116 288 273 0 521 -82
 1 502 -679935883 82 1 493 -1285619587 82 1 480 -683278219 18 194 1101 0 50 452
 0 192 ?12 17 453 0 48 50 49 452 64 454 0 457 -18 148 1104 0 49 143 452 195 ?12
 29 195 1156 0 148 455 192 .001 625e-6 .000565940628466662 29 455 1157 0 452 0 1
95 -.001 625e-6 .000565940628466662 81 1 444 283 58 302 0 0 442 446 663 84 3 447
 27081 1 442 282 58 289 0 0 370 444 664 84 3 663 22181 1 370 280 58 279 0 0 436
 442 665 84 3 664 26581 1 436 278 58 350 0 0 434 370 666 84 3 665 25681 1 434 27
7 58 398 0 0 431 436 667 84 3 666 25981 1 431 276 58 314 0 0 429 434 668 84 3 66
7 24881 1 429 275 58 242 0 0 426 431 669 84 3 668 22481 1 426 274 58 339 0 0 423
 429 670 84 3 669 23981 1 423 273 58 307 0 0 415 426 671 84 3 670 24281 1 415 27
2 58 263 0 0 413 423 672 84 3 671 22084 3 672 23081 1 440 1043 58 44 0 0 380 0 6
73 81 1 380 1026 58 66 0 0 32 440 674 84 3 673 27581 1 32 478 58 12 675 21 81 38
0 676 84 3 674 27181 1 675 477 677 12 678 32 0 0 679 84 2 676 1480 1 677 680 681
 9000 0 0 0 0 3 5 0 0 0 TFTFTFTFFFFFFF3 81 1 678 415 682 12 0 675 0 0 683 84 11
 679 4 pin OPLGA80 1 682 562 684 8040 0 0 0 0 3 5 0 0 0 TTTFFFFFFFFFFF2 83 3 683
 .749019622802734 .749019622802734 .749019622802734 79 17 684 SDL/TYSA_COLOUR_27
9 22 681 ATTRIB_XPARASOLID_NAME84 3 416 24581 1 407 300 58 346 0 0 406 360 685 8
4 3 410 24681 1 406 299 58 330 0 0 403 407 686 84 3 685 23581 1 403 298 58 322 0
 0 401 406 687 84 3 686 23681 1 401 297 58 278 0 0 397 403 688 84 3 687 24981 1
 397 296 58 191 0 0 395 401 689 84 3 688 25881 1 395 295 58 285 0 0 393 397 690
 84 3 689 24781 1 393 294 58 179 0 0 390 395 691 84 3 690 26481 1 390 293 58 293
 0 0 42 393 692 84 3 691 25181 1 42 292 58 29 0 0 387 390 693 84 3 692 22881 1 3
87 291 58 296 0 0 386 42 694 84 3 693 27781 1 386 290 58 282 0 0 383 387 695 84
 3 694 26981 1 383 289 58 317 0 0 367 386 696 84 3 695 26181 1 367 287 58 377 0
 0 364 383 697 84 3 696 22784 3 697 24384 3 368 25584 3 361 25481 1 348 328 58 3
47 0 0 344 351 698 84 3 354 25381 1 344 327 58 253 0 0 341 348 699 84 3 698 2608
1 1 341 326 58 301 0 0 337 344 700 84 3 699 23481 1 337 325 58 246 0 0 333 341 7
01 84 3 700 22381 1 333 324 58 331 0 0 328 337 702 84 3 701 24181 1 328 323 58 3
26 0 0 325 333 703 84 3 702 25281 1 325 322 58 323 0 0 321 328 704 84 3 703 2378
1 1 321 321 58 319 0 0 262 325 705 84 3 704 23881 1 262 320 58 257 0 0 252 321 7
06 84 3 705 25081 1 252 318 58 249 0 0 315 262 707 84 3 706 23181 1 315 317 58 3
13 0 0 311 252 708 84 3 707 23381 1 311 316 58 309 0 0 305 315 709 84 3 708 2268
1 1 305 315 58 303 0 0 299 311 710 84 3 709 22581 1 299 314 58 297 0 0 295 305 7
11 84 3 710 21981 1 295 313 58 272 0 0 292 299 712 84 3 711 22281 1 292 312 58 2
90 0 0 287 295 713 84 3 712 26881 1 287 311 58 273 0 0 284 292 714 84 3 713 2298
1 1 284 310 58 105 0 0 281 287 715 84 3 714 26681 1 281 309 58 90 0 0 276 284 71
6 84 3 715 26381 1 276 308 58 274 0 0 271 281 717 84 3 716 26281 1 271 307 58 26
9 0 0 245 276 718 84 3 717 25781 1 245 304 58 235 0 0 258 271 719 84 3 718 26784
 3 719 24084 3 261 23281 1 226 388 58 208 0 0 224 228 720 81 1 99 390 58 97 0 0
 228 95 721 84 3 230 19084 3 721 20881 1 224 387 58 162 0 0 221 226 722 84 3 720
 18981 1 221 386 58 116 0 0 219 224 723 84 3 722 18381 1 219 385 58 107 0 0 216
 221 724 84 3 723 18581 1 216 384 58 163 0 0 213 219 725 84 3 724 20781 1 213 38
3 58 147 0 0 92 216 726 84 3 725 18181 1 92 382 58 83 0 0 209 213 727 84 3 726 1
8081 1 209 381 58 152 0 0 206 92 728 84 3 727 21181 1 206 380 58 204 0 0 203 209
 729 84 3 728 19381 1 203 379 58 115 0 0 200 206 730 84 3 729 18881 1 200 378 58
 142 0 0 185 203 731 84 3 730 18781 1 185 377 58 196 0 0 181 200 732 84 3 731 20
484 3 732 18484 3 186 19781 1 171 407 58 170 0 0 168 173 733 84 3 175 19881 1 16
8 406 58 136 0 0 165 171 734 84 3 733 20381 1 165 405 58 79 0 0 160 168 735 84 3
 734 20281 1 160 404 58 158 0 0 157 165 736 84 3 735 19581 1 157 403 58 141 0 0
 154 160 737 84 3 736 18281 1 154 401 58 130 0 0 150 157 738 84 3 737 20681 1 15
0 400 58 121 0 0 145 154 739 84 3 738 20081 1 145 399 58 143 0 0 139 150 740 84
 3 739 19281 1 139 398 58 137 0 0 134 145 741 84 3 740 17981 1 134 397 58 132 0
 0 128 139 742 84 3 741 20581 1 128 396 58 126 0 0 124 134 743 84 3 742 20181 1
 124 395 58 70 0 0 119 128 744 84 3 743 19981 1 119 394 58 117 0 0 113 124 745 8
4 3 744 21281 1 113 393 58 111 0 0 68 119 746 84 3 745 19181 1 68 392 58 56 0 0
 95 113 747 84 3 746 18684 3 747 21384 3 100 20981 1 60 413 58 76 0 0 54 81 748
 84 3 85 21084 3 748 19684 3 61 21419 35 147 0 12 0 28 24 S0 74 4 CI16 index_map
_offset0 0 1 dCCZ20 33 6 0 0 440 678 675 567 566 21 0 0 0 0 0 0 0 0 0 0 0 0 0 0
 80 1 31 749 750 8017 0 0 0 0 0 0 0 0 0 TTTTTTTTTTTTTF3 79 13 750 SDL/TYSA_NAME8
1 1 10 200 31 7 0 0 0 0 0 70 11 0 4 T7 0 0 3 20 1 751 751 13 13 4 0 7 0 752 0 0
 753 0 50 14 71 0 752 754 0 0 +0 625e-6 5e-4 0 1 0 1 0 0 30 15 79 0 18 755 0 0 +
-.001 .00267155992778514 .000565940628466662 0 -1 0 29 16 66 0 756 757 0 -.001 6
25e-6 .000565940628466662 19 17 2 0 7 753 0 758 V0 16 18 24 0 ?759 0 760 15 0 0
 7 18 19 32 0 759 0 761 762 ?7 17 759 0 763 764 765 19 766 18 0 767 +18 761 31 0
 768 19 769 770 ?7 29 762 63 0 19 771 772 -.001 -625e-6 .000565940628466662 29 7
71 62 0 773 774 762 .001 -625e-6 .000565940628466662 29 772 64 0 775 762 757 -.0
01 625e-6 .001 18 775 25 0 776 777 0 772 ?7 29 757 65 0 777 772 16 .001 625e-6 .
001 18 777 26 0 778 779 775 757 ?7 17 778 0 780 781 776 777 782 783 0 784 -18 77
9 27 0 781 756 777 785 ?7 17 781 0 780 786 778 779 787 788 0 789 -18 756 28 0 78
6 773 779 16 ?7 29 785 59 0 779 0 770 .001 625e-6 .000565940628466662 29 770 60
 0 761 785 774 -.001 -625e-6 .001 29 774 61 0 769 770 771 .001 -625e-6 .001 18 7
69 30 0 790 761 773 774 ?7 17 790 0 791 792 787 769 784 793 0 794 +18 773 29 0 7
95 769 756 771 ?7 17 795 0 796 767 797 773 789 798 0 792 +15 796 41 0 766 799 0
 17 767 0 796 766 795 19 800 801 0 802 -17 797 0 796 795 766 779 786 803 0 0 +17
 789 0 791 787 792 779 795 798 0 797 -16 798 18 0 ?795 788 803 755 0 0 7 17 792
 0 791 789 790 773 794 804 0 800 -15 791 45 0 789 805 0 17 794 0 806 807 800 769
 792 804 0 808 +16 804 11 0 ?794 809 801 810 0 0 7 17 800 0 806 794 802 773 767
 801 0 0 +15 806 37 0 802 811 0 17 802 0 806 800 807 19 764 812 0 0 +16 801 8 0
 ?800 804 812 813 0 0 7 16 812 5 0 ?802 801 0 814 0 0 7 30 813 57 0 801 810 814
 0 +-.001 -625e-6 .000565940628466662 1 0 0 30 810 56 0 804 815 813 0 +.001 -625
e-6 .001 0 0 1 30 814 58 0 812 813 816 0 +-.001 -625e-6 .001 0 0 -1 30 816 72 0
 803 814 817 0 +-.001 625e-6 .000565940628466662 1 0 0 16 803 17 0 ?797 798 809
 816 0 0 7 30 817 73 0 760 816 818 0 +-.001 625e-6 .001 0 0 -1 16 760 23 0 ?765
 18 819 817 0 0 7 30 818 74 0 783 817 820 0 +-.001 625e-6 .001 -1 0 0 16 783 21
 0 ?782 819 793 818 0 0 7 30 820 75 0 788 818 821 0 +.001 625e-6 .001 0 0 1 16 7
88 19 0 ?787 793 798 820 0 0 7 30 821 76 0 819 820 822 0 +-.001 .002671559927785
14 .001 0 -1 0 16 819 22 0 ?768 760 783 821 0 0 7 30 822 77 0 793 821 755 0 +.00
1 .00267155992778514 .001 0 -1 0 16 793 20 0 ?790 783 788 822 0 0 7 30 755 78 0
 798 822 15 0 +.001 .00267155992778514 .000565940628466662 0 -1 0 17 768 0 823 8
08 782 761 824 819 0 764 +15 823 49 0 784 825 0 17 808 0 823 784 768 769 807 809
 0 0 -17 782 0 823 768 784 775 778 783 0 0 +17 824 0 763 765 764 775 768 819 0 7
82 -17 764 0 763 824 759 761 802 812 0 807 -15 763 53 0 824 826 0 17 807 0 806 8
02 794 761 808 809 0 0 +16 809 14 0 ?807 803 804 815 0 0 7 30 815 55 0 809 0 810
 0 +-.001 -625e-6 .001 -1 0 0 14 826 50 827 ?0 825 763 13 828 +0 0 0 825 758 81
 1 827 194 477 826 829 0 0 830 831 14 825 46 830 ?826 805 823 13 832 +0 0 826 80
5 758 50 828 67 0 826 833 832 0 +-.001 .00267155992778514 .001 -1 0 0 0 0 1 13 7
58 3 0 0 0 0 0 0 17 752 14 752 33 834 ?811 0 780 13 14 +0 0 811 0 758 81 1 834 1
96 477 752 835 0 830 836 837 14 811 35 836 ?799 752 806 13 833 +0 0 799 752 758
 15 780 34 0 776 752 0 17 776 0 780 778 786 775 765 760 0 824 -17 786 0 780 776
 781 756 797 803 0 765 -17 765 0 763 759 824 756 776 760 0 766 +17 766 0 796 797
 767 756 759 18 0 0 -81 1 836 197 477 811 838 0 834 839 840 14 799 38 839 ?805 8
11 796 13 754 +0 0 805 811 758 50 833 54 0 811 0 828 0 +0 -625e-6 0 0 -1 0 0 0 -
1 81 1 839 198 477 799 841 0 836 842 843 14 805 42 842 ?825 799 791 13 844 +0 0
 825 799 758 50 754 70 0 799 844 14 0 +-.001 .00267155992778514 .000565940628466
662 0 0 -1 -1 0 0 50 844 69 0 805 832 754 0 +.001 .00267155992778514 .001 1 0 0
 0 0 -1 50 832 68 0 825 828 844 0 +-.001 .00267155992778514 .001 0 0 1 1 0 0 81
 1 842 199 477 805 845 0 839 0 846 81 1 845 177 562 805 0 842 841 847 848 82 1 8
46 -629866369 81 1 841 176 562 799 0 839 838 845 849 81 1 847 178 562 825 0 830
 845 829 850 83 3 848 1 1 1 81 1 830 195 477 825 847 0 827 834 851 81 1 829 179
 562 826 0 827 847 0 852 83 3 850 1 1 1 83 3 852 1 1 1 82 1 851 -629079937 81 1
 838 175 562 811 0 836 835 841 853 83 3 849 1 1 1 81 1 835 174 562 752 0 834 0 8
38 854 83 3 853 1 1 1 83 3 854 1 1 1 82 1 843 -632356737 82 1 840 -644677505 82
 1 837 -635174785 82 1 831 -628621185 17 784 0 823 782 808 777 790 793 0 787 -17
 787 0 791 790 789 777 781 788 0 0 +19 753 1 0 7 0 17 13 S0 74 20 751 3 0 0 842
 829 10 0 0 0 0 0 0 0 0 0 0 0 0 0 0 0 0 0 74 20 6 1 0 0 2 0 0 0 0 0 0 0 0 0 0 0
 0 0 0 0 0 0 0 0 80 2 5 855 856 9000 0 0 0 0 3 5 0 0 0 TFFFFFFFFFFFFF9 1 79 18 8
56 MULTI_BODY_ID_20011 0 
