**ABCDEFGHIJKLMNOPQRSTUVWXYZabcdefghijklmnopqrstuvwxyz**************************
**PARASOLID !"#$%&'()*+,-./:;<=>?@[\]^_`{|}~0123456789**************************
**PART1;
MC=AMD64;
MC_MODEL=Intel64 Family 6 Model 60 Stepping 3, GenuineIntel;
MC_ID=unknown;
OS=Windows_NT;
OS_RELEASE=unknown;
FRU=Parasolid Version 33.1, build 247,  8- 6-2021;
APPL=SOLIDWORKS 2022-2021255;
SITE=;
USER=unknown;
FORMAT=text;
GUISE=transmit;
KEY=FILEUser Library-hclga_4l.x_t;
DATE=Fri Jun  9 23:40:14 2023;
**PART2;
SCH=SCH_3301247_33103;
USFLD_SIZE=0;
**PART3;
**END_OF_HEADER*****************************************************************
T51 : TRANSMIT FILE created by modeller version 330124723 SCH_3301247_33103_1300
6230 0 12 35 CCCI7 lattice222 0 CCCI4 mesh1006 0 I8 polyline1008 0 CCCCCCCDI5 ow
ner1040 0 CCCCCCI13 boundary_mesh1006 0 I17 boundary_polyline1008 0 CCCA16 index
_map_offset0 0 1 dA9 index_map82 0 A17 node_id_index_map82 0 A20 schema_embeddin
g_map82 0 A5 child12 0 A14 lowest_node_id0 0 1 dA16 mesh_offset_data206 0 Z1 300
0 2 3 0 4 0 0 0 0 0 1e3 1e-8 0 5 0 1 0 1 1 6 7 8 9 0 0 10 11 12 0 0 0 0 0 0 0 81
 255 2 2 2953 13 1 14 0 0 0 0 15 70 11 CI9 list_type0 0 1 uI10 notransmit0 0 1 l
CCCDCCDI12 finger_index0 0 1 dI12 finger_block1012 0 CZ3 0 4 T1 0 0 9 20 1 16 16
 50 255 4 2644 0 1 17 0 0 +-8e-5 2e-4 6e-5 0 1 0 1 0 0 13 255 6 1399 0 1 0 18 0
 0 19 0 54 255 7 2787 0 20 21 0 0 +.00278 99e-5 -.0015 0 1 0 .000745072679590805
 1e-5 0 0 1 31 255 8 2766 0 11 22 0 0 -.00278 .001 -.0015 0 1 0 0 0 1 .000745072
679590805 29 255 9 1543 0 23 24 0 .00355 650521303491303e-33 -85e-5 19 8 CCCCCCC
A5 owner12 0 Z10 1400 0 1 19 0 25 V0 16 255 11 2763 0 ?26 0 27 8 0 0 1 18 255 12
 44 0 28 0 29 30 ?1 17 255 28 0 31 32 33 12 34 35 0 36 +18 29 40 0 37 12 38 39 ?
1 29 30 61 0 12 0 39 .0039 0 -.0029 29 39 64 0 29 30 40 1e-4 0 -.0029 29 40 69 0
 41 39 42 .0039 0 -1e-4 18 41 30 0 43 44 45 40 ?1 29 42 75 0 45 40 46 -101643953
670516e-34 0 -.003 18 45 17 0 47 41 48 42 ?1 29 46 78 0 48 42 49 .004 0 -.003 18
 48 13 0 50 45 51 46 ?1 29 49 81 0 52 46 53 -542101086242752e-34 0 -982558218814
988e-34 18 52 7 0 54 51 55 49 ?1 29 53 82 0 51 49 56 .004 0 0 18 51 9 0 57 48 52
 53 ?1 29 56 106 0 55 53 58 .0039 -1e-5 -.0029 18 55 94 0 33 52 59 56 ?1 29 58 1
05 0 59 56 60 .0039 -1e-5 -1e-4 18 59 95 0 61 55 62 58 ?1 29 60 127 0 62 58 63 1
e-4 -1e-5 -.0029 18 62 115 0 64 59 65 60 ?1 29 63 146 0 65 60 66 999999999999864
e-19 -100000000000002e-19 -.0004000000000000135 18 65 139 0 67 62 68 63 ?1 29 66
 167 0 68 63 69 .0004000000000000065 -1e-5 -999999999999932e-19 18 68 160 0 70 6
5 71 66 ?1 29 69 211 0 71 66 72 -863973606199386e-34 .001 -.003 18 71 199 0 73 6
8 74 69 ?1 29 72 210 0 74 69 75 -542101086242752e-34 .001 -982558218814988e-34 1
8 74 200 0 76 71 77 72 ?1 29 75 232 0 77 72 78 .004 .001 -.003 18 77 220 0 79 74
 80 75 ?1 29 78 253 0 80 75 81 .004 .001 0 18 80 241 0 82 77 83 78 ?1 29 81 854
 0 84 78 85 .00315 0 -.0017 18 84 782 0 86 87 88 81 ?1 29 85 853 0 88 81 89 .003
15 0 -.00215 18 88 783 0 90 84 91 85 ?1 29 89 852 0 92 85 93 .0022 0 -.0017 18 9
2 785 0 94 91 95 89 ?1 29 93 851 0 91 89 96 .0022 0 -.00215 18 91 784 0 97 88 92
 93 ?1 29 96 850 0 95 93 98 .0018 0 -.0017 18 95 786 0 99 92 100 96 ?1 29 98 849
 0 100 96 101 .0018 0 -.00215 18 100 787 0 102 95 103 98 ?1 29 101 848 0 104 98
 105 85e-5 0 -.0017 18 104 789 0 106 103 107 101 ?1 29 105 847 0 103 101 108 85e
-5 0 -.00215 18 103 788 0 109 100 104 105 ?1 29 108 846 0 107 105 110 .00315 0 -
85e-5 18 107 790 0 111 104 112 108 ?1 29 110 845 0 112 108 113 .00315 0 -.0013 1
8 112 791 0 114 107 115 110 ?1 29 113 844 0 116 110 117 .0022 0 -85e-5 18 116 79
3 0 118 115 119 113 ?1 29 117 843 0 115 113 120 .0022 0 -.0013 18 115 792 0 121
 112 116 117 ?1 29 120 842 0 119 117 122 .0018 0 -85e-5 18 119 794 0 123 116 124
 120 ?1 29 122 841 0 124 120 125 .0018 0 -.0013 18 124 795 0 126 119 127 122 ?1
 29 125 840 0 128 122 129 85e-5 0 -85e-5 18 128 797 0 130 127 131 125 ?1 29 129
 839 0 127 125 132 85e-5 0 -.0013 18 127 796 0 133 124 128 129 ?1 29 132 994 0 1
31 129 134 .00315 -1e-5 -.0017 18 131 982 0 135 128 136 132 ?1 29 134 993 0 136
 132 137 .0022 -1e-5 -.0017 18 136 983 0 138 131 139 134 ?1 29 137 1015 0 139 13
4 140 .00315 -1e-5 -.00215 18 139 1003 0 141 136 142 137 ?1 29 140 1036 0 142 13
7 143 .0022 -1e-5 -.00215 18 142 1024 0 144 139 145 140 ?1 29 143 1078 0 145 140
 146 .0018 -1e-5 -.0017 18 145 1066 0 147 142 148 143 ?1 29 146 1077 0 148 143 1
49 85e-5 -1e-5 -.0017 18 148 1067 0 150 145 151 146 ?1 29 149 1099 0 151 146 152
 .0018 -1e-5 -.00215 18 151 1087 0 153 148 154 149 ?1 29 152 1120 0 154 149 155
 85e-5 -1e-5 -.00215 18 154 1108 0 156 151 157 152 ?1 29 155 1162 0 157 152 158
 .00315 -1e-5 -85e-5 18 157 1150 0 159 154 160 155 ?1 29 158 1161 0 160 155 161
 .0022 -1e-5 -85e-5 18 160 1151 0 162 157 163 158 ?1 29 161 1183 0 163 158 164 .
00315 -1e-5 -.0013 18 163 1171 0 165 160 166 161 ?1 29 164 1204 0 166 161 167 .0
022 -1e-5 -.0013 18 166 1192 0 168 163 169 164 ?1 29 167 1246 0 169 164 170 .001
8 -1e-5 -85e-5 18 169 1234 0 171 166 172 167 ?1 29 170 1245 0 172 167 173 85e-5
 -1e-5 -85e-5 18 172 1235 0 174 169 175 170 ?1 29 173 1267 0 175 170 176 .0018 -
1e-5 -.0013 18 175 1255 0 177 172 178 173 ?1 29 176 1288 0 178 173 179 85e-5 -1e
-5 -.0013 18 178 1276 0 180 175 0 176 ?1 29 179 1470 0 83 176 181 .00315 -1e-5 -
45e-5 18 83 293 0 182 80 183 179 ?1 29 181 1471 0 184 179 185 .00355 -1e-5 -85e-
5 18 184 300 0 186 187 188 181 ?1 29 185 1476 0 187 181 189 .00355 -1e-5 -.00215
 18 187 299 0 190 191 184 185 ?1 29 189 1477 0 191 185 192 .00315 -1e-5 -.00255
 18 191 298 0 193 194 187 189 ?1 29 192 1482 0 194 189 195 .000850000000000021 -
1e-5 -.00255 18 194 297 0 196 197 191 192 ?1 29 195 1483 0 197 192 198 45e-5 -1e
-5 -.00215 18 197 296 0 199 200 194 195 ?1 29 198 1487 0 200 195 201 45e-5 -1e-5
 -.000850000000000021 18 200 295 0 202 183 197 198 ?1 29 201 1488 0 183 198 203
 85e-5 -1e-5 -45e-5 18 183 294 0 204 83 200 201 ?1 29 203 1514 0 44 201 205 .000
4000000000000135 -2513570270977135e-34 -999999999999864e-19 18 44 32 0 206 38 41
 203 ?1 29 205 1515 0 38 203 207 1e-4 -2513570270977135e-34 -4e-4 18 38 36 0 208
 29 44 205 ?1 29 207 1518 0 209 205 210 45e-5 650521303491303e-33 -.000850000000
000021 18 209 451 0 211 212 213 207 ?1 29 210 1519 0 212 207 214 85e-5 650521303
491303e-33 -45e-5 18 212 424 0 215 23 209 210 ?1 29 214 1522 0 216 210 217 .0008
50000000000021 650521303491303e-33 -.00255 18 216 510 0 218 213 219 214 ?1 29 21
7 1523 0 213 214 220 45e-5 650521303491303e-33 -.00215 18 213 481 0 221 209 216
 217 ?1 29 220 1526 0 87 217 222 .00355 650521303491303e-33 -.00215 18 87 569 0
 223 219 84 220 ?1 29 222 1527 0 219 220 24 .00315 650521303491303e-33 -.00255 1
8 219 542 0 224 216 87 222 ?1 29 24 1542 0 188 222 9 .00315 650521303491303e-33
 -45e-5 18 188 392 0 225 184 23 24 ?1 17 225 0 226 227 228 188 229 230 0 231 -18
 23 395 0 229 188 212 9 ?1 17 229 0 232 186 233 23 225 230 0 228 +15 255 232 387
 0 233 234 0 17 186 0 232 235 229 184 236 237 0 238 +17 233 0 232 229 235 188 23
9 240 0 0 +16 230 779 0 ?229 241 242 243 0 0 1 17 228 0 226 225 244 23 223 245 0
 236 -15 226 757 0 246 247 0 17 244 0 226 228 248 87 224 249 0 0 -17 223 0 250 2
51 236 87 228 245 0 252 +16 245 597 0 ?223 253 254 255 0 0 1 17 236 0 250 223 25
6 23 186 237 0 0 -15 250 594 0 251 257 0 17 256 0 250 236 251 184 190 258 0 0 -1
6 237 391 0 ?186 240 259 260 0 0 1 16 240 389 0 ?233 258 237 261 0 0 1 16 259 42
0 0 ?231 237 262 263 0 0 1 30 255 260 409 0 237 264 261 0 +.00355 -4999999999997
5e-19 -85e-5 0 -1 0 30 264 311 0 258 265 260 0 +.00355 -1e-5 -.0015 0 0 -1 30 26
1 411 0 240 260 266 0 +.00314999999999996 -49999999999975e-19 -45e-5 0 1 0 30 26
6 436 0 262 261 267 0 +85e-5 -49999999999975e-19 -45e-5 0 1 0 16 262 421 0 ?268
 259 269 266 0 0 1 30 267 470 0 270 266 271 0 +45e-5 -49999999999975e-19 -.00085
0000000000042 0 1 0 16 270 448 0 ?272 269 273 267 0 0 1 30 271 497 0 274 267 275
 0 +45e-5 -49999999999975e-19 -.00215 0 1 0 16 274 478 0 ?276 273 277 271 0 0 1
 30 275 529 0 278 271 279 0 +.000850000000000042 -49999999999975e-19 -.00255 0 1
 0 16 278 507 0 ?280 277 281 275 0 0 1 30 279 554 0 282 275 283 0 +.00315 -49999
999999975e-19 -.00255 0 1 0 16 282 539 0 ?284 281 249 279 0 0 1 30 283 588 0 253
 279 263 0 +.00355 -49999999999975e-19 -.00214999999999996 0 1 0 16 253 566 0 ?2
52 249 245 283 0 0 1 30 263 742 0 259 283 255 0 +.002 0 -45e-5 1 0 0 30 255 749
 0 245 263 285 0 +.00355 0 -.0015 0 0 -1 30 285 830 0 254 255 286 0 +.002 0 -.00
17 -1 0 0 16 254 758 0 ?287 245 288 285 0 0 1 30 286 829 0 288 285 289 0 +.00315
 0 -.0015 0 0 1 16 288 759 0 ?290 254 291 286 0 0 1 30 289 828 0 291 286 292 0 +
.002 0 -.00215 1 0 0 16 291 760 0 ?293 288 294 289 0 0 1 30 292 827 0 294 289 29
5 0 +.0022 0 -.0015 0 0 -1 16 294 761 0 ?296 291 297 292 0 0 1 30 295 826 0 297
 292 298 0 +.002 0 -.0017 -1 0 0 16 297 762 0 ?299 294 300 295 0 0 1 30 298 825
 0 300 295 301 0 +.0018 0 -.0015 0 0 1 16 300 763 0 ?302 297 303 298 0 0 1 30 30
1 824 0 303 298 304 0 +.002 0 -.00215 1 0 0 16 303 764 0 ?305 300 306 301 0 0 1
 30 304 823 0 306 301 307 0 +85e-5 0 -.0015 0 0 -1 16 306 765 0 ?308 303 309 304
 0 0 1 30 307 822 0 309 304 310 0 +.002 0 -85e-5 -1 0 0 16 309 766 0 ?311 306 31
2 307 0 0 1 30 310 821 0 312 307 313 0 +.00315 0 -.0015 0 0 1 16 312 767 0 ?314
 309 315 310 0 0 1 30 313 820 0 315 310 316 0 +.002 0 -.0013 1 0 0 16 315 768 0
 ?317 312 318 313 0 0 1 30 316 819 0 318 313 319 0 +.0022 0 -.0015 0 0 -1 16 318
 769 0 ?320 315 321 316 0 0 1 30 319 818 0 321 316 322 0 +.002 0 -85e-5 -1 0 0 1
6 321 770 0 ?323 318 324 319 0 0 1 30 322 817 0 324 319 325 0 +.0018 0 -.0015 0
 0 1 16 324 771 0 ?326 321 327 322 0 0 1 30 325 816 0 327 322 328 0 +.002 0 -.00
13 1 0 0 16 327 772 0 ?329 324 241 325 0 0 1 30 328 815 0 241 325 330 0 +85e-5 0
 -.0015 0 0 -1 16 241 773 0 ?331 327 230 328 0 0 1 30 330 875 0 273 328 332 0 +4
5e-5 0 -.0015 0 0 1 16 273 477 0 ?211 270 274 330 0 0 1 30 332 890 0 281 330 333
 0 +.002 0 -.00255 -1 0 0 16 281 538 0 ?218 278 282 332 0 0 1 30 333 990 0 242 3
32 334 0 +.00315 -49999999999975e-19 -.0017 0 1 0 16 242 978 0 ?86 230 335 333 0
 0 1 30 334 989 0 335 333 336 0 +.002675 -1e-5 -.0017 1 0 0 16 335 979 0 ?135 24
2 337 334 0 0 1 30 336 988 0 337 334 338 0 +.0022 -49999999999975e-19 -.0017 0 -
1 0 16 337 980 0 ?339 335 340 336 0 0 1 30 338 1011 0 340 336 341 0 +.00315 -499
99999999975e-19 -.00215 0 1 0 16 340 999 0 ?90 337 342 338 0 0 1 30 341 1010 0 3
42 338 343 0 +.00315 -1e-5 -.001925 0 0 -1 16 342 1000 0 ?141 340 344 341 0 0 1
 30 343 1032 0 344 341 345 0 +.0022 -49999999999975e-19 -.00215 0 1 0 16 344 102
0 0 ?97 342 346 343 0 0 1 30 345 1031 0 346 343 347 0 +.002675 -1e-5 -.00215 -1
 0 0 16 346 1021 0 ?144 344 348 345 0 0 1 30 347 1052 0 348 345 349 0 +.0022 -1e
-5 -.001925 0 0 1 16 348 1042 0 ?138 346 350 347 0 0 1 30 349 1074 0 350 347 351
 0 +.0018 -49999999999975e-19 -.0017 0 1 0 16 350 1062 0 ?99 348 352 349 0 0 1 3
0 351 1073 0 352 349 353 0 +.001325 -1e-5 -.0017 1 0 0 16 352 1063 0 ?147 350 35
4 351 0 0 1 30 353 1072 0 354 351 355 0 +85e-5 -49999999999975e-19 -.0017 0 -1 0
 16 354 1064 0 ?356 352 357 353 0 0 1 30 355 1095 0 357 353 358 0 +.0018 -499999
99999975e-19 -.00215 0 1 0 16 357 1083 0 ?102 354 359 355 0 0 1 30 358 1094 0 35
9 355 360 0 +.0018 -1e-5 -.001925 0 0 -1 16 359 1084 0 ?153 357 361 358 0 0 1 30
 360 1116 0 361 358 362 0 +85e-5 -49999999999975e-19 -.00215 0 1 0 16 361 1104 0
 ?109 359 363 360 0 0 1 30 362 1115 0 363 360 364 0 +.001325 -1e-5 -.00215 -1 0
 0 16 363 1105 0 ?156 361 365 362 0 0 1 30 364 1136 0 365 362 366 0 +85e-5 -1e-5
 -.001925 0 0 1 16 365 1126 0 ?150 363 367 364 0 0 1 30 366 1158 0 367 364 368 0
 +.00315 -49999999999975e-19 -85e-5 0 1 0 16 367 1146 0 ?111 365 369 366 0 0 1 3
0 368 1157 0 369 366 370 0 +.002675 -1e-5 -85e-5 1 0 0 16 369 1147 0 ?159 367 37
1 368 0 0 1 30 370 1156 0 371 368 372 0 +.0022 -49999999999975e-19 -85e-5 0 -1 0
 16 371 1148 0 ?373 369 374 370 0 0 1 30 372 1179 0 374 370 375 0 +.00315 -49999
999999975e-19 -.0013 0 1 0 16 374 1167 0 ?114 371 376 372 0 0 1 30 375 1178 0 37
6 372 377 0 +.00315 -1e-5 -.001075 0 0 -1 16 376 1168 0 ?165 374 378 375 0 0 1 3
0 377 1200 0 378 375 379 0 +.0022 -49999999999975e-19 -.0013 0 1 0 16 378 1188 0
 ?121 376 380 377 0 0 1 30 379 1199 0 380 377 381 0 +.002675 -1e-5 -.0013 -1 0 0
 16 380 1189 0 ?168 378 382 379 0 0 1 30 381 1220 0 382 379 383 0 +.0022 -1e-5 -
.001075 0 0 1 16 382 1210 0 ?162 380 384 381 0 0 1 30 383 1242 0 384 381 385 0 +
.0018 -49999999999975e-19 -85e-5 0 1 0 16 384 1230 0 ?123 382 386 383 0 0 1 30 3
85 1241 0 386 383 387 0 +.001325 -1e-5 -85e-5 1 0 0 16 386 1231 0 ?171 384 388 3
85 0 0 1 30 387 1240 0 388 385 389 0 +85e-5 -49999999999975e-19 -85e-5 0 -1 0 16
 388 1232 0 ?390 386 391 387 0 0 1 30 389 1263 0 391 387 392 0 +.0018 -499999999
99975e-19 -.0013 0 1 0 16 391 1251 0 ?126 388 393 389 0 0 1 30 392 1262 0 393 38
9 394 0 +.0018 -1e-5 -.001075 0 0 -1 16 393 1252 0 ?177 391 395 392 0 0 1 30 394
 1284 0 395 392 396 0 +85e-5 -49999999999975e-19 -.0013 0 1 0 16 395 1272 0 ?133
 393 397 394 0 0 1 30 396 1283 0 397 394 398 0 +.001325 -1e-5 -.0013 -1 0 0 16 3
97 1273 0 ?180 395 399 396 0 0 1 30 398 1304 0 399 396 400 0 +85e-5 -1e-5 -.0010
75 0 0 1 16 399 1294 0 ?174 397 401 398 0 0 1 31 400 1469 0 402 398 403 0 -.0031
5 -1e-5 -85e-5 0 -1 0 0 0 -1 4e-4 16 402 280 0 ?238 404 405 400 0 0 1 31 403 147
5 0 406 400 407 0 -.00315 -1e-5 -.00215 0 -1 0 0 0 -1 4e-4 16 406 286 0 ?193 408
 258 403 0 0 1 31 407 1481 0 409 403 410 0 -85e-5 -1e-5 -.00215 0 -1 0 0 0 -1 4e
-4 16 409 284 0 ?199 411 408 407 0 0 1 31 410 1486 0 412 407 413 0 -85e-5 -1e-5
 -85e-5 0 -1 0 0 0 -1 4e-4 16 412 282 0 ?204 405 411 410 0 0 1 30 413 1505 0 414
 410 415 0 +.000400000000000027 -49999999999975e-19 -999999999999728e-19 0 1 0 1
6 414 156 0 ?206 416 417 413 0 0 1 30 415 1507 0 418 413 419 0 +.002 0 -1e-4 -1
 0 0 16 418 33 0 ?420 421 422 415 0 0 1 30 419 1509 0 423 415 424 0 +1e-4 -49999
999999975e-19 -4e-4 0 1 0 16 423 135 0 ?208 425 416 419 0 0 1 30 424 1511 0 426
 419 427 0 +1e-4 0 -.0015 0 0 -1 16 426 41 0 ?428 429 421 424 0 0 1 30 427 1513
 0 421 424 430 0 -94e-6 -335425047112703e-33 -406e-6 .707106781186548 0 .7071067
81186548 16 421 37 0 ?431 426 418 427 0 0 1 31 430 1517 0 269 427 432 0 -85e-5 1
301042606982604e-33 -85e-5 0 -1 0 0 0 -1 4e-4 16 269 447 0 ?215 262 270 430 0 0
 1 31 432 1521 0 277 430 433 0 -85e-5 1301042606982604e-33 -.00215 0 -1 0 0 0 -1
 4e-4 16 277 506 0 ?221 274 278 432 0 0 1 31 433 1525 0 249 432 243 0 -.00315 13
01042606982604e-33 -.00215 0 -1 0 0 0 -1 4e-4 16 249 565 0 ?224 282 253 433 0 0
 1 31 243 1541 0 230 433 434 0 -.00315 1301042606982604e-33 -85e-5 0 -1 0 0 0 -1
 4e-4 31 434 2621 0 435 243 22 0 -.00278 98e-5 -.0015 0 1 0 0 0 1 .0003633879448
218885 16 435 2612 0 ?436 27 437 434 0 0 1 31 22 2759 0 27 434 8 0 +.00278 99e-5
 -.0015 0 1 0 0 0 1 .000735072679590805 16 27 2756 0 ?438 11 435 22 0 0 1 17 438
 0 439 438 438 0 440 27 0 0 +15 439 2757 0 438 441 442 17 440 0 443 440 440 0 43
8 27 0 0 -15 443 2782 0 440 20 0 14 255 20 2780 444 ?0 445 446 6 7 +0 0 0 445 25
 81 1 444 2954 447 20 448 0 0 449 450 14 445 2670 449 ?20 451 452 6 453 +0 0 20
 451 25 15 446 2781 0 454 20 443 13 25 3 0 0 0 0 0 0 10 18 14 18 2616 455 ?456 0
 457 6 458 +459 459 460 0 25 81 1 455 2956 447 18 461 0 449 462 463 14 456 1379
 462 1e-8 464 18 465 6 466 +0 0 441 464 25 15 457 2569 0 467 18 468 50 458 2581
 0 459 469 470 0 +0 98e-5 0 0 1 0 0 0 1 14 459 2566 471 ?451 441 472 6 458 +18 1
8 451 441 25 14 460 2 473 1e-8 441 474 475 6 21 -0 0 474 18 25 81 1 473 2959 447
 460 476 0 471 477 478 14 441 2556 477 ?459 460 439 6 470 -0 0 459 456 25 14 474
 87 479 1e-8 460 480 31 6 481 +0 0 480 460 25 15 475 31 0 482 460 483 50 21 1498
 0 460 481 7 0 +-8e-5 0 6e-5 0 1 0 1 0 0 50 481 1497 0 474 484 21 0 +.0039 61211
88119965e-18 -.002956 1 0 0 0 0 1 50 484 1496 0 480 485 481 0 +24e-6 61211881199
65e-18 -.0029 0 0 -1 1 0 0 14 480 108 486 1e-8 474 487 488 6 484 +0 0 487 474 25
 50 485 1495 0 487 489 484 0 +1e-4 6121188119965e-18 -35e-5 -1 0 0 0 0 -1 14 487
 129 490 1e-8 480 491 492 6 485 +0 0 491 480 25 50 489 1494 0 491 493 485 0 +94e
-6 -1612118811996e-17 -406e-6 -.707106781186548 0 .707106781186548 .707106781186
548 0 .707106781186548 14 491 150 494 1e-8 487 495 496 6 489 +0 0 495 487 25 50
 493 1493 0 495 497 489 0 +.00397 6121188119965e-18 -1e-4 0 0 1 -1 0 0 14 495 17
1 498 1e-8 491 499 500 6 493 +0 0 499 491 25 50 497 1492 0 499 501 493 0 +0 -2e-
5 -.00306 -1 0 0 0 0 1 14 499 192 502 1e-8 495 503 504 6 497 +0 0 503 495 25 50
 501 1491 0 503 505 497 0 +.00408 -2e-5 -.003 0 0 -1 -1 0 0 14 503 213 506 1e-8
 499 507 508 6 501 +0 0 507 499 25 50 505 1490 0 507 509 501 0 +.004 -2e-5 6e-5
 1 0 0 0 0 -1 14 507 234 510 1e-8 503 511 512 6 505 +0 0 511 503 25 50 509 1489
 0 511 513 505 0 +-8e-5 -2e-5 0 0 0 1 1 0 0 14 511 255 514 1e-8 507 515 516 6 50
9 +0 0 515 507 25 50 513 1465 0 515 517 509 0 +24e-6 -1e-5 -.002956 0 -1 0 1 0 0
 14 515 276 518 1e-8 511 519 520 6 513 +0 0 519 511 25 50 517 1445 0 519 521 513
 0 +-8e-5 .001 6e-5 0 1 0 1 0 0 14 519 342 522 1e-8 515 234 523 6 517 +0 0 234 5
15 25 50 521 1444 0 524 525 517 0 +804e-6 6121188119965e-18 -45e-5 0 0 -1 1 0 0
 14 524 415 526 1e-8 234 527 528 6 521 +0 0 527 234 25 50 525 1443 0 529 530 521
 0 +45e-5 6121188119965e-18 -.002176 1 0 0 0 0 1 14 529 474 531 1e-8 527 532 533
 6 525 +0 0 532 527 25 50 530 1442 0 534 535 525 0 +.003196 6121188119965e-18 -.
00255 0 0 1 -1 0 0 14 534 533 536 1e-8 532 537 538 6 530 +0 0 537 532 25 50 535
 1441 0 257 539 530 0 +.00355 6121188119965e-18 -824e-6 -1 0 0 0 0 -1 14 257 592
 540 1e-8 537 247 250 6 535 +0 0 247 537 25 50 539 1432 0 247 541 535 0 +-8e-5 0
 6e-5 0 1 0 1 0 0 14 247 751 542 1e-8 257 543 544 6 539 -0 0 543 257 25 50 541 1
421 0 543 545 539 0 +.003169 6121188119965e-18 -.0017 0 0 1 -1 0 0 14 543 975 54
6 1e-8 247 547 548 6 541 +0 0 547 247 25 50 545 1420 0 547 549 541 0 +.00315 612
1188119965e-18 -.002159 1 0 0 0 0 1 14 547 996 550 1e-8 543 551 552 6 545 +0 0 5
51 543 25 50 549 1419 0 551 553 545 0 +.002181 6121188119965e-18 -.00215 0 0 -1
 1 0 0 14 551 1017 554 1e-8 547 555 556 6 549 +0 0 555 547 25 50 553 1418 0 555
 557 549 0 +.0022 6121188119965e-18 -.001691 -1 0 0 0 0 -1 14 555 1038 558 1e-8
 551 559 560 6 553 +0 0 559 551 25 50 557 1417 0 559 561 553 0 +.001819 61211881
19965e-18 -.0017 0 0 1 -1 0 0 14 559 1059 562 1e-8 555 563 564 6 557 +0 0 563 55
5 25 50 561 1416 0 563 565 557 0 +.0018 6121188119965e-18 -.002159 1 0 0 0 0 1 1
4 563 1080 566 1e-8 559 567 568 6 561 +0 0 567 559 25 50 565 1415 0 567 569 561
 0 +831e-6 6121188119965e-18 -.00215 0 0 -1 1 0 0 14 567 1101 570 1e-8 563 571 5
72 6 565 +0 0 571 563 25 50 569 1414 0 571 573 565 0 +85e-5 6121188119965e-18 -.
001691 -1 0 0 0 0 -1 14 571 1122 574 1e-8 567 575 576 6 569 +0 0 575 567 25 50 5
73 1413 0 575 577 569 0 +.003169 6121188119965e-18 -85e-5 0 0 1 -1 0 0 14 575 11
43 578 1e-8 571 579 580 6 573 +0 0 579 571 25 50 577 1412 0 579 581 573 0 +.0031
5 6121188119965e-18 -.001309 1 0 0 0 0 1 14 579 1164 582 1e-8 575 583 584 6 577
 +0 0 583 575 25 50 581 1411 0 583 585 577 0 +.002181 6121188119965e-18 -.0013 0
 0 -1 1 0 0 14 583 1185 586 1e-8 579 587 588 6 581 +0 0 587 579 25 50 585 1410 0
 587 589 581 0 +.0022 6121188119965e-18 -841e-6 -1 0 0 0 0 -1 14 587 1206 590 1e
-8 583 591 592 6 585 +0 0 591 583 25 50 589 1409 0 591 593 585 0 +.001819 612118
8119965e-18 -85e-5 0 0 1 -1 0 0 14 591 1227 594 1e-8 587 595 596 6 589 +0 0 595
 587 25 50 593 1408 0 595 597 589 0 +.0018 6121188119965e-18 -.001309 1 0 0 0 0
 1 14 595 1248 598 1e-8 591 599 600 6 593 +0 0 599 591 25 50 597 1407 0 599 601
 593 0 +831e-6 6121188119965e-18 -.0013 0 0 -1 1 0 0 14 599 1269 602 1e-8 595 60
3 604 6 597 +0 0 603 595 25 50 601 1406 0 603 605 597 0 +85e-5 6121188119965e-18
 -841e-6 -1 0 0 0 0 -1 14 603 1290 606 1e-8 599 607 608 6 601 +0 0 607 599 25 50
 605 1405 0 607 609 601 0 +24e-6 -1e-5 -.002956 0 -1 0 1 0 0 14 607 1316 610 1e-
8 603 611 612 6 605 +0 0 611 603 25 50 609 1404 0 611 613 605 0 +24e-6 -1e-5 -.0
02956 0 -1 0 1 0 0 14 611 1337 614 1e-8 607 464 615 6 609 +0 0 464 607 25 50 613
 1403 0 464 466 609 0 +24e-6 -1e-5 -.002956 0 -1 0 1 0 0 14 464 1358 616 1e-8 61
1 456 617 6 613 +0 0 456 611 25 50 466 1402 0 456 618 613 0 +24e-6 -1e-5 -.00295
6 0 -1 0 1 0 0 51 255 618 573 0 537 619 466 0 -.00315 130019557403535e-32 -.0021
5 0 -1 0 4e-4 0 0 -1 14 537 562 620 1e-8 534 257 621 6 618 +0 0 257 534 25 51 61
9 514 0 532 622 618 0 -85e-5 130019557403535e-32 -.00215 0 -1 0 4e-4 0 0 -1 14 5
32 503 623 1e-8 529 534 624 6 619 +0 0 534 529 25 51 622 455 0 527 625 619 0 -85
e-5 130019557403535e-32 -85e-5 0 -1 0 4e-4 0 0 -1 14 527 444 626 1e-8 524 529 62
7 6 622 +0 0 529 524 25 51 625 396 0 234 470 622 0 -.00315 130019557403535e-32 -
85e-5 0 -1 0 4e-4 0 0 -1 14 234 385 628 1e-8 519 524 232 6 625 +0 0 524 519 25 5
1 470 2578 0 441 458 625 0 +.00278 98e-5 -.0015 0 1 0 .000735072679590805 0 0 1
 81 1 628 2999 447 234 629 0 626 630 631 80 255 1 447 632 633 9000 1 1 1 1 1 1 1
 1 0 FFFFTFTFFFFFFF1 81 1 629 2836 634 234 0 628 635 636 637 81 1 626 2998 447 5
27 638 0 623 628 639 81 1 630 3000 447 451 640 0 628 0 641 82 255 1 631 999999 1
4 451 2662 630 ?445 459 642 6 469 -0 0 445 459 25 81 1 640 2851 634 451 0 630 64
3 644 645 82 1 641 1281884315 80 1 634 0 646 8001 0 0 0 0 3 5 0 0 0 FFFFTFTFFFFF
FF2 81 1 643 2850 634 459 0 471 647 640 648 81 1 644 2852 634 445 0 449 640 448
 649 83 255 3 645 1 .807843137254902 .498039215686275 81 1 449 2955 447 445 644
 0 444 455 650 81 1 448 2853 634 20 0 444 644 0 651 83 3 649 .1019607843137254 .
1019607843137254 .1019607843137254 83 3 651 .1019607843137254 .1019607843137254
 .1019607843137254 82 1 650 1285554331 81 1 471 2958 447 459 643 0 462 473 652 8
1 1 647 2849 634 441 0 477 476 643 653 83 3 648 1 .807843137254902 .498039215686
275 81 1 477 2960 447 441 647 0 473 479 654 81 1 476 2848 634 460 0 473 655 647
 656 83 3 653 .1019607843137254 .1019607843137254 .1019607843137254 81 1 655 284
7 634 474 0 479 657 476 658 83 3 656 .1019607843137254 .1019607843137254 .101960
7843137254 81 1 479 2961 447 474 655 0 477 486 659 81 1 657 2846 634 480 0 486 6
60 655 661 83 3 658 1 .807843137254902 .498039215686275 81 1 486 2962 447 480 65
7 0 479 490 662 81 1 660 2845 634 487 0 490 663 657 664 83 3 661 1 .807843137254
902 .498039215686275 81 1 490 2963 447 487 660 0 486 494 665 81 1 663 2844 634 4
91 0 494 666 660 667 83 3 664 1 .807843137254902 .498039215686275 81 1 494 2964
 447 491 663 0 490 498 668 81 1 666 2843 634 495 0 498 669 663 670 83 3 667 1 .8
07843137254902 .498039215686275 81 1 498 2965 447 495 666 0 494 502 671 81 1 669
 2842 634 499 0 502 672 666 673 83 3 670 1 .807843137254902 .498039215686275 81
 1 502 2966 447 499 669 0 498 506 674 81 1 672 2841 634 503 0 506 675 669 676 83
 3 673 .356862745098039 .3176470588235295 .23921568627451 81 1 506 2967 447 503
 672 0 502 510 677 81 1 675 2840 634 507 0 510 678 672 679 83 3 676 .35686274509
8039 .3176470588235295 .23921568627451 81 1 510 2968 447 507 675 0 506 514 680 8
1 1 678 2839 634 511 0 514 681 675 682 83 3 679 .356862745098039 .31764705882352
95 .23921568627451 81 1 514 2969 447 511 678 0 510 518 683 81 1 681 2838 634 515
 0 518 636 678 684 83 3 682 .356862745098039 .3176470588235295 .23921568627451 8
1 1 518 2970 447 515 681 0 514 522 685 81 1 636 2837 634 519 0 522 629 681 686 8
3 3 684 1 .807843137254902 .498039215686275 81 1 522 2971 447 519 636 0 518 526
 687 83 3 686 .1019607843137254 .1019607843137254 .1019607843137254 81 1 526 297
2 447 524 635 0 522 531 688 82 1 687 955056287 81 1 635 2835 634 524 0 526 638 6
29 689 81 1 531 2973 447 529 690 0 526 536 691 82 1 688 999999 81 1 690 2833 634
 529 0 531 692 638 693 81 1 536 2974 447 534 694 0 531 540 695 82 1 691 999999 8
1 1 694 2831 634 534 0 536 696 692 697 81 1 540 2975 447 257 698 0 536 542 699 8
2 1 695 999999 81 1 698 2829 634 257 0 540 700 696 701 81 1 542 2976 447 247 700
 0 540 546 702 82 1 699 999999 81 1 700 2828 634 247 0 542 703 698 704 81 1 546
 2977 447 543 703 0 542 550 705 82 1 702 948437142 81 1 703 2827 634 543 0 546 7
06 700 707 81 1 550 2978 447 547 706 0 546 554 708 82 1 705 999999 81 1 706 2826
 634 547 0 550 709 703 710 81 1 554 2979 447 551 709 0 550 558 711 82 1 708 9999
99 81 1 709 2825 634 551 0 554 712 706 713 81 1 558 2980 447 555 712 0 554 562 7
14 82 1 711 999999 81 1 712 2824 634 555 0 558 715 709 716 81 1 562 2981 447 559
 715 0 558 566 717 82 1 714 999999 81 1 715 2823 634 559 0 562 718 712 719 81 1
 566 2982 447 563 718 0 562 570 720 82 1 717 999999 81 1 718 2822 634 563 0 566
 721 715 722 81 1 570 2983 447 567 721 0 566 574 723 82 1 720 999999 81 1 721 28
21 634 567 0 570 724 718 725 81 1 574 2984 447 571 724 0 570 578 726 82 1 723 99
9999 81 1 724 2820 634 571 0 574 727 721 728 81 1 578 2985 447 575 727 0 574 582
 729 82 1 726 999999 81 1 727 2819 634 575 0 578 730 724 731 81 1 582 2986 447 5
79 730 0 578 586 732 82 1 729 999999 81 1 730 2818 634 579 0 582 733 727 734 81
 1 586 2987 447 583 733 0 582 590 735 82 1 732 999999 81 1 733 2817 634 583 0 58
6 736 730 737 81 1 590 2988 447 587 736 0 586 594 738 82 1 735 999999 81 1 736 2
816 634 587 0 590 739 733 740 81 1 594 2989 447 591 739 0 590 598 741 82 1 738 9
99999 81 1 739 2815 634 591 0 594 742 736 743 81 1 598 2990 447 595 742 0 594 60
2 744 82 1 741 999999 81 1 742 2814 634 595 0 598 745 739 746 81 1 602 2991 447
 599 745 0 598 606 747 82 1 744 999999 81 1 745 2813 634 599 0 602 748 742 749 8
1 1 606 2992 447 603 748 0 602 610 750 82 1 747 999999 81 1 748 2812 634 603 0 6
06 751 745 752 81 1 610 2993 447 607 751 0 606 614 753 82 1 750 999999 81 1 751
 2811 634 607 0 610 754 748 755 81 1 614 2994 447 611 754 0 610 616 756 82 1 753
 999999 81 1 754 2810 634 611 0 614 757 751 758 81 1 616 2995 447 464 757 0 614
 620 759 82 1 756 999999 81 1 757 2809 634 464 0 616 760 754 761 81 1 620 2996 4
47 537 696 0 616 623 762 82 1 759 999999 81 1 696 2830 634 537 0 620 698 694 763
 81 1 623 2997 447 532 692 0 620 626 764 82 1 762 999999 81 1 692 2832 634 532 0
 623 694 690 765 82 1 764 999999 83 3 765 1 .807843137254902 .498039215686275 83
 3 763 1 .807843137254902 .498039215686275 81 1 760 2808 634 456 0 462 461 757 7
66 83 3 761 1 .807843137254902 .498039215686275 81 1 462 2957 447 456 760 0 455
 471 767 81 1 461 2807 634 18 0 455 0 760 768 83 3 766 1 .807843137254902 .49803
9215686275 83 3 768 .1019607843137254 .1019607843137254 .1019607843137254 82 1 7
67 999999 83 3 758 1 .807843137254902 .498039215686275 83 3 755 1 .8078431372549
02 .498039215686275 83 3 752 1 .807843137254902 .498039215686275 83 3 749 1 .807
843137254902 .498039215686275 83 3 746 1 .807843137254902 .498039215686275 83 3
 743 1 .807843137254902 .498039215686275 83 3 740 1 .807843137254902 .4980392156
86275 83 3 737 1 .807843137254902 .498039215686275 83 3 734 1 .807843137254902 .
498039215686275 83 3 731 1 .807843137254902 .498039215686275 83 3 728 1 .8078431
37254902 .498039215686275 83 3 725 1 .807843137254902 .498039215686275 83 3 722
 1 .807843137254902 .498039215686275 83 3 719 1 .807843137254902 .49803921568627
5 83 3 716 1 .807843137254902 .498039215686275 83 3 713 1 .807843137254902 .4980
39215686275 83 3 710 1 .807843137254902 .498039215686275 83 3 707 1 .80784313725
4902 .498039215686275 83 3 704 .1019607843137254 .1019607843137254 .101960784313
7254 83 3 701 1 .807843137254902 .498039215686275 83 3 697 1 .807843137254902 .4
98039215686275 81 1 638 2834 634 527 0 626 690 635 769 83 3 693 1 .8078431372549
02 .498039215686275 83 3 769 1 .807843137254902 .498039215686275 83 3 689 1 .807
843137254902 .498039215686275 82 1 685 999999 82 1 683 999999 82 1 680 999999 82
 1 677 999999 82 1 674 999999 82 1 671 999999 82 1 668 999999 82 1 665 999999 82
 1 662 999999 82 1 659 999999 82 1 654 1181024415 82 1 652 1176895643 79 255 15
 646 SDL/TYSA_COLOUR15 642 2665 0 770 451 771 51 469 2675 0 451 453 458 0 +.0027
8 -.000417496005322312 -.0015 0 1 0 .000147607128240851 0 0 1 50 453 2677 0 445
 0 469 0 +-8e-5 2e-4 6e-5 0 1 0 1 0 0 17 770 0 642 770 770 0 772 773 0 0 +15 771
 2666 0 774 451 0 17 774 0 771 774 774 0 775 776 0 0 +17 775 0 472 775 775 0 774
 776 0 0 -16 776 2653 0 ?774 773 0 777 0 0 1 16 773 2657 0 ?770 401 776 778 0 0
 1 31 777 2680 0 776 0 778 0 +.00278 98e-5 -.0015 0 1 0 0 0 1 .00014760712824085
1 31 778 2679 0 773 777 779 0 -.00278 2e-4 -.0015 0 1 0 0 0 1 .00014760712824085
1 31 779 2585 0 401 778 780 0 +.00278 98e-5 -.0015 0 1 0 0 0 1 .0007350726795908
05 16 401 2544 0 ?467 399 773 779 0 0 1 30 780 58 0 437 779 781 0 +.0039 0 -.001
5 0 0 1 16 437 48 0 ?32 435 429 780 0 0 1 30 781 60 0 429 780 782 0 +.002 0 -.00
29 1 0 0 16 429 45 0 ?783 437 426 781 0 0 1 30 782 72 0 422 781 784 0 +0 0 -.001
5 0 0 1 16 422 21 0 ?785 418 786 782 0 0 1 30 784 74 0 786 782 787 0 +.002 0 -.0
03 -1 0 0 16 786 18 0 ?788 422 789 784 0 0 1 30 787 77 0 789 784 790 0 +.004 0 -
.0015 0 0 -1 16 789 14 0 ?791 786 792 787 0 0 1 30 790 80 0 792 787 793 0 +.002
 0 0 1 0 0 16 792 10 0 ?794 789 35 790 0 0 1 30 793 102 0 35 790 795 0 +.0039 -4
9999999999975e-19 -.0029 0 1 0 16 35 90 0 ?28 792 796 793 0 0 1 30 795 101 0 796
 793 797 0 +.0039 -1e-5 -.0015 0 0 -1 16 796 91 0 ?33 35 798 795 0 0 1 30 797 10
0 0 798 795 799 0 +.0039 -49999999999975e-19 -1e-4 0 -1 0 16 798 92 0 ?800 796 8
01 797 0 0 1 30 799 123 0 801 797 802 0 +1e-4 -49999999999975e-19 -.0029 0 1 0 1
6 801 111 0 ?37 798 803 799 0 0 1 30 802 122 0 803 799 804 0 +.002 -1e-5 -.0029
 -1 0 0 16 803 112 0 ?64 801 425 802 0 0 1 30 804 144 0 425 802 805 0 +1e-4 -1e-
5 -.00165 0 0 1 16 425 132 0 ?806 803 423 804 0 0 1 30 805 165 0 416 804 807 0 +
25e-5 -1000000000000038e-20 -25e-5 .707106781186548 0 .707106781186548 16 416 15
3 0 ?808 423 414 805 0 0 1 30 807 184 0 417 805 809 0 +.00215 -1e-5 -1e-4 1 0 0
 16 417 176 0 ?61 414 810 807 0 0 1 30 809 207 0 810 807 811 0 +0 5e-4 -.003 0 -
1 0 16 810 195 0 ?47 417 812 809 0 0 1 30 811 206 0 812 809 813 0 +0 .001 -.0015
 0 0 -1 16 812 196 0 ?73 810 814 811 0 0 1 30 813 205 0 814 811 815 0 +0 5e-4 -1
35525271560688e-33 0 1 0 16 814 197 0 ?816 812 817 813 0 0 1 30 815 228 0 817 81
3 818 0 +.004 5e-4 -.003 0 -1 0 16 817 216 0 ?50 814 819 815 0 0 1 30 818 227 0
 819 815 820 0 +.002 .001 -.003 1 0 0 16 819 217 0 ?79 817 821 818 0 0 1 30 820
 249 0 821 818 822 0 +.004 5e-4 0 0 -1 0 16 821 237 0 ?57 819 823 820 0 0 1 30 8
22 248 0 823 820 824 0 +.004 .001 -.0015 0 0 1 16 823 238 0 ?82 821 404 822 0 0
 1 30 824 269 0 404 822 825 0 +.002 .001 0 -1 0 0 16 404 259 0 ?76 823 402 824 0
 0 1 30 825 317 0 405 824 826 0 +.002 -1e-5 -45e-5 1 0 0 16 405 281 0 ?182 402 4
12 825 0 0 1 30 826 315 0 411 825 265 0 +45e-5 -1e-5 -.0015 0 0 1 16 411 283 0 ?
202 412 409 826 0 0 1 30 265 313 0 408 826 264 0 +.002 -1e-5 -.00255 -1 0 0 16 4
08 285 0 ?196 409 406 265 0 0 1 17 196 0 520 199 193 194 827 408 0 828 +15 520 2
78 0 182 515 829 17 199 0 520 202 196 197 830 409 0 831 +17 193 0 520 196 190 19
1 832 406 0 833 +17 827 0 538 284 828 191 196 408 0 0 -17 828 0 538 827 218 194
 280 278 0 830 -15 538 535 0 828 534 0 17 218 0 538 828 284 216 248 281 0 280 +1
7 280 0 624 221 830 216 828 278 0 246 +17 830 0 624 280 831 194 199 409 0 0 -15
 624 505 0 280 532 0 17 831 0 624 830 221 197 276 274 0 834 -17 221 0 624 831 28
0 213 246 277 0 276 +17 276 0 533 211 834 213 831 274 0 835 +17 834 0 533 276 83
6 197 202 411 0 0 -15 533 476 0 276 529 0 17 836 0 533 834 211 200 272 270 0 837
 -17 202 0 520 204 199 200 834 411 0 836 +17 204 0 520 182 202 183 837 412 0 838
 +17 182 0 520 238 204 83 839 405 0 239 +17 837 0 627 272 838 200 204 412 0 0 -1
7 838 0 627 837 215 183 268 262 0 839 -15 627 446 0 272 527 0 17 215 0 627 838 2
72 212 840 269 0 268 +17 268 0 528 231 839 212 838 262 0 227 +17 839 0 528 268 2
39 183 182 405 0 0 -15 528 417 0 239 524 0 17 239 0 528 839 231 83 233 240 0 235
 -17 231 0 528 239 268 188 227 259 0 233 +17 235 0 232 233 186 83 238 402 0 0 -1
7 238 0 520 190 182 184 235 402 0 256 +17 190 0 520 193 238 187 256 258 0 251 +1
6 258 287 0 ?190 406 240 264 0 0 1 17 251 0 250 256 223 187 252 253 0 832 -17 25
2 0 621 224 832 87 251 253 0 244 +17 832 0 621 252 833 187 193 406 0 0 -15 621 5
64 0 252 537 0 17 833 0 621 832 224 191 284 282 0 827 -17 224 0 621 833 252 219
 244 249 0 284 +17 284 0 538 218 827 219 833 282 0 248 +17 248 0 226 244 246 219
 218 281 0 0 -17 246 0 226 248 835 216 221 277 0 0 -17 835 0 226 246 840 213 211
 273 0 0 -17 840 0 226 835 227 209 215 269 0 0 -17 211 0 533 836 276 209 835 273
 0 272 +17 272 0 627 215 837 209 836 270 0 840 +17 227 0 226 840 225 212 231 259
 0 0 -15 829 279 0 841 515 0 17 841 0 829 70 842 59 33 796 0 0 -17 70 0 829 67 8
41 68 61 417 0 808 -17 842 0 829 841 843 55 64 803 0 34 -17 33 0 31 28 800 55 84
1 796 0 842 +15 31 89 0 33 474 0 17 800 0 31 33 32 59 844 798 0 841 +17 32 0 31
 800 28 41 36 437 0 0 +17 844 0 500 420 61 41 800 798 0 32 -15 500 173 0 844 495
 0 17 420 0 500 845 844 44 43 418 0 0 +17 61 0 500 844 845 59 70 417 0 800 +17 8
45 0 500 61 420 68 206 414 0 0 -17 206 0 496 431 808 44 845 414 0 846 +15 496 15
2 0 847 491 0 17 431 0 496 847 206 38 846 421 0 0 +17 808 0 496 206 847 68 67 41
6 0 845 +17 846 0 475 43 848 44 431 421 0 420 -17 43 0 475 36 846 41 420 418 0 8
44 -17 848 0 475 846 482 38 428 426 0 431 -17 482 0 475 848 36 29 783 429 0 428
 -17 428 0 492 849 208 29 848 426 0 0 +15 492 131 0 849 487 0 17 849 0 492 806 4
28 62 37 801 0 0 -17 208 0 492 428 806 38 847 423 0 848 +17 806 0 492 208 849 65
 843 425 0 847 +17 847 0 496 808 431 65 208 423 0 0 -17 843 0 829 842 67 62 806
 425 0 849 -17 67 0 829 843 70 65 808 416 0 806 -17 37 0 488 783 64 29 849 801 0
 482 +15 488 110 0 64 480 0 17 783 0 488 34 37 12 482 429 0 0 +17 64 0 488 37 34
 62 842 803 0 843 +17 34 0 488 64 783 55 28 35 0 0 -17 36 0 475 482 43 12 32 437
 0 783 -17 76 0 516 850 851 74 852 404 0 816 +15 516 257 0 76 511 0 17 850 0 516
 794 76 52 816 814 0 785 -17 851 0 516 76 794 80 57 821 0 0 -17 852 0 853 854 85
5 80 76 404 0 851 -17 816 0 504 73 785 74 850 814 0 855 +15 504 194 0 73 499 0 1
7 73 0 504 47 816 71 855 812 0 856 +17 785 0 504 816 47 52 857 422 0 0 +17 855 0
 853 852 856 74 73 812 0 0 -15 853 346 0 856 519 0 17 856 0 853 855 854 71 79 81
9 0 858 -17 854 0 853 856 852 77 82 823 0 859 -17 79 0 508 50 858 77 856 819 0 8
54 +17 858 0 508 79 788 71 47 810 0 0 -15 508 215 0 79 503 0 17 788 0 508 858 50
 45 860 786 0 0 +17 47 0 504 785 73 45 858 810 0 857 +17 857 0 483 860 54 45 785
 422 0 788 -15 483 8 0 860 460 0 17 860 0 483 861 857 48 788 786 0 791 -17 54 0
 483 857 861 52 794 792 0 850 -17 861 0 483 54 860 51 791 789 0 794 -17 794 0 51
6 851 850 51 54 792 0 0 +17 791 0 512 859 57 48 861 789 0 0 +15 512 236 0 82 507
 0 17 859 0 512 82 791 77 50 817 0 0 -17 57 0 512 791 82 51 851 821 0 861 +17 82
 0 512 57 859 80 854 823 0 852 +17 50 0 508 788 79 48 859 817 0 860 +17 467 0 45
7 467 467 0 862 401 0 0 +17 862 0 442 862 862 0 467 401 0 0 -15 442 2559 0 862 4
41 0 15 472 2647 0 775 459 863 15 863 2614 0 864 459 0 17 864 0 863 864 864 0 43
6 435 0 0 -17 436 0 468 436 436 0 864 435 0 0 +15 468 2613 0 436 18 0 17 772 0 4
52 772 772 0 770 773 0 0 -15 452 2672 0 772 445 0 82 1 639 999999 83 3 637 1 .80
7843137254902 .498039215686275 79 14 633 SWEntUnchanged15 617 1360 0 865 464 0 1
7 865 0 617 866 867 157 165 376 0 868 -17 866 0 617 869 865 160 159 369 0 0 -17
 867 0 617 865 869 163 168 380 0 870 -17 165 0 584 114 868 163 865 376 0 867 +17
 868 0 584 165 314 157 111 367 0 0 -15 584 1166 0 165 579 0 17 314 0 584 868 114
 107 871 312 0 0 +17 111 0 580 311 159 107 868 367 0 872 +15 580 1145 0 159 575
 0 17 311 0 580 373 111 116 872 309 0 0 +17 159 0 580 111 373 157 866 369 0 865
 +17 872 0 873 871 118 107 311 309 0 314 -15 873 755 0 871 247 874 17 871 0 873
 875 872 112 314 312 0 317 -17 118 0 873 872 875 116 320 318 0 876 -17 875 0 873
 118 871 115 317 315 0 320 -17 320 0 592 877 876 115 118 318 0 0 +17 876 0 592 3
20 162 116 373 371 0 311 -15 592 1208 0 162 587 0 17 162 0 592 876 877 160 869 3
82 0 373 +17 373 0 580 159 311 160 876 371 0 866 +17 877 0 592 162 320 166 121 3
78 0 0 -17 869 0 617 867 866 166 162 382 0 877 -17 121 0 588 317 168 115 877 378
 0 875 +15 588 1187 0 168 583 0 17 317 0 588 870 121 112 875 315 0 0 +17 168 0 5
88 121 870 166 867 380 0 869 +17 870 0 588 168 317 163 114 374 0 0 -17 114 0 584
 314 165 112 870 374 0 871 +15 874 756 0 878 247 226 17 878 0 874 879 880 124 32
6 324 0 329 -17 879 0 874 130 878 127 329 327 0 331 -17 880 0 874 878 130 119 32
3 321 0 326 -17 326 0 600 881 126 119 878 324 0 0 +17 329 0 604 882 133 124 879
 327 0 0 +15 604 1271 0 180 599 0 17 882 0 604 180 329 175 126 391 0 0 -17 133 0
 604 329 180 127 883 395 0 879 +17 180 0 604 133 882 178 884 397 0 885 +17 883 0
 608 174 331 178 133 395 0 0 -15 608 1292 0 174 603 0 17 174 0 608 886 883 172 8
85 399 0 390 +17 331 0 608 883 886 127 130 241 0 0 +17 886 0 608 331 174 128 390
 388 0 323 -17 130 0 874 880 879 128 331 241 0 886 -17 390 0 596 171 323 172 886
 388 0 887 +17 323 0 596 390 123 128 880 321 0 0 +15 596 1229 0 171 591 0 17 123
 0 596 323 171 119 881 384 0 880 +17 171 0 596 123 390 169 887 386 0 888 +17 881
 0 600 177 326 169 123 384 0 0 -15 600 1250 0 177 595 0 17 177 0 600 126 881 175
 888 393 0 884 +17 126 0 600 326 177 124 882 391 0 878 +17 888 0 465 887 884 169
 177 393 0 881 -17 884 0 465 888 885 175 180 397 0 882 -15 465 1381 0 888 456 0
 17 885 0 465 884 887 178 174 399 0 883 -17 887 0 465 885 888 172 171 386 0 0 -1
5 615 1339 0 889 611 0 17 889 0 615 890 891 145 153 359 0 892 -17 890 0 615 893
 889 148 147 352 0 0 -17 891 0 615 889 893 151 156 363 0 894 -17 153 0 568 102 8
92 151 889 359 0 891 +17 892 0 568 153 302 145 99 350 0 0 -15 568 1082 0 153 563
 0 17 302 0 568 892 102 95 895 300 0 0 +17 99 0 564 299 147 95 892 350 0 896 +15
 564 1061 0 147 559 0 17 299 0 564 356 99 104 896 297 0 0 +17 147 0 564 99 356 1
45 890 352 0 889 +17 896 0 897 895 106 95 299 297 0 302 -15 897 754 0 895 247 87
3 17 895 0 897 898 896 100 302 300 0 305 -17 106 0 897 896 898 104 308 306 0 899
 -17 898 0 897 106 895 103 305 303 0 308 -17 308 0 576 900 899 103 106 306 0 0 +
17 899 0 576 308 150 104 356 354 0 299 -15 576 1124 0 150 571 0 17 150 0 576 899
 900 148 893 365 0 356 +17 356 0 564 147 299 148 899 354 0 890 +17 900 0 576 150
 308 154 109 361 0 0 -17 893 0 615 891 890 154 150 365 0 900 -17 109 0 572 305 1
56 103 900 361 0 898 +15 572 1103 0 156 567 0 17 305 0 572 894 109 100 898 303 0
 0 +17 156 0 572 109 894 154 891 363 0 893 +17 894 0 572 156 305 151 102 357 0 0
 -17 102 0 568 302 153 100 894 357 0 895 +15 612 1318 0 901 607 0 17 901 0 612 9
02 903 131 141 342 0 904 -17 902 0 612 905 901 136 135 335 0 0 -17 903 0 612 901
 905 139 144 346 0 906 -17 141 0 552 90 904 139 901 342 0 903 +17 904 0 552 141
 290 131 86 242 0 0 -15 552 998 0 141 547 0 17 290 0 552 904 90 84 907 288 0 0 +
17 86 0 548 287 135 84 904 242 0 908 +15 548 977 0 135 543 0 17 287 0 548 339 86
 92 908 254 0 0 +17 135 0 548 86 339 131 902 335 0 901 +17 908 0 544 907 94 84 2
87 254 0 290 -15 544 753 0 907 247 897 17 907 0 544 909 908 88 290 288 0 293 -17
 94 0 544 908 909 92 296 294 0 910 -17 909 0 544 94 907 91 293 291 0 296 -17 296
 0 560 911 910 91 94 294 0 0 +17 910 0 560 296 138 92 339 337 0 287 -15 560 1040
 0 138 555 0 17 138 0 560 910 911 136 905 348 0 339 +17 339 0 548 135 287 136 91
0 337 0 902 +17 911 0 560 138 296 142 97 344 0 0 -17 905 0 612 903 902 142 138 3
48 0 911 -17 97 0 556 293 144 91 911 344 0 909 +15 556 1019 0 144 551 0 17 293 0
 556 906 97 88 909 291 0 0 +17 144 0 556 97 906 142 903 346 0 905 +17 906 0 556
 144 293 139 90 340 0 0 -17 90 0 552 290 141 88 906 340 0 907 +15 523 2764 0 26
 519 853 17 26 0 523 26 26 0 454 11 0 0 +17 454 0 446 454 454 0 26 11 0 0 -82 1
 478 999999 82 1 463 1195049113 82 1 450 -1161690977 19 19 5 0 1 0 10 6 S0 50 17
 2642 0 1 912 4 0 +-8e-5 2e-4 6e-5 0 1 0 1 0 0 50 912 2641 0 1 913 17 0 +-8e-5 2
e-4 6e-5 0 1 0 1 0 0 50 913 2640 0 1 0 912 0 +-8e-5 2e-4 6e-5 0 1 0 1 0 0 74 4 C
I16 index_map_offset0 0 1 dCCZ20 16 9 0 0 630 914 915 916 917 918 14 448 2 0 0 0
 0 0 0 0 0 0 0 0 81 5 914 2219 919 1 0 915 0 0 920 0 0 0 0 81 2 915 2505 921 1 9
14 916 0 0 0 922 81 2 916 2510 923 1 915 917 0 0 0 924 81 2 917 2750 925 1 916 9
18 0 0 0 926 81 2 918 2751 927 1 917 14 0 0 0 0 81 1 14 2793 928 1 918 2 0 0 929
 80 1 928 930 931 9000 1 1 1 1 1 1 1 1 0 FFTFFFFFFFFFFF1 82 1 929 24196751 79 10
 931 BODY_MATCH80 2 927 932 933 9000 0 0 0 0 3 5 0 0 0 FFTFFFFFFFFFFF9 1 79 16 9
33 BODY_RECIPE_200180 2 925 934 935 9000 0 0 0 0 3 5 0 0 0 FFTFFFFFFFFFFF9 1 82
 1 926 1 79 24 935 BODY_IN_LIGHTWEIGHT_PERM80 2 923 936 937 9000 0 0 0 0 3 5 0 0
 0 FFTFFFFFFFFFFF9 1 82 1 924 65 79 30 937 LAST_BODY_MODIFYING_FEATURE_ID80 2 92
1 938 939 9000 0 0 0 0 3 5 0 0 0 FFTFFFFFFFFFFT9 1 82 1 922 133 79 19 939 ENT_TI
ME_STAMP_200180 5 919 940 941 9000 0 0 0 0 3 6 0 0 0 FFTTTTTTFTTFTT2 2 2 2 2 83
 1 920 1 79 19 941 BODY_SCALING_FACTOR80 2 13 942 943 9000 0 0 0 0 3 5 0 0 0 FFT
FFFFFFFFFFF9 1 82 1 15 106 79 12 943 ATOM_ID_20011 0 
