  0
SECTION
  2
HEADER
  9
$ACADVER
  1
AC1009
  9
$DWGCODEPAGE
  3
ansi_1252
  9
$INSBASE
 10
0.0
 20
0.0
 30
0.0
  9
$EXTMIN
 10
-9.245871695258145
 20
-49.09392699812253
 30
0.0
  9
$EXTMAX
 10
11.31131836154523
 20
0.5000515400594991
 30
0.0
  9
$LIMMIN
 10
0.0
 20
0.0
  9
$LIMMAX
 10
12.0
 20
9.0
  9
$ORTHOMODE
 70
     0
  9
$REGENMODE
 70
     1
  9
$FILLMODE
 70
     1
  9
$QTEXTMODE
 70
     0
  9
$MIRRTEXT
 70
     1
  9
$DRAGMODE
 70
     2
  9
$LTSCALE
 40
1.0
  9
$OSMODE
 70
    37
  9
$ATTMODE
 70
     1
  9
$TEXTSIZE
 40
0.2
  9
$TRACEWID
 40
0.05
  9
$TEXTSTYLE
  7
STANDARD
  9
$CLAYER
  8
0
  9
$CELTYPE
  6
BYLAYER
  9
$CECOLOR
 62
   256
  9
$DIMSCALE
 40
1.0
  9
$DIMASZ
 40
0.18
  9
$DIMEXO
 40
0.0625
  9
$DIMDLI
 40
0.38
  9
$DIMRND
 40
0.0
  9
$DIMDLE
 40
0.0
  9
$DIMEXE
 40
0.18
  9
$DIMTP
 40
0.0
  9
$DIMTM
 40
0.0
  9
$DIMTXT
 40
0.18
  9
$DIMCEN
 40
0.09
  9
$DIMTSZ
 40
0.0
  9
$DIMTOL
 70
     0
  9
$DIMLIM
 70
     0
  9
$DIMTIH
 70
     1
  9
$DIMTOH
 70
     1
  9
$DIMSE1
 70
     0
  9
$DIMSE2
 70
     0
  9
$DIMTAD
 70
     0
  9
$DIMZIN
 70
     0
  9
$DIMBLK
  1

  9
$DIMASO
 70
     1
  9
$DIMSHO
 70
     1
  9
$DIMPOST
  1

  9
$DIMAPOST
  1

  9
$DIMALT
 70
     0
  9
$DIMALTD
 70
     2
  9
$DIMALTF
 40
25.4
  9
$DIMLFAC
 40
1.0
  9
$DIMTOFL
 70
     0
  9
$DIMTVP
 40
0.0
  9
$DIMTIX
 70
     0
  9
$DIMSOXD
 70
     0
  9
$DIMSAH
 70
     0
  9
$DIMBLK1
  1

  9
$DIMBLK2
  1

  9
$DIMSTYLE
  2
STANDARD
  9
$DIMCLRD
 70
     0
  9
$DIMCLRE
 70
     0
  9
$DIMCLRT
 70
     0
  9
$DIMTFAC
 40
1.0
  9
$DIMGAP
 40
0.09
  9
$LUNITS
 70
     2
  9
$LUPREC
 70
     4
  9
$SKETCHINC
 40
0.1
  9
$FILLETRAD
 40
0.5
  9
$AUNITS
 70
     0
  9
$AUPREC
 70
     0
  9
$MENU
  1
.
  9
$ELEVATION
 40
0.0
  9
$PELEVATION
 40
0.0
  9
$THICKNESS
 40
0.0
  9
$LIMCHECK
 70
     0
  9
$CHAMFERA
 40
0.0
  9
$CHAMFERB
 40
0.0
  9
$SKPOLY
 70
     0
  9
$TDCREATE
 40
2454910.5
  9
$TDUPDATE
 40
2460106.726536632
  9
$TDINDWG
 40
0.0000000116
  9
$TDUSRTIMER
 40
0.0000000116
  9
$USRTIMER
 70
     1
  9
$ANGBASE
 50
0.0
  9
$ANGDIR
 70
     0
  9
$PDMODE
 70
     0
  9
$PDSIZE
 40
0.0
  9
$PLINEWID
 40
0.0
  9
$COORDS
 70
     1
  9
$SPLFRAME
 70
     0
  9
$SPLINETYPE
 70
     6
  9
$SPLINESEGS
 70
     8
  9
$ATTDIA
 70
     0
  9
$ATTREQ
 70
     1
  9
$HANDLING
 70
     1
  9
$HANDSEED
  5
A5
  9
$SURFTAB1
 70
     6
  9
$SURFTAB2
 70
     6
  9
$SURFTYPE
 70
     6
  9
$SURFU
 70
     6
  9
$SURFV
 70
     6
  9
$UCSNAME
  2

  9
$UCSORG
 10
0.0
 20
0.0
 30
0.0
  9
$UCSXDIR
 10
1.0
 20
0.0
 30
0.0
  9
$UCSYDIR
 10
0.0
 20
1.0
 30
0.0
  9
$PUCSNAME
  2

  9
$PUCSORG
 10
0.0
 20
0.0
 30
0.0
  9
$PUCSXDIR
 10
1.0
 20
0.0
 30
0.0
  9
$PUCSYDIR
 10
0.0
 20
1.0
 30
0.0
  9
$USERI1
 70
     0
  9
$USERI2
 70
     0
  9
$USERI3
 70
     0
  9
$USERI4
 70
     0
  9
$USERI5
 70
     0
  9
$USERR1
 40
0.0
  9
$USERR2
 40
0.0
  9
$USERR3
 40
0.0
  9
$USERR4
 40
0.0
  9
$USERR5
 40
0.0
  9
$WORLDVIEW
 70
     1
  9
$SHADEDGE
 70
     3
  9
$SHADEDIF
 70
    70
  9
$TILEMODE
 70
     1
  9
$MAXACTVP
 70
    64
  9
$PLIMCHECK
 70
     0
  9
$PEXTMIN
 10
1.000000000000000E+20
 20
1.000000000000000E+20
 30
1.000000000000000E+20
  9
$PEXTMAX
 10
-1.000000000000000E+20
 20
-1.000000000000000E+20
 30
-1.000000000000000E+20
  9
$PLIMMIN
 10
0.0
 20
0.0
  9
$PLIMMAX
 10
12.0
 20
9.0
  9
$UNITMODE
 70
     0
  9
$VISRETAIN
 70
     1
  9
$PLINEGEN
 70
     0
  9
$PSLTSCALE
 70
     1
  0
ENDSEC
  0
SECTION
  2
TABLES
  0
TABLE
  2
VPORT
 70
     1
  0
VPORT
  2
*ACTIVE
 70
     0
 10
0.0
 20
0.0
 11
1.0
 21
1.0
 12
10.42990654205607
 22
4.5
 13
0.0
 23
0.0
 14
0.5
 24
0.5
 15
0.5
 25
0.5
 16
0.0
 26
0.0
 36
1.0
 17
0.0
 27
0.0
 37
0.0
 40
9.0
 41
1.972972972850329
 42
50.0
 43
0.0
 44
0.0
 50
0.0
 51
0.0
 71
     0
 72
   100
 73
     1
 74
     3
 75
     0
 76
     0
 77
     0
 78
     0
  0
ENDTAB
  0
TABLE
  2
LTYPE
 70
     2
  0
LTYPE
  2
CONTINUOUS
 70
     0
  3
Solid line
 72
    65
 73
     0
 40
0.0
  0
LTYPE
  2
CONTINUOUS2
 70
     0
  3
Solid Line
 72
    65
 73
     0
 40
0.0
  0
ENDTAB
  0
TABLE
  2
LAYER
 70
     2
  0
LAYER
  2
0
 70
     0
 62
     7
  6
CONTINUOUS
  0
LAYER
  2
LAYER_3
 70
     0
 62
     1
  6
CONTINUOUS
  0
ENDTAB
  0
TABLE
  2
STYLE
 70
     1
  0
STYLE
  2
STANDARD
 70
     0
 40
0.0
 41
1.0
 50
0.0
 71
     0
 42
0.2
  3
txt
  4

  0
ENDTAB
  0
TABLE
  2
VIEW
 70
     0
  0
ENDTAB
  0
TABLE
  2
UCS
 70
     0
  0
ENDTAB
  0
TABLE
  2
APPID
 70
     1
  0
APPID
  2
ACAD
 70
     0
  0
ENDTAB
  0
TABLE
  2
DIMSTYLE
 70
     1
  0
DIMSTYLE
  2
STANDARD
 70
     0
  3

  4

  5

  6

  7

 40
1.0
 41
0.18
 42
0.0625
 43
0.38
 44
0.18
 45
0.0
 46
0.0
 47
0.0
 48
0.0
140
0.18
141
0.09
142
0.0
143
25.4
144
1.0
145
0.0
146
1.0
147
0.09
 71
     0
 72
     0
 73
     1
 74
     1
 75
     0
 76
     0
 77
     0
 78
     0
170
     0
171
     2
172
     0
173
     0
174
     0
175
     0
176
     0
177
     0
178
     0
  0
ENDTAB
  0
ENDSEC
  0
SECTION
  2
BLOCKS
  0
BLOCK
  8
0
  2
$MODEL_SPACE
 70
     0
 10
0.0
 20
0.0
 30
0.0
  3
$MODEL_SPACE
  1

  0
ENDBLK
  5
21
  8
0
  0
BLOCK
 67
     1
  8
0
  2
$PAPER_SPACE
 70
     0
 10
0.0
 20
0.0
 30
0.0
  3
$PAPER_SPACE
  1

  0
ENDBLK
  5
1D
 67
     1
  8
0
  0
ENDSEC
  0
SECTION
  2
ENTITIES
  0
POLYLINE
  5
70
  8
LAYER_3
 66
     1
 10
0.0
 20
0.0
 30
0.0
  0
VERTEX
  5
7B
  8
LAYER_3
 10
-0.147346498530851
 20
-34.10533982855139
 30
0.0
  0
VERTEX
  5
7C
  8
LAYER_3
 10
11.31119328988959
 20
-34.10533982855139
 30
0.0
  0
SEQEND
  5
A1
  8
LAYER_3
  0
POLYLINE
  5
71
  8
LAYER_3
 66
     1
 10
0.0
 20
0.0
 30
0.0
  0
VERTEX
  5
7D
  8
LAYER_3
 10
-0.147346498530851
 20
-45.11334159586134
 30
0.0
  0
VERTEX
  5
7E
  8
LAYER_3
 10
-0.147346498530851
 20
-49.09392699812253
 30
0.0
  0
SEQEND
  5
A2
  8
LAYER_3
  0
POLYLINE
  5
72
  8
LAYER_3
 66
     1
 10
0.0
 20
0.0
 30
0.0
 70
     1
  0
VERTEX
  5
7F
  8
LAYER_3
 10
-0.0000747640538619
 20
0.5000515400594991
 30
0.0
 42
0.4142135623730951
  0
VERTEX
  5
80
  8
LAYER_3
 10
-0.500074764053862
 20
0.0000515400594991
 30
0.0
 42
0.4142135623730951
  0
VERTEX
  5
81
  8
LAYER_3
 10
-0.0000747640538619
 20
-0.4999484599405009
 30
0.0
 42
0.4142135623730951
  0
VERTEX
  5
82
  8
LAYER_3
 10
0.4999252359461381
 20
0.0000515400594991
 30
0.0
 42
0.4142135623730951
  0
SEQEND
  5
A3
  8
LAYER_3
  0
POLYLINE
  5
73
  8
LAYER_3
 66
     1
 10
0.0
 20
0.0
 30
0.0
 70
     1
  0
VERTEX
  5
83
  8
LAYER_3
 10
-1.229991764047568
 20
-29.24020349925344
 30
0.0
  0
VERTEX
  5
84
  8
LAYER_3
 10
11.31119328988959
 20
-29.24025349012209
 30
0.0
  0
VERTEX
  5
85
  8
LAYER_3
 10
11.31131836154523
 20
-48.11125024484804
 30
0.0
  0
VERTEX
  5
86
  8
LAYER_3
 10
11.21264933241395
 20
-48.45493121773536
 30
0.0
  0
VERTEX
  5
87
  8
LAYER_3
 10
11.01592412526403
 20
-48.79893088241013
 30
0.0
  0
VERTEX
  5
88
  8
LAYER_3
 10
10.67210214392054
 20
-49.04506092404884
 30
0.0
  0
VERTEX
  5
89
  8
LAYER_3
 10
10.27817645732927
 20
-49.09378952323384
 30
0.0
  0
VERTEX
  5
8A
  8
LAYER_3
 10
8.16333357859667
 20
-49.09378952323384
 30
0.0
  0
VERTEX
  5
8B
  8
LAYER_3
 10
-8.753927352144913
 20
-49.09374578122379
 30
0.0
  0
VERTEX
  5
8C
  8
LAYER_3
 10
-8.999880762953175
 20
-49.04497344002876
 30
0.0
  0
VERTEX
  5
8D
  8
LAYER_3
 10
-9.197031213732267
 20
-48.84839684690724
 30
0.0
  0
VERTEX
  5
8E
  8
LAYER_3
 10
-9.245771637933629
 20
-48.60274171852041
 30
0.0
  0
VERTEX
  5
8F
  8
LAYER_3
 10
-9.245871695258145
 20
-38.4788284627125
 30
0.0
  0
VERTEX
  5
90
  8
LAYER_3
 10
-9.196793577586561
 20
-38.33170533637093
 30
0.0
  0
VERTEX
  5
91
  8
LAYER_3
 10
-9.049609253234074
 20
-38.28256431251987
 30
0.0
  0
VERTEX
  5
92
  8
LAYER_3
 10
-4.033085202996965
 20
-38.2826642942571
 30
0.0
  0
VERTEX
  5
93
  8
LAYER_3
 10
-3.885475635015304
 20
-38.33191779756257
 30
0.0
  0
VERTEX
  5
94
  8
LAYER_3
 10
-3.835859709224486
 20
-38.47897843531837
 30
0.0
  0
VERTEX
  5
95
  8
LAYER_3
 10
-3.835859709224486
 20
-45.11334159586134
 30
0.0
  0
VERTEX
  5
96
  8
LAYER_3
 10
-3.78711928502311
 20
-45.35945913978287
 30
0.0
  0
VERTEX
  5
97
  8
LAYER_3
 10
-3.589956327078461
 20
-45.5064822843872
 30
0.0
  0
VERTEX
  5
98
  8
LAYER_3
 10
-3.344540724389425
 20
-45.60480182524084
 30
0.0
  0
VERTEX
  5
99
  8
LAYER_3
 10
-0.6392533201474038
 20
-45.60483931839229
 30
0.0
  0
VERTEX
  5
9A
  8
LAYER_3
 10
-0.3933499380013856
 20
-45.50655727069014
 30
0.0
  0
VERTEX
  5
9B
  8
LAYER_3
 10
-0.197062481646185
 20
-45.35912170141972
 30
0.0
  0
VERTEX
  5
9C
  8
LAYER_3
 10
-0.1473965271931093
 20
-45.11344782645716
 30
0.0
  0
VERTEX
  5
9D
  8
LAYER_3
 10
-0.147346498530851
 20
-30.96030180436458
 30
0.0
  0
VERTEX
  5
9E
  8
LAYER_3
 10
-0.1969624243216828
 20
-30.46886657041935
 30
0.0
  0
VERTEX
  5
9F
  8
LAYER_3
 10
-0.3936876314716002
 20
-29.97744383419131
 30
0.0
  0
VERTEX
  5
A0
  8
LAYER_3
 10
-0.6392720808957506
 20
-29.53510588208718
 30
0.0
  0
SEQEND
  5
A4
  8
LAYER_3
  0
ENDSEC
  0
EOF
