  0
SECTION
  2
HEADER
  9
$ACADVER
  1
AC1009
  9
$DWGCODEPAGE
  3
ansi_1252
  9
$INSBASE
 10
0.0
 20
0.0
 30
0.0
  9
$EXTMIN
 10
-10.00658571578755
 20
-54.54873467652439
 30
0.0
  9
$EXTMAX
 10
8.82970590962286
 20
0.5000515400594991
 30
0.0
  9
$LIMMIN
 10
0.0
 20
0.0
  9
$LIMMAX
 10
12.0
 20
9.0
  9
$ORTHOMODE
 70
     0
  9
$REGENMODE
 70
     1
  9
$FILLMODE
 70
     1
  9
$QTEXTMODE
 70
     0
  9
$MIRRTEXT
 70
     1
  9
$DRAGMODE
 70
     2
  9
$LTSCALE
 40
1.0
  9
$OSMODE
 70
    37
  9
$ATTMODE
 70
     1
  9
$TEXTSIZE
 40
0.2
  9
$TRACEWID
 40
0.05
  9
$TEXTSTYLE
  7
STANDARD
  9
$CLAYER
  8
0
  9
$CELTYPE
  6
BYLAYER
  9
$CECOLOR
 62
   256
  9
$DIMSCALE
 40
1.0
  9
$DIMASZ
 40
0.18
  9
$DIMEXO
 40
0.0625
  9
$DIMDLI
 40
0.38
  9
$DIMRND
 40
0.0
  9
$DIMDLE
 40
0.0
  9
$DIMEXE
 40
0.18
  9
$DIMTP
 40
0.0
  9
$DIMTM
 40
0.0
  9
$DIMTXT
 40
0.18
  9
$DIMCEN
 40
0.09
  9
$DIMTSZ
 40
0.0
  9
$DIMTOL
 70
     0
  9
$DIMLIM
 70
     0
  9
$DIMTIH
 70
     1
  9
$DIMTOH
 70
     1
  9
$DIMSE1
 70
     0
  9
$DIMSE2
 70
     0
  9
$DIMTAD
 70
     0
  9
$DIMZIN
 70
     0
  9
$DIMBLK
  1

  9
$DIMASO
 70
     1
  9
$DIMSHO
 70
     1
  9
$DIMPOST
  1

  9
$DIMAPOST
  1

  9
$DIMALT
 70
     0
  9
$DIMALTD
 70
     2
  9
$DIMALTF
 40
25.4
  9
$DIMLFAC
 40
1.0
  9
$DIMTOFL
 70
     0
  9
$DIMTVP
 40
0.0
  9
$DIMTIX
 70
     0
  9
$DIMSOXD
 70
     0
  9
$DIMSAH
 70
     0
  9
$DIMBLK1
  1

  9
$DIMBLK2
  1

  9
$DIMSTYLE
  2
STANDARD
  9
$DIMCLRD
 70
     0
  9
$DIMCLRE
 70
     0
  9
$DIMCLRT
 70
     0
  9
$DIMTFAC
 40
1.0
  9
$DIMGAP
 40
0.09
  9
$LUNITS
 70
     2
  9
$LUPREC
 70
     4
  9
$SKETCHINC
 40
0.1
  9
$FILLETRAD
 40
0.5
  9
$AUNITS
 70
     0
  9
$AUPREC
 70
     0
  9
$MENU
  1
.
  9
$ELEVATION
 40
0.0
  9
$PELEVATION
 40
0.0
  9
$THICKNESS
 40
0.0
  9
$LIMCHECK
 70
     0
  9
$CHAMFERA
 40
0.0
  9
$CHAMFERB
 40
0.0
  9
$SKPOLY
 70
     0
  9
$TDCREATE
 40
2454910.5
  9
$TDUPDATE
 40
2460106.72699265
  9
$TDINDWG
 40
0.0000000116
  9
$TDUSRTIMER
 40
0.0000000116
  9
$USRTIMER
 70
     1
  9
$ANGBASE
 50
0.0
  9
$ANGDIR
 70
     0
  9
$PDMODE
 70
     0
  9
$PDSIZE
 40
0.0
  9
$PLINEWID
 40
0.0
  9
$COORDS
 70
     1
  9
$SPLFRAME
 70
     0
  9
$SPLINETYPE
 70
     6
  9
$SPLINESEGS
 70
     8
  9
$ATTDIA
 70
     0
  9
$ATTREQ
 70
     1
  9
$HANDLING
 70
     1
  9
$HANDSEED
  5
208
  9
$SURFTAB1
 70
     6
  9
$SURFTAB2
 70
     6
  9
$SURFTYPE
 70
     6
  9
$SURFU
 70
     6
  9
$SURFV
 70
     6
  9
$UCSNAME
  2

  9
$UCSORG
 10
0.0
 20
0.0
 30
0.0
  9
$UCSXDIR
 10
1.0
 20
0.0
 30
0.0
  9
$UCSYDIR
 10
0.0
 20
1.0
 30
0.0
  9
$PUCSNAME
  2

  9
$PUCSORG
 10
0.0
 20
0.0
 30
0.0
  9
$PUCSXDIR
 10
1.0
 20
0.0
 30
0.0
  9
$PUCSYDIR
 10
0.0
 20
1.0
 30
0.0
  9
$USERI1
 70
     0
  9
$USERI2
 70
     0
  9
$USERI3
 70
     0
  9
$USERI4
 70
     0
  9
$USERI5
 70
     0
  9
$USERR1
 40
0.0
  9
$USERR2
 40
0.0
  9
$USERR3
 40
0.0
  9
$USERR4
 40
0.0
  9
$USERR5
 40
0.0
  9
$WORLDVIEW
 70
     1
  9
$SHADEDGE
 70
     3
  9
$SHADEDIF
 70
    70
  9
$TILEMODE
 70
     1
  9
$MAXACTVP
 70
    64
  9
$PLIMCHECK
 70
     0
  9
$PEXTMIN
 10
1.000000000000000E+20
 20
1.000000000000000E+20
 30
1.000000000000000E+20
  9
$PEXTMAX
 10
-1.000000000000000E+20
 20
-1.000000000000000E+20
 30
-1.000000000000000E+20
  9
$PLIMMIN
 10
0.0
 20
0.0
  9
$PLIMMAX
 10
12.0
 20
9.0
  9
$UNITMODE
 70
     0
  9
$VISRETAIN
 70
     1
  9
$PLINEGEN
 70
     0
  9
$PSLTSCALE
 70
     1
  0
ENDSEC
  0
SECTION
  2
TABLES
  0
TABLE
  2
VPORT
 70
     1
  0
VPORT
  2
*ACTIVE
 70
     0
 10
0.0
 20
0.0
 11
1.0
 21
1.0
 12
10.42990654205607
 22
4.5
 13
0.0
 23
0.0
 14
0.5
 24
0.5
 15
0.5
 25
0.5
 16
0.0
 26
0.0
 36
1.0
 17
0.0
 27
0.0
 37
0.0
 40
9.0
 41
1.972972972850329
 42
50.0
 43
0.0
 44
0.0
 50
0.0
 51
0.0
 71
     0
 72
   100
 73
     1
 74
     3
 75
     0
 76
     0
 77
     0
 78
     0
  0
ENDTAB
  0
TABLE
  2
LTYPE
 70
     2
  0
LTYPE
  2
CONTINUOUS
 70
     0
  3
Solid line
 72
    65
 73
     0
 40
0.0
  0
LTYPE
  2
CONTINUOUS2
 70
     0
  3
Solid Line
 72
    65
 73
     0
 40
0.0
  0
ENDTAB
  0
TABLE
  2
LAYER
 70
     2
  0
LAYER
  2
0
 70
     0
 62
     7
  6
CONTINUOUS
  0
LAYER
  2
LAYER_4
 70
     0
 62
   150
  6
CONTINUOUS
  0
ENDTAB
  0
TABLE
  2
STYLE
 70
     1
  0
STYLE
  2
STANDARD
 70
     0
 40
0.0
 41
1.0
 50
0.0
 71
     0
 42
0.2
  3
txt
  4

  0
ENDTAB
  0
TABLE
  2
VIEW
 70
     0
  0
ENDTAB
  0
TABLE
  2
UCS
 70
     0
  0
ENDTAB
  0
TABLE
  2
APPID
 70
     1
  0
APPID
  2
ACAD
 70
     0
  0
ENDTAB
  0
TABLE
  2
DIMSTYLE
 70
     1
  0
DIMSTYLE
  2
STANDARD
 70
     0
  3

  4

  5

  6

  7

 40
1.0
 41
0.18
 42
0.0625
 43
0.38
 44
0.18
 45
0.0
 46
0.0
 47
0.0
 48
0.0
140
0.18
141
0.09
142
0.0
143
25.4
144
1.0
145
0.0
146
1.0
147
0.09
 71
     0
 72
     0
 73
     1
 74
     1
 75
     0
 76
     0
 77
     0
 78
     0
170
     0
171
     2
172
     0
173
     0
174
     0
175
     0
176
     0
177
     0
178
     0
  0
ENDTAB
  0
ENDSEC
  0
SECTION
  2
BLOCKS
  0
BLOCK
  8
0
  2
$MODEL_SPACE
 70
     0
 10
0.0
 20
0.0
 30
0.0
  3
$MODEL_SPACE
  1

  0
ENDBLK
  5
21
  8
0
  0
BLOCK
 67
     1
  8
0
  2
$PAPER_SPACE
 70
     0
 10
0.0
 20
0.0
 30
0.0
  3
$PAPER_SPACE
  1

  0
ENDBLK
  5
1D
 67
     1
  8
0
  0
ENDSEC
  0
SECTION
  2
ENTITIES
  0
POLYLINE
  5
70
  8
LAYER_4
 66
     1
 10
0.0
 20
0.0
 30
0.0
 70
     1
  0
VERTEX
  5
A3
  8
LAYER_4
 10
-9.541072070473113
 20
-54.5486806273306
 30
0.0
  0
VERTEX
  5
A4
  8
LAYER_4
 10
-9.541140859883711
 20
-54.35241647713796
 30
0.0
  0
VERTEX
  5
A5
  8
LAYER_4
 10
-9.639553492120932
 20
-54.35251645887519
 30
0.0
  0
VERTEX
  5
A6
  8
LAYER_4
 10
-9.639647295862666
 20
-51.25620703387335
 30
0.0
  0
VERTEX
  5
A7
  8
LAYER_4
 10
-9.344615767382805
 20
-51.25610080327755
 30
0.0
  0
VERTEX
  5
A8
  8
LAYER_4
 10
-9.344615767382805
 20
-54.35241647713796
 30
0.0
  0
VERTEX
  5
A9
  8
LAYER_4
 10
-9.443028399620019
 20
-54.35241647713796
 30
0.0
  0
VERTEX
  5
AA
  8
LAYER_4
 10
-9.443072174699488
 20
-54.5486806273306
 30
0.0
  0
SEQEND
  5
1DC
  8
LAYER_4
  0
POLYLINE
  5
71
  8
LAYER_4
 66
     1
 10
0.0
 20
0.0
 30
0.0
 70
     1
  0
VERTEX
  5
AB
  8
LAYER_4
 10
-9.049609253234074
 20
-54.5486806273306
 30
0.0
  0
VERTEX
  5
AC
  8
LAYER_4
 10
-9.049684296227461
 20
-54.35241647713796
 30
0.0
  0
VERTEX
  5
AD
  8
LAYER_4
 10
-9.14765917766995
 20
-54.35251645887519
 30
0.0
  0
VERTEX
  5
AE
  8
LAYER_4
 10
-9.147777995742807
 20
-51.25620703387335
 30
0.0
  0
VERTEX
  5
AF
  8
LAYER_4
 10
-8.852771481594075
 20
-51.25610080327755
 30
0.0
  0
VERTEX
  5
B0
  8
LAYER_4
 10
-8.852771481594075
 20
-54.35241647713796
 30
0.0
  0
VERTEX
  5
B1
  8
LAYER_4
 10
-8.951152845917377
 20
-54.35241647713796
 30
0.0
  0
VERTEX
  5
B2
  8
LAYER_4
 10
-8.9511778602485
 20
-54.5486806273306
 30
0.0
  0
SEQEND
  5
1DD
  8
LAYER_4
  0
POLYLINE
  5
72
  8
LAYER_4
 66
     1
 10
0.0
 20
0.0
 30
0.0
 70
     1
  0
VERTEX
  5
B3
  8
LAYER_4
 10
-8.557708685200303
 20
-54.5486806273306
 30
0.0
  0
VERTEX
  5
B4
  8
LAYER_4
 10
-8.557777474610909
 20
-54.35241647713796
 30
0.0
  0
VERTEX
  5
B5
  8
LAYER_4
 10
-8.656190106848122
 20
-54.35251645887519
 30
0.0
  0
VERTEX
  5
B6
  8
LAYER_4
 10
-8.656308924920971
 20
-51.25620703387335
 30
0.0
  0
VERTEX
  5
B7
  8
LAYER_4
 10
-8.360864659977523
 20
-51.25610080327755
 30
0.0
  0
VERTEX
  5
B8
  8
LAYER_4
 10
-8.360864659977523
 20
-54.35241647713796
 30
0.0
  0
VERTEX
  5
B9
  8
LAYER_4
 10
-8.459258531466396
 20
-54.35241647713796
 30
0.0
  0
VERTEX
  5
BA
  8
LAYER_4
 10
-8.459283545797526
 20
-54.5486806273306
 30
0.0
  0
SEQEND
  5
1DE
  8
LAYER_4
  0
POLYLINE
  5
73
  8
LAYER_4
 66
     1
 10
0.0
 20
0.0
 30
0.0
 70
     1
  0
VERTEX
  5
BB
  8
LAYER_4
 10
-8.065839385080444
 20
-54.5486806273306
 30
0.0
  0
VERTEX
  5
BC
  8
LAYER_4
 10
-8.06588316015992
 20
-54.35241647713796
 30
0.0
  0
VERTEX
  5
BD
  8
LAYER_4
 10
-8.164295792397127
 20
-54.35251645887519
 30
0.0
  0
VERTEX
  5
BE
  8
LAYER_4
 10
-8.164414610469983
 20
-51.25620703387335
 30
0.0
  0
VERTEX
  5
BF
  8
LAYER_4
 10
-7.869408096321251
 20
-51.25610080327755
 30
0.0
  0
VERTEX
  5
C0
  8
LAYER_4
 10
-7.869408096321251
 20
-54.35241647713796
 30
0.0
  0
VERTEX
  5
C1
  8
LAYER_4
 10
-7.967382977763748
 20
-54.35241647713796
 30
0.0
  0
VERTEX
  5
C2
  8
LAYER_4
 10
-7.967426752843217
 20
-54.5486806273306
 30
0.0
  0
SEQEND
  5
1DF
  8
LAYER_4
  0
POLYLINE
  5
74
  8
LAYER_4
 66
     1
 10
0.0
 20
0.0
 30
0.0
 70
     1
  0
VERTEX
  5
C3
  8
LAYER_4
 10
-7.573938817046674
 20
-54.5486806273306
 30
0.0
  0
VERTEX
  5
C4
  8
LAYER_4
 10
-7.57403887437119
 20
-54.35241647713796
 30
0.0
  0
VERTEX
  5
C5
  8
LAYER_4
 10
-7.672445253025622
 20
-54.35251645887519
 30
0.0
  0
VERTEX
  5
C6
  8
LAYER_4
 10
-7.672539056767341
 20
-51.25620703387335
 30
0.0
  0
VERTEX
  5
C7
  8
LAYER_4
 10
-7.377501274704706
 20
-51.25610080327755
 30
0.0
  0
VERTEX
  5
C8
  8
LAYER_4
 10
-7.377501274704706
 20
-54.35241647713796
 30
0.0
  0
VERTEX
  5
C9
  8
LAYER_4
 10
-7.426710717614704
 20
-54.35241647713796
 30
0.0
  0
VERTEX
  5
CA
  8
LAYER_4
 10
-7.426729478363043
 20
-54.5486806273306
 30
0.0
  0
SEQEND
  5
1E0
  8
LAYER_4
  0
POLYLINE
  5
75
  8
LAYER_4
 66
     1
 10
0.0
 20
0.0
 30
0.0
 70
     1
  0
VERTEX
  5
CB
  8
LAYER_4
 10
-7.032841313268463
 20
-54.5486806273306
 30
0.0
  0
VERTEX
  5
CC
  8
LAYER_4
 10
-7.032916356261843
 20
-54.35241647713796
 30
0.0
  0
VERTEX
  5
CD
  8
LAYER_4
 10
-7.131316481333506
 20
-54.35251645887519
 30
0.0
  0
VERTEX
  5
CE
  8
LAYER_4
 10
-7.131410285075233
 20
-51.25620703387335
 30
0.0
  0
VERTEX
  5
CF
  8
LAYER_4
 10
-6.836378756595373
 20
-51.25610080327755
 30
0.0
  0
VERTEX
  5
D0
  8
LAYER_4
 10
-6.836378756595373
 20
-54.35241647713796
 30
0.0
  0
VERTEX
  5
D1
  8
LAYER_4
 10
-6.934791388832593
 20
-54.35241647713796
 30
0.0
  0
VERTEX
  5
D2
  8
LAYER_4
 10
-6.934835163912069
 20
-54.5486806273306
 30
0.0
  0
SEQEND
  5
1E1
  8
LAYER_4
  0
POLYLINE
  5
76
  8
LAYER_4
 66
     1
 10
0.0
 20
0.0
 30
0.0
 70
     1
  0
VERTEX
  5
D3
  8
LAYER_4
 10
-6.540965759565815
 20
-54.5486806273306
 30
0.0
  0
VERTEX
  5
D4
  8
LAYER_4
 10
-6.541009534645291
 20
-54.35241647713796
 30
0.0
  0
VERTEX
  5
D5
  8
LAYER_4
 10
-6.639853664094453
 20
-54.35251645887519
 30
0.0
  0
VERTEX
  5
D6
  8
LAYER_4
 10
-6.639972482167309
 20
-51.25620703387335
 30
0.0
  0
VERTEX
  5
D7
  8
LAYER_4
 10
-6.344534470806643
 20
-51.25610080327755
 30
0.0
  0
VERTEX
  5
D8
  8
LAYER_4
 10
-6.344534470806643
 20
-54.35241647713796
 30
0.0
  0
VERTEX
  5
D9
  8
LAYER_4
 10
-6.442940849461074
 20
-54.35241647713796
 30
0.0
  0
VERTEX
  5
DA
  8
LAYER_4
 10
-6.442990878123325
 20
-54.5486806273306
 30
0.0
  0
SEQEND
  5
1E2
  8
LAYER_4
  0
POLYLINE
  5
77
  8
LAYER_4
 66
     1
 10
0.0
 20
0.0
 30
0.0
 70
     1
  0
VERTEX
  5
DB
  8
LAYER_4
 10
-6.04909020586318
 20
-54.5486806273306
 30
0.0
  0
VERTEX
  5
DC
  8
LAYER_4
 10
-6.049165248856561
 20
-54.35241647713796
 30
0.0
  0
VERTEX
  5
DD
  8
LAYER_4
 10
-6.147984363974601
 20
-54.35251645887519
 30
0.0
  0
VERTEX
  5
DE
  8
LAYER_4
 10
-6.148078167716328
 20
-51.25620703387335
 30
0.0
  0
VERTEX
  5
DF
  8
LAYER_4
 10
-5.852640156355655
 20
-51.25610080327755
 30
0.0
  0
VERTEX
  5
E0
  8
LAYER_4
 10
-5.852640156355655
 20
-54.35241647713796
 30
0.0
  0
VERTEX
  5
E1
  8
LAYER_4
 10
-5.951046535010086
 20
-54.35241647713796
 30
0.0
  0
VERTEX
  5
E2
  8
LAYER_4
 10
-5.951096563672337
 20
-54.5486806273306
 30
0.0
  0
SEQEND
  5
1E3
  8
LAYER_4
  0
POLYLINE
  5
78
  8
LAYER_4
 66
     1
 10
0.0
 20
0.0
 30
0.0
 70
     1
  0
VERTEX
  5
E3
  8
LAYER_4
 10
-5.557195891412185
 20
-54.5486806273306
 30
0.0
  0
VERTEX
  5
E4
  8
LAYER_4
 10
-5.557270934405572
 20
-54.35241647713796
 30
0.0
  0
VERTEX
  5
E5
  8
LAYER_4
 10
-5.656077542358055
 20
-54.35251645887519
 30
0.0
  0
VERTEX
  5
E6
  8
LAYER_4
 10
-5.656177599682557
 20
-51.25620703387335
 30
0.0
  0
VERTEX
  5
E7
  8
LAYER_4
 10
-5.361171085533819
 20
-51.25610080327755
 30
0.0
  0
VERTEX
  5
E8
  8
LAYER_4
 10
-5.361171085533819
 20
-54.35241647713796
 30
0.0
  0
VERTEX
  5
E9
  8
LAYER_4
 10
-5.459145966976315
 20
-54.35241647713796
 30
0.0
  0
VERTEX
  5
EA
  8
LAYER_4
 10
-5.459189742055784
 20
-54.5486806273306
 30
0.0
  0
SEQEND
  5
1E4
  8
LAYER_4
  0
POLYLINE
  5
79
  8
LAYER_4
 66
     1
 10
0.0
 20
0.0
 30
0.0
 70
     1
  0
VERTEX
  5
EB
  8
LAYER_4
 10
-5.065320337709544
 20
-54.5486806273306
 30
0.0
  0
VERTEX
  5
EC
  8
LAYER_4
 10
-5.06536411278902
 20
-54.35241647713796
 30
0.0
  0
VERTEX
  5
ED
  8
LAYER_4
 10
-5.164208242238182
 20
-54.35251645887519
 30
0.0
  0
VERTEX
  5
EE
  8
LAYER_4
 10
-5.164302045979909
 20
-51.25620703387335
 30
0.0
  0
VERTEX
  5
EF
  8
LAYER_4
 10
-4.869276771082845
 20
-51.25610080327755
 30
0.0
  0
VERTEX
  5
F0
  8
LAYER_4
 10
-4.869276771082845
 20
-54.35241647713796
 30
0.0
  0
VERTEX
  5
F1
  8
LAYER_4
 10
-4.967683149737276
 20
-54.35241647713796
 30
0.0
  0
VERTEX
  5
F2
  8
LAYER_4
 10
-4.967733178399527
 20
-54.5486806273306
 30
0.0
  0
SEQEND
  5
1E5
  8
LAYER_4
  0
POLYLINE
  5
7A
  8
LAYER_4
 66
     1
 10
0.0
 20
0.0
 30
0.0
 70
     1
  0
VERTEX
  5
F3
  8
LAYER_4
 10
-4.573807491808253
 20
-54.5486806273306
 30
0.0
  0
VERTEX
  5
F4
  8
LAYER_4
 10
-4.573907549132763
 20
-54.35241647713796
 30
0.0
  0
VERTEX
  5
F5
  8
LAYER_4
 10
-4.623110738459985
 20
-54.35251645887519
 30
0.0
  0
VERTEX
  5
F6
  8
LAYER_4
 10
-4.623204542201705
 20
-51.25620703387335
 30
0.0
  0
VERTEX
  5
F7
  8
LAYER_4
 10
-4.327766530841039
 20
-51.25610080327755
 30
0.0
  0
VERTEX
  5
F8
  8
LAYER_4
 10
-4.327766530841039
 20
-54.35241647713796
 30
0.0
  0
VERTEX
  5
F9
  8
LAYER_4
 10
-4.426573138793508
 20
-54.35241647713796
 30
0.0
  0
VERTEX
  5
FA
  8
LAYER_4
 10
-4.426598153124637
 20
-54.5486806273306
 30
0.0
  0
SEQEND
  5
1E6
  8
LAYER_4
  0
POLYLINE
  5
7B
  8
LAYER_4
 66
     1
 10
0.0
 20
0.0
 30
0.0
 70
     1
  0
VERTEX
  5
FB
  8
LAYER_4
 10
-4.033135231659216
 20
-54.5486806273306
 30
0.0
  0
VERTEX
  5
FC
  8
LAYER_4
 10
-4.033160245990345
 20
-54.35241647713796
 30
0.0
  0
VERTEX
  5
FD
  8
LAYER_4
 10
-4.131591638975905
 20
-54.35251645887519
 30
0.0
  0
VERTEX
  5
FE
  8
LAYER_4
 10
-4.131710457048761
 20
-51.25620703387335
 30
0.0
  0
VERTEX
  5
FF
  8
LAYER_4
 10
-3.835859709224486
 20
-51.25610080327755
 30
0.0
  0
VERTEX
  5
100
  8
LAYER_4
 10
-3.835859709224486
 20
-54.35241647713796
 30
0.0
  0
VERTEX
  5
101
  8
LAYER_4
 10
-3.934703838673649
 20
-54.35241647713796
 30
0.0
  0
VERTEX
  5
102
  8
LAYER_4
 10
-3.934753867335907
 20
-54.5486806273306
 30
0.0
  0
SEQEND
  5
1E7
  8
LAYER_4
  0
POLYLINE
  5
7C
  8
LAYER_4
 66
     1
 10
0.0
 20
0.0
 30
0.0
 70
     1
  0
VERTEX
  5
103
  8
LAYER_4
 10
-3.541240917208228
 20
-54.5486806273306
 30
0.0
  0
VERTEX
  5
104
  8
LAYER_4
 10
-3.541265931539357
 20
-54.35241647713796
 30
0.0
  0
VERTEX
  5
105
  8
LAYER_4
 10
-3.639697324524917
 20
-54.35251645887519
 30
0.0
  0
VERTEX
  5
106
  8
LAYER_4
 10
-3.639841156928902
 20
-51.25620703387335
 30
0.0
  0
VERTEX
  5
107
  8
LAYER_4
 10
-3.344403145568215
 20
-51.25610080327755
 30
0.0
  0
VERTEX
  5
108
  8
LAYER_4
 10
-3.344403145568215
 20
-54.35241647713796
 30
0.0
  0
VERTEX
  5
109
  8
LAYER_4
 10
-3.442809524222668
 20
-54.35241647713796
 30
0.0
  0
VERTEX
  5
10A
  8
LAYER_4
 10
-3.442859552884919
 20
-54.5486806273306
 30
0.0
  0
SEQEND
  5
1E8
  8
LAYER_4
  0
POLYLINE
  5
7D
  8
LAYER_4
 66
     1
 10
0.0
 20
0.0
 30
0.0
 70
     1
  0
VERTEX
  5
10B
  8
LAYER_4
 10
-3.049365363505579
 20
-54.5486806273306
 30
0.0
  0
VERTEX
  5
10C
  8
LAYER_4
 10
-3.049409138585048
 20
-54.35241647713796
 30
0.0
  0
VERTEX
  5
10D
  8
LAYER_4
 10
-3.147821770822276
 20
-54.35251645887519
 30
0.0
  0
VERTEX
  5
10E
  8
LAYER_4
 10
-3.147940588895132
 20
-51.25620703387335
 30
0.0
  0
VERTEX
  5
10F
  8
LAYER_4
 10
-2.852496323951669
 20
-51.25610080327755
 30
0.0
  0
VERTEX
  5
110
  8
LAYER_4
 10
-2.852496323951669
 20
-54.35241647713796
 30
0.0
  0
VERTEX
  5
111
  8
LAYER_4
 10
-2.951340453400832
 20
-54.35241647713796
 30
0.0
  0
VERTEX
  5
112
  8
LAYER_4
 10
-2.951390482063083
 20
-54.5486806273306
 30
0.0
  0
SEQEND
  5
1E9
  8
LAYER_4
  0
POLYLINE
  5
7E
  8
LAYER_4
 66
     1
 10
0.0
 20
0.0
 30
0.0
 70
     1
  0
VERTEX
  5
113
  8
LAYER_4
 10
-2.557464795471809
 20
-54.5486806273306
 30
0.0
  0
VERTEX
  5
114
  8
LAYER_4
 10
-2.55751482413406
 20
-54.35241647713796
 30
0.0
  0
VERTEX
  5
115
  8
LAYER_4
 10
-2.655946217119634
 20
-54.35251645887519
 30
0.0
  0
VERTEX
  5
116
  8
LAYER_4
 10
-2.656090049523613
 20
-51.25620703387335
 30
0.0
  0
VERTEX
  5
117
  8
LAYER_4
 10
-2.360652038162939
 20
-51.25610080327755
 30
0.0
  0
VERTEX
  5
118
  8
LAYER_4
 10
-2.360652038162939
 20
-54.35241647713796
 30
0.0
  0
VERTEX
  5
119
  8
LAYER_4
 10
-2.459471153280973
 20
-54.35241647713796
 30
0.0
  0
VERTEX
  5
11A
  8
LAYER_4
 10
-2.459496167612095
 20
-54.5486806273306
 30
0.0
  0
SEQEND
  5
1EA
  8
LAYER_4
  0
POLYLINE
  5
7F
  8
LAYER_4
 66
     1
 10
0.0
 20
0.0
 30
0.0
 70
     1
  0
VERTEX
  5
11B
  8
LAYER_4
 10
-2.06597696390164
 20
-54.5486806273306
 30
0.0
  0
VERTEX
  5
11C
  8
LAYER_4
 10
-2.066045753312245
 20
-54.35241647713796
 30
0.0
  0
VERTEX
  5
11D
  8
LAYER_4
 10
-2.164051902668646
 20
-54.35251645887519
 30
0.0
  0
VERTEX
  5
11E
  8
LAYER_4
 10
-2.164195735072624
 20
-51.25620703387335
 30
0.0
  0
VERTEX
  5
11F
  8
LAYER_4
 10
-1.868757723711944
 20
-51.25610080327755
 30
0.0
  0
VERTEX
  5
120
  8
LAYER_4
 10
-1.868757723711944
 20
-54.35241647713796
 30
0.0
  0
VERTEX
  5
121
  8
LAYER_4
 10
-1.918361142337204
 20
-54.35241647713796
 30
0.0
  0
VERTEX
  5
122
  8
LAYER_4
 10
-1.918361142337204
 20
-54.5486806273306
 30
0.0
  0
SEQEND
  5
1EB
  8
LAYER_4
  0
POLYLINE
  5
80
  8
LAYER_4
 66
     1
 10
0.0
 20
0.0
 30
0.0
 70
     1
  0
VERTEX
  5
123
  8
LAYER_4
 10
-1.524923235202905
 20
-54.5486806273306
 30
0.0
  0
VERTEX
  5
124
  8
LAYER_4
 10
-1.524973263865157
 20
-54.35241647713796
 30
0.0
  0
VERTEX
  5
125
  8
LAYER_4
 10
-1.62294814530766
 20
-54.35251645887519
 30
0.0
  0
VERTEX
  5
126
  8
LAYER_4
 10
-1.623041949049387
 20
-51.25620703387335
 30
0.0
  0
VERTEX
  5
127
  8
LAYER_4
 10
-1.328010420569527
 20
-51.25610080327755
 30
0.0
  0
VERTEX
  5
128
  8
LAYER_4
 10
-1.328010420569527
 20
-54.35241647713796
 30
0.0
  0
VERTEX
  5
129
  8
LAYER_4
 10
-1.426441813555094
 20
-54.35241647713796
 30
0.0
  0
VERTEX
  5
12A
  8
LAYER_4
 10
-1.426516856548474
 20
-54.5486806273306
 30
0.0
  0
SEQEND
  5
1EC
  8
LAYER_4
  0
POLYLINE
  5
81
  8
LAYER_4
 66
     1
 10
0.0
 20
0.0
 30
0.0
 70
     1
  0
VERTEX
  5
12B
  8
LAYER_4
 10
-1.033028920751924
 20
-54.5486806273306
 30
0.0
  0
VERTEX
  5
12C
  8
LAYER_4
 10
-1.033078949414183
 20
-54.35241647713796
 30
0.0
  0
VERTEX
  5
12D
  8
LAYER_4
 10
-1.131072591605012
 20
-54.35251645887519
 30
0.0
  0
VERTEX
  5
12E
  8
LAYER_4
 10
-1.131172648929521
 20
-51.25620703387335
 30
0.0
  0
VERTEX
  5
12F
  8
LAYER_4
 10
-0.8365413497476979
 20
-51.25610080327755
 30
0.0
  0
VERTEX
  5
130
  8
LAYER_4
 10
-0.8365413497476979
 20
-54.35241647713796
 30
0.0
  0
VERTEX
  5
131
  8
LAYER_4
 10
-0.9345474991040987
 20
-54.35241647713796
 30
0.0
  0
VERTEX
  5
132
  8
LAYER_4
 10
-0.9346225420974861
 20
-54.5486806273306
 30
0.0
  0
SEQEND
  5
1ED
  8
LAYER_4
  0
POLYLINE
  5
82
  8
LAYER_4
 66
     1
 10
0.0
 20
0.0
 30
0.0
 70
     1
  0
VERTEX
  5
133
  8
LAYER_4
 10
-0.5411283527181538
 20
-54.5486806273306
 30
0.0
  0
VERTEX
  5
134
  8
LAYER_4
 10
-0.5411721277976298
 20
-54.35241647713796
 30
0.0
  0
VERTEX
  5
135
  8
LAYER_4
 10
-0.6391782771540235
 20
-54.35251645887519
 30
0.0
  0
VERTEX
  5
136
  8
LAYER_4
 10
-0.6392720808957506
 20
-51.25620703387335
 30
0.0
  0
VERTEX
  5
137
  8
LAYER_4
 10
-0.3446470352967097
 20
-51.25610080327755
 30
0.0
  0
VERTEX
  5
138
  8
LAYER_4
 10
-0.3446470352967097
 20
-54.35241647713796
 30
0.0
  0
VERTEX
  5
139
  8
LAYER_4
 10
-0.4430784282822771
 20
-54.35241647713796
 30
0.0
  0
VERTEX
  5
13A
  8
LAYER_4
 10
-0.4431534712756502
 20
-54.5486806273306
 30
0.0
  0
SEQEND
  5
1EE
  8
LAYER_4
  0
POLYLINE
  5
83
  8
LAYER_4
 66
     1
 10
0.0
 20
0.0
 30
0.0
 70
     1
  0
VERTEX
  5
13B
  8
LAYER_4
 10
-0.0496655354791073
 20
-54.5486806273306
 30
0.0
  0
VERTEX
  5
13C
  8
LAYER_4
 10
-0.0497155641413585
 20
-54.35241647713796
 30
0.0
  0
VERTEX
  5
13D
  8
LAYER_4
 10
-0.1473027234513751
 20
-54.35251645887519
 30
0.0
  0
VERTEX
  5
13E
  8
LAYER_4
 10
-0.1473715128619801
 20
-51.25620703387335
 30
0.0
  0
VERTEX
  5
13F
  8
LAYER_4
 10
0.1472472791542856
 20
-51.25610080327755
 30
0.0
  0
VERTEX
  5
140
  8
LAYER_4
 10
0.1472472791542856
 20
-54.35241647713796
 30
0.0
  0
VERTEX
  5
141
  8
LAYER_4
 10
0.048815886168704
 20
-54.35241647713796
 30
0.0
  0
VERTEX
  5
142
  8
LAYER_4
 10
0.0487408431753238
 20
-54.5486806273306
 30
0.0
  0
SEQEND
  5
1EF
  8
LAYER_4
  0
POLYLINE
  5
84
  8
LAYER_4
 66
     1
 10
0.0
 20
0.0
 30
0.0
 70
     1
  0
VERTEX
  5
143
  8
LAYER_4
 10
0.4422350325546631
 20
-54.5486806273306
 30
0.0
  0
VERTEX
  5
144
  8
LAYER_4
 10
0.4421912574751872
 20
-54.35241647713796
 30
0.0
  0
VERTEX
  5
145
  8
LAYER_4
 10
0.3441851081187863
 20
-54.35251645887519
 30
0.0
  0
VERTEX
  5
146
  8
LAYER_4
 10
0.3440662900459301
 20
-51.25620703387335
 30
0.0
  0
VERTEX
  5
147
  8
LAYER_4
 10
0.639104072108573
 20
-51.25610080327755
 30
0.0
  0
VERTEX
  5
148
  8
LAYER_4
 10
0.639104072108573
 20
-54.35241647713796
 30
0.0
  0
VERTEX
  5
149
  8
LAYER_4
 10
0.5406914398713454
 20
-54.35241647713796
 30
0.0
  0
VERTEX
  5
14A
  8
LAYER_4
 10
0.5406476647918765
 20
-54.5486806273306
 30
0.0
  0
SEQEND
  5
1F0
  8
LAYER_4
  0
POLYLINE
  5
85
  8
LAYER_4
 66
     1
 10
0.0
 20
0.0
 30
0.0
 70
     1
  0
VERTEX
  5
14B
  8
LAYER_4
 10
0.9341105862573045
 20
-54.5486806273306
 30
0.0
  0
VERTEX
  5
14C
  8
LAYER_4
 10
0.9340355432639171
 20
-54.35241647713796
 30
0.0
  0
VERTEX
  5
14D
  8
LAYER_4
 10
0.8848573682678236
 20
-54.35251645887519
 30
0.0
  0
VERTEX
  5
14E
  8
LAYER_4
 10
0.8847885788572256
 20
-51.25620703387335
 30
0.0
  0
VERTEX
  5
14F
  8
LAYER_4
 10
1.179788839423189
 20
-51.25610080327755
 30
0.0
  0
VERTEX
  5
150
  8
LAYER_4
 10
1.179788839423189
 20
-54.35241647713796
 30
0.0
  0
VERTEX
  5
151
  8
LAYER_4
 10
1.082201680113151
 20
-54.35241647713796
 30
0.0
  0
VERTEX
  5
152
  8
LAYER_4
 10
1.082157905033682
 20
-54.5486806273306
 30
0.0
  0
SEQEND
  5
1F1
  8
LAYER_4
  0
POLYLINE
  5
86
  8
LAYER_4
 66
     1
 10
0.0
 20
0.0
 30
0.0
 70
     1
  0
VERTEX
  5
153
  8
LAYER_4
 10
1.475208090035501
 20
-54.5486806273306
 30
0.0
  0
VERTEX
  5
154
  8
LAYER_4
 10
1.47515806137325
 20
-54.35241647713796
 30
0.0
  0
VERTEX
  5
155
  8
LAYER_4
 10
1.376776697049941
 20
-54.35251645887519
 30
0.0
  0
VERTEX
  5
156
  8
LAYER_4
 10
1.376682893308221
 20
-51.25620703387335
 30
0.0
  0
VERTEX
  5
157
  8
LAYER_4
 10
1.671695661039735
 20
-51.25610080327755
 30
0.0
  0
VERTEX
  5
158
  8
LAYER_4
 10
1.671695661039735
 20
-54.35241647713796
 30
0.0
  0
VERTEX
  5
159
  8
LAYER_4
 10
1.573689511683334
 20
-54.35241647713796
 30
0.0
  0
VERTEX
  5
15A
  8
LAYER_4
 10
1.573614468689954
 20
-54.5486806273306
 30
0.0
  0
SEQEND
  5
1F2
  8
LAYER_4
  0
POLYLINE
  5
87
  8
LAYER_4
 66
     1
 10
0.0
 20
0.0
 30
0.0
 70
     1
  0
VERTEX
  5
15B
  8
LAYER_4
 10
1.966677160857337
 20
-54.5486806273306
 30
0.0
  0
VERTEX
  5
15C
  8
LAYER_4
 10
1.966627132195086
 20
-54.35241647713796
 30
0.0
  0
VERTEX
  5
15D
  8
LAYER_4
 10
1.868652250752589
 20
-54.35251645887519
 30
0.0
  0
VERTEX
  5
15E
  8
LAYER_4
 10
1.868533432679733
 20
-51.25620703387335
 30
0.0
  0
VERTEX
  5
15F
  8
LAYER_4
 10
2.163539946828465
 20
-51.25610080327755
 30
0.0
  0
VERTEX
  5
160
  8
LAYER_4
 10
2.163539946828465
 20
-54.35241647713796
 30
0.0
  0
VERTEX
  5
161
  8
LAYER_4
 10
2.065565065385975
 20
-54.35241647713796
 30
0.0
  0
VERTEX
  5
162
  8
LAYER_4
 10
2.065521290306499
 20
-54.5486806273306
 30
0.0
  0
SEQEND
  5
1F3
  8
LAYER_4
  0
POLYLINE
  5
88
  8
LAYER_4
 66
     1
 10
0.0
 20
0.0
 30
0.0
 70
     1
  0
VERTEX
  5
163
  8
LAYER_4
 10
2.458546460977196
 20
-54.5486806273306
 30
0.0
  0
VERTEX
  5
164
  8
LAYER_4
 10
2.458521446646074
 20
-54.35241647713796
 30
0.0
  0
VERTEX
  5
165
  8
LAYER_4
 10
2.360552818786353
 20
-54.35251645887519
 30
0.0
  0
VERTEX
  5
166
  8
LAYER_4
 10
2.360434000713497
 20
-51.25620703387335
 30
0.0
  0
VERTEX
  5
167
  8
LAYER_4
 10
2.655434261279453
 20
-51.25610080327755
 30
0.0
  0
VERTEX
  5
168
  8
LAYER_4
 10
2.655434261279453
 20
-54.35241647713796
 30
0.0
  0
VERTEX
  5
169
  8
LAYER_4
 10
2.557440619088617
 20
-54.35241647713796
 30
0.0
  0
VERTEX
  5
16A
  8
LAYER_4
 10
2.557365576095229
 20
-54.5486806273306
 30
0.0
  0
SEQEND
  5
1F4
  8
LAYER_4
  0
POLYLINE
  5
89
  8
LAYER_4
 66
     1
 10
0.0
 20
0.0
 30
0.0
 70
     1
  0
VERTEX
  5
16B
  8
LAYER_4
 10
2.950453282593749
 20
-54.5486806273306
 30
0.0
  0
VERTEX
  5
16C
  8
LAYER_4
 10
2.950428268262627
 20
-54.35241647713796
 30
0.0
  0
VERTEX
  5
16D
  8
LAYER_4
 10
2.852015636025399
 20
-54.35251645887519
 30
0.0
  0
VERTEX
  5
16E
  8
LAYER_4
 10
2.851896817952543
 20
-51.25620703387335
 30
0.0
  0
VERTEX
  5
16F
  8
LAYER_4
 10
3.147341082896006
 20
-51.25610080327755
 30
0.0
  0
VERTEX
  5
170
  8
LAYER_4
 10
3.147341082896006
 20
-54.35241647713796
 30
0.0
  0
VERTEX
  5
171
  8
LAYER_4
 10
3.049334933539605
 20
-54.35241647713796
 30
0.0
  0
VERTEX
  5
172
  8
LAYER_4
 10
3.049259890546224
 20
-54.5486806273306
 30
0.0
  0
SEQEND
  5
1F5
  8
LAYER_4
  0
POLYLINE
  5
8A
  8
LAYER_4
 66
     1
 10
0.0
 20
0.0
 30
0.0
 70
     1
  0
VERTEX
  5
173
  8
LAYER_4
 10
3.442322582713608
 20
-54.5486806273306
 30
0.0
  0
VERTEX
  5
174
  8
LAYER_4
 10
3.442272554051357
 20
-54.35241647713796
 30
0.0
  0
VERTEX
  5
175
  8
LAYER_4
 10
3.343891189728033
 20
-54.35251645887519
 30
0.0
  0
VERTEX
  5
176
  8
LAYER_4
 10
3.34381614673466
 20
-51.25620703387335
 30
0.0
  0
VERTEX
  5
177
  8
LAYER_4
 10
3.6880258502106
 20
-51.25610080327755
 30
0.0
  0
VERTEX
  5
178
  8
LAYER_4
 10
3.6880258502106
 20
-54.35241647713796
 30
0.0
  0
VERTEX
  5
179
  8
LAYER_4
 10
3.541235501573368
 20
-54.35241647713796
 30
0.0
  0
VERTEX
  5
17A
  8
LAYER_4
 10
3.54116671216277
 20
-54.5486806273306
 30
0.0
  0
SEQEND
  5
1F6
  8
LAYER_4
  0
POLYLINE
  5
8B
  8
LAYER_4
 66
     1
 10
0.0
 20
0.0
 30
0.0
 70
     1
  0
VERTEX
  5
17B
  8
LAYER_4
 10
3.98347011515407
 20
-54.5486806273306
 30
0.0
  0
VERTEX
  5
17C
  8
LAYER_4
 10
3.983395072160683
 20
-54.35241647713796
 30
0.0
  0
VERTEX
  5
17D
  8
LAYER_4
 10
3.884988693506244
 20
-54.35251645887519
 30
0.0
  0
VERTEX
  5
17E
  8
LAYER_4
 10
3.884894889764517
 20
-51.25620703387335
 30
0.0
  0
VERTEX
  5
17F
  8
LAYER_4
 10
4.179932671827153
 20
-51.25610080327755
 30
0.0
  0
VERTEX
  5
180
  8
LAYER_4
 10
4.179932671827153
 20
-54.35241647713796
 30
0.0
  0
VERTEX
  5
181
  8
LAYER_4
 10
4.08152003958994
 20
-54.35241647713796
 30
0.0
  0
VERTEX
  5
182
  8
LAYER_4
 10
4.081476264510471
 20
-54.5486806273306
 30
0.0
  0
SEQEND
  5
1F7
  8
LAYER_4
  0
POLYLINE
  5
8C
  8
LAYER_4
 66
     1
 10
0.0
 20
0.0
 30
0.0
 70
     1
  0
VERTEX
  5
183
  8
LAYER_4
 10
4.474939185975884
 20
-54.5486806273306
 30
0.0
  0
VERTEX
  5
184
  8
LAYER_4
 10
4.474864142982504
 20
-54.35241647713796
 30
0.0
  0
VERTEX
  5
185
  8
LAYER_4
 10
4.376889261540008
 20
-54.35251645887519
 30
0.0
  0
VERTEX
  5
186
  8
LAYER_4
 10
4.376770443467151
 20
-51.25620703387335
 30
0.0
  0
VERTEX
  5
187
  8
LAYER_4
 10
4.671776957615883
 20
-51.25610080327755
 30
0.0
  0
VERTEX
  5
188
  8
LAYER_4
 10
4.671776957615883
 20
-54.35241647713796
 30
0.0
  0
VERTEX
  5
189
  8
LAYER_4
 10
4.573395593292581
 20
-54.35241647713796
 30
0.0
  0
VERTEX
  5
18A
  8
LAYER_4
 10
4.573370578961459
 20
-54.5486806273306
 30
0.0
  0
SEQEND
  5
1F8
  8
LAYER_4
  0
POLYLINE
  5
8D
  8
LAYER_4
 66
     1
 10
0.0
 20
0.0
 30
0.0
 70
     1
  0
VERTEX
  5
18B
  8
LAYER_4
 10
4.966833500426873
 20
-54.5486806273306
 30
0.0
  0
VERTEX
  5
18C
  8
LAYER_4
 10
4.966758457433492
 20
-54.35241647713796
 30
0.0
  0
VERTEX
  5
18D
  8
LAYER_4
 10
4.868352078779061
 20
-54.35251645887519
 30
0.0
  0
VERTEX
  5
18E
  8
LAYER_4
 10
4.868233260706205
 20
-51.25620703387335
 30
0.0
  0
VERTEX
  5
18F
  8
LAYER_4
 10
5.163671272066871
 20
-51.25610080327755
 30
0.0
  0
VERTEX
  5
190
  8
LAYER_4
 10
5.163671272066871
 20
-54.35241647713796
 30
0.0
  0
VERTEX
  5
191
  8
LAYER_4
 10
5.065289907743562
 20
-54.35241647713796
 30
0.0
  0
VERTEX
  5
192
  8
LAYER_4
 10
5.065264893412433
 20
-54.5486806273306
 30
0.0
  0
SEQEND
  5
1F9
  8
LAYER_4
  0
POLYLINE
  5
8E
  8
LAYER_4
 66
     1
 10
0.0
 20
0.0
 30
0.0
 70
     1
  0
VERTEX
  5
193
  8
LAYER_4
 10
-8.753877323482655
 20
-41.0836339163248
 30
0.0
  0
VERTEX
  5
194
  8
LAYER_4
 10
-8.360864659977523
 20
-41.08364016518337
 30
0.0
  0
VERTEX
  5
195
  8
LAYER_4
 10
-8.360864659977523
 20
-37.7910603411303
 30
0.0
  0
VERTEX
  5
196
  8
LAYER_4
 10
-8.753877323482655
 20
-37.79105409227174
 30
0.0
  0
SEQEND
  5
1FA
  8
LAYER_4
  0
POLYLINE
  5
8F
  8
LAYER_4
 66
     1
 10
0.0
 20
0.0
 30
0.0
 70
     1
  0
VERTEX
  5
197
  8
LAYER_4
 10
-7.967426752843217
 20
-41.0836339163248
 30
0.0
  0
VERTEX
  5
198
  8
LAYER_4
 10
-7.574013860040061
 20
-41.08364016518337
 30
0.0
  0
VERTEX
  5
199
  8
LAYER_4
 10
-7.57403887437119
 20
-37.7910603411303
 30
0.0
  0
VERTEX
  5
19A
  8
LAYER_4
 10
-7.967451767174346
 20
-37.79105409227174
 30
0.0
  0
SEQEND
  5
1FB
  8
LAYER_4
  0
POLYLINE
  5
90
  8
LAYER_4
 66
     1
 10
0.0
 20
0.0
 30
0.0
 70
     1
  0
VERTEX
  5
19B
  8
LAYER_4
 10
-7.18058846007132
 20
-41.0836339163248
 30
0.0
  0
VERTEX
  5
19C
  8
LAYER_4
 10
-6.737947363609806
 20
-41.08364016518337
 30
0.0
  0
VERTEX
  5
19D
  8
LAYER_4
 10
-6.737922349278669
 20
-37.7910603411303
 30
0.0
  0
VERTEX
  5
19E
  8
LAYER_4
 10
-7.18056969932298
 20
-37.79105409227174
 30
0.0
  0
SEQEND
  5
1FC
  8
LAYER_4
  0
POLYLINE
  5
91
  8
LAYER_4
 66
     1
 10
0.0
 20
0.0
 30
0.0
 70
     1
  0
VERTEX
  5
19F
  8
LAYER_4
 10
-6.344534470806643
 20
-41.0836339163248
 30
0.0
  0
VERTEX
  5
1A0
  8
LAYER_4
 10
-5.951096563672337
 20
-41.08364016518337
 30
0.0
  0
VERTEX
  5
1A1
  8
LAYER_4
 10
-5.951096563672337
 20
-37.7910603411303
 30
0.0
  0
VERTEX
  5
1A2
  8
LAYER_4
 10
-6.344534470806643
 20
-37.79105409227174
 30
0.0
  0
SEQEND
  5
1FD
  8
LAYER_4
  0
POLYLINE
  5
92
  8
LAYER_4
 66
     1
 10
0.0
 20
0.0
 30
0.0
 70
     1
  0
VERTEX
  5
1A3
  8
LAYER_4
 10
-5.557270934405572
 20
-41.0836339163248
 30
0.0
  0
VERTEX
  5
1A4
  8
LAYER_4
 10
-5.16425827090044
 20
-41.08364016518337
 30
0.0
  0
VERTEX
  5
1A5
  8
LAYER_4
 10
-5.16425827090044
 20
-37.7910603411303
 30
0.0
  0
VERTEX
  5
1A6
  8
LAYER_4
 10
-5.557270934405572
 20
-37.79105409227174
 30
0.0
  0
SEQEND
  5
1FE
  8
LAYER_4
  0
POLYLINE
  5
93
  8
LAYER_4
 66
     1
 10
0.0
 20
0.0
 30
0.0
 70
     1
  0
VERTEX
  5
1A7
  8
LAYER_4
 10
-4.770795349435019
 20
-41.08364016518337
 30
0.0
  0
VERTEX
  5
1A8
  8
LAYER_4
 10
-4.770770335103883
 20
-37.7910603411303
 30
0.0
  0
VERTEX
  5
1A9
  8
LAYER_4
 10
-4.377344935135163
 20
-37.79105409227174
 30
0.0
  0
VERTEX
  5
1AA
  8
LAYER_4
 10
-4.377369949466292
 20
-41.0836339163248
 30
0.0
  0
SEQEND
  5
1FF
  8
LAYER_4
  0
POLYLINE
  5
94
  8
LAYER_4
 66
     1
 10
0.0
 20
0.0
 30
0.0
 70
     1
  0
VERTEX
  5
1AB
  8
LAYER_4
 10
-8.607005678269246
 20
-35.67776510776615
 30
0.0
  0
VERTEX
  5
1AC
  8
LAYER_4
 10
-7.967332949101497
 20
-35.67782759635192
 30
0.0
  0
VERTEX
  5
1AD
  8
LAYER_4
 10
-7.967426752843217
 20
-32.68003767567819
 30
0.0
  0
VERTEX
  5
1AE
  8
LAYER_4
 10
-8.607105735593755
 20
-32.67997518709242
 30
0.0
  0
SEQEND
  5
200
  8
LAYER_4
  0
POLYLINE
  5
95
  8
LAYER_4
 66
     1
 10
0.0
 20
0.0
 30
0.0
 70
     1
  0
VERTEX
  5
1AF
  8
LAYER_4
 10
-7.475532438392229
 20
-35.67776510776615
 30
0.0
  0
VERTEX
  5
1B0
  8
LAYER_4
 10
-6.885707017578227
 20
-35.67782759635192
 30
0.0
  0
VERTEX
  5
1B1
  8
LAYER_4
 10
-6.88560696025371
 20
-32.68003767567819
 30
0.0
  0
VERTEX
  5
1B2
  8
LAYER_4
 10
-7.475438634650502
 20
-32.67997518709242
 30
0.0
  0
SEQEND
  5
201
  8
LAYER_4
  0
POLYLINE
  5
96
  8
LAYER_4
 66
     1
 10
0.0
 20
0.0
 30
0.0
  0
VERTEX
  5
1B3
  8
LAYER_4
 10
-10.00643562980079
 20
-50.02752302559831
 30
0.0
  0
VERTEX
  5
1B4
  8
LAYER_4
 10
5.53449302724232
 20
-50.02752302559831
 30
0.0
  0
SEQEND
  5
202
  8
LAYER_4
  0
POLYLINE
  5
97
  8
LAYER_4
 66
     1
 10
0.0
 20
0.0
 30
0.0
 70
     1
  0
VERTEX
  5
1B5
  8
LAYER_4
 10
-10.00658571578755
 20
-51.20699508204453
 30
0.0
  0
VERTEX
  5
1B6
  8
LAYER_4
 10
-10.00658571578755
 20
-51.30528962746385
 30
0.0
  0
SEQEND
  5
203
  8
LAYER_4
  0
POLYLINE
  5
98
  8
LAYER_4
 66
     1
 10
0.0
 20
0.0
 30
0.0
 70
     1
  0
VERTEX
  5
1B7
  8
LAYER_4
 10
-10.00643562980079
 20
-51.20690759802446
 30
0.0
  0
VERTEX
  5
1B8
  8
LAYER_4
 10
-10.00643562980079
 20
-51.30518964572661
 30
0.0
  0
SEQEND
  5
204
  8
LAYER_4
  0
POLYLINE
  5
99
  8
LAYER_4
 66
     1
 10
0.0
 20
0.0
 30
0.0
  0
VERTEX
  5
1B9
  8
LAYER_4
 10
-10.00643562980079
 20
-51.30527712974668
 30
0.0
  0
VERTEX
  5
1BA
  8
LAYER_4
 10
-10.00643562980079
 20
-51.20698258432736
 30
0.0
  0
SEQEND
  5
205
  8
LAYER_4
  0
POLYLINE
  5
9A
  8
LAYER_4
 66
     1
 10
0.0
 20
0.0
 30
0.0
 70
     1
  0
VERTEX
  5
1BB
  8
LAYER_4
 10
-0.0000747640538619
 20
0.5000515400594991
 30
0.0
 42
0.4142135623730951
  0
VERTEX
  5
1BC
  8
LAYER_4
 10
-0.500074764053862
 20
0.0000515400594991
 30
0.0
 42
0.4142135623730951
  0
VERTEX
  5
1BD
  8
LAYER_4
 10
-0.0000747640538619
 20
-0.4999484599405009
 30
0.0
 42
0.4142135623730951
  0
VERTEX
  5
1BE
  8
LAYER_4
 10
0.4999252359461381
 20
0.0000515400594991
 30
0.0
 42
0.4142135623730951
  0
SEQEND
  5
206
  8
LAYER_4
  0
POLYLINE
  5
9B
  8
LAYER_4
 66
     1
 10
0.0
 20
0.0
 30
0.0
 70
     1
  0
VERTEX
  5
1BF
  8
LAYER_4
 10
-6.957263708387472
 20
-31.35329657860976
 30
0.0
  0
VERTEX
  5
1C0
  8
LAYER_4
 10
-6.711322804744739
 20
-31.30410556389006
 30
0.0
  0
VERTEX
  5
1C1
  8
LAYER_4
 10
-6.514610104760379
 20
-31.10754146848571
 30
0.0
  0
VERTEX
  5
1C2
  8
LAYER_4
 10
-6.465431929764279
 20
-30.86182385151309
 30
0.0
  0
VERTEX
  5
1C3
  8
LAYER_4
 10
-6.465431929764279
 20
-29.24014414748521
 30
0.0
  0
VERTEX
  5
1C4
  8
LAYER_4
 10
7.255868518605944
 20
-29.2401839097783
 30
0.0
  0
VERTEX
  5
1C5
  8
LAYER_4
 10
7.255879238092298
 20
-30.86180510493736
 30
0.0
  0
VERTEX
  5
1C6
  8
LAYER_4
 10
7.305082427419514
 20
-31.1072165278397
 30
0.0
  0
VERTEX
  5
1C7
  8
LAYER_4
 10
7.501795127403874
 20
-31.30419304791013
 30
0.0
  0
VERTEX
  5
1C8
  8
LAYER_4
 10
7.747711016715347
 20
-31.35333407176122
 30
0.0
  0
VERTEX
  5
1C9
  8
LAYER_4
 10
8.337824102337429
 20
-31.35333407176122
 30
0.0
  0
VERTEX
  5
1CA
  8
LAYER_4
 10
8.583714977317882
 20
-31.45121619251447
 30
0.0
  0
VERTEX
  5
1CB
  8
LAYER_4
 10
8.780427677302235
 20
-31.59905168873379
 30
0.0
  0
VERTEX
  5
1CC
  8
LAYER_4
 10
8.829655880960594
 20
-31.84486928744364
 30
0.0
  0
VERTEX
  5
1CD
  8
LAYER_4
 10
8.82970590962286
 20
-34.00686187569991
 30
0.0
  0
VERTEX
  5
1CE
  8
LAYER_4
 10
8.780527734626759
 20
-34.30212044347255
 30
0.0
  0
VERTEX
  5
1CF
  8
LAYER_4
 10
8.63258040614054
 20
-34.54743312619428
 30
0.0
  0
VERTEX
  5
1D0
  8
LAYER_4
 10
8.632567966009326
 20
-34.54748187550626
 30
0.0
  0
VERTEX
  5
1D1
  8
LAYER_4
 10
5.534643113229087
 20
-39.06869977529091
 30
0.0
  0
VERTEX
  5
1D2
  8
LAYER_4
 10
5.534643113229087
 20
-54.25391352885219
 30
0.0
  0
VERTEX
  5
1D3
  8
LAYER_4
 10
5.435836505276626
 20
-54.45010269274191
 30
0.0
  0
VERTEX
  5
1D4
  8
LAYER_4
 10
5.189895601633893
 20
-54.54873467652439
 30
0.0
  0
VERTEX
  5
1D5
  8
LAYER_4
 10
-9.711316551161957
 20
-54.54867218793865
 30
0.0
  0
VERTEX
  5
1D6
  8
LAYER_4
 10
-9.908029251146353
 20
-54.45039014023645
 30
0.0
  0
VERTEX
  5
1D7
  8
LAYER_4
 10
-10.00641061546965
 20
-54.25394477314507
 30
0.0
  0
VERTEX
  5
1D8
  8
LAYER_4
 10
-10.00643562980079
 20
-31.84485678972649
 30
0.0
  0
VERTEX
  5
1D9
  8
LAYER_4
 10
-9.95725745480469
 20
-31.59872674808778
 30
0.0
  0
VERTEX
  5
1DA
  8
LAYER_4
 10
-9.760544754820302
 20
-31.45130367653454
 30
0.0
  0
VERTEX
  5
1DB
  8
LAYER_4
 10
-9.490064792341812
 20
-31.35337781377126
 30
0.0
  0
SEQEND
  5
207
  8
LAYER_4
  0
ENDSEC
  0
EOF
