**ABCDEFGHIJKLMNOPQRSTUVWXYZabcdefghijklmnopqrstuvwxyz**************************
**PARASOLID !"#$%&'()*+,-./:;<=>?@[\]^_`{|}~0123456789**************************
**PART1;
MC=AMD64;
MC_MODEL=Intel64 Family 6 Model 60 Stepping 3, GenuineIntel;
MC_ID=unknown;
OS=Windows_NT;
OS_RELEASE=unknown;
FRU=Parasolid Version 33.1, build 247,  8- 6-2021;
APPL=SOLIDWORKS 2022-2021255;
SITE=;
USER=unknown;
FORMAT=text;
GUISE=transmit;
KEY=FILESpacer.x_t;
DATE=Sat Jul 22 10:12:16 2023;
**PART2;
SCH=SCH_3301247_33103;
USFLD_SIZE=0;
**PART3;
**END_OF_HEADER*****************************************************************
T51 : TRANSMIT FILE created by modeller version 330124723 SCH_3301247_33103_1300
6230 0 12 35 CCCI7 lattice222 0 CCCI4 mesh1006 0 I8 polyline1008 0 CCCCCCCDI5 ow
ner1040 0 CCCCCCI13 boundary_mesh1006 0 I17 boundary_polyline1008 0 CCCA16 index
_map_offset0 0 1 dA9 index_map82 0 A17 node_id_index_map82 0 A20 schema_embeddin
g_map82 0 A5 child12 0 A14 lowest_node_id0 0 1 dA16 mesh_offset_data206 0 Z1 176
4 2 3 0 0 0 0 0 0 0 1e3 1e-8 0 4 0 1 0 1 1 5 6 7 8 0 0 9 10 11 0 0 0 0 0 0 0 81
 255 2 2 1730 12 1 13 0 0 0 0 14 70 11 CI9 list_type0 0 1 uI10 notransmit0 0 1 l
CCCDCCDI12 finger_index0 0 1 dI12 finger_block1012 0 CZ3 0 4 T1 0 0 8 20 1 15 15
 13 255 5 1349 0 1 0 16 0 0 17 0 50 255 6 414 0 18 19 0 0 +.01401611145380796 .0
639110415714486 -.02525941187163715 780191523584791e-21 0 .999999999999695 .9999
99999999696 0 -780191523584791e-21 30 255 7 836 0 10 20 0 0 +-.01315 .0017 .0270
3060999936785 1 0 -1773448082925245e-30 29 255 8 1346 0 11 21 0 .014409630657518
42 .0017 -.0252102864699325 19 8 CCCCCCCA5 owner12 0 Z9 1351 0 1 17 0 22 V0 16 2
55 10 834 0 ?23 0 24 7 0 0 1 18 255 11 1343 0 25 0 26 8 ?1 17 255 25 0 27 28 29
 11 30 31 0 32 -18 26 1247 0 33 11 34 21 ?1 17 33 0 35 36 37 26 38 39 0 40 -18 3
4 1072 0 41 26 42 43 ?1 29 21 1248 0 26 43 8 -.01119367154282246 .0017 .02703060
999936785 29 43 1074 0 34 44 21 -.01401675529276558 .0017 -.02525939000063215 29
 44 1066 0 42 45 43 -.01440985550642966 .0017 -.02521024897678105 18 42 1064 0 4
6 34 47 44 ?1 29 45 1058 0 47 48 44 -.0147053748143665 .0017 -.0249645313598085
 18 47 1056 0 49 42 50 45 ?1 29 48 1050 0 50 51 45 -.0149508404457178 .0017 -.02
46696727189848 18 50 1048 0 52 47 53 48 ?1 29 51 1042 0 53 54 48 -.0150001186780
384 .0017 -.02427654765260535 18 53 1040 0 55 50 56 51 ?1 29 54 1034 0 56 57 51
 -.0150002187353629 .0017 .02825727834082675 18 56 1032 0 58 53 59 54 ?1 29 57 1
026 0 59 60 54 -.01495104056036686 .0017 .02865037528734255 18 59 1024 0 61 56 6
2 57 ?1 29 60 1018 0 62 63 57 -.0147051371782208 .0017 .0289456463528323 18 62 1
016 0 64 59 65 60 ?1 29 63 1010 0 65 66 60 -.01441005562107868 .0017 .0291909515
4513885 18 65 1008 0 67 62 68 63 ?1 29 66 1002 0 68 69 63 -.01401694915383182 .0
017 .02924017380415145 18 68 1000 0 70 65 71 66 ?1 29 69 994 0 71 72 66 .0140159
4260707286 .0017 .02924025503931295 18 71 992 0 73 68 74 69 ?1 29 72 986 0 74 75
 69 .01440948057153164 .0017 .02919111401546185 18 74 984 0 76 71 77 72 ?1 29 75
 978 0 77 78 72 .01470456212867374 .0017 .0289453963984893 18 77 976 0 79 74 80
 75 ?1 29 78 970 0 80 81 75 .01495046551081978 .0017 .02865053775766555 18 80 96
8 0 82 77 83 78 ?1 29 81 962 0 83 84 78 .01499971247522646 .0017 .02825731583397
82 18 83 960 0 85 80 86 81 ?1 29 84 954 0 86 87 81 .01499978126463708 .0017 -.02
42766132656204 18 86 952 0 88 83 89 84 ?1 29 87 946 0 89 90 84 .014950603089641
 .0017 -.0246697164609948 18 89 944 0 91 86 92 87 ?1 29 90 938 0 92 93 87 .01470
427446386582 .0017 -.0249645751018185 18 92 936 0 28 89 94 90 ?1 29 93 485 0 94
 95 90 -.01119367154282246 0 .02703060999936785 18 94 483 0 96 92 97 93 ?1 29 95
 315 0 97 98 93 .01401611145380796 0 -.02525941187163715 18 97 274 0 99 94 100 9
5 ?1 29 98 316 0 100 101 95 .01440963065751842 0 -.0252102864699325 18 100 275 0
 30 97 102 98 ?1 29 101 317 0 102 103 98 .01470427446386582 0 -.0249645751018185
 18 102 276 0 104 100 105 101 ?1 29 103 318 0 105 106 101 .014950603089641 0 -.0
246697164609948 18 105 277 0 107 102 108 103 ?1 29 106 319 0 108 109 103 .014999
78126463708 0 -.0242766132656204 18 108 278 0 110 105 111 106 ?1 29 109 320 0 11
1 112 106 .01499971247522646 0 .0282573158339782 18 111 279 0 113 108 114 109 ?1
 29 112 321 0 114 115 109 .01495046551081978 0 .02865053775766555 18 114 280 0 1
16 111 117 112 ?1 29 115 322 0 117 118 112 .01470456212867374 0 .028945396398489
3 18 117 281 0 119 114 120 115 ?1 29 118 323 0 120 121 115 .01440948057153164 0
 .02919111401546185 18 120 282 0 122 117 123 118 ?1 29 121 324 0 123 124 118 .01
401594260707286 0 .02924025503931295 18 123 283 0 125 120 126 121 ?1 29 124 325
 0 126 127 121 -.01401694915383182 0 .02924017380415145 18 126 284 0 128 123 129
 124 ?1 29 127 326 0 129 130 124 -.01441005562107868 0 .02919095154513885 18 129
 285 0 131 126 132 127 ?1 29 130 327 0 132 133 127 -.0147051371782208 0 .0289456
463528323 18 132 286 0 134 129 135 130 ?1 29 133 328 0 135 136 130 -.01495104056
036686 0 .02865037528734255 18 135 287 0 137 132 138 133 ?1 29 136 329 0 138 139
 133 -.0150002187353629 0 .02825727834082675 18 138 288 0 140 135 141 136 ?1 29
 139 330 0 141 142 136 -.0150001186780384 0 -.02427654765260535 18 141 289 0 143
 138 144 139 ?1 29 142 331 0 144 145 139 -.0149508404457178 0 -.0246696727189848
 18 144 290 0 146 141 147 142 ?1 29 145 332 0 147 148 142 -.0147053748143665 0 -
.0249645313598085 18 147 291 0 149 144 150 145 ?1 29 148 333 0 150 151 145 -.014
40985550642966 0 -.02521024897678105 18 150 292 0 152 147 153 148 ?1 29 151 334
 0 153 154 148 -.01401675529276558 0 -.02525939000063215 18 153 293 0 155 150 15
6 151 ?1 29 154 800 0 156 157 151 -.01315 0 .02703060999936785 18 156 679 0 158
 153 159 154 ?1 29 157 801 0 159 160 154 -.01315 0 -.02316939000063215 18 159 67
8 0 161 156 162 157 ?1 29 160 802 0 162 163 157 .01315 0 -.02316939000063215 18
 162 677 0 164 159 165 160 ?1 29 163 803 0 165 166 160 .01315 0 .027030609999367
85 18 165 676 0 167 162 168 163 ?1 29 166 804 0 168 169 163 .0124627186034836 0
 .02703060999936785 18 168 675 0 170 165 171 166 ?1 29 169 805 0 171 172 166 .01
19627186034836 0 .02753060999936785 18 171 674 0 173 168 174 169 ?1 29 172 806 0
 174 175 169 .0119627186034836 0 .02794025503931295 18 174 673 0 176 171 177 172
 ?1 29 175 807 0 177 178 172 .01146271860348358 0 .02844025503931295 18 177 672
 0 179 174 180 175 ?1 29 178 808 0 180 181 175 -.01019367154282244 0 .0284402550
3931295 18 180 671 0 182 177 183 178 ?1 29 181 809 0 183 184 178 -.0106936715428
2246 0 .02794025503931295 18 183 669 0 185 180 186 181 ?1 29 184 810 0 186 187 1
81 -.01069367154282246 0 .02753060999936785 18 186 692 0 188 183 189 184 ?1 29 1
87 1224 0 189 190 184 .01401611145380796 .0017 -.02525941187163715 18 189 1154 0
 191 186 192 187 ?1 29 190 1226 0 192 193 187 -.01069367154282246 .0017 .0275306
0999936785 18 192 1142 0 37 189 194 190 ?1 29 193 1227 0 194 195 190 -.010693671
54282246 .0017 .02794025503931295 18 194 1143 0 196 192 197 193 ?1 29 195 1228 0
 197 198 193 -.01019367154282244 .0017 .02844025503931295 18 197 1144 0 199 194
 200 195 ?1 29 198 1229 0 200 201 195 .0114627186034836 .0017 .02844025503931295
 18 200 1145 0 202 197 203 198 ?1 29 201 1230 0 203 204 198 .0119627186034836 .0
017 .02794025503931295 18 203 1146 0 205 200 206 201 ?1 29 204 1231 0 206 207 20
1 .0119627186034836 .0017 .02753060999936785 18 206 1147 0 208 203 209 204 ?1 29
 207 1232 0 209 210 204 .0124627186034836 .0017 .02703060999936785 18 209 1148 0
 211 206 212 207 ?1 29 210 1233 0 212 213 207 .01315 .0017 .02703060999936785 18
 212 1149 0 214 209 215 210 ?1 29 213 1234 0 215 216 210 .01315 .0017 -.02316939
000063215 18 215 1150 0 217 212 218 213 ?1 29 216 1235 0 218 219 213 -.01315 .00
17 -.02316939000063215 18 218 1151 0 220 215 221 216 ?1 29 219 1237 0 221 0 216
 -.01315 .0017 .02703060999936785 18 221 1152 0 36 218 0 219 ?1 17 36 0 35 220 3
3 221 23 10 0 222 -15 255 35 1159 0 33 223 224 17 220 0 35 217 36 218 222 225 0
 226 -17 23 0 227 96 228 26 36 10 0 0 +17 222 0 229 158 226 221 220 225 0 228 +1
5 229 736 0 226 230 0 17 158 0 229 231 222 156 228 232 0 233 +17 226 0 229 222 2
31 218 161 234 0 235 -16 225 1117 0 ?222 236 0 237 0 0 1 17 228 0 227 23 233 221
 158 232 0 0 -15 227 740 0 228 238 0 17 233 0 227 228 96 156 239 240 0 241 -16 2
32 829 0 ?158 234 242 243 0 0 1 16 234 841 0 ?161 244 232 245 0 0 1 16 242 832 0
 ?96 232 240 246 0 0 1 30 243 773 0 232 246 245 0 +-.01315 .0639110415714486 .02
703060999936785 0 -1 0 30 246 774 0 242 247 243 0 +-.01119367154282246 .06391104
15714486 .02703060999936785 0 -1 0 30 245 772 0 234 243 248 0 +-.01315 .06391104
15714486 -.02316939000063215 0 -1 0 30 248 771 0 244 245 249 0 +.01315 .06391104
15714486 -.02316939000063215 0 -1 0 16 244 849 0 ?164 250 234 248 0 0 1 30 249 7
70 0 250 248 251 0 +.01315 .0639110415714486 .02703060999936785 0 -1 0 16 250 85
7 0 ?167 252 244 249 0 0 1 30 251 769 0 252 249 253 0 +.0124627186034836 .063911
0415714486 .02703060999936785 0 -1 0 16 252 865 0 ?170 254 250 251 0 0 1 30 253
 768 0 254 251 255 0 +.0119627186034836 .0639110415714486 .02753060999936785 0 -
1 0 16 254 873 0 ?173 256 252 253 0 0 1 30 255 767 0 256 253 257 0 +.01196271860
34836 .0639110415714486 .02794025503931295 0 -1 0 16 256 881 0 ?176 258 254 255
 0 0 1 30 257 766 0 258 255 259 0 +.01146271860348358 .0639110415714486 .0284402
5503931295 0 -1 0 16 258 889 0 ?179 260 256 257 0 0 1 30 259 765 0 260 257 261 0
 +-.01019367154282244 .0639110415714486 .02844025503931295 0 -1 0 16 260 897 0 ?
182 262 258 259 0 0 1 30 261 764 0 262 259 263 0 +-.01069367154282246 .063911041
5714486 .02794025503931295 0 -1 0 16 262 905 0 ?185 264 260 261 0 0 1 30 263 763
 0 264 261 265 0 +-.01069367154282246 .0639110415714486 .02753060999936785 0 -1
 0 16 264 913 0 ?188 266 262 263 0 0 1 30 265 314 0 266 263 267 0 +.014016111453
80796 0 -.02525941187163715 -.999999999999696 0 780191523584791e-21 16 266 270 0
 ?268 269 264 265 0 0 1 30 267 313 0 269 265 270 0 +-.01401675529276558 0 -.0252
5939000063215 -.992276790200982 0 .1240434263813932 16 269 266 0 ?271 272 266 26
7 0 0 1 30 270 312 0 272 267 273 0 +-.01440985550642966 0 -.02521024897678105 -.
768922666553699 0 .639341796584541 16 272 262 0 ?274 275 269 270 0 0 1 30 273 31
1 0 275 270 276 0 +-.0147053748143665 0 -.0249645313598085 -.63979990742505 0 .7
6854152682786 16 275 258 0 ?277 278 272 273 0 0 1 30 276 310 0 278 273 279 0 +-.
0149508404457178 0 -.0246696727189848 -.1243766797425018 0 .992235073728112 16 2
78 254 0 ?280 281 275 276 0 0 1 30 279 309 0 281 276 282 0 +-.0150001186780384 0
 -.02427654765260535 -1904626640592765e-21 0 .999999999998186 16 281 250 0 ?283
 284 278 279 0 0 1 30 282 308 0 284 279 285 0 +-.0150002187353629 0 .02825727834
082675 .1241367758283386 0 .992265116230005 16 284 246 0 ?286 287 281 282 0 0 1
 30 285 307 0 287 282 288 0 +-.01495104056036686 0 .02865037528734255 .639945022
001671 0 .768420697805103 16 287 242 0 ?289 290 284 285 0 0 1 30 288 306 0 290 2
85 291 0 +-.0147051371782208 0 .0289456463528323 .768984726743795 0 .63926715075
5278 16 290 238 0 ?292 293 287 288 0 0 1 30 291 305 0 293 288 294 0 +-.014410055
62107868 0 .02919095154513885 .992251774503581 0 .1242433740466418 16 293 234 0
 ?295 296 290 291 0 0 1 30 294 304 0 296 291 297 0 +-.01401694915383182 0 .02924
017380415145 .999999999995801 0 28978516447548e-19 16 296 230 0 ?298 299 293 294
 0 0 1 30 297 303 0 299 294 300 0 +.01401594260707286 0 .02924025503931295 .9922
93764434897 0 -.1239075666116486 16 299 226 0 ?301 302 296 297 0 0 1 30 300 302
 0 302 297 303 0 +.01440948057153164 0 .02919111401546185 .768456479025648 0 -.6
39902054883014 16 302 222 0 ?304 305 299 300 0 0 1 30 303 301 0 305 300 306 0 +.
01470456212867374 0 .0289453963984893 .640473100410057 0 -.767980603694604 16 30
5 218 0 ?307 308 302 303 0 0 1 30 306 300 0 308 303 309 0 +.01495046551081978 0
 .02865053775766555 .1242688361265162 0 -.992248585974181 16 308 214 0 ?310 311
 305 306 0 0 1 30 309 299 0 311 306 312 0 +.01499971247522646 0 .028257315833978
2 1309428245505072e-21 0 -.999999999999143 16 311 210 0 ?313 314 308 309 0 0 1 3
0 312 298 0 314 309 315 0 +.01499978126463708 0 -.0242766132656204 -.12413483292
9561 0 -.992265359293344 16 314 206 0 ?316 317 311 312 0 0 1 30 315 297 0 317 31
2 318 0 +.014950603089641 0 -.0246697164609948 -.641125648660788 0 -.76743592737
7188 16 317 202 0 ?319 320 314 315 0 0 1 30 318 296 0 320 315 321 0 +.0147042744
6386582 0 -.0249645751018185 -.76799707609694 0 -.64045334811097 16 320 198 0 ?2
9 322 317 318 0 0 1 30 321 295 0 322 318 323 0 +.01440963065751842 0 -.025210286
4699325 -.992297881028449 0 -.123874595080871 16 322 194 0 ?324 325 320 321 0 0
 1 30 323 415 0 325 321 326 0 +.01401611145380796 .0639110415714486 -.0252594118
7163715 0 -1 0 16 325 926 0 ?99 31 322 323 0 0 1 30 326 416 0 31 323 327 0 +.014
40963065751842 .0639110415714486 -.0252102864699325 0 -1 0 16 31 929 0 ?30 328 3
25 326 0 0 1 30 327 417 0 328 326 329 0 +.01470427446386582 .0639110415714486 -.
0249645751018185 0 -1 0 16 328 937 0 ?104 330 31 327 0 0 1 30 329 418 0 330 327
 331 0 +.014950603089641 .0639110415714486 -.0246697164609948 0 -1 0 16 330 945
 0 ?107 332 328 329 0 0 1 30 331 419 0 332 329 333 0 +.01499978126463708 .063911
0415714486 -.0242766132656204 0 -1 0 16 332 953 0 ?110 334 330 331 0 0 1 30 333
 420 0 334 331 335 0 +.01499971247522646 .0639110415714486 .0282573158339782 0 -
1 0 16 334 961 0 ?113 336 332 333 0 0 1 30 335 421 0 336 333 337 0 +.01495046551
081978 .0639110415714486 .02865053775766555 0 -1 0 16 336 969 0 ?116 338 334 335
 0 0 1 30 337 422 0 338 335 339 0 +.01470456212867374 .0639110415714486 .0289453
963984893 0 -1 0 16 338 977 0 ?119 340 336 337 0 0 1 30 339 423 0 340 337 341 0
 +.01440948057153164 .0639110415714486 .02919111401546185 0 -1 0 16 340 985 0 ?1
22 342 338 339 0 0 1 30 341 424 0 342 339 343 0 +.01401594260707286 .06391104157
14486 .02924025503931295 0 -1 0 16 342 993 0 ?125 344 340 341 0 0 1 30 343 425 0
 344 341 345 0 +-.01401694915383182 .0639110415714486 .02924017380415145 0 -1 0
 16 344 1001 0 ?128 346 342 343 0 0 1 30 345 426 0 346 343 347 0 +-.014410055621
07868 .0639110415714486 .02919095154513885 0 -1 0 16 346 1009 0 ?131 348 344 345
 0 0 1 30 347 427 0 348 345 349 0 +-.0147051371782208 .0639110415714486 .0289456
463528323 0 -1 0 16 348 1017 0 ?134 350 346 347 0 0 1 30 349 428 0 350 347 351 0
 +-.01495104056036686 .0639110415714486 .02865037528734255 0 -1 0 16 350 1025 0
 ?137 352 348 349 0 0 1 30 351 429 0 352 349 353 0 +-.0150002187353629 .06391104
15714486 .02825727834082675 0 -1 0 16 352 1033 0 ?140 354 350 351 0 0 1 30 353 4
30 0 354 351 355 0 +-.0150001186780384 .0639110415714486 -.02427654765260535 0 -
1 0 16 354 1041 0 ?143 356 352 353 0 0 1 30 355 431 0 356 353 357 0 +-.014950840
4457178 .0639110415714486 -.0246696727189848 0 -1 0 16 356 1049 0 ?146 358 354 3
55 0 0 1 30 357 432 0 358 355 359 0 +-.0147053748143665 .0639110415714486 -.0249
645313598085 0 -1 0 16 358 1057 0 ?149 360 356 357 0 0 1 30 359 433 0 360 357 20
 0 +-.01440985550642966 .0639110415714486 -.02521024897678105 0 -1 0 16 360 1065
 0 ?152 24 358 359 0 0 1 30 20 434 0 24 359 7 0 +-.01401675529276558 .0639110415
714486 -.02525939000063215 0 -1 0 16 24 1073 0 ?155 10 360 20 0 0 1 17 155 0 361
 271 41 153 362 24 0 363 +15 361 1076 0 41 364 0 17 271 0 361 365 155 150 363 26
9 0 366 +17 41 0 361 155 365 34 367 368 0 362 -17 362 0 369 370 268 34 155 24 0
 371 -17 363 0 372 373 366 153 271 269 0 268 -15 372 193 0 373 374 375 17 373 0
 372 376 363 97 268 266 0 0 -17 366 0 372 363 377 150 274 272 0 0 -17 268 0 369
 362 99 153 373 266 0 0 +15 369 1081 0 370 18 0 17 99 0 369 268 370 97 191 325 0
 324 +17 370 0 369 99 362 189 371 378 0 379 -17 191 0 380 32 324 189 99 325 0 37
0 -17 324 0 380 191 30 97 376 322 0 373 +15 380 932 0 32 16 0 17 30 0 380 324 32
 100 25 31 0 29 +17 376 0 372 381 373 100 324 322 0 0 -17 381 0 372 382 376 102
 29 320 0 0 -17 382 0 372 383 381 105 319 317 0 0 -17 29 0 27 25 104 100 381 320
 0 376 +15 27 940 0 28 384 0 17 104 0 27 29 28 102 385 328 0 319 +17 28 0 27 104
 25 92 386 387 0 385 -17 385 0 388 91 319 92 104 328 0 389 -17 319 0 388 385 107
 102 382 317 0 381 +15 388 948 0 91 390 0 17 107 0 388 319 91 105 391 330 0 316
 +17 91 0 388 107 385 89 389 392 0 391 -17 391 0 393 88 316 89 107 330 0 394 -17
 316 0 393 391 110 105 383 314 0 382 +15 393 956 0 88 395 0 17 110 0 393 316 88
 108 396 332 0 313 +17 383 0 372 397 382 108 316 314 0 0 -17 397 0 372 398 383 1
11 313 311 0 0 -17 398 0 372 399 397 114 310 308 0 0 -17 313 0 400 396 113 108 3
97 311 0 383 +15 400 964 0 85 401 0 17 396 0 400 85 313 86 110 332 0 402 -17 113
 0 400 313 85 111 403 334 0 310 +17 85 0 400 113 396 83 402 404 0 403 -17 403 0
 405 82 310 83 113 334 0 406 -17 310 0 405 403 116 111 398 308 0 397 +15 405 972
 0 82 407 0 17 116 0 405 310 82 114 408 336 0 307 +17 82 0 405 116 403 80 406 40
9 0 408 -17 408 0 410 79 307 80 116 336 0 411 -17 307 0 410 408 119 114 399 305
 0 398 +15 410 980 0 79 412 0 17 119 0 410 307 79 117 413 338 0 304 +17 399 0 37
2 414 398 117 307 305 0 0 -17 414 0 372 415 399 120 304 302 0 0 -17 415 0 372 41
6 414 123 301 299 0 0 -17 304 0 417 413 122 117 414 302 0 399 +15 417 988 0 76 4
18 0 17 413 0 417 76 304 77 119 338 0 419 -17 122 0 417 304 76 120 420 340 0 301
 +17 76 0 417 122 413 74 419 421 0 420 -17 420 0 422 73 301 74 122 340 0 423 -17
 301 0 422 420 125 120 415 299 0 414 +15 422 996 0 73 424 0 17 125 0 422 301 73
 123 425 342 0 298 +17 73 0 422 125 420 71 423 426 0 425 -17 425 0 427 70 298 71
 125 342 0 428 -17 298 0 427 425 128 123 416 296 0 415 +15 427 1004 0 70 429 0 1
7 128 0 427 298 70 126 430 344 0 295 +17 416 0 372 431 415 126 298 296 0 0 -17 4
31 0 372 432 416 129 295 293 0 0 -17 432 0 372 433 431 132 292 290 0 0 -17 295 0
 434 430 131 126 431 293 0 416 +15 434 1012 0 67 435 0 17 430 0 434 67 295 68 12
8 344 0 436 -17 131 0 434 295 67 129 437 346 0 292 +17 67 0 434 131 430 65 436 4
38 0 437 -17 437 0 439 64 292 65 131 346 0 440 -17 292 0 439 437 134 129 432 290
 0 431 +15 439 1020 0 64 441 0 17 134 0 439 292 64 132 442 348 0 289 +17 64 0 43
9 134 437 62 440 443 0 442 -17 442 0 444 61 289 62 134 348 0 445 -17 289 0 444 4
42 137 132 433 287 0 432 +15 444 1028 0 61 446 0 17 137 0 444 289 61 135 447 350
 0 286 +17 433 0 372 448 432 135 289 287 0 0 -17 448 0 372 449 433 138 286 284 0
 0 -17 449 0 372 450 448 141 283 281 0 0 -17 286 0 451 447 140 135 448 284 0 433
 +15 451 1036 0 58 452 0 17 447 0 451 58 286 59 137 350 0 453 -17 140 0 451 286
 58 138 454 352 0 283 +17 58 0 451 140 447 56 453 455 0 454 -17 454 0 456 55 283
 56 140 352 0 457 -17 283 0 456 454 143 138 449 281 0 448 +15 456 1044 0 55 458
 0 17 143 0 456 283 55 141 459 354 0 280 +17 55 0 456 143 454 53 457 460 0 459 -
17 459 0 461 52 280 53 143 354 0 462 -17 280 0 461 459 146 141 450 278 0 449 +15
 461 1052 0 52 463 0 17 146 0 461 280 52 144 464 356 0 277 +17 450 0 372 377 449
 144 280 278 0 0 -17 377 0 372 366 450 147 277 275 0 0 -17 277 0 465 464 149 144
 377 275 0 450 +15 465 1060 0 49 466 0 17 464 0 465 49 277 50 146 356 0 467 -17
 149 0 465 277 49 147 468 358 0 274 +17 49 0 465 149 464 47 467 469 0 468 -17 46
8 0 470 46 274 47 149 358 0 471 -17 274 0 470 468 152 147 366 272 0 377 +15 470
 1068 0 46 472 0 17 152 0 470 274 46 150 365 360 0 271 +17 46 0 470 152 468 42 4
71 473 0 365 -17 365 0 361 41 271 42 152 360 0 367 -17 367 0 224 471 371 42 41 3
68 0 0 +15 224 1160 0 379 223 0 17 471 0 224 467 367 47 46 473 0 0 +17 371 0 224
 367 379 34 370 378 0 0 +16 368 1088 0 ?367 378 473 474 0 0 1 16 378 1087 0 ?371
 475 368 476 0 0 1 16 473 1089 0 ?471 368 469 477 0 0 1 30 474 1172 0 368 477 47
6 0 +-.01401675529276558 .0017 -.02525939000063215 -.992276790200982 0 .12404342
63813932 30 477 1173 0 473 478 474 0 +-.01440985550642966 .0017 -.02521024897678
105 -.768922666553699 0 .639341796584541 30 476 1171 0 378 474 479 0 +.014016111
45380796 .0017 -.02525941187163715 -.999999999999696 0 780191523584791e-21 31 25
5 479 786 0 475 476 480 0 +-.01119367154282246 0 .02753060999936785 0 -1 0 0 0 -
1 5e-4 16 475 585 0 ?481 482 378 479 0 0 1 30 480 785 0 482 479 483 0 +-.0106936
7154282246 0 .02753060999936785 0 0 1 16 482 589 0 ?484 485 475 480 0 0 1 31 483
 784 0 485 480 486 0 +-.01019367154282246 0 .02794025503931295 0 1 0 0 0 -1 5e-4
 16 485 593 0 ?487 488 482 483 0 0 1 30 486 783 0 488 483 489 0 +.01146271860348
358 0 .02844025503931295 1 0 0 16 488 597 0 ?490 491 485 486 0 0 1 31 489 782 0
 491 486 492 0 +.0114627186034836 0 .02794025503931295 0 1 0 0 0 1 5e-4 16 491 6
01 0 ?493 494 488 489 0 0 1 30 492 781 0 494 489 495 0 +.0119627186034836 0 .027
53060999936785 0 0 -1 16 494 605 0 ?496 497 491 492 0 0 1 31 495 780 0 497 492 4
98 0 +.0124627186034836 0 .02753060999936785 0 -1 0 0 0 1 5e-4 16 497 609 0 ?499
 500 494 495 0 0 1 30 498 779 0 500 495 501 0 +.0124627186034836 0 .027030609999
36785 1 0 0 16 500 613 0 ?502 503 497 498 0 0 1 30 501 778 0 503 498 504 0 +.013
15 0 .02703060999936785 -1382249781654826e-31 0 -1 16 503 617 0 ?505 506 500 501
 0 0 1 30 504 777 0 506 501 507 0 +.01315 0 -.02316939000063215 -1 0 -1319181350
552704e-31 16 506 621 0 ?508 509 503 504 0 0 1 30 507 776 0 509 504 247 0 +-.013
15 0 -.02316939000063215 1382249781654826e-31 0 1 16 509 625 0 ?241 240 506 507
 0 0 1 30 247 775 0 240 507 246 0 +-.01315 0 .02703060999936785 1 0 -17734480829
25245e-30 16 240 629 0 ?239 242 509 247 0 0 1 17 239 0 375 481 241 94 233 240 0
 0 +15 375 481 0 239 374 0 17 481 0 375 484 239 186 510 475 0 0 +17 241 0 375 23
9 508 156 231 509 0 0 +17 508 0 375 241 505 159 511 506 0 0 +17 231 0 229 226 15
8 159 241 509 0 508 -17 505 0 375 508 502 162 512 503 0 0 +17 511 0 513 514 161
 162 508 506 0 505 -15 513 732 0 514 515 0 17 514 0 513 235 511 215 164 244 0 51
6 -17 161 0 513 511 235 159 226 234 0 231 +17 235 0 513 161 514 218 217 236 0 0
 +17 217 0 35 214 220 215 235 236 0 514 -16 236 1116 0 ?235 517 225 518 0 0 1 16
 517 1115 0 ?516 519 236 520 0 0 1 30 518 1200 0 236 237 520 0 +.01315 .0017 -.0
2316939000063215 -1 0 -1319181350552704e-31 30 237 1201 0 225 0 518 0 +-.01315 .
0017 -.02316939000063215 1382249781654826e-31 0 1 30 520 1199 0 517 518 521 0 +.
01315 .0017 .02703060999936785 -1382249781654826e-31 0 -1 30 521 1198 0 519 520
 522 0 +.0124627186034836 .0017 .02703060999936785 1 0 0 16 519 1114 0 ?523 524
 517 521 0 0 1 31 522 1197 0 524 521 525 0 -.0124627186034836 .0017 .02753060999
936785 0 1 0 0 0 1 5e-4 16 524 1113 0 ?526 527 519 522 0 0 1 30 525 1196 0 527 5
22 528 0 +.0119627186034836 .0017 .02753060999936785 0 0 -1 16 527 1112 0 ?529 5
30 524 525 0 0 1 31 528 1195 0 530 525 531 0 +.0114627186034836 .0017 .027940255
03931295 0 1 0 0 0 1 5e-4 16 530 1111 0 ?532 533 527 528 0 0 1 30 531 1194 0 533
 528 534 0 +.01146271860348358 .0017 .02844025503931295 1 0 0 16 533 1110 0 ?535
 536 530 531 0 0 1 31 534 1193 0 536 531 537 0 +-.01019367154282246 .0017 .02794
025503931295 0 1 0 0 0 1 5e-4 16 536 1109 0 ?538 539 533 534 0 0 1 30 537 1192 0
 539 534 540 0 +-.01069367154282246 .0017 .02753060999936785 0 0 1 16 539 1108 0
 ?541 39 536 537 0 0 1 31 540 1191 0 39 537 542 0 --.01119367154282246 .0017 .02
753060999936785 0 1 0 0 0 1 5e-4 16 39 1107 0 ?38 543 539 540 0 0 1 30 542 1190
 0 543 540 544 0 +.01440963065751842 .0017 -.0252102864699325 -.992297881028449
 0 -.123874595080871 16 543 1086 0 ?379 387 39 542 0 0 1 30 544 1189 0 387 542 5
45 0 +.01470427446386582 .0017 -.0249645751018185 -.76799707609694 0 -.640453348
11097 16 387 1105 0 ?386 392 543 544 0 0 1 30 545 1188 0 392 544 546 0 +.0149506
03089641 .0017 -.0246697164609948 -.641125648660788 0 -.767435927377188 16 392 1
104 0 ?389 547 387 545 0 0 1 30 546 1187 0 547 545 548 0 +.01499978126463708 .00
17 -.0242766132656204 -.124134832929561 0 -.992265359293344 16 547 1103 0 ?394 4
04 392 546 0 0 1 30 548 1186 0 404 546 549 0 +.01499971247522646 .0017 .02825731
58339782 1309428245505072e-21 0 -.999999999999143 16 404 1102 0 ?402 409 547 548
 0 0 1 30 549 1185 0 409 548 550 0 +.01495046551081978 .0017 .02865053775766555
 .1242688361265162 0 -.992248585974181 16 409 1101 0 ?406 551 404 549 0 0 1 30 5
50 1184 0 551 549 552 0 +.01470456212867374 .0017 .0289453963984893 .64047310041
0057 0 -.767980603694604 16 551 1100 0 ?411 421 409 550 0 0 1 30 552 1183 0 421
 550 553 0 +.01440948057153164 .0017 .02919111401546185 .768456479025648 0 -.639
902054883015 16 421 1099 0 ?419 426 551 552 0 0 1 30 553 1182 0 426 552 554 0 +.
01401594260707286 .0017 .02924025503931295 .992293764434897 0 -.1239075666116486
 16 426 1098 0 ?423 555 421 553 0 0 1 30 554 1181 0 555 553 556 0 +-.01401694915
383182 .0017 .02924017380415145 .999999999995801 0 28978516447548e-19 16 555 109
7 0 ?428 438 426 554 0 0 1 30 556 1180 0 438 554 557 0 +-.01441005562107868 .001
7 .02919095154513885 .992251774503581 0 .1242433740466416 16 438 1096 0 ?436 443
 555 556 0 0 1 30 557 1179 0 443 556 558 0 +-.0147051371782208 .0017 .0289456463
528323 .768984726743795 0 .639267150755278 16 443 1095 0 ?440 559 438 557 0 0 1
 30 558 1178 0 559 557 560 0 +-.01495104056036686 .0017 .02865037528734255 .6399
45022001671 0 .768420697805103 16 559 1094 0 ?445 455 443 558 0 0 1 30 560 1177
 0 455 558 561 0 +-.0150002187353629 .0017 .02825727834082675 .1241367758283386
 0 .992265116230005 16 455 1093 0 ?453 460 559 560 0 0 1 30 561 1176 0 460 560 5
62 0 +-.0150001186780384 .0017 -.02427654765260535 -1904626640592765e-21 0 .9999
99999998186 16 460 1092 0 ?457 563 455 561 0 0 1 30 562 1175 0 563 561 478 0 +-.
0149508404457178 .0017 -.0246696727189848 -.1243766797425018 0 .992235073728112
 16 563 1091 0 ?462 469 460 562 0 0 1 30 478 1174 0 469 562 477 0 +-.01470537481
43665 .0017 -.0249645313598085 -.63979990742505 0 .76854152682786 16 469 1090 0
 ?467 473 563 478 0 0 1 17 467 0 224 462 471 50 49 469 0 0 +17 462 0 224 457 467
 53 52 563 0 0 +17 457 0 224 453 462 56 55 460 0 0 +17 52 0 461 146 459 50 462 5
63 0 464 -17 453 0 224 445 457 59 58 455 0 0 +17 445 0 224 440 453 62 61 559 0 0
 +17 440 0 224 436 445 65 64 443 0 0 +17 61 0 444 137 442 59 445 559 0 447 -17 4
36 0 224 428 440 68 67 438 0 0 +17 428 0 224 423 436 71 70 555 0 0 +17 423 0 224
 419 428 74 73 426 0 0 +17 70 0 427 128 425 68 428 555 0 430 -17 419 0 224 411 4
23 77 76 421 0 0 +17 411 0 224 406 419 80 79 551 0 0 +17 406 0 224 402 411 83 82
 409 0 0 +17 79 0 410 119 408 77 411 551 0 413 -17 402 0 224 394 406 86 85 404 0
 0 +17 394 0 224 389 402 89 88 547 0 0 +17 389 0 224 386 394 92 91 392 0 0 +17 8
8 0 393 110 391 86 394 547 0 396 -17 386 0 224 379 389 11 28 387 0 0 +17 379 0 2
24 371 386 189 32 543 0 0 +17 32 0 380 30 191 11 379 543 0 386 -17 38 0 564 188
 40 192 33 39 0 0 +15 564 696 0 40 565 0 17 188 0 564 510 38 186 566 264 0 567 +
17 40 0 564 38 510 26 96 242 0 23 -17 510 0 564 40 188 94 481 475 0 239 -17 96 0
 227 233 23 94 40 242 0 510 +17 566 0 568 541 567 192 188 264 0 38 -17 567 0 568
 566 185 186 484 482 0 481 -15 568 700 0 566 569 0 17 185 0 568 567 541 183 570
 262 0 571 +17 484 0 375 487 481 183 567 482 0 0 +17 487 0 375 490 484 180 571 4
85 0 0 +17 490 0 375 493 487 177 572 488 0 0 +17 571 0 573 570 182 183 487 485 0
 484 -15 573 704 0 570 574 0 17 570 0 573 538 571 194 185 262 0 541 -17 182 0 57
3 571 538 180 575 260 0 572 +17 538 0 573 182 570 197 196 536 0 0 +17 575 0 576
 535 572 197 182 260 0 538 -17 572 0 576 575 179 180 490 488 0 487 -15 576 708 0
 575 577 0 17 179 0 576 572 535 177 578 258 0 579 +17 535 0 576 179 575 200 199
 533 0 0 +17 578 0 580 532 579 200 179 258 0 535 -17 579 0 580 578 176 177 493 4
91 0 490 -15 580 712 0 578 581 0 17 176 0 580 579 532 174 582 256 0 583 +17 493
 0 375 496 490 174 579 491 0 0 +17 496 0 375 499 493 171 583 494 0 0 +17 499 0 3
75 502 496 168 584 497 0 0 +17 583 0 585 582 173 174 496 494 0 493 -15 585 716 0
 582 586 0 17 582 0 585 529 583 203 176 256 0 532 -17 173 0 585 583 529 171 587
 254 0 584 +17 529 0 585 173 582 206 205 527 0 0 +17 587 0 588 526 584 206 173 2
54 0 529 -17 584 0 588 587 170 171 499 497 0 496 -15 588 720 0 587 589 0 17 170
 0 588 584 526 168 590 252 0 591 +17 526 0 588 170 587 209 208 524 0 0 +17 590 0
 592 523 591 209 170 252 0 526 -17 591 0 592 590 167 168 502 500 0 499 -15 592 7
24 0 590 593 0 17 167 0 592 591 523 165 594 250 0 512 +17 502 0 375 505 499 165
 591 500 0 0 +17 523 0 592 167 590 212 211 519 0 0 +17 594 0 595 516 512 212 167
 250 0 523 -17 512 0 595 594 164 165 505 503 0 502 -15 595 728 0 594 596 0 17 16
4 0 595 512 516 162 514 244 0 511 +17 516 0 595 164 594 215 214 517 0 0 +17 214
 0 35 211 217 212 516 517 0 594 -17 211 0 35 208 214 209 523 519 0 590 -17 208 0
 35 205 211 206 526 524 0 587 -17 205 0 35 202 208 203 529 527 0 582 -17 202 0 3
5 199 205 200 532 530 0 578 -17 199 0 35 196 202 197 535 533 0 575 -17 532 0 580
 176 578 203 202 530 0 0 +17 196 0 35 37 199 194 538 536 0 570 -17 37 0 35 33 19
6 192 541 539 0 566 -17 541 0 568 185 566 194 37 539 0 0 +14 255 596 861 597 ?59
3 515 595 5 598 +0 0 593 515 22 81 1 597 1731 599 596 600 0 0 601 602 14 593 869
 601 ?589 596 592 5 603 +0 0 589 596 22 14 515 853 604 ?596 230 513 5 605 +0 0 5
96 230 22 50 598 757 0 596 605 603 0 +.01315 .0639110415714486 .0270306099993678
5 -1 0 1382249781654826e-31 1382249781654826e-31 0 1 13 22 1350 0 0 0 0 0 0 9 16
 14 16 933 606 ?384 0 380 5 607 -0 0 384 0 22 81 1 606 1734 599 16 608 0 604 609
 610 14 384 941 609 ?390 16 27 5 611 -0 0 390 16 22 50 607 395 0 16 612 611 0 +.
01440963065751842 .0639110415714486 -.0252102864699325 -.123874595080871 0 .9922
97881028449 .992297881028449 0 .123874595080871 50 612 294 0 374 613 607 0 +0 0
 0 0 -1 0 0 0 -1 50 611 396 0 384 607 614 0 +.01470427446386582 .063911041571448
6 -.0249645751018185 -.64045334811097 0 .76799707609694 .76799707609694 0 .64045
334811097 50 614 397 0 390 611 615 0 +.014950603089641 .0639110415714486 -.02466
97164609948 -.767435927377188 0 .641125648660788 .641125648660788 0 .76743592737
7188 14 390 949 616 ?395 384 388 5 614 -0 0 395 384 22 50 615 398 0 395 614 617
 0 +.01499978126463708 .0639110415714486 -.0242766132656204 -.992265359293344 0
 .124134832929561 .124134832929561 0 .992265359293344 14 395 957 618 ?401 390 39
3 5 615 -0 0 401 390 22 50 617 399 0 401 615 619 0 +.01499971247522646 .06391104
15714486 .0282573158339782 -.999999999999143 0 -1309428245505072e-21 -1309428245
505072e-21 0 .999999999999143 14 401 965 620 ?407 395 400 5 617 -0 0 407 395 22
 50 619 400 0 407 617 621 0 +.01495046551081978 .0639110415714486 .0286505377576
6555 -.992248585974181 0 -.1242688361265162 -.1242688361265162 0 .99224858597418
1 14 407 973 622 ?412 401 405 5 619 -0 0 412 401 22 50 621 401 0 412 619 623 0 +
.01470456212867374 .0639110415714486 .0289453963984893 -.767980603694604 0 -.640
473100410057 -.640473100410057 0 .767980603694604 14 412 981 624 ?418 407 410 5
 621 -0 0 418 407 22 50 623 402 0 418 621 625 0 +.01440948057153164 .06391104157
14486 .02919111401546185 -.639902054883014 0 -.768456479025648 -.768456479025648
 0 .639902054883015 14 418 989 626 ?424 412 417 5 623 -0 0 424 412 22 50 625 403
 0 424 623 627 0 +.01401594260707286 .0639110415714486 .02924025503931295 -.1239
075666116486 0 -.992293764434897 -.992293764434897 0 .1239075666116486 14 424 99
7 628 ?429 418 422 5 625 -0 0 429 418 22 50 627 404 0 429 625 629 0 +-.014016949
15383182 .0639110415714486 .02924017380415145 28978516447548e-19 0 -.99999999999
5801 -.999999999995801 0 -28978516447548e-19 14 429 1005 630 ?435 424 427 5 627
 -0 0 435 424 22 50 629 405 0 435 627 631 0 +-.01441005562107868 .06391104157144
86 .02919095154513885 .1242433740466416 0 -.992251774503581 -.992251774503581 0
 -.1242433740466416 14 435 1013 632 ?441 429 434 5 629 -0 0 441 429 22 50 631 40
6 0 441 629 633 0 +-.0147051371782208 .0639110415714486 .0289456463528323 .63926
7150755278 0 -.768984726743795 -.768984726743795 0 -.639267150755278 14 441 1021
 634 ?446 435 439 5 631 -0 0 446 435 22 50 633 407 0 446 631 635 0 +-.0149510405
6036686 .0639110415714486 .02865037528734255 .768420697805103 0 -.63994502200167
1 -.639945022001671 0 -.768420697805103 14 446 1029 636 ?452 441 444 5 633 -0 0
 452 441 22 50 635 408 0 452 633 637 0 +-.0150002187353629 .0639110415714486 .02
825727834082675 .992265116230005 0 -.1241367758283386 -.1241367758283386 0 -.992
265116230005 14 452 1037 638 ?458 446 451 5 635 -0 0 458 446 22 50 637 409 0 458
 635 639 0 +-.0150001186780384 .0639110415714486 -.02427654765260535 .9999999999
98186 0 1904626640592765e-21 1904626640592765e-21 0 -.999999999998186 14 458 104
5 640 ?463 452 456 5 637 -0 0 463 452 22 50 639 410 0 463 637 641 0 +-.014950840
4457178 .0639110415714486 -.0246696727189848 .992235073728112 0 .124376679742501
8 .1243766797425018 0 -.992235073728112 14 463 1053 642 ?466 458 461 5 639 -0 0
 466 458 22 50 641 411 0 466 639 643 0 +-.0147053748143665 .0639110415714486 -.0
249645313598085 .76854152682786 0 .63979990742505 .63979990742505 0 -.7685415268
2786 14 466 1061 644 ?472 463 465 5 641 -0 0 472 463 22 50 643 412 0 472 641 19
 0 +-.01440985550642966 .0639110415714486 -.02521024897678105 .639341796584541 0
 .768922666553699 .768922666553699 0 -.639341796584541 14 472 1069 645 ?364 466
 470 5 643 -0 0 364 466 22 50 19 413 0 364 643 6 0 +-.01401675529276558 .0639110
415714486 -.02525939000063215 .1240434263813932 0 .992276790200982 .992276790200
982 0 -.1240434263813932 14 364 1077 646 ?18 472 361 5 19 -0 0 18 472 22 81 1 64
6 1752 599 364 647 0 645 648 649 14 18 1082 648 ?374 364 369 5 6 -0 0 374 364 22
 81 1 648 1753 599 18 650 0 646 651 652 14 374 530 651 ?238 18 372 5 612 +0 0 23
8 18 22 81 1 651 1754 599 374 653 0 648 654 655 14 238 837 654 ?230 374 227 5 65
6 +0 0 230 374 22 81 1 654 1755 599 238 657 0 651 658 659 14 230 845 658 ?515 23
8 229 5 660 +0 0 515 238 22 50 656 760 0 238 661 660 0 +-.01315 .063911041571448
6 .02703060999936785 -1773448082925245e-30 0 -1 -1 0 1773448082925245e-30 50 661
 1170 0 223 0 656 0 +0 .0017 0 0 1 0 0 0 1 50 660 759 0 230 656 605 0 +-.01315 .
0639110415714486 -.02316939000063215 1 0 -1382249781654826e-31 -1382249781654826
e-31 0 -1 50 605 758 0 515 660 598 0 +.01315 .0639110415714486 -.023169390000632
15 -1319181350552704e-31 0 1 1 0 1319181350552704e-31 14 223 1158 662 ?0 565 35
 5 661 +0 0 0 565 22 81 1 662 1757 599 223 663 0 658 664 665 14 565 922 664 ?223
 569 564 5 613 +0 0 223 569 22 81 1 664 1758 599 565 666 0 662 667 668 14 569 91
7 667 ?565 574 568 5 669 +0 0 565 574 22 51 255 613 749 0 565 669 612 0 +-.01119
367154282246 .0639110415714486 .02753060999936785 0 -1 0 5e-4 0 0 -1 50 669 750
 0 569 670 613 0 +-.01069367154282246 .0639110415714486 .02753060999936785 1 0 0
 0 0 -1 51 670 751 0 574 671 669 0 --.01019367154282246 .0639110415714486 .02794
025503931295 0 -1 0 5e-4 0 0 -1 14 574 909 672 ?569 577 573 5 670 +0 0 569 577 2
2 50 671 752 0 577 673 670 0 +.01146271860348358 .0639110415714486 .028440255039
31295 0 0 -1 -1 0 0 14 577 901 674 ?574 581 576 5 671 +0 0 574 581 22 51 673 753
 0 581 675 671 0 -.0114627186034836 .0639110415714486 .02794025503931295 0 -1 0
 5e-4 0 0 -1 14 581 893 676 ?577 586 580 5 673 +0 0 577 586 22 50 675 754 0 586
 677 673 0 +.0119627186034836 .0639110415714486 .02753060999936785 -1 0 0 0 0 1
 14 586 885 678 ?581 589 585 5 675 +0 0 581 589 22 51 677 755 0 589 603 675 0 +.
0124627186034836 .0639110415714486 .02753060999936785 0 -1 0 5e-4 0 0 -1 14 589
 877 679 ?586 593 588 5 677 +0 0 586 593 22 50 603 756 0 593 598 677 0 +.0124627
186034836 .0639110415714486 .02703060999936785 0 0 -1 -1 0 0 81 1 679 1764 599 5
89 680 0 678 0 681 80 255 1 599 682 683 9000 1 1 1 1 1 1 1 1 0 FFFFTFTFFFFFFF1 8
1 1 680 1653 684 589 0 679 685 686 687 81 1 678 1763 599 586 686 0 676 679 688 8
2 255 1 681 -977534849 81 1 686 1654 684 586 0 678 680 689 690 81 1 676 1762 599
 581 689 0 674 678 691 82 1 688 -976748417 81 1 689 1655 684 581 0 676 686 692 6
93 81 1 674 1761 599 577 692 0 672 676 694 82 1 691 -975961985 81 1 692 1656 684
 577 0 674 689 695 696 81 1 672 1760 599 574 695 0 667 674 697 82 1 694 -9751755
53 81 1 695 1657 684 574 0 672 692 698 699 81 1 667 1759 599 569 698 0 664 672 7
00 82 1 697 -974389121 81 1 698 1658 684 569 0 667 695 666 701 82 1 700 -9736026
89 80 1 684 0 702 8001 0 0 0 0 3 5 0 0 0 FFFFTFTFFFFFFF2 81 1 666 1659 684 565 0
 664 698 663 703 83 255 3 701 .1019607843137254 .1019607843137254 .1019607843137
254 81 1 663 1660 684 223 0 662 666 0 704 83 3 703 .1019607843137254 .1019607843
137254 .1019607843137254 83 3 704 .1019607843137254 .1019607843137254 .101960784
3137254 79 255 15 702 SDL/TYSA_COLOUR83 3 699 .1019607843137254 .101960784313725
4 .1019607843137254 83 3 696 .1019607843137254 .1019607843137254 .10196078431372
54 83 3 693 .1019607843137254 .1019607843137254 .1019607843137254 83 3 690 .1019
607843137254 .1019607843137254 .1019607843137254 81 1 685 1652 684 593 0 601 600
 680 705 83 3 687 .1019607843137254 .1019607843137254 .1019607843137254 81 1 601
 1732 599 593 685 0 597 604 706 81 1 600 1651 684 596 0 597 707 685 708 83 3 705
 .1019607843137254 .1019607843137254 .1019607843137254 81 1 707 1650 684 515 0 6
04 709 600 710 83 3 708 .1019607843137254 .1019607843137254 .1019607843137254 81
 1 604 1733 599 515 707 0 601 606 711 81 1 709 1649 684 230 0 658 657 707 712 83
 3 710 .1019607843137254 .1019607843137254 .1019607843137254 81 1 658 1756 599 2
30 709 0 654 662 713 81 1 657 1648 684 238 0 654 653 709 714 83 3 712 .101960784
3137254 .1019607843137254 .1019607843137254 81 1 653 1647 684 374 0 651 650 657
 715 83 3 714 .1019607843137254 .1019607843137254 .1019607843137254 81 1 650 164
6 684 18 0 648 647 653 716 83 3 715 .1019607843137254 .1019607843137254 .1019607
843137254 81 1 647 1645 684 364 0 646 717 650 718 83 3 716 .1019607843137254 .10
19607843137254 .1019607843137254 81 1 717 1644 684 472 0 645 719 647 720 83 3 71
8 .1019607843137254 .1019607843137254 .1019607843137254 81 1 645 1751 599 472 71
7 0 644 646 721 81 1 719 1643 684 466 0 644 722 717 723 83 3 720 .10196078431372
54 .1019607843137254 .1019607843137254 81 1 644 1750 599 466 719 0 642 645 724 8
1 1 722 1642 684 463 0 642 725 719 726 83 3 723 .1019607843137254 .1019607843137
254 .1019607843137254 81 1 642 1749 599 463 722 0 640 644 727 81 1 725 1641 684
 458 0 640 728 722 729 83 3 726 .1019607843137254 .1019607843137254 .10196078431
37254 81 1 640 1748 599 458 725 0 638 642 730 81 1 728 1640 684 452 0 638 731 72
5 732 83 3 729 .1019607843137254 .1019607843137254 .1019607843137254 81 1 638 17
47 599 452 728 0 636 640 733 81 1 731 1639 684 446 0 636 734 728 735 83 3 732 .1
019607843137254 .1019607843137254 .1019607843137254 81 1 636 1746 599 446 731 0
 634 638 736 81 1 734 1638 684 441 0 634 737 731 738 83 3 735 .1019607843137254
 .1019607843137254 .1019607843137254 81 1 634 1745 599 441 734 0 632 636 739 81
 1 737 1637 684 435 0 632 740 734 741 83 3 738 .1019607843137254 .10196078431372
54 .1019607843137254 81 1 632 1744 599 435 737 0 630 634 742 81 1 740 1636 684 4
29 0 630 743 737 744 83 3 741 .1019607843137254 .1019607843137254 .1019607843137
254 81 1 630 1743 599 429 740 0 628 632 745 81 1 743 1635 684 424 0 628 746 740
 747 83 3 744 .1019607843137254 .1019607843137254 .1019607843137254 81 1 628 174
2 599 424 743 0 626 630 748 81 1 746 1634 684 418 0 626 749 743 750 83 3 747 .10
19607843137254 .1019607843137254 .1019607843137254 81 1 626 1741 599 418 746 0 6
24 628 751 81 1 749 1633 684 412 0 624 752 746 753 83 3 750 .1019607843137254 .1
019607843137254 .1019607843137254 81 1 624 1740 599 412 749 0 622 626 754 81 1 7
52 1632 684 407 0 622 755 749 756 83 3 753 .1019607843137254 .1019607843137254 .
1019607843137254 81 1 622 1739 599 407 752 0 620 624 757 81 1 755 1631 684 401 0
 620 758 752 759 83 3 756 .1019607843137254 .1019607843137254 .1019607843137254
 81 1 620 1738 599 401 755 0 618 622 760 81 1 758 1630 684 395 0 618 761 755 762
 83 3 759 .1019607843137254 .1019607843137254 .1019607843137254 81 1 618 1737 59
9 395 758 0 616 620 763 81 1 761 1629 684 390 0 616 764 758 765 83 3 762 .101960
7843137254 .1019607843137254 .1019607843137254 81 1 616 1736 599 390 761 0 609 6
18 766 81 1 764 1628 684 384 0 609 608 761 767 83 3 765 .1019607843137254 .10196
07843137254 .1019607843137254 81 1 609 1735 599 384 764 0 606 616 768 81 1 608 1
627 684 16 0 606 0 764 769 83 3 767 .1019607843137254 .1019607843137254 .1019607
843137254 83 3 769 .1019607843137254 .1019607843137254 .1019607843137254 82 1 76
8 -971243393 82 1 766 -970456961 82 1 763 -969670529 82 1 760 -968884097 82 1 75
7 -968097665 82 1 754 -967311233 82 1 751 -966524801 82 1 748 -965738369 82 1 74
5 -964951937 82 1 742 -964165505 82 1 739 -963379073 82 1 736 -962592641 82 1 73
3 -961806209 82 1 730 -961019777 82 1 727 -960233345 82 1 724 -959446913 82 1 72
1 -958660481 82 1 713 -980680577 82 1 711 -979894145 82 1 706 -978321281 79 14 6
83 SWEntUnchanged82 1 668 -973143937 82 1 665 -981335937 82 1 659 -994377601 82
 1 655 -1073872769 82 1 652 -957415297 82 1 649 -957874049 82 1 610 -972029825 8
2 1 602 -979107713 19 17 436 0 1 0 9 5 S0 74 4 CI16 index_map_offset0 0 1 dCCZ20
 15 8 0 0 770 771 679 772 773 13 663 2 0 0 0 0 0 0 0 0 0 0 0 0 81 2 770 479 774
 1 0 771 0 0 0 775 81 2 771 1466 776 1 770 772 0 0 0 777 81 1 772 1501 778 1 771
 773 0 0 779 81 2 773 1502 780 1 772 13 0 0 0 0 81 2 13 1560 781 1 773 2 0 0 0 7
82 80 2 781 783 784 9000 0 0 0 0 3 5 0 0 0 FFTFFFFFFFFFFF9 1 82 1 782 1 79 24 78
4 BODY_IN_LIGHTWEIGHT_PERM80 2 780 785 786 9000 0 0 0 0 3 5 0 0 0 FFTFFFFFFFFFFF
9 1 79 16 786 BODY_RECIPE_200180 1 778 787 788 9000 1 1 1 1 1 1 1 1 0 FFTFFFFFFF
FFFF1 82 1 779 1031714 79 10 788 BODY_MATCH80 2 776 789 790 9000 0 0 0 0 3 5 0 0
 0 FFTFFFFFFFFFFF9 1 82 1 777 32 79 30 790 LAST_BODY_MODIFYING_FEATURE_ID80 2 77
4 791 792 9000 0 0 0 0 3 5 0 0 0 FFTFFFFFFFFFFT9 1 82 1 775 110 79 19 792 ENT_TI
ME_STAMP_200180 2 12 793 794 9000 0 0 0 0 3 5 0 0 0 FFTFFFFFFFFFFF9 1 82 1 14 10
1 79 12 794 ATOM_ID_20011 0 
