  0
SECTION
  2
HEADER
  9
$ACADVER
  1
AC1009
  9
$DWGCODEPAGE
  3
ansi_1252
  9
$INSBASE
 10
0.0
 20
0.0
 30
0.0
  9
$EXTMIN
 10
-8.873999999999995
 20
-32.9330101664811
 30
0.0
  9
$EXTMAX
 10
8.706
 20
9.024673250499852
 30
0.0
  9
$LIMMIN
 10
0.0
 20
0.0
  9
$LIMMAX
 10
12.0
 20
9.0
  9
$ORTHOMODE
 70
     0
  9
$REGENMODE
 70
     1
  9
$FILLMODE
 70
     1
  9
$QTEXTMODE
 70
     0
  9
$MIRRTEXT
 70
     1
  9
$DRAGMODE
 70
     2
  9
$LTSCALE
 40
1.0
  9
$OSMODE
 70
    37
  9
$ATTMODE
 70
     1
  9
$TEXTSIZE
 40
0.2
  9
$TRACEWID
 40
0.05
  9
$TEXTSTYLE
  7
STANDARD
  9
$CLAYER
  8
0
  9
$CELTYPE
  6
BYLAYER
  9
$CECOLOR
 62
   256
  9
$DIMSCALE
 40
1.0
  9
$DIMASZ
 40
0.18
  9
$DIMEXO
 40
0.0625
  9
$DIMDLI
 40
0.38
  9
$DIMRND
 40
0.0
  9
$DIMDLE
 40
0.0
  9
$DIMEXE
 40
0.18
  9
$DIMTP
 40
0.0
  9
$DIMTM
 40
0.0
  9
$DIMTXT
 40
0.18
  9
$DIMCEN
 40
0.09
  9
$DIMTSZ
 40
0.0
  9
$DIMTOL
 70
     0
  9
$DIMLIM
 70
     0
  9
$DIMTIH
 70
     1
  9
$DIMTOH
 70
     1
  9
$DIMSE1
 70
     0
  9
$DIMSE2
 70
     0
  9
$DIMTAD
 70
     0
  9
$DIMZIN
 70
     0
  9
$DIMBLK
  1

  9
$DIMASO
 70
     1
  9
$DIMSHO
 70
     1
  9
$DIMPOST
  1

  9
$DIMAPOST
  1

  9
$DIMALT
 70
     0
  9
$DIMALTD
 70
     2
  9
$DIMALTF
 40
25.4
  9
$DIMLFAC
 40
1.0
  9
$DIMTOFL
 70
     0
  9
$DIMTVP
 40
0.0
  9
$DIMTIX
 70
     0
  9
$DIMSOXD
 70
     0
  9
$DIMSAH
 70
     0
  9
$DIMBLK1
  1

  9
$DIMBLK2
  1

  9
$DIMSTYLE
  2
STANDARD
  9
$DIMCLRD
 70
     0
  9
$DIMCLRE
 70
     0
  9
$DIMCLRT
 70
     0
  9
$DIMTFAC
 40
1.0
  9
$DIMGAP
 40
0.09
  9
$LUNITS
 70
     2
  9
$LUPREC
 70
     4
  9
$SKETCHINC
 40
0.1
  9
$FILLETRAD
 40
0.5
  9
$AUNITS
 70
     0
  9
$AUPREC
 70
     0
  9
$MENU
  1
.
  9
$ELEVATION
 40
0.0
  9
$PELEVATION
 40
0.0
  9
$THICKNESS
 40
0.0
  9
$LIMCHECK
 70
     0
  9
$CHAMFERA
 40
0.0
  9
$CHAMFERB
 40
0.0
  9
$SKPOLY
 70
     0
  9
$TDCREATE
 40
2454910.5
  9
$TDUPDATE
 40
2460105.90370007
  9
$TDINDWG
 40
0.0000000116
  9
$TDUSRTIMER
 40
0.0000000116
  9
$USRTIMER
 70
     1
  9
$ANGBASE
 50
0.0
  9
$ANGDIR
 70
     0
  9
$PDMODE
 70
     0
  9
$PDSIZE
 40
0.0
  9
$PLINEWID
 40
0.0
  9
$COORDS
 70
     1
  9
$SPLFRAME
 70
     0
  9
$SPLINETYPE
 70
     6
  9
$SPLINESEGS
 70
     8
  9
$ATTDIA
 70
     0
  9
$ATTREQ
 70
     1
  9
$HANDLING
 70
     1
  9
$HANDSEED
  5
370
  9
$SURFTAB1
 70
     6
  9
$SURFTAB2
 70
     6
  9
$SURFTYPE
 70
     6
  9
$SURFU
 70
     6
  9
$SURFV
 70
     6
  9
$UCSNAME
  2

  9
$UCSORG
 10
0.0
 20
0.0
 30
0.0
  9
$UCSXDIR
 10
1.0
 20
0.0
 30
0.0
  9
$UCSYDIR
 10
0.0
 20
1.0
 30
0.0
  9
$PUCSNAME
  2

  9
$PUCSORG
 10
0.0
 20
0.0
 30
0.0
  9
$PUCSXDIR
 10
1.0
 20
0.0
 30
0.0
  9
$PUCSYDIR
 10
0.0
 20
1.0
 30
0.0
  9
$USERI1
 70
     0
  9
$USERI2
 70
     0
  9
$USERI3
 70
     0
  9
$USERI4
 70
     0
  9
$USERI5
 70
     0
  9
$USERR1
 40
0.0
  9
$USERR2
 40
0.0
  9
$USERR3
 40
0.0
  9
$USERR4
 40
0.0
  9
$USERR5
 40
0.0
  9
$WORLDVIEW
 70
     1
  9
$SHADEDGE
 70
     3
  9
$SHADEDIF
 70
    70
  9
$TILEMODE
 70
     1
  9
$MAXACTVP
 70
    64
  9
$PLIMCHECK
 70
     0
  9
$PEXTMIN
 10
1.000000000000000E+20
 20
1.000000000000000E+20
 30
1.000000000000000E+20
  9
$PEXTMAX
 10
-1.000000000000000E+20
 20
-1.000000000000000E+20
 30
-1.000000000000000E+20
  9
$PLIMMIN
 10
0.0
 20
0.0
  9
$PLIMMAX
 10
12.0
 20
9.0
  9
$UNITMODE
 70
     0
  9
$VISRETAIN
 70
     1
  9
$PLINEGEN
 70
     0
  9
$PSLTSCALE
 70
     1
  0
ENDSEC
  0
SECTION
  2
TABLES
  0
TABLE
  2
VPORT
 70
     1
  0
VPORT
  2
*ACTIVE
 70
     0
 10
0.0
 20
0.0
 11
1.0
 21
1.0
 12
10.42990654205607
 22
4.5
 13
0.0
 23
0.0
 14
0.5
 24
0.5
 15
0.5
 25
0.5
 16
0.0
 26
0.0
 36
1.0
 17
0.0
 27
0.0
 37
0.0
 40
9.0
 41
1.972972972850329
 42
50.0
 43
0.0
 44
0.0
 50
0.0
 51
0.0
 71
     0
 72
   100
 73
     1
 74
     3
 75
     0
 76
     0
 77
     0
 78
     0
  0
ENDTAB
  0
TABLE
  2
LTYPE
 70
     2
  0
LTYPE
  2
CONTINUOUS
 70
     0
  3
Solid line
 72
    65
 73
     0
 40
0.0
  0
LTYPE
  2
CONTINUOUS2
 70
     0
  3
Solid Line
 72
    65
 73
     0
 40
0.0
  0
ENDTAB
  0
TABLE
  2
LAYER
 70
     3
  0
LAYER
  2
0
 70
     0
 62
     7
  6
CONTINUOUS
  0
LAYER
  2
IMPORTIEREN_-_N085-1212TBW
 70
     0
 62
     7
  6
CONTINUOUS
  0
LAYER
  2
IMPORTIEREN_-_N085-1212TB0
 70
     0
 62
     7
  6
CONTINUOUS
  0
ENDTAB
  0
TABLE
  2
STYLE
 70
     1
  0
STYLE
  2
STANDARD
 70
     0
 40
0.0
 41
1.0
 50
0.0
 71
     0
 42
0.2
  3
txt
  4

  0
ENDTAB
  0
TABLE
  2
VIEW
 70
     0
  0
ENDTAB
  0
TABLE
  2
UCS
 70
     0
  0
ENDTAB
  0
TABLE
  2
APPID
 70
     1
  0
APPID
  2
ACAD
 70
     0
  0
ENDTAB
  0
TABLE
  2
DIMSTYLE
 70
     1
  0
DIMSTYLE
  2
STANDARD
 70
     0
  3

  4

  5

  6

  7

 40
1.0
 41
0.18
 42
0.0625
 43
0.38
 44
0.18
 45
0.0
 46
0.0
 47
0.0
 48
0.0
140
0.18
141
0.09
142
0.0
143
25.4
144
1.0
145
0.0
146
1.0
147
0.09
 71
     0
 72
     0
 73
     1
 74
     1
 75
     0
 76
     0
 77
     0
 78
     0
170
     0
171
     2
172
     0
173
     0
174
     0
175
     0
176
     0
177
     0
178
     0
  0
ENDTAB
  0
ENDSEC
  0
SECTION
  2
BLOCKS
  0
BLOCK
  8
0
  2
$MODEL_SPACE
 70
     0
 10
0.0
 20
0.0
 30
0.0
  3
$MODEL_SPACE
  1

  0
ENDBLK
  5
21
  8
0
  0
BLOCK
 67
     1
  8
0
  2
$PAPER_SPACE
 70
     0
 10
0.0
 20
0.0
 30
0.0
  3
$PAPER_SPACE
  1

  0
ENDBLK
  5
1D
 67
     1
  8
0
  0
ENDSEC
  0
SECTION
  2
ENTITIES
  0
POLYLINE
  5
70
  8
IMPORTIEREN_-_N085-1212TBW
 66
     1
 10
0.0
 20
0.0
 30
0.0
  0
VERTEX
  5
FB
  8
IMPORTIEREN_-_N085-1212TBW
 10
8.579726128900674
 20
8.747688664175186
 30
0.0
  0
VERTEX
  5
FC
  8
IMPORTIEREN_-_N085-1212TBW
 10
-8.70584162278302
 20
8.747688664175186
 30
0.0
  0
SEQEND
  5
2ED
  8
IMPORTIEREN_-_N085-1212TBW
  0
POLYLINE
  5
71
  8
IMPORTIEREN_-_N085-1212TBW
 66
     1
 10
0.0
 20
0.0
 30
0.0
  0
VERTEX
  5
FD
  8
IMPORTIEREN_-_N085-1212TBW
 10
8.579726128900674
 20
8.628785410298661
 30
0.0
  0
VERTEX
  5
FE
  8
IMPORTIEREN_-_N085-1212TBW
 10
-8.579669361185243
 20
8.628785410298661
 30
0.0
  0
SEQEND
  5
2EE
  8
IMPORTIEREN_-_N085-1212TBW
  0
POLYLINE
  5
72
  8
IMPORTIEREN_-_N085-1212TBW
 66
     1
 10
0.0
 20
0.0
 30
0.0
  0
VERTEX
  5
FF
  8
IMPORTIEREN_-_N085-1212TBW
 10
-8.705772100492474
 20
8.906011588063649
 30
0.0
  0
VERTEX
  5
100
  8
IMPORTIEREN_-_N085-1212TBW
 10
-8.873999999999995
 20
8.906011588063649
 30
0.0
  0
SEQEND
  5
2EF
  8
IMPORTIEREN_-_N085-1212TBW
  0
POLYLINE
  5
73
  8
IMPORTIEREN_-_N085-1212TBW
 66
     1
 10
0.0
 20
0.0
 30
0.0
  0
VERTEX
  5
101
  8
IMPORTIEREN_-_N085-1212TBW
 10
-8.873999999999995
 20
9.024673250499852
 30
0.0
  0
VERTEX
  5
102
  8
IMPORTIEREN_-_N085-1212TBW
 10
8.705967912788989
 20
9.024673250499852
 30
0.0
  0
SEQEND
  5
2F0
  8
IMPORTIEREN_-_N085-1212TBW
  0
POLYLINE
  5
74
  8
IMPORTIEREN_-_N085-1212TBW
 66
     1
 10
0.0
 20
0.0
 30
0.0
  0
VERTEX
  5
103
  8
IMPORTIEREN_-_N085-1212TBW
 10
-8.705772100492474
 20
8.906011588063649
 30
0.0
  0
VERTEX
  5
104
  8
IMPORTIEREN_-_N085-1212TBW
 10
-8.705772100492474
 20
-11.39972883805027
 30
0.0
  0
SEQEND
  5
2F1
  8
IMPORTIEREN_-_N085-1212TBW
  0
POLYLINE
  5
75
  8
IMPORTIEREN_-_N085-1212TBW
 66
     1
 10
0.0
 20
0.0
 30
0.0
  0
VERTEX
  5
105
  8
IMPORTIEREN_-_N085-1212TBW
 10
-8.873999999999995
 20
8.906011588063649
 30
0.0
  0
VERTEX
  5
106
  8
IMPORTIEREN_-_N085-1212TBW
 10
-8.873999999999995
 20
-11.39972883805027
 30
0.0
  0
SEQEND
  5
2F2
  8
IMPORTIEREN_-_N085-1212TBW
  0
POLYLINE
  5
76
  8
IMPORTIEREN_-_N085-1212TBW
 66
     1
 10
0.0
 20
0.0
 30
0.0
  0
VERTEX
  5
107
  8
IMPORTIEREN_-_N085-1212TBW
 10
-6.350667073283134
 20
-11.39976910329031
 30
0.0
  0
VERTEX
  5
108
  8
IMPORTIEREN_-_N085-1212TBW
 10
-6.350667073283134
 20
-11.79559654563144
 30
0.0
  0
SEQEND
  5
2F3
  8
IMPORTIEREN_-_N085-1212TBW
  0
POLYLINE
  5
77
  8
IMPORTIEREN_-_N085-1212TBW
 66
     1
 10
0.0
 20
0.0
 30
0.0
  0
VERTEX
  5
109
  8
IMPORTIEREN_-_N085-1212TBW
 10
-8.873999999999995
 20
-11.39976910329031
 30
0.0
  0
VERTEX
  5
10A
  8
IMPORTIEREN_-_N085-1212TBW
 10
-6.350560115913076
 20
-11.39976910329031
 30
0.0
  0
SEQEND
  5
2F4
  8
IMPORTIEREN_-_N085-1212TBW
  0
POLYLINE
  5
78
  8
IMPORTIEREN_-_N085-1212TBW
 66
     1
 10
0.0
 20
0.0
 30
0.0
  0
VERTEX
  5
10B
  8
IMPORTIEREN_-_N085-1212TBW
 10
-8.873999999999995
 20
-11.79563681087151
 30
0.0
  0
VERTEX
  5
10C
  8
IMPORTIEREN_-_N085-1212TBW
 10
8.705967912788989
 20
-11.79563681087151
 30
0.0
  0
SEQEND
  5
2F5
  8
IMPORTIEREN_-_N085-1212TBW
  0
POLYLINE
  5
79
  8
IMPORTIEREN_-_N085-1212TBW
 66
     1
 10
0.0
 20
0.0
 30
0.0
  0
VERTEX
  5
10D
  8
IMPORTIEREN_-_N085-1212TBW
 10
-4.584223323703323
 20
-11.79563681087151
 30
0.0
  0
VERTEX
  5
10E
  8
IMPORTIEREN_-_N085-1212TBW
 10
-4.710395585301088
 20
-12.23102485156473
 30
0.0
  0
SEQEND
  5
2F6
  8
IMPORTIEREN_-_N085-1212TBW
  0
POLYLINE
  5
7A
  8
IMPORTIEREN_-_N085-1212TBW
 66
     1
 10
0.0
 20
0.0
 30
0.0
  0
VERTEX
  5
10F
  8
IMPORTIEREN_-_N085-1212TBW
 10
-8.873999999999995
 20
9.024673250499852
 30
0.0
  0
VERTEX
  5
110
  8
IMPORTIEREN_-_N085-1212TBW
 10
-8.873999999999995
 20
8.90593105758353
 30
0.0
  0
SEQEND
  5
2F7
  8
IMPORTIEREN_-_N085-1212TBW
  0
POLYLINE
  5
7B
  8
IMPORTIEREN_-_N085-1212TBW
 66
     1
 10
0.0
 20
0.0
 30
0.0
  0
VERTEX
  5
111
  8
IMPORTIEREN_-_N085-1212TBW
 10
8.579726128900674
 20
8.906011588063649
 30
0.0
  0
VERTEX
  5
112
  8
IMPORTIEREN_-_N085-1212TBW
 10
8.579726128900674
 20
-11.39972883805027
 30
0.0
  0
SEQEND
  5
2F8
  8
IMPORTIEREN_-_N085-1212TBW
  0
POLYLINE
  5
7C
  8
IMPORTIEREN_-_N085-1212TBW
 66
     1
 10
0.0
 20
0.0
 30
0.0
  0
VERTEX
  5
113
  8
IMPORTIEREN_-_N085-1212TBW
 10
8.705866303287426
 20
8.906011588063649
 30
0.0
  0
VERTEX
  5
114
  8
IMPORTIEREN_-_N085-1212TBW
 10
8.705866303287426
 20
-11.39972883805027
 30
0.0
  0
SEQEND
  5
2F9
  8
IMPORTIEREN_-_N085-1212TBW
  0
POLYLINE
  5
7D
  8
IMPORTIEREN_-_N085-1212TBW
 66
     1
 10
0.0
 20
0.0
 30
0.0
  0
VERTEX
  5
115
  8
IMPORTIEREN_-_N085-1212TBW
 10
6.224621101691337
 20
-11.39976910329031
 30
0.0
  0
VERTEX
  5
116
  8
IMPORTIEREN_-_N085-1212TBW
 10
6.224621101691337
 20
-11.79559654563144
 30
0.0
  0
SEQEND
  5
2FA
  8
IMPORTIEREN_-_N085-1212TBW
  0
POLYLINE
  5
7E
  8
IMPORTIEREN_-_N085-1212TBW
 66
     1
 10
0.0
 20
0.0
 30
0.0
  0
VERTEX
  5
117
  8
IMPORTIEREN_-_N085-1212TBW
 10
6.224621101691337
 20
-11.39976910329031
 30
0.0
  0
VERTEX
  5
118
  8
IMPORTIEREN_-_N085-1212TBW
 10
8.706
 20
-11.39976910329031
 30
0.0
  0
SEQEND
  5
2FB
  8
IMPORTIEREN_-_N085-1212TBW
  0
POLYLINE
  5
7F
  8
IMPORTIEREN_-_N085-1212TBW
 66
     1
 10
0.0
 20
0.0
 30
0.0
  0
VERTEX
  5
119
  8
IMPORTIEREN_-_N085-1212TBW
 10
-8.873999999999995
 20
-11.39976910329031
 30
0.0
  0
VERTEX
  5
11A
  8
IMPORTIEREN_-_N085-1212TBW
 10
-8.873999999999995
 20
-11.79559654563144
 30
0.0
  0
SEQEND
  5
2FC
  8
IMPORTIEREN_-_N085-1212TBW
  0
POLYLINE
  5
80
  8
IMPORTIEREN_-_N085-1212TBW
 66
     1
 10
0.0
 20
0.0
 30
0.0
  0
VERTEX
  5
11B
  8
IMPORTIEREN_-_N085-1212TBW
 10
8.705866303287426
 20
-11.39976910329031
 30
0.0
  0
VERTEX
  5
11C
  8
IMPORTIEREN_-_N085-1212TBW
 10
8.705866303287426
 20
-11.79559654563144
 30
0.0
  0
SEQEND
  5
2FD
  8
IMPORTIEREN_-_N085-1212TBW
  0
POLYLINE
  5
81
  8
IMPORTIEREN_-_N085-1212TBW
 66
     1
 10
0.0
 20
0.0
 30
0.0
  0
VERTEX
  5
11D
  8
IMPORTIEREN_-_N085-1212TBW
 10
-5.972112853410307
 20
-11.79563681087151
 30
0.0
  0
VERTEX
  5
11E
  8
IMPORTIEREN_-_N085-1212TBW
 10
-5.972112853410307
 20
-14.17056119967826
 30
0.0
  0
SEQEND
  5
2FE
  8
IMPORTIEREN_-_N085-1212TBW
  0
POLYLINE
  5
82
  8
IMPORTIEREN_-_N085-1212TBW
 66
     1
 10
0.0
 20
0.0
 30
0.0
  0
VERTEX
  5
11F
  8
IMPORTIEREN_-_N085-1212TBW
 10
-4.710358150221564
 20
-13.89345581763341
 30
0.0
  0
VERTEX
  5
120
  8
IMPORTIEREN_-_N085-1212TBW
 10
-4.710358150221564
 20
-12.23100471894467
 30
0.0
  0
SEQEND
  5
2FF
  8
IMPORTIEREN_-_N085-1212TBW
  0
POLYLINE
  5
83
  8
IMPORTIEREN_-_N085-1212TBW
 66
     1
 10
0.0
 20
0.0
 30
0.0
  0
VERTEX
  5
121
  8
IMPORTIEREN_-_N085-1212TBW
 10
-4.710358150221564
 20
-13.89345581763341
 30
0.0
  0
VERTEX
  5
122
  8
IMPORTIEREN_-_N085-1212TBW
 10
-4.710358150221564
 20
-14.17052093443819
 30
0.0
  0
SEQEND
  5
300
  8
IMPORTIEREN_-_N085-1212TBW
  0
POLYLINE
  5
84
  8
IMPORTIEREN_-_N085-1212TBW
 66
     1
 10
0.0
 20
0.0
 30
0.0
  0
VERTEX
  5
123
  8
IMPORTIEREN_-_N085-1212TBW
 10
-8.705772100492474
 20
8.628785410298661
 30
0.0
  0
VERTEX
  5
124
  8
IMPORTIEREN_-_N085-1212TBW
 10
8.579800999059717
 20
8.628785410298661
 30
0.0
  0
SEQEND
  5
301
  8
IMPORTIEREN_-_N085-1212TBW
  0
POLYLINE
  5
85
  8
IMPORTIEREN_-_N085-1212TBW
 66
     1
 10
0.0
 20
0.0
 30
0.0
  0
VERTEX
  5
125
  8
IMPORTIEREN_-_N085-1212TBW
 10
-8.705772100492474
 20
-8.866461392735033
 30
0.0
  0
VERTEX
  5
126
  8
IMPORTIEREN_-_N085-1212TBW
 10
8.579800999059717
 20
-8.866461392735033
 30
0.0
  0
SEQEND
  5
302
  8
IMPORTIEREN_-_N085-1212TBW
  0
POLYLINE
  5
86
  8
IMPORTIEREN_-_N085-1212TBW
 66
     1
 10
0.0
 20
0.0
 30
0.0
  0
VERTEX
  5
127
  8
IMPORTIEREN_-_N085-1212TBW
 10
8.579726128900674
 20
8.628785410298661
 30
0.0
  0
VERTEX
  5
128
  8
IMPORTIEREN_-_N085-1212TBW
 10
8.579726128900674
 20
-11.39988989901047
 30
0.0
  0
VERTEX
  5
129
  8
IMPORTIEREN_-_N085-1212TBW
 10
-8.70584162278302
 20
-11.39988989901047
 30
0.0
  0
VERTEX
  5
12A
  8
IMPORTIEREN_-_N085-1212TBW
 10
-8.70584162278302
 20
8.628785410298661
 30
0.0
  0
SEQEND
  5
303
  8
IMPORTIEREN_-_N085-1212TBW
  0
POLYLINE
  5
87
  8
IMPORTIEREN_-_N085-1212TBW
 66
     1
 10
0.0
 20
0.0
 30
0.0
 70
     1
  0
VERTEX
  5
12B
  8
IMPORTIEREN_-_N085-1212TBW
 10
-7.61230947123331
 20
-7.639559395699724
 30
0.0
  0
VERTEX
  5
12C
  8
IMPORTIEREN_-_N085-1212TBW
 10
7.612446456976279
 20
-7.639559395699724
 30
0.0
  0
VERTEX
  5
12D
  8
IMPORTIEREN_-_N085-1212TBW
 10
7.612446456976279
 20
7.639226870755834
 30
0.0
  0
VERTEX
  5
12E
  8
IMPORTIEREN_-_N085-1212TBW
 10
-7.61230947123331
 20
7.639226870755834
 30
0.0
  0
SEQEND
  5
304
  8
IMPORTIEREN_-_N085-1212TBW
  0
POLYLINE
  5
88
  8
IMPORTIEREN_-_N085-1212TBW
 66
     1
 10
0.0
 20
0.0
 30
0.0
  0
VERTEX
  5
12F
  8
IMPORTIEREN_-_N085-1212TBW
 10
-5.803884953902767
 20
-10.56853348763592
 30
0.0
  0
VERTEX
  5
130
  8
IMPORTIEREN_-_N085-1212TBW
 10
5.677769460020432
 20
-10.56853348763592
 30
0.0
  0
SEQEND
  5
305
  8
IMPORTIEREN_-_N085-1212TBW
  0
POLYLINE
  5
89
  8
IMPORTIEREN_-_N085-1212TBW
 66
     1
 10
0.0
 20
0.0
 30
0.0
  0
VERTEX
  5
131
  8
IMPORTIEREN_-_N085-1212TBW
 10
-5.803884953902767
 20
-10.56853348763592
 30
0.0
  0
VERTEX
  5
132
  8
IMPORTIEREN_-_N085-1212TBW
 10
-5.803884953902767
 20
-11.39976910329031
 30
0.0
  0
SEQEND
  5
306
  8
IMPORTIEREN_-_N085-1212TBW
  0
POLYLINE
  5
8A
  8
IMPORTIEREN_-_N085-1212TBW
 66
     1
 10
0.0
 20
0.0
 30
0.0
  0
VERTEX
  5
133
  8
IMPORTIEREN_-_N085-1212TBW
 10
5.677844330179479
 20
-10.56853348763592
 30
0.0
  0
VERTEX
  5
134
  8
IMPORTIEREN_-_N085-1212TBW
 10
5.677844330179479
 20
-13.89345581763341
 30
0.0
  0
SEQEND
  5
307
  8
IMPORTIEREN_-_N085-1212TBW
  0
POLYLINE
  5
8B
  8
IMPORTIEREN_-_N085-1212TBW
 66
     1
 10
0.0
 20
0.0
 30
0.0
  0
VERTEX
  5
135
  8
IMPORTIEREN_-_N085-1212TBW
 10
-5.257140269601933
 20
-11.79563681087151
 30
0.0
  0
VERTEX
  5
136
  8
IMPORTIEREN_-_N085-1212TBW
 10
-4.584223323703323
 20
-11.79563681087151
 30
0.0
  0
SEQEND
  5
308
  8
IMPORTIEREN_-_N085-1212TBW
  0
POLYLINE
  5
8C
  8
IMPORTIEREN_-_N085-1212TBW
 66
     1
 10
0.0
 20
0.0
 30
0.0
  0
VERTEX
  5
137
  8
IMPORTIEREN_-_N085-1212TBW
 10
-3.995385566413194
 20
-12.34970664662097
 30
0.0
  0
VERTEX
  5
138
  8
IMPORTIEREN_-_N085-1212TBW
 10
-3.995385566413194
 20
-13.61633030296856
 30
0.0
  0
SEQEND
  5
309
  8
IMPORTIEREN_-_N085-1212TBW
  0
POLYLINE
  5
8D
  8
IMPORTIEREN_-_N085-1212TBW
 66
     1
 10
0.0
 20
0.0
 30
0.0
  0
VERTEX
  5
139
  8
IMPORTIEREN_-_N085-1212TBW
 10
-3.995385566413194
 20
-12.34970664662097
 30
0.0
  0
VERTEX
  5
13A
  8
IMPORTIEREN_-_N085-1212TBW
 10
-4.163613465920719
 20
-11.95387920427983
 30
0.0
  0
VERTEX
  5
13B
  8
IMPORTIEREN_-_N085-1212TBW
 10
-4.584185888623786
 20
-11.79555628039139
 30
0.0
  0
SEQEND
  5
30A
  8
IMPORTIEREN_-_N085-1212TBW
  0
POLYLINE
  5
8E
  8
IMPORTIEREN_-_N085-1212TBW
 66
     1
 10
0.0
 20
0.0
 30
0.0
  0
VERTEX
  5
13C
  8
IMPORTIEREN_-_N085-1212TBW
 10
5.677844330179479
 20
-32.93267325049985
 30
0.0
  0
VERTEX
  5
13D
  8
IMPORTIEREN_-_N085-1212TBW
 10
6.098422100751055
 20
-32.77435032661139
 30
0.0
  0
VERTEX
  5
13E
  8
IMPORTIEREN_-_N085-1212TBW
 10
6.224594362348821
 20
-32.33894215329816
 30
0.0
  0
SEQEND
  5
30B
  8
IMPORTIEREN_-_N085-1212TBW
  0
POLYLINE
  5
8F
  8
IMPORTIEREN_-_N085-1212TBW
 66
     1
 10
0.0
 20
0.0
 30
0.0
  0
VERTEX
  5
13F
  8
IMPORTIEREN_-_N085-1212TBW
 10
-6.350667073283134
 20
-32.33882135757799
 30
0.0
  0
VERTEX
  5
140
  8
IMPORTIEREN_-_N085-1212TBW
 10
-6.224494811685371
 20
-32.77422953089123
 30
0.0
  0
VERTEX
  5
141
  8
IMPORTIEREN_-_N085-1212TBW
 10
-5.803922388982288
 20
-32.9325524547797
 30
0.0
  0
SEQEND
  5
30C
  8
IMPORTIEREN_-_N085-1212TBW
  0
POLYLINE
  5
90
  8
IMPORTIEREN_-_N085-1212TBW
 66
     1
 10
0.0
 20
0.0
 30
0.0
  0
VERTEX
  5
142
  8
IMPORTIEREN_-_N085-1212TBW
 10
6.224621101691337
 20
-32.33882135757799
 30
0.0
  0
VERTEX
  5
143
  8
IMPORTIEREN_-_N085-1212TBW
 10
6.224621101691337
 20
-14.28928325997455
 30
0.0
  0
SEQEND
  5
30D
  8
IMPORTIEREN_-_N085-1212TBW
  0
POLYLINE
  5
91
  8
IMPORTIEREN_-_N085-1212TBW
 66
     1
 10
0.0
 20
0.0
 30
0.0
  0
VERTEX
  5
144
  8
IMPORTIEREN_-_N085-1212TBW
 10
6.224621101691337
 20
-14.28924299473451
 30
0.0
  0
VERTEX
  5
145
  8
IMPORTIEREN_-_N085-1212TBW
 10
6.224621101691337
 20
-14.17050080181816
 30
0.0
  0
VERTEX
  5
146
  8
IMPORTIEREN_-_N085-1212TBW
 10
6.09844884009356
 20
-14.17050080181816
 30
0.0
  0
SEQEND
  5
30E
  8
IMPORTIEREN_-_N085-1212TBW
  0
POLYLINE
  5
92
  8
IMPORTIEREN_-_N085-1212TBW
 66
     1
 10
0.0
 20
0.0
 30
0.0
  0
VERTEX
  5
147
  8
IMPORTIEREN_-_N085-1212TBW
 10
5.677844330179479
 20
-32.93267325049985
 30
0.0
  0
VERTEX
  5
148
  8
IMPORTIEREN_-_N085-1212TBW
 10
-5.257065399442888
 20
-32.93267325049985
 30
0.0
  0
SEQEND
  5
30F
  8
IMPORTIEREN_-_N085-1212TBW
  0
POLYLINE
  5
93
  8
IMPORTIEREN_-_N085-1212TBW
 66
     1
 10
0.0
 20
0.0
 30
0.0
  0
VERTEX
  5
149
  8
IMPORTIEREN_-_N085-1212TBW
 10
-4.836492976739807
 20
-32.93267325049985
 30
0.0
  0
VERTEX
  5
14A
  8
IMPORTIEREN_-_N085-1212TBW
 10
-5.803810083743722
 20
-32.93267325049985
 30
0.0
  0
SEQEND
  5
310
  8
IMPORTIEREN_-_N085-1212TBW
  0
POLYLINE
  5
94
  8
IMPORTIEREN_-_N085-1212TBW
 66
     1
 10
0.0
 20
0.0
 30
0.0
  0
VERTEX
  5
14B
  8
IMPORTIEREN_-_N085-1212TBW
 10
-6.350667073283134
 20
-28.459788926591
 30
0.0
  0
VERTEX
  5
14C
  8
IMPORTIEREN_-_N085-1212TBW
 10
-6.350667073283134
 20
-26.52025257847746
 30
0.0
  0
SEQEND
  5
311
  8
IMPORTIEREN_-_N085-1212TBW
  0
POLYLINE
  5
95
  8
IMPORTIEREN_-_N085-1212TBW
 66
     1
 10
0.0
 20
0.0
 30
0.0
  0
VERTEX
  5
14D
  8
IMPORTIEREN_-_N085-1212TBW
 10
-6.350667073283134
 20
-14.56638864201938
 30
0.0
  0
VERTEX
  5
14E
  8
IMPORTIEREN_-_N085-1212TBW
 10
-6.350667073283134
 20
-32.33886162281807
 30
0.0
  0
SEQEND
  5
312
  8
IMPORTIEREN_-_N085-1212TBW
  0
POLYLINE
  5
96
  8
IMPORTIEREN_-_N085-1212TBW
 66
     1
 10
0.0
 20
0.0
 30
0.0
  0
VERTEX
  5
14F
  8
IMPORTIEREN_-_N085-1212TBW
 10
-4.584223323703323
 20
-14.17050080181816
 30
0.0
  0
VERTEX
  5
150
  8
IMPORTIEREN_-_N085-1212TBW
 10
-5.803884953902767
 20
-14.17050080181816
 30
0.0
  0
SEQEND
  5
313
  8
IMPORTIEREN_-_N085-1212TBW
  0
POLYLINE
  5
97
  8
IMPORTIEREN_-_N085-1212TBW
 66
     1
 10
0.0
 20
0.0
 30
0.0
  0
VERTEX
  5
151
  8
IMPORTIEREN_-_N085-1212TBW
 10
-5.803884953902767
 20
-11.39976910329031
 30
0.0
  0
VERTEX
  5
152
  8
IMPORTIEREN_-_N085-1212TBW
 10
-5.677712692305002
 20
-11.6768342200951
 30
0.0
  0
VERTEX
  5
153
  8
IMPORTIEREN_-_N085-1212TBW
 10
-5.257140269601933
 20
-11.79559654563144
 30
0.0
  0
SEQEND
  5
314
  8
IMPORTIEREN_-_N085-1212TBW
  0
POLYLINE
  5
98
  8
IMPORTIEREN_-_N085-1212TBW
 66
     1
 10
0.0
 20
0.0
 30
0.0
  0
VERTEX
  5
154
  8
IMPORTIEREN_-_N085-1212TBW
 10
-4.584223323703323
 20
-14.17050080181816
 30
0.0
  0
VERTEX
  5
155
  8
IMPORTIEREN_-_N085-1212TBW
 10
-4.16365090100024
 20
-14.01215774530971
 30
0.0
  0
VERTEX
  5
156
  8
IMPORTIEREN_-_N085-1212TBW
 10
-3.995423001492714
 20
-13.61633030296856
 30
0.0
  0
SEQEND
  5
315
  8
IMPORTIEREN_-_N085-1212TBW
  0
POLYLINE
  5
99
  8
IMPORTIEREN_-_N085-1212TBW
 66
     1
 10
0.0
 20
0.0
 30
0.0
  0
VERTEX
  5
157
  8
IMPORTIEREN_-_N085-1212TBW
 10
-5.803884953902767
 20
-14.17050080181816
 30
0.0
  0
VERTEX
  5
158
  8
IMPORTIEREN_-_N085-1212TBW
 10
-6.224462724474343
 20
-14.28924299473451
 30
0.0
  0
VERTEX
  5
159
  8
IMPORTIEREN_-_N085-1212TBW
 10
-6.350629638203614
 20
-14.56630811153927
 30
0.0
  0
SEQEND
  5
316
  8
IMPORTIEREN_-_N085-1212TBW
  0
POLYLINE
  5
9A
  8
IMPORTIEREN_-_N085-1212TBW
 66
     1
 10
0.0
 20
0.0
 30
0.0
  0
VERTEX
  5
15A
  8
IMPORTIEREN_-_N085-1212TBW
 10
5.930113983215975
 20
-14.17050080181816
 30
0.0
  0
VERTEX
  5
15B
  8
IMPORTIEREN_-_N085-1212TBW
 10
6.098341882723503
 20
-14.17050080181816
 30
0.0
  0
SEQEND
  5
317
  8
IMPORTIEREN_-_N085-1212TBW
  0
POLYLINE
  5
9B
  8
IMPORTIEREN_-_N085-1212TBW
 66
     1
 10
0.0
 20
0.0
 30
0.0
  0
VERTEX
  5
15C
  8
IMPORTIEREN_-_N085-1212TBW
 10
5.677844330179479
 20
-13.89345581763341
 30
0.0
  0
VERTEX
  5
15D
  8
IMPORTIEREN_-_N085-1212TBW
 10
5.804016591777241
 20
-14.01219801054975
 30
0.0
  0
VERTEX
  5
15E
  8
IMPORTIEREN_-_N085-1212TBW
 10
5.930188853375022
 20
-14.17052093443819
 30
0.0
  0
SEQEND
  5
318
  8
IMPORTIEREN_-_N085-1212TBW
  0
POLYLINE
  5
9C
  8
IMPORTIEREN_-_N085-1212TBW
 66
     1
 10
0.0
 20
0.0
 30
0.0
 70
     1
  0
VERTEX
  5
15F
  8
IMPORTIEREN_-_N085-1212TBW
 10
-8.453459664507957
 20
-8.58953720427046
 30
0.0
  0
VERTEX
  5
160
  8
IMPORTIEREN_-_N085-1212TBW
 10
8.285368750743402
 20
-8.58953720427046
 30
0.0
  0
VERTEX
  5
161
  8
IMPORTIEREN_-_N085-1212TBW
 10
8.285368750743402
 20
8.351700160873854
 30
0.0
  0
VERTEX
  5
162
  8
IMPORTIEREN_-_N085-1212TBW
 10
-8.453459664507957
 20
8.351700160873854
 30
0.0
  0
SEQEND
  5
319
  8
IMPORTIEREN_-_N085-1212TBW
  0
POLYLINE
  5
9D
  8
IMPORTIEREN_-_N085-1212TBW
 66
     1
 10
0.0
 20
0.0
 30
0.0
  0
VERTEX
  5
163
  8
IMPORTIEREN_-_N085-1212TBW
 10
8.705866303287426
 20
-11.39976910329031
 30
0.0
  0
VERTEX
  5
164
  8
IMPORTIEREN_-_N085-1212TBW
 10
8.705866303287426
 20
-11.79559654563144
 30
0.0
  0
SEQEND
  5
31A
  8
IMPORTIEREN_-_N085-1212TBW
  0
POLYLINE
  5
9E
  8
IMPORTIEREN_-_N085-1212TBW
 66
     1
 10
0.0
 20
0.0
 30
0.0
 70
     1
  0
VERTEX
  5
165
  8
IMPORTIEREN_-_N085-1212TBW
 10
-8.7058041877035
 20
-8.866541923215149
 30
0.0
  0
VERTEX
  5
166
  8
IMPORTIEREN_-_N085-1212TBW
 10
-8.032887241804872
 20
-8.866541923215149
 30
0.0
  0
SEQEND
  5
31B
  8
IMPORTIEREN_-_N085-1212TBW
  0
POLYLINE
  5
9F
  8
IMPORTIEREN_-_N085-1212TBW
 66
     1
 10
0.0
 20
0.0
 30
0.0
 70
     1
  0
VERTEX
  5
167
  8
IMPORTIEREN_-_N085-1212TBW
 10
-8.705772100492474
 20
-8.866461392735033
 30
0.0
  0
VERTEX
  5
168
  8
IMPORTIEREN_-_N085-1212TBW
 10
-8.032855154593861
 20
-8.866461392735033
 30
0.0
  0
SEQEND
  5
31C
  8
IMPORTIEREN_-_N085-1212TBW
  0
POLYLINE
  5
A0
  8
IMPORTIEREN_-_N085-1212TBW
 66
     1
 10
0.0
 20
0.0
 30
0.0
 70
     1
  0
VERTEX
  5
169
  8
IMPORTIEREN_-_N085-1212TBW
 10
7.864678674933256
 20
-8.866541923215149
 30
0.0
  0
VERTEX
  5
16A
  8
IMPORTIEREN_-_N085-1212TBW
 10
8.579656606610126
 20
-8.866541923215149
 30
0.0
  0
SEQEND
  5
31D
  8
IMPORTIEREN_-_N085-1212TBW
  0
POLYLINE
  5
A1
  8
IMPORTIEREN_-_N085-1212TBW
 66
     1
 10
0.0
 20
0.0
 30
0.0
 70
     1
  0
VERTEX
  5
16B
  8
IMPORTIEREN_-_N085-1212TBW
 10
7.864753545092302
 20
-8.866461392735033
 30
0.0
  0
VERTEX
  5
16C
  8
IMPORTIEREN_-_N085-1212TBW
 10
8.579726128900674
 20
-8.866461392735033
 30
0.0
  0
SEQEND
  5
31E
  8
IMPORTIEREN_-_N085-1212TBW
  0
POLYLINE
  5
A2
  8
IMPORTIEREN_-_N085-1212TBW
 66
     1
 10
0.0
 20
0.0
 30
0.0
  0
VERTEX
  5
16D
  8
IMPORTIEREN_-_N085-1212TBW
 10
7.864753545092302
 20
-8.866461392735033
 30
0.0
  0
VERTEX
  5
16E
  8
IMPORTIEREN_-_N085-1212TBW
 10
8.579726128900674
 20
-8.866461392735033
 30
0.0
  0
VERTEX
  5
16F
  8
IMPORTIEREN_-_N085-1212TBW
 10
8.579726128900674
 20
-9.420611758964618
 30
0.0
  0
SEQEND
  5
31F
  8
IMPORTIEREN_-_N085-1212TBW
  0
POLYLINE
  5
A3
  8
IMPORTIEREN_-_N085-1212TBW
 66
     1
 10
0.0
 20
0.0
 30
0.0
  0
VERTEX
  5
170
  8
IMPORTIEREN_-_N085-1212TBW
 10
8.705866303287426
 20
9.024673250499852
 30
0.0
  0
VERTEX
  5
171
  8
IMPORTIEREN_-_N085-1212TBW
 10
8.705866303287426
 20
8.90593105758353
 30
0.0
  0
SEQEND
  5
320
  8
IMPORTIEREN_-_N085-1212TBW
  0
POLYLINE
  5
A4
  8
IMPORTIEREN_-_N085-1212TBW
 66
     1
 10
0.0
 20
0.0
 30
0.0
  0
VERTEX
  5
172
  8
IMPORTIEREN_-_N085-1212TBW
 10
8.705866303287426
 20
8.906011588063649
 30
0.0
  0
VERTEX
  5
173
  8
IMPORTIEREN_-_N085-1212TBW
 10
8.579694041689645
 20
8.906011588063649
 30
0.0
  0
SEQEND
  5
321
  8
IMPORTIEREN_-_N085-1212TBW
  0
POLYLINE
  5
A6
  8
IMPORTIEREN_-_N085-1212TB0
 66
     1
 10
0.0
 20
0.0
 30
0.0
  0
VERTEX
  5
174
  8
IMPORTIEREN_-_N085-1212TB0
 10
8.579726128900674
 20
8.747688664175186
 30
0.0
  0
VERTEX
  5
175
  8
IMPORTIEREN_-_N085-1212TB0
 10
-8.70584162278302
 20
8.747688664175186
 30
0.0
  0
SEQEND
  5
322
  8
IMPORTIEREN_-_N085-1212TB0
  0
POLYLINE
  5
A7
  8
IMPORTIEREN_-_N085-1212TB0
 66
     1
 10
0.0
 20
0.0
 30
0.0
  0
VERTEX
  5
176
  8
IMPORTIEREN_-_N085-1212TB0
 10
8.579726128900674
 20
8.628785410298661
 30
0.0
  0
VERTEX
  5
177
  8
IMPORTIEREN_-_N085-1212TB0
 10
-8.579669361185243
 20
8.628785410298661
 30
0.0
  0
SEQEND
  5
323
  8
IMPORTIEREN_-_N085-1212TB0
  0
POLYLINE
  5
A8
  8
IMPORTIEREN_-_N085-1212TB0
 66
     1
 10
0.0
 20
0.0
 30
0.0
  0
VERTEX
  5
178
  8
IMPORTIEREN_-_N085-1212TB0
 10
-8.705772100492474
 20
8.906011588063649
 30
0.0
  0
VERTEX
  5
179
  8
IMPORTIEREN_-_N085-1212TB0
 10
-8.873999999999995
 20
8.906011588063649
 30
0.0
  0
SEQEND
  5
324
  8
IMPORTIEREN_-_N085-1212TB0
  0
POLYLINE
  5
A9
  8
IMPORTIEREN_-_N085-1212TB0
 66
     1
 10
0.0
 20
0.0
 30
0.0
  0
VERTEX
  5
17A
  8
IMPORTIEREN_-_N085-1212TB0
 10
-8.873999999999995
 20
9.024673250499852
 30
0.0
  0
VERTEX
  5
17B
  8
IMPORTIEREN_-_N085-1212TB0
 10
8.705967912788989
 20
9.024673250499852
 30
0.0
  0
SEQEND
  5
325
  8
IMPORTIEREN_-_N085-1212TB0
  0
POLYLINE
  5
AA
  8
IMPORTIEREN_-_N085-1212TB0
 66
     1
 10
0.0
 20
0.0
 30
0.0
  0
VERTEX
  5
17C
  8
IMPORTIEREN_-_N085-1212TB0
 10
-8.705772100492474
 20
8.906011588063649
 30
0.0
  0
VERTEX
  5
17D
  8
IMPORTIEREN_-_N085-1212TB0
 10
-8.705772100492474
 20
-11.39972883805027
 30
0.0
  0
SEQEND
  5
326
  8
IMPORTIEREN_-_N085-1212TB0
  0
POLYLINE
  5
AB
  8
IMPORTIEREN_-_N085-1212TB0
 66
     1
 10
0.0
 20
0.0
 30
0.0
  0
VERTEX
  5
17E
  8
IMPORTIEREN_-_N085-1212TB0
 10
-8.873999999999995
 20
8.906011588063649
 30
0.0
  0
VERTEX
  5
17F
  8
IMPORTIEREN_-_N085-1212TB0
 10
-8.873999999999995
 20
-11.39972883805027
 30
0.0
  0
SEQEND
  5
327
  8
IMPORTIEREN_-_N085-1212TB0
  0
POLYLINE
  5
AC
  8
IMPORTIEREN_-_N085-1212TB0
 66
     1
 10
0.0
 20
0.0
 30
0.0
  0
VERTEX
  5
180
  8
IMPORTIEREN_-_N085-1212TB0
 10
-6.350667073283134
 20
-11.39976910329031
 30
0.0
  0
VERTEX
  5
181
  8
IMPORTIEREN_-_N085-1212TB0
 10
-6.350667073283134
 20
-11.79559654563144
 30
0.0
  0
SEQEND
  5
328
  8
IMPORTIEREN_-_N085-1212TB0
  0
POLYLINE
  5
AD
  8
IMPORTIEREN_-_N085-1212TB0
 66
     1
 10
0.0
 20
0.0
 30
0.0
  0
VERTEX
  5
182
  8
IMPORTIEREN_-_N085-1212TB0
 10
-8.873999999999995
 20
-11.39976910329031
 30
0.0
  0
VERTEX
  5
183
  8
IMPORTIEREN_-_N085-1212TB0
 10
-6.350560115913076
 20
-11.39976910329031
 30
0.0
  0
SEQEND
  5
329
  8
IMPORTIEREN_-_N085-1212TB0
  0
POLYLINE
  5
AE
  8
IMPORTIEREN_-_N085-1212TB0
 66
     1
 10
0.0
 20
0.0
 30
0.0
  0
VERTEX
  5
184
  8
IMPORTIEREN_-_N085-1212TB0
 10
-8.873999999999995
 20
-11.79563681087151
 30
0.0
  0
VERTEX
  5
185
  8
IMPORTIEREN_-_N085-1212TB0
 10
8.705967912788989
 20
-11.79563681087151
 30
0.0
  0
SEQEND
  5
32A
  8
IMPORTIEREN_-_N085-1212TB0
  0
POLYLINE
  5
AF
  8
IMPORTIEREN_-_N085-1212TB0
 66
     1
 10
0.0
 20
0.0
 30
0.0
  0
VERTEX
  5
186
  8
IMPORTIEREN_-_N085-1212TB0
 10
-4.584223323703323
 20
-11.79563681087151
 30
0.0
  0
VERTEX
  5
187
  8
IMPORTIEREN_-_N085-1212TB0
 10
-4.710395585301088
 20
-12.23102485156473
 30
0.0
  0
SEQEND
  5
32B
  8
IMPORTIEREN_-_N085-1212TB0
  0
POLYLINE
  5
B0
  8
IMPORTIEREN_-_N085-1212TB0
 66
     1
 10
0.0
 20
0.0
 30
0.0
  0
VERTEX
  5
188
  8
IMPORTIEREN_-_N085-1212TB0
 10
-8.873999999999995
 20
9.024673250499852
 30
0.0
  0
VERTEX
  5
189
  8
IMPORTIEREN_-_N085-1212TB0
 10
-8.873999999999995
 20
8.90593105758353
 30
0.0
  0
SEQEND
  5
32C
  8
IMPORTIEREN_-_N085-1212TB0
  0
POLYLINE
  5
B1
  8
IMPORTIEREN_-_N085-1212TB0
 66
     1
 10
0.0
 20
0.0
 30
0.0
  0
VERTEX
  5
18A
  8
IMPORTIEREN_-_N085-1212TB0
 10
8.579726128900674
 20
8.906011588063649
 30
0.0
  0
VERTEX
  5
18B
  8
IMPORTIEREN_-_N085-1212TB0
 10
8.579726128900674
 20
-11.39972883805027
 30
0.0
  0
SEQEND
  5
32D
  8
IMPORTIEREN_-_N085-1212TB0
  0
POLYLINE
  5
B2
  8
IMPORTIEREN_-_N085-1212TB0
 66
     1
 10
0.0
 20
0.0
 30
0.0
  0
VERTEX
  5
18C
  8
IMPORTIEREN_-_N085-1212TB0
 10
8.705866303287426
 20
8.906011588063649
 30
0.0
  0
VERTEX
  5
18D
  8
IMPORTIEREN_-_N085-1212TB0
 10
8.705866303287426
 20
-11.39972883805027
 30
0.0
  0
SEQEND
  5
32E
  8
IMPORTIEREN_-_N085-1212TB0
  0
POLYLINE
  5
B3
  8
IMPORTIEREN_-_N085-1212TB0
 66
     1
 10
0.0
 20
0.0
 30
0.0
  0
VERTEX
  5
18E
  8
IMPORTIEREN_-_N085-1212TB0
 10
6.224621101691337
 20
-11.39976910329031
 30
0.0
  0
VERTEX
  5
18F
  8
IMPORTIEREN_-_N085-1212TB0
 10
6.224621101691337
 20
-11.79559654563144
 30
0.0
  0
SEQEND
  5
32F
  8
IMPORTIEREN_-_N085-1212TB0
  0
POLYLINE
  5
B4
  8
IMPORTIEREN_-_N085-1212TB0
 66
     1
 10
0.0
 20
0.0
 30
0.0
  0
VERTEX
  5
190
  8
IMPORTIEREN_-_N085-1212TB0
 10
6.224621101691337
 20
-11.39976910329031
 30
0.0
  0
VERTEX
  5
191
  8
IMPORTIEREN_-_N085-1212TB0
 10
8.706
 20
-11.39976910329031
 30
0.0
  0
SEQEND
  5
330
  8
IMPORTIEREN_-_N085-1212TB0
  0
POLYLINE
  5
B5
  8
IMPORTIEREN_-_N085-1212TB0
 66
     1
 10
0.0
 20
0.0
 30
0.0
  0
VERTEX
  5
192
  8
IMPORTIEREN_-_N085-1212TB0
 10
-8.873999999999995
 20
-11.39976910329031
 30
0.0
  0
VERTEX
  5
193
  8
IMPORTIEREN_-_N085-1212TB0
 10
-8.873999999999995
 20
-11.79559654563144
 30
0.0
  0
SEQEND
  5
331
  8
IMPORTIEREN_-_N085-1212TB0
  0
POLYLINE
  5
B6
  8
IMPORTIEREN_-_N085-1212TB0
 66
     1
 10
0.0
 20
0.0
 30
0.0
  0
VERTEX
  5
194
  8
IMPORTIEREN_-_N085-1212TB0
 10
8.705866303287426
 20
-11.39976910329031
 30
0.0
  0
VERTEX
  5
195
  8
IMPORTIEREN_-_N085-1212TB0
 10
8.705866303287426
 20
-11.79559654563144
 30
0.0
  0
SEQEND
  5
332
  8
IMPORTIEREN_-_N085-1212TB0
  0
POLYLINE
  5
B7
  8
IMPORTIEREN_-_N085-1212TB0
 66
     1
 10
0.0
 20
0.0
 30
0.0
  0
VERTEX
  5
196
  8
IMPORTIEREN_-_N085-1212TB0
 10
-5.972112853410307
 20
-11.79563681087151
 30
0.0
  0
VERTEX
  5
197
  8
IMPORTIEREN_-_N085-1212TB0
 10
-5.972112853410307
 20
-14.17056119967826
 30
0.0
  0
SEQEND
  5
333
  8
IMPORTIEREN_-_N085-1212TB0
  0
POLYLINE
  5
B8
  8
IMPORTIEREN_-_N085-1212TB0
 66
     1
 10
0.0
 20
0.0
 30
0.0
  0
VERTEX
  5
198
  8
IMPORTIEREN_-_N085-1212TB0
 10
-4.710358150221564
 20
-13.89345581763341
 30
0.0
  0
VERTEX
  5
199
  8
IMPORTIEREN_-_N085-1212TB0
 10
-4.710358150221564
 20
-12.23100471894467
 30
0.0
  0
SEQEND
  5
334
  8
IMPORTIEREN_-_N085-1212TB0
  0
POLYLINE
  5
B9
  8
IMPORTIEREN_-_N085-1212TB0
 66
     1
 10
0.0
 20
0.0
 30
0.0
  0
VERTEX
  5
19A
  8
IMPORTIEREN_-_N085-1212TB0
 10
-4.710358150221564
 20
-13.89345581763341
 30
0.0
  0
VERTEX
  5
19B
  8
IMPORTIEREN_-_N085-1212TB0
 10
-4.710358150221564
 20
-14.17052093443819
 30
0.0
  0
SEQEND
  5
335
  8
IMPORTIEREN_-_N085-1212TB0
  0
POLYLINE
  5
BA
  8
IMPORTIEREN_-_N085-1212TB0
 66
     1
 10
0.0
 20
0.0
 30
0.0
  0
VERTEX
  5
19C
  8
IMPORTIEREN_-_N085-1212TB0
 10
-8.705772100492474
 20
8.628785410298661
 30
0.0
  0
VERTEX
  5
19D
  8
IMPORTIEREN_-_N085-1212TB0
 10
8.579800999059717
 20
8.628785410298661
 30
0.0
  0
SEQEND
  5
336
  8
IMPORTIEREN_-_N085-1212TB0
  0
POLYLINE
  5
BB
  8
IMPORTIEREN_-_N085-1212TB0
 66
     1
 10
0.0
 20
0.0
 30
0.0
  0
VERTEX
  5
19E
  8
IMPORTIEREN_-_N085-1212TB0
 10
-8.705772100492474
 20
-8.866461392735033
 30
0.0
  0
VERTEX
  5
19F
  8
IMPORTIEREN_-_N085-1212TB0
 10
8.579800999059717
 20
-8.866461392735033
 30
0.0
  0
SEQEND
  5
337
  8
IMPORTIEREN_-_N085-1212TB0
  0
POLYLINE
  5
BC
  8
IMPORTIEREN_-_N085-1212TB0
 66
     1
 10
0.0
 20
0.0
 30
0.0
  0
VERTEX
  5
1A0
  8
IMPORTIEREN_-_N085-1212TB0
 10
8.579726128900674
 20
8.628785410298661
 30
0.0
  0
VERTEX
  5
1A1
  8
IMPORTIEREN_-_N085-1212TB0
 10
8.579726128900674
 20
-11.39988989901047
 30
0.0
  0
VERTEX
  5
1A2
  8
IMPORTIEREN_-_N085-1212TB0
 10
-8.70584162278302
 20
-11.39988989901047
 30
0.0
  0
VERTEX
  5
1A3
  8
IMPORTIEREN_-_N085-1212TB0
 10
-8.70584162278302
 20
8.628785410298661
 30
0.0
  0
SEQEND
  5
338
  8
IMPORTIEREN_-_N085-1212TB0
  0
POLYLINE
  5
BD
  8
IMPORTIEREN_-_N085-1212TB0
 66
     1
 10
0.0
 20
0.0
 30
0.0
  0
VERTEX
  5
1A4
  8
IMPORTIEREN_-_N085-1212TB0
 10
-5.803884953902767
 20
-10.56853348763592
 30
0.0
  0
VERTEX
  5
1A5
  8
IMPORTIEREN_-_N085-1212TB0
 10
5.677769460020432
 20
-10.56853348763592
 30
0.0
  0
SEQEND
  5
339
  8
IMPORTIEREN_-_N085-1212TB0
  0
POLYLINE
  5
BE
  8
IMPORTIEREN_-_N085-1212TB0
 66
     1
 10
0.0
 20
0.0
 30
0.0
  0
VERTEX
  5
1A6
  8
IMPORTIEREN_-_N085-1212TB0
 10
-5.803884953902767
 20
-10.56853348763592
 30
0.0
  0
VERTEX
  5
1A7
  8
IMPORTIEREN_-_N085-1212TB0
 10
-5.803884953902767
 20
-11.39976910329031
 30
0.0
  0
SEQEND
  5
33A
  8
IMPORTIEREN_-_N085-1212TB0
  0
POLYLINE
  5
BF
  8
IMPORTIEREN_-_N085-1212TB0
 66
     1
 10
0.0
 20
0.0
 30
0.0
  0
VERTEX
  5
1A8
  8
IMPORTIEREN_-_N085-1212TB0
 10
5.677844330179479
 20
-10.56853348763592
 30
0.0
  0
VERTEX
  5
1A9
  8
IMPORTIEREN_-_N085-1212TB0
 10
5.677844330179479
 20
-13.89345581763341
 30
0.0
  0
SEQEND
  5
33B
  8
IMPORTIEREN_-_N085-1212TB0
  0
POLYLINE
  5
C0
  8
IMPORTIEREN_-_N085-1212TB0
 66
     1
 10
0.0
 20
0.0
 30
0.0
  0
VERTEX
  5
1AA
  8
IMPORTIEREN_-_N085-1212TB0
 10
-5.257140269601933
 20
-11.79563681087151
 30
0.0
  0
VERTEX
  5
1AB
  8
IMPORTIEREN_-_N085-1212TB0
 10
-4.584223323703323
 20
-11.79563681087151
 30
0.0
  0
SEQEND
  5
33C
  8
IMPORTIEREN_-_N085-1212TB0
  0
POLYLINE
  5
C1
  8
IMPORTIEREN_-_N085-1212TB0
 66
     1
 10
0.0
 20
0.0
 30
0.0
  0
VERTEX
  5
1AC
  8
IMPORTIEREN_-_N085-1212TB0
 10
-3.995385566413194
 20
-12.34970664662097
 30
0.0
  0
VERTEX
  5
1AD
  8
IMPORTIEREN_-_N085-1212TB0
 10
-3.995385566413194
 20
-13.61633030296856
 30
0.0
  0
SEQEND
  5
33D
  8
IMPORTIEREN_-_N085-1212TB0
  0
POLYLINE
  5
C2
  8
IMPORTIEREN_-_N085-1212TB0
 66
     1
 10
0.0
 20
0.0
 30
0.0
  0
VERTEX
  5
1AE
  8
IMPORTIEREN_-_N085-1212TB0
 10
-3.995385566413194
 20
-12.34970664662097
 30
0.0
  0
VERTEX
  5
1AF
  8
IMPORTIEREN_-_N085-1212TB0
 10
-4.163613465920719
 20
-11.95387920427983
 30
0.0
  0
VERTEX
  5
1B0
  8
IMPORTIEREN_-_N085-1212TB0
 10
-4.584185888623786
 20
-11.79555628039139
 30
0.0
  0
SEQEND
  5
33E
  8
IMPORTIEREN_-_N085-1212TB0
  0
POLYLINE
  5
C3
  8
IMPORTIEREN_-_N085-1212TB0
 66
     1
 10
0.0
 20
0.0
 30
0.0
  0
VERTEX
  5
1B1
  8
IMPORTIEREN_-_N085-1212TB0
 10
5.677844330179479
 20
-32.93267325049985
 30
0.0
  0
VERTEX
  5
1B2
  8
IMPORTIEREN_-_N085-1212TB0
 10
6.098422100751055
 20
-32.77435032661139
 30
0.0
  0
VERTEX
  5
1B3
  8
IMPORTIEREN_-_N085-1212TB0
 10
6.224594362348821
 20
-32.33894215329816
 30
0.0
  0
SEQEND
  5
33F
  8
IMPORTIEREN_-_N085-1212TB0
  0
POLYLINE
  5
C4
  8
IMPORTIEREN_-_N085-1212TB0
 66
     1
 10
0.0
 20
0.0
 30
0.0
  0
VERTEX
  5
1B4
  8
IMPORTIEREN_-_N085-1212TB0
 10
-6.350667073283134
 20
-32.33882135757799
 30
0.0
  0
VERTEX
  5
1B5
  8
IMPORTIEREN_-_N085-1212TB0
 10
-6.224494811685371
 20
-32.77422953089123
 30
0.0
  0
VERTEX
  5
1B6
  8
IMPORTIEREN_-_N085-1212TB0
 10
-5.803922388982288
 20
-32.9325524547797
 30
0.0
  0
SEQEND
  5
340
  8
IMPORTIEREN_-_N085-1212TB0
  0
POLYLINE
  5
C5
  8
IMPORTIEREN_-_N085-1212TB0
 66
     1
 10
0.0
 20
0.0
 30
0.0
  0
VERTEX
  5
1B7
  8
IMPORTIEREN_-_N085-1212TB0
 10
6.224621101691337
 20
-32.33882135757799
 30
0.0
  0
VERTEX
  5
1B8
  8
IMPORTIEREN_-_N085-1212TB0
 10
6.224621101691337
 20
-14.28928325997455
 30
0.0
  0
SEQEND
  5
341
  8
IMPORTIEREN_-_N085-1212TB0
  0
POLYLINE
  5
C6
  8
IMPORTIEREN_-_N085-1212TB0
 66
     1
 10
0.0
 20
0.0
 30
0.0
  0
VERTEX
  5
1B9
  8
IMPORTIEREN_-_N085-1212TB0
 10
6.224621101691337
 20
-14.28924299473451
 30
0.0
  0
VERTEX
  5
1BA
  8
IMPORTIEREN_-_N085-1212TB0
 10
6.224621101691337
 20
-14.17050080181816
 30
0.0
  0
VERTEX
  5
1BB
  8
IMPORTIEREN_-_N085-1212TB0
 10
6.09844884009356
 20
-14.17050080181816
 30
0.0
  0
SEQEND
  5
342
  8
IMPORTIEREN_-_N085-1212TB0
  0
POLYLINE
  5
C7
  8
IMPORTIEREN_-_N085-1212TB0
 66
     1
 10
0.0
 20
0.0
 30
0.0
  0
VERTEX
  5
1BC
  8
IMPORTIEREN_-_N085-1212TB0
 10
5.677844330179479
 20
-32.93267325049985
 30
0.0
  0
VERTEX
  5
1BD
  8
IMPORTIEREN_-_N085-1212TB0
 10
-5.257065399442888
 20
-32.93267325049985
 30
0.0
  0
SEQEND
  5
343
  8
IMPORTIEREN_-_N085-1212TB0
  0
POLYLINE
  5
C8
  8
IMPORTIEREN_-_N085-1212TB0
 66
     1
 10
0.0
 20
0.0
 30
0.0
  0
VERTEX
  5
1BE
  8
IMPORTIEREN_-_N085-1212TB0
 10
-4.836492976739807
 20
-32.93267325049985
 30
0.0
  0
VERTEX
  5
1BF
  8
IMPORTIEREN_-_N085-1212TB0
 10
-5.803810083743722
 20
-32.93267325049985
 30
0.0
  0
SEQEND
  5
344
  8
IMPORTIEREN_-_N085-1212TB0
  0
POLYLINE
  5
C9
  8
IMPORTIEREN_-_N085-1212TB0
 66
     1
 10
0.0
 20
0.0
 30
0.0
  0
VERTEX
  5
1C0
  8
IMPORTIEREN_-_N085-1212TB0
 10
-6.350667073283134
 20
-28.459788926591
 30
0.0
  0
VERTEX
  5
1C1
  8
IMPORTIEREN_-_N085-1212TB0
 10
-6.350667073283134
 20
-26.52025257847746
 30
0.0
  0
SEQEND
  5
345
  8
IMPORTIEREN_-_N085-1212TB0
  0
POLYLINE
  5
CA
  8
IMPORTIEREN_-_N085-1212TB0
 66
     1
 10
0.0
 20
0.0
 30
0.0
  0
VERTEX
  5
1C2
  8
IMPORTIEREN_-_N085-1212TB0
 10
-6.350667073283134
 20
-14.56638864201938
 30
0.0
  0
VERTEX
  5
1C3
  8
IMPORTIEREN_-_N085-1212TB0
 10
-6.350667073283134
 20
-32.33886162281807
 30
0.0
  0
SEQEND
  5
346
  8
IMPORTIEREN_-_N085-1212TB0
  0
POLYLINE
  5
CB
  8
IMPORTIEREN_-_N085-1212TB0
 66
     1
 10
0.0
 20
0.0
 30
0.0
  0
VERTEX
  5
1C4
  8
IMPORTIEREN_-_N085-1212TB0
 10
-4.584223323703323
 20
-14.17050080181816
 30
0.0
  0
VERTEX
  5
1C5
  8
IMPORTIEREN_-_N085-1212TB0
 10
-5.803884953902767
 20
-14.17050080181816
 30
0.0
  0
SEQEND
  5
347
  8
IMPORTIEREN_-_N085-1212TB0
  0
POLYLINE
  5
CC
  8
IMPORTIEREN_-_N085-1212TB0
 66
     1
 10
0.0
 20
0.0
 30
0.0
  0
VERTEX
  5
1C6
  8
IMPORTIEREN_-_N085-1212TB0
 10
-5.803884953902767
 20
-11.39976910329031
 30
0.0
  0
VERTEX
  5
1C7
  8
IMPORTIEREN_-_N085-1212TB0
 10
-5.677712692305002
 20
-11.6768342200951
 30
0.0
  0
VERTEX
  5
1C8
  8
IMPORTIEREN_-_N085-1212TB0
 10
-5.257140269601933
 20
-11.79559654563144
 30
0.0
  0
SEQEND
  5
348
  8
IMPORTIEREN_-_N085-1212TB0
  0
POLYLINE
  5
CD
  8
IMPORTIEREN_-_N085-1212TB0
 66
     1
 10
0.0
 20
0.0
 30
0.0
  0
VERTEX
  5
1C9
  8
IMPORTIEREN_-_N085-1212TB0
 10
-4.584223323703323
 20
-14.17050080181816
 30
0.0
  0
VERTEX
  5
1CA
  8
IMPORTIEREN_-_N085-1212TB0
 10
-4.16365090100024
 20
-14.01215774530971
 30
0.0
  0
VERTEX
  5
1CB
  8
IMPORTIEREN_-_N085-1212TB0
 10
-3.995423001492714
 20
-13.61633030296856
 30
0.0
  0
SEQEND
  5
349
  8
IMPORTIEREN_-_N085-1212TB0
  0
POLYLINE
  5
CE
  8
IMPORTIEREN_-_N085-1212TB0
 66
     1
 10
0.0
 20
0.0
 30
0.0
  0
VERTEX
  5
1CC
  8
IMPORTIEREN_-_N085-1212TB0
 10
-5.803884953902767
 20
-14.17050080181816
 30
0.0
  0
VERTEX
  5
1CD
  8
IMPORTIEREN_-_N085-1212TB0
 10
-6.224462724474343
 20
-14.28924299473451
 30
0.0
  0
VERTEX
  5
1CE
  8
IMPORTIEREN_-_N085-1212TB0
 10
-6.350629638203614
 20
-14.56630811153927
 30
0.0
  0
SEQEND
  5
34A
  8
IMPORTIEREN_-_N085-1212TB0
  0
POLYLINE
  5
CF
  8
IMPORTIEREN_-_N085-1212TB0
 66
     1
 10
0.0
 20
0.0
 30
0.0
  0
VERTEX
  5
1CF
  8
IMPORTIEREN_-_N085-1212TB0
 10
5.930113983215975
 20
-14.17050080181816
 30
0.0
  0
VERTEX
  5
1D0
  8
IMPORTIEREN_-_N085-1212TB0
 10
6.098341882723503
 20
-14.17050080181816
 30
0.0
  0
SEQEND
  5
34B
  8
IMPORTIEREN_-_N085-1212TB0
  0
POLYLINE
  5
D0
  8
IMPORTIEREN_-_N085-1212TB0
 66
     1
 10
0.0
 20
0.0
 30
0.0
  0
VERTEX
  5
1D1
  8
IMPORTIEREN_-_N085-1212TB0
 10
5.677844330179479
 20
-13.89345581763341
 30
0.0
  0
VERTEX
  5
1D2
  8
IMPORTIEREN_-_N085-1212TB0
 10
5.804016591777241
 20
-14.01219801054975
 30
0.0
  0
VERTEX
  5
1D3
  8
IMPORTIEREN_-_N085-1212TB0
 10
5.930188853375022
 20
-14.17052093443819
 30
0.0
  0
SEQEND
  5
34C
  8
IMPORTIEREN_-_N085-1212TB0
  0
POLYLINE
  5
D1
  8
IMPORTIEREN_-_N085-1212TB0
 66
     1
 10
0.0
 20
0.0
 30
0.0
 70
     1
  0
VERTEX
  5
1D4
  8
IMPORTIEREN_-_N085-1212TB0
 10
-8.453459664507957
 20
-8.58953720427046
 30
0.0
  0
VERTEX
  5
1D5
  8
IMPORTIEREN_-_N085-1212TB0
 10
8.285368750743402
 20
-8.58953720427046
 30
0.0
  0
VERTEX
  5
1D6
  8
IMPORTIEREN_-_N085-1212TB0
 10
8.285368750743402
 20
8.351700160873854
 30
0.0
  0
VERTEX
  5
1D7
  8
IMPORTIEREN_-_N085-1212TB0
 10
-8.453459664507957
 20
8.351700160873854
 30
0.0
  0
SEQEND
  5
34D
  8
IMPORTIEREN_-_N085-1212TB0
  0
POLYLINE
  5
D2
  8
IMPORTIEREN_-_N085-1212TB0
 66
     1
 10
0.0
 20
0.0
 30
0.0
  0
VERTEX
  5
1D8
  8
IMPORTIEREN_-_N085-1212TB0
 10
8.705866303287426
 20
-11.39976910329031
 30
0.0
  0
VERTEX
  5
1D9
  8
IMPORTIEREN_-_N085-1212TB0
 10
8.705866303287426
 20
-11.79559654563144
 30
0.0
  0
SEQEND
  5
34E
  8
IMPORTIEREN_-_N085-1212TB0
  0
POLYLINE
  5
D3
  8
IMPORTIEREN_-_N085-1212TB0
 66
     1
 10
0.0
 20
0.0
 30
0.0
 70
     1
  0
VERTEX
  5
1DA
  8
IMPORTIEREN_-_N085-1212TB0
 10
-8.7058041877035
 20
-8.866541923215149
 30
0.0
  0
VERTEX
  5
1DB
  8
IMPORTIEREN_-_N085-1212TB0
 10
-8.032887241804872
 20
-8.866541923215149
 30
0.0
  0
SEQEND
  5
34F
  8
IMPORTIEREN_-_N085-1212TB0
  0
POLYLINE
  5
D4
  8
IMPORTIEREN_-_N085-1212TB0
 66
     1
 10
0.0
 20
0.0
 30
0.0
 70
     1
  0
VERTEX
  5
1DC
  8
IMPORTIEREN_-_N085-1212TB0
 10
-8.705772100492474
 20
-8.866461392735033
 30
0.0
  0
VERTEX
  5
1DD
  8
IMPORTIEREN_-_N085-1212TB0
 10
-8.032855154593861
 20
-8.866461392735033
 30
0.0
  0
SEQEND
  5
350
  8
IMPORTIEREN_-_N085-1212TB0
  0
POLYLINE
  5
D5
  8
IMPORTIEREN_-_N085-1212TB0
 66
     1
 10
0.0
 20
0.0
 30
0.0
 70
     1
  0
VERTEX
  5
1DE
  8
IMPORTIEREN_-_N085-1212TB0
 10
7.864678674933256
 20
-8.866541923215149
 30
0.0
  0
VERTEX
  5
1DF
  8
IMPORTIEREN_-_N085-1212TB0
 10
8.579656606610126
 20
-8.866541923215149
 30
0.0
  0
SEQEND
  5
351
  8
IMPORTIEREN_-_N085-1212TB0
  0
POLYLINE
  5
D6
  8
IMPORTIEREN_-_N085-1212TB0
 66
     1
 10
0.0
 20
0.0
 30
0.0
 70
     1
  0
VERTEX
  5
1E0
  8
IMPORTIEREN_-_N085-1212TB0
 10
7.864753545092302
 20
-8.866461392735033
 30
0.0
  0
VERTEX
  5
1E1
  8
IMPORTIEREN_-_N085-1212TB0
 10
8.579726128900674
 20
-8.866461392735033
 30
0.0
  0
SEQEND
  5
352
  8
IMPORTIEREN_-_N085-1212TB0
  0
POLYLINE
  5
D7
  8
IMPORTIEREN_-_N085-1212TB0
 66
     1
 10
0.0
 20
0.0
 30
0.0
  0
VERTEX
  5
1E2
  8
IMPORTIEREN_-_N085-1212TB0
 10
7.864753545092302
 20
-8.866461392735033
 30
0.0
  0
VERTEX
  5
1E3
  8
IMPORTIEREN_-_N085-1212TB0
 10
8.579726128900674
 20
-8.866461392735033
 30
0.0
  0
VERTEX
  5
1E4
  8
IMPORTIEREN_-_N085-1212TB0
 10
8.579726128900674
 20
-9.420611758964618
 30
0.0
  0
SEQEND
  5
353
  8
IMPORTIEREN_-_N085-1212TB0
  0
POLYLINE
  5
D8
  8
IMPORTIEREN_-_N085-1212TB0
 66
     1
 10
0.0
 20
0.0
 30
0.0
  0
VERTEX
  5
1E5
  8
IMPORTIEREN_-_N085-1212TB0
 10
8.705866303287426
 20
9.024673250499852
 30
0.0
  0
VERTEX
  5
1E6
  8
IMPORTIEREN_-_N085-1212TB0
 10
8.705866303287426
 20
8.90593105758353
 30
0.0
  0
SEQEND
  5
354
  8
IMPORTIEREN_-_N085-1212TB0
  0
POLYLINE
  5
D9
  8
IMPORTIEREN_-_N085-1212TB0
 66
     1
 10
0.0
 20
0.0
 30
0.0
  0
VERTEX
  5
1E7
  8
IMPORTIEREN_-_N085-1212TB0
 10
8.705866303287426
 20
8.906011588063649
 30
0.0
  0
VERTEX
  5
1E8
  8
IMPORTIEREN_-_N085-1212TB0
 10
8.579694041689645
 20
8.906011588063649
 30
0.0
  0
SEQEND
  5
355
  8
IMPORTIEREN_-_N085-1212TB0
  0
POLYLINE
  5
DA
  8
IMPORTIEREN_-_N085-1212TB0
 66
     1
 10
0.0
 20
0.0
 30
0.0
 70
     1
  0
VERTEX
  5
1E9
  8
IMPORTIEREN_-_N085-1212TB0
 10
-5.0
 20
-28.38523755393458
 30
0.0
 42
0.4142135623730951
  0
VERTEX
  5
1EA
  8
IMPORTIEREN_-_N085-1212TB0
 10
-5.5
 20
-28.88523755393458
 30
0.0
 42
0.4142135623730951
  0
VERTEX
  5
1EB
  8
IMPORTIEREN_-_N085-1212TB0
 10
-5.0
 20
-29.38523755393458
 30
0.0
 42
0.4142135623730951
  0
VERTEX
  5
1EC
  8
IMPORTIEREN_-_N085-1212TB0
 10
-4.5
 20
-28.88523755393458
 30
0.0
 42
0.4142135623730951
  0
SEQEND
  5
356
  8
IMPORTIEREN_-_N085-1212TB0
  0
POLYLINE
  5
DB
  8
IMPORTIEREN_-_N085-1212TB0
 66
     1
 10
0.0
 20
0.0
 30
0.0
 70
     1
  0
VERTEX
  5
1ED
  8
IMPORTIEREN_-_N085-1212TB0
 10
-3.149859648839686
 20
-32.18738835307516
 30
0.0
 42
0.4142135623730951
  0
VERTEX
  5
1EE
  8
IMPORTIEREN_-_N085-1212TB0
 10
-3.249859648839686
 20
-32.28738835307516
 30
0.0
 42
0.4142135623730951
  0
VERTEX
  5
1EF
  8
IMPORTIEREN_-_N085-1212TB0
 10
-3.149859648839686
 20
-32.38738835307516
 30
0.0
 42
0.4142135623730951
  0
VERTEX
  5
1F0
  8
IMPORTIEREN_-_N085-1212TB0
 10
-3.049859648839686
 20
-32.28738835307516
 30
0.0
 42
0.4142135623730951
  0
SEQEND
  5
357
  8
IMPORTIEREN_-_N085-1212TB0
  0
POLYLINE
  5
DC
  8
IMPORTIEREN_-_N085-1212TB0
 66
     1
 10
0.0
 20
0.0
 30
0.0
 70
     1
  0
VERTEX
  5
1F1
  8
IMPORTIEREN_-_N085-1212TB0
 10
-3.850000000000032
 20
-31.38098983351964
 30
0.0
 42
0.4142135623730951
  0
VERTEX
  5
1F2
  8
IMPORTIEREN_-_N085-1212TB0
 10
-3.950000000000033
 20
-31.48098983351964
 30
0.0
 42
0.4142135623730951
  0
VERTEX
  5
1F3
  8
IMPORTIEREN_-_N085-1212TB0
 10
-3.850000000000032
 20
-31.58098983351965
 30
0.0
 42
0.4142135623730951
  0
VERTEX
  5
1F4
  8
IMPORTIEREN_-_N085-1212TB0
 10
-3.750000000000032
 20
-31.48098983351964
 30
0.0
 42
0.4142135623730951
  0
SEQEND
  5
358
  8
IMPORTIEREN_-_N085-1212TB0
  0
POLYLINE
  5
DD
  8
IMPORTIEREN_-_N085-1212TB0
 66
     1
 10
0.0
 20
0.0
 30
0.0
 70
     1
  0
VERTEX
  5
1F5
  8
IMPORTIEREN_-_N085-1212TB0
 10
-3.974999999999999
 20
-32.9330101664811
 30
0.0
  0
VERTEX
  5
1F6
  8
IMPORTIEREN_-_N085-1212TB0
 10
-4.025
 20
-32.9330101664811
 30
0.0
  0
VERTEX
  5
1F7
  8
IMPORTIEREN_-_N085-1212TB0
 10
-4.025174876553431
 20
-31.6219779795591
 30
0.0
  0
VERTEX
  5
1F8
  8
IMPORTIEREN_-_N085-1212TB0
 10
-4.061911822378413
 20
-31.55659656148718
 30
0.0
  0
VERTEX
  5
1F9
  8
IMPORTIEREN_-_N085-1212TB0
 10
-4.075000000000033
 20
-31.48098983351968
 30
0.0
  0
VERTEX
  5
1FA
  8
IMPORTIEREN_-_N085-1212TB0
 10
-4.061841264066993
 20
-31.40524223902167
 30
0.0
  0
VERTEX
  5
1FB
  8
IMPORTIEREN_-_N085-1212TB0
 10
-4.025271059730226
 20
-31.34148521178238
 30
0.0
  0
VERTEX
  5
1FC
  8
IMPORTIEREN_-_N085-1212TB0
 10
-4.025
 20
-30.8349898335189
 30
0.0
  0
VERTEX
  5
1FD
  8
IMPORTIEREN_-_N085-1212TB0
 10
-3.675
 20
-30.8349898335189
 30
0.0
  0
VERTEX
  5
1FE
  8
IMPORTIEREN_-_N085-1212TB0
 10
-3.674728940269755
 20
-31.34022904428643
 30
0.0
  0
VERTEX
  5
1FF
  8
IMPORTIEREN_-_N085-1212TB0
 10
-3.638158735933047
 20
-31.40508521808474
 30
0.0
  0
VERTEX
  5
200
  8
IMPORTIEREN_-_N085-1212TB0
 10
-3.625000000000033
 20
-31.48098983351968
 30
0.0
  0
VERTEX
  5
201
  8
IMPORTIEREN_-_N085-1212TB0
 10
-3.638158735933046
 20
-31.55689444895461
 30
0.0
  0
VERTEX
  5
202
  8
IMPORTIEREN_-_N085-1212TB0
 10
-3.674728940269751
 20
-31.62175062275292
 30
0.0
  0
VERTEX
  5
203
  8
IMPORTIEREN_-_N085-1212TB0
 10
-3.675
 20
-32.9330101664811
 30
0.0
  0
VERTEX
  5
204
  8
IMPORTIEREN_-_N085-1212TB0
 10
-3.725
 20
-32.9330101664811
 30
0.0
 42
0.4142135623730951
  0
VERTEX
  5
205
  8
IMPORTIEREN_-_N085-1212TB0
 10
-3.85
 20
-32.8080101664811
 30
0.0
 42
0.4142135623730951
  0
SEQEND
  5
359
  8
IMPORTIEREN_-_N085-1212TB0
  0
POLYLINE
  5
DE
  8
IMPORTIEREN_-_N085-1212TB0
 66
     1
 10
0.0
 20
0.0
 30
0.0
 70
     1
  0
VERTEX
  5
206
  8
IMPORTIEREN_-_N085-1212TB0
 10
-3.274999999999999
 20
-32.9330101664811
 30
0.0
  0
VERTEX
  5
207
  8
IMPORTIEREN_-_N085-1212TB0
 10
-3.325
 20
-32.9330101664811
 30
0.0
  0
VERTEX
  5
208
  8
IMPORTIEREN_-_N085-1212TB0
 10
-3.325175251764965
 20
-32.42821296849208
 30
0.0
  0
VERTEX
  5
209
  8
IMPORTIEREN_-_N085-1212TB0
 10
-3.36169881257975
 20
-32.36333224401243
 30
0.0
  0
VERTEX
  5
20A
  8
IMPORTIEREN_-_N085-1212TB0
 10
-3.374859648839687
 20
-32.28738835307519
 30
0.0
  0
VERTEX
  5
20B
  8
IMPORTIEREN_-_N085-1212TB0
 10
-3.361698812579754
 20
-32.21144446213798
 30
0.0
  0
VERTEX
  5
20C
  8
IMPORTIEREN_-_N085-1212TB0
 10
-3.325175251764976
 20
-32.14656373765834
 30
0.0
  0
VERTEX
  5
20D
  8
IMPORTIEREN_-_N085-1212TB0
 10
-3.325
 20
-30.8349898335189
 30
0.0
  0
VERTEX
  5
20E
  8
IMPORTIEREN_-_N085-1212TB0
 10
-2.975
 20
-30.8349898335189
 30
0.0
  0
VERTEX
  5
20F
  8
IMPORTIEREN_-_N085-1212TB0
 10
-2.974832890501753
 20
-32.14619490890922
 30
0.0
  0
VERTEX
  5
210
  8
IMPORTIEREN_-_N085-1212TB0
 10
-2.938101030579431
 20
-32.21121733912194
 30
0.0
  0
VERTEX
  5
211
  8
IMPORTIEREN_-_N085-1212TB0
 10
-2.924859648839687
 20
-32.28738835307519
 30
0.0
  0
VERTEX
  5
212
  8
IMPORTIEREN_-_N085-1212TB0
 10
-2.938101030580502
 20
-32.36355936703229
 30
0.0
  0
VERTEX
  5
213
  8
IMPORTIEREN_-_N085-1212TB0
 10
-2.974832890504277
 20
-32.42858179724742
 30
0.0
  0
VERTEX
  5
214
  8
IMPORTIEREN_-_N085-1212TB0
 10
-2.975
 20
-32.9330101664811
 30
0.0
  0
VERTEX
  5
215
  8
IMPORTIEREN_-_N085-1212TB0
 10
-3.025
 20
-32.9330101664811
 30
0.0
 42
0.4142135623730951
  0
VERTEX
  5
216
  8
IMPORTIEREN_-_N085-1212TB0
 10
-3.15
 20
-32.8080101664811
 30
0.0
 42
0.4142135623730951
  0
SEQEND
  5
35A
  8
IMPORTIEREN_-_N085-1212TB0
  0
POLYLINE
  5
DF
  8
IMPORTIEREN_-_N085-1212TB0
 66
     1
 10
0.0
 20
0.0
 30
0.0
 70
     1
  0
VERTEX
  5
217
  8
IMPORTIEREN_-_N085-1212TB0
 10
-0.3498596488396859
 20
-32.18738835307516
 30
0.0
 42
0.4142135623730951
  0
VERTEX
  5
218
  8
IMPORTIEREN_-_N085-1212TB0
 10
-0.4498596488396864
 20
-32.28738835307516
 30
0.0
 42
0.4142135623730951
  0
VERTEX
  5
219
  8
IMPORTIEREN_-_N085-1212TB0
 10
-0.3498596488396859
 20
-32.38738835307516
 30
0.0
 42
0.4142135623730951
  0
VERTEX
  5
21A
  8
IMPORTIEREN_-_N085-1212TB0
 10
-0.2498596488396863
 20
-32.28738835307516
 30
0.0
 42
0.4142135623730951
  0
SEQEND
  5
35B
  8
IMPORTIEREN_-_N085-1212TB0
  0
POLYLINE
  5
E0
  8
IMPORTIEREN_-_N085-1212TB0
 66
     1
 10
0.0
 20
0.0
 30
0.0
 70
     1
  0
VERTEX
  5
21B
  8
IMPORTIEREN_-_N085-1212TB0
 10
-1.050000000000032
 20
-31.38098983351964
 30
0.0
 42
0.4142135623730951
  0
VERTEX
  5
21C
  8
IMPORTIEREN_-_N085-1212TB0
 10
-1.150000000000033
 20
-31.48098983351964
 30
0.0
 42
0.4142135623730951
  0
VERTEX
  5
21D
  8
IMPORTIEREN_-_N085-1212TB0
 10
-1.050000000000032
 20
-31.58098983351965
 30
0.0
 42
0.4142135623730951
  0
VERTEX
  5
21E
  8
IMPORTIEREN_-_N085-1212TB0
 10
-0.9500000000000326
 20
-31.48098983351964
 30
0.0
 42
0.4142135623730951
  0
SEQEND
  5
35C
  8
IMPORTIEREN_-_N085-1212TB0
  0
POLYLINE
  5
E1
  8
IMPORTIEREN_-_N085-1212TB0
 66
     1
 10
0.0
 20
0.0
 30
0.0
 70
     1
  0
VERTEX
  5
21F
  8
IMPORTIEREN_-_N085-1212TB0
 10
-1.174999999999999
 20
-32.9330101664811
 30
0.0
  0
VERTEX
  5
220
  8
IMPORTIEREN_-_N085-1212TB0
 10
-1.225
 20
-32.9330101664811
 30
0.0
  0
VERTEX
  5
221
  8
IMPORTIEREN_-_N085-1212TB0
 10
-1.22517487655343
 20
-31.6219779795591
 30
0.0
  0
VERTEX
  5
222
  8
IMPORTIEREN_-_N085-1212TB0
 10
-1.261911822378413
 20
-31.55659656148718
 30
0.0
  0
VERTEX
  5
223
  8
IMPORTIEREN_-_N085-1212TB0
 10
-1.275000000000034
 20
-31.48098983351968
 30
0.0
  0
VERTEX
  5
224
  8
IMPORTIEREN_-_N085-1212TB0
 10
-1.261841264066994
 20
-31.40524223902167
 30
0.0
  0
VERTEX
  5
225
  8
IMPORTIEREN_-_N085-1212TB0
 10
-1.225271059730226
 20
-31.34148521178238
 30
0.0
  0
VERTEX
  5
226
  8
IMPORTIEREN_-_N085-1212TB0
 10
-1.225
 20
-30.8349898335189
 30
0.0
  0
VERTEX
  5
227
  8
IMPORTIEREN_-_N085-1212TB0
 10
-0.8750000000000004
 20
-30.8349898335189
 30
0.0
  0
VERTEX
  5
228
  8
IMPORTIEREN_-_N085-1212TB0
 10
-0.8747289402697551
 20
-31.34022904428643
 30
0.0
  0
VERTEX
  5
229
  8
IMPORTIEREN_-_N085-1212TB0
 10
-0.8381587359330472
 20
-31.40508521808474
 30
0.0
  0
VERTEX
  5
22A
  8
IMPORTIEREN_-_N085-1212TB0
 10
-0.8250000000000335
 20
-31.48098983351968
 30
0.0
  0
VERTEX
  5
22B
  8
IMPORTIEREN_-_N085-1212TB0
 10
-0.8381587359330458
 20
-31.55689444895461
 30
0.0
  0
VERTEX
  5
22C
  8
IMPORTIEREN_-_N085-1212TB0
 10
-0.8747289402697516
 20
-31.62175062275292
 30
0.0
  0
VERTEX
  5
22D
  8
IMPORTIEREN_-_N085-1212TB0
 10
-0.8750000000000004
 20
-32.9330101664811
 30
0.0
  0
VERTEX
  5
22E
  8
IMPORTIEREN_-_N085-1212TB0
 10
-0.9250000000000003
 20
-32.9330101664811
 30
0.0
 42
0.4142135623730951
  0
VERTEX
  5
22F
  8
IMPORTIEREN_-_N085-1212TB0
 10
-1.05
 20
-32.8080101664811
 30
0.0
 42
0.4142135623730951
  0
SEQEND
  5
35D
  8
IMPORTIEREN_-_N085-1212TB0
  0
POLYLINE
  5
E2
  8
IMPORTIEREN_-_N085-1212TB0
 66
     1
 10
0.0
 20
0.0
 30
0.0
 70
     1
  0
VERTEX
  5
230
  8
IMPORTIEREN_-_N085-1212TB0
 10
-0.4749999999999992
 20
-32.9330101664811
 30
0.0
  0
VERTEX
  5
231
  8
IMPORTIEREN_-_N085-1212TB0
 10
-0.5249999999999999
 20
-32.9330101664811
 30
0.0
  0
VERTEX
  5
232
  8
IMPORTIEREN_-_N085-1212TB0
 10
-0.5251752517649657
 20
-32.42821296849208
 30
0.0
  0
VERTEX
  5
233
  8
IMPORTIEREN_-_N085-1212TB0
 10
-0.56169881257975
 20
-32.36333224401243
 30
0.0
  0
VERTEX
  5
234
  8
IMPORTIEREN_-_N085-1212TB0
 10
-0.5748596488396873
 20
-32.28738835307519
 30
0.0
  0
VERTEX
  5
235
  8
IMPORTIEREN_-_N085-1212TB0
 10
-0.5616988125797546
 20
-32.21144446213798
 30
0.0
  0
VERTEX
  5
236
  8
IMPORTIEREN_-_N085-1212TB0
 10
-0.5251752517649764
 20
-32.14656373765834
 30
0.0
  0
VERTEX
  5
237
  8
IMPORTIEREN_-_N085-1212TB0
 10
-0.5249999999999999
 20
-30.8349898335189
 30
0.0
  0
VERTEX
  5
238
  8
IMPORTIEREN_-_N085-1212TB0
 10
-0.1750000000000003
 20
-30.8349898335189
 30
0.0
  0
VERTEX
  5
239
  8
IMPORTIEREN_-_N085-1212TB0
 10
-0.174832890501754
 20
-32.14619490890922
 30
0.0
  0
VERTEX
  5
23A
  8
IMPORTIEREN_-_N085-1212TB0
 10
-0.1381010305794315
 20
-32.21121733912194
 30
0.0
  0
VERTEX
  5
23B
  8
IMPORTIEREN_-_N085-1212TB0
 10
-0.1248596488396871
 20
-32.28738835307519
 30
0.0
  0
VERTEX
  5
23C
  8
IMPORTIEREN_-_N085-1212TB0
 10
-0.1381010305805026
 20
-32.36355936703229
 30
0.0
  0
VERTEX
  5
23D
  8
IMPORTIEREN_-_N085-1212TB0
 10
-0.1748328905042773
 20
-32.42858179724742
 30
0.0
  0
VERTEX
  5
23E
  8
IMPORTIEREN_-_N085-1212TB0
 10
-0.1750000000000003
 20
-32.9330101664811
 30
0.0
  0
VERTEX
  5
23F
  8
IMPORTIEREN_-_N085-1212TB0
 10
-0.225000000000001
 20
-32.9330101664811
 30
0.0
 42
0.4142135623730951
  0
VERTEX
  5
240
  8
IMPORTIEREN_-_N085-1212TB0
 10
-0.3500000000000001
 20
-32.8080101664811
 30
0.0
 42
0.4142135623730951
  0
SEQEND
  5
35E
  8
IMPORTIEREN_-_N085-1212TB0
  0
POLYLINE
  5
E3
  8
IMPORTIEREN_-_N085-1212TB0
 66
     1
 10
0.0
 20
0.0
 30
0.0
 70
     1
  0
VERTEX
  5
241
  8
IMPORTIEREN_-_N085-1212TB0
 10
-1.749859648839686
 20
-32.18738835307516
 30
0.0
 42
0.4142135623730951
  0
VERTEX
  5
242
  8
IMPORTIEREN_-_N085-1212TB0
 10
-1.849859648839686
 20
-32.28738835307516
 30
0.0
 42
0.4142135623730951
  0
VERTEX
  5
243
  8
IMPORTIEREN_-_N085-1212TB0
 10
-1.749859648839686
 20
-32.38738835307516
 30
0.0
 42
0.4142135623730951
  0
VERTEX
  5
244
  8
IMPORTIEREN_-_N085-1212TB0
 10
-1.649859648839686
 20
-32.28738835307516
 30
0.0
 42
0.4142135623730951
  0
SEQEND
  5
35F
  8
IMPORTIEREN_-_N085-1212TB0
  0
POLYLINE
  5
E4
  8
IMPORTIEREN_-_N085-1212TB0
 66
     1
 10
0.0
 20
0.0
 30
0.0
 70
     1
  0
VERTEX
  5
245
  8
IMPORTIEREN_-_N085-1212TB0
 10
-2.450000000000032
 20
-31.38098983351964
 30
0.0
 42
0.4142135623730951
  0
VERTEX
  5
246
  8
IMPORTIEREN_-_N085-1212TB0
 10
-2.550000000000033
 20
-31.48098983351964
 30
0.0
 42
0.4142135623730951
  0
VERTEX
  5
247
  8
IMPORTIEREN_-_N085-1212TB0
 10
-2.450000000000032
 20
-31.58098983351965
 30
0.0
 42
0.4142135623730951
  0
VERTEX
  5
248
  8
IMPORTIEREN_-_N085-1212TB0
 10
-2.350000000000033
 20
-31.48098983351964
 30
0.0
 42
0.4142135623730951
  0
SEQEND
  5
360
  8
IMPORTIEREN_-_N085-1212TB0
  0
POLYLINE
  5
E5
  8
IMPORTIEREN_-_N085-1212TB0
 66
     1
 10
0.0
 20
0.0
 30
0.0
 70
     1
  0
VERTEX
  5
249
  8
IMPORTIEREN_-_N085-1212TB0
 10
-2.574999999999999
 20
-32.9330101664811
 30
0.0
  0
VERTEX
  5
24A
  8
IMPORTIEREN_-_N085-1212TB0
 10
-2.625
 20
-32.9330101664811
 30
0.0
  0
VERTEX
  5
24B
  8
IMPORTIEREN_-_N085-1212TB0
 10
-2.62517487655343
 20
-31.6219779795591
 30
0.0
  0
VERTEX
  5
24C
  8
IMPORTIEREN_-_N085-1212TB0
 10
-2.661911822378413
 20
-31.55659656148718
 30
0.0
  0
VERTEX
  5
24D
  8
IMPORTIEREN_-_N085-1212TB0
 10
-2.675000000000034
 20
-31.48098983351968
 30
0.0
  0
VERTEX
  5
24E
  8
IMPORTIEREN_-_N085-1212TB0
 10
-2.661841264066993
 20
-31.40524223902167
 30
0.0
  0
VERTEX
  5
24F
  8
IMPORTIEREN_-_N085-1212TB0
 10
-2.625271059730226
 20
-31.34148521178238
 30
0.0
  0
VERTEX
  5
250
  8
IMPORTIEREN_-_N085-1212TB0
 10
-2.625
 20
-30.8349898335189
 30
0.0
  0
VERTEX
  5
251
  8
IMPORTIEREN_-_N085-1212TB0
 10
-2.274999999999999
 20
-30.8349898335189
 30
0.0
  0
VERTEX
  5
252
  8
IMPORTIEREN_-_N085-1212TB0
 10
-2.274728940269755
 20
-31.34022904428643
 30
0.0
  0
VERTEX
  5
253
  8
IMPORTIEREN_-_N085-1212TB0
 10
-2.238158735933047
 20
-31.40508521808474
 30
0.0
  0
VERTEX
  5
254
  8
IMPORTIEREN_-_N085-1212TB0
 10
-2.225000000000033
 20
-31.48098983351968
 30
0.0
  0
VERTEX
  5
255
  8
IMPORTIEREN_-_N085-1212TB0
 10
-2.238158735933045
 20
-31.55689444895461
 30
0.0
  0
VERTEX
  5
256
  8
IMPORTIEREN_-_N085-1212TB0
 10
-2.274728940269751
 20
-31.62175062275292
 30
0.0
  0
VERTEX
  5
257
  8
IMPORTIEREN_-_N085-1212TB0
 10
-2.274999999999999
 20
-32.9330101664811
 30
0.0
  0
VERTEX
  5
258
  8
IMPORTIEREN_-_N085-1212TB0
 10
-2.325
 20
-32.9330101664811
 30
0.0
 42
0.4142135623730951
  0
VERTEX
  5
259
  8
IMPORTIEREN_-_N085-1212TB0
 10
-2.45
 20
-32.8080101664811
 30
0.0
 42
0.4142135623730951
  0
SEQEND
  5
361
  8
IMPORTIEREN_-_N085-1212TB0
  0
POLYLINE
  5
E6
  8
IMPORTIEREN_-_N085-1212TB0
 66
     1
 10
0.0
 20
0.0
 30
0.0
 70
     1
  0
VERTEX
  5
25A
  8
IMPORTIEREN_-_N085-1212TB0
 10
-1.874999999999999
 20
-32.9330101664811
 30
0.0
  0
VERTEX
  5
25B
  8
IMPORTIEREN_-_N085-1212TB0
 10
-1.925
 20
-32.9330101664811
 30
0.0
  0
VERTEX
  5
25C
  8
IMPORTIEREN_-_N085-1212TB0
 10
-1.925175251764965
 20
-32.42821296849208
 30
0.0
  0
VERTEX
  5
25D
  8
IMPORTIEREN_-_N085-1212TB0
 10
-1.96169881257975
 20
-32.36333224401243
 30
0.0
  0
VERTEX
  5
25E
  8
IMPORTIEREN_-_N085-1212TB0
 10
-1.974859648839687
 20
-32.28738835307519
 30
0.0
  0
VERTEX
  5
25F
  8
IMPORTIEREN_-_N085-1212TB0
 10
-1.961698812579754
 20
-32.21144446213798
 30
0.0
  0
VERTEX
  5
260
  8
IMPORTIEREN_-_N085-1212TB0
 10
-1.925175251764976
 20
-32.14656373765834
 30
0.0
  0
VERTEX
  5
261
  8
IMPORTIEREN_-_N085-1212TB0
 10
-1.925
 20
-30.8349898335189
 30
0.0
  0
VERTEX
  5
262
  8
IMPORTIEREN_-_N085-1212TB0
 10
-1.575
 20
-30.8349898335189
 30
0.0
  0
VERTEX
  5
263
  8
IMPORTIEREN_-_N085-1212TB0
 10
-1.574832890501753
 20
-32.14619490890922
 30
0.0
  0
VERTEX
  5
264
  8
IMPORTIEREN_-_N085-1212TB0
 10
-1.538101030579431
 20
-32.21121733912194
 30
0.0
  0
VERTEX
  5
265
  8
IMPORTIEREN_-_N085-1212TB0
 10
-1.524859648839687
 20
-32.28738835307519
 30
0.0
  0
VERTEX
  5
266
  8
IMPORTIEREN_-_N085-1212TB0
 10
-1.538101030580503
 20
-32.36355936703229
 30
0.0
  0
VERTEX
  5
267
  8
IMPORTIEREN_-_N085-1212TB0
 10
-1.574832890504278
 20
-32.42858179724742
 30
0.0
  0
VERTEX
  5
268
  8
IMPORTIEREN_-_N085-1212TB0
 10
-1.575
 20
-32.9330101664811
 30
0.0
  0
VERTEX
  5
269
  8
IMPORTIEREN_-_N085-1212TB0
 10
-1.625
 20
-32.9330101664811
 30
0.0
 42
0.4142135623730951
  0
VERTEX
  5
26A
  8
IMPORTIEREN_-_N085-1212TB0
 10
-1.75
 20
-32.8080101664811
 30
0.0
 42
0.4142135623730951
  0
SEQEND
  5
362
  8
IMPORTIEREN_-_N085-1212TB0
  0
POLYLINE
  5
E7
  8
IMPORTIEREN_-_N085-1212TB0
 66
     1
 10
0.0
 20
0.0
 30
0.0
 70
     1
  0
VERTEX
  5
26B
  8
IMPORTIEREN_-_N085-1212TB0
 10
5.0
 20
-28.38523755393458
 30
0.0
 42
-0.4142135623730951
  0
VERTEX
  5
26C
  8
IMPORTIEREN_-_N085-1212TB0
 10
5.5
 20
-28.88523755393458
 30
0.0
 42
-0.4142135623730951
  0
VERTEX
  5
26D
  8
IMPORTIEREN_-_N085-1212TB0
 10
5.0
 20
-29.38523755393458
 30
0.0
 42
-0.4142135623730951
  0
VERTEX
  5
26E
  8
IMPORTIEREN_-_N085-1212TB0
 10
4.5
 20
-28.88523755393458
 30
0.0
 42
-0.4142135623730951
  0
SEQEND
  5
363
  8
IMPORTIEREN_-_N085-1212TB0
  0
POLYLINE
  5
E8
  8
IMPORTIEREN_-_N085-1212TB0
 66
     1
 10
0.0
 20
0.0
 30
0.0
 70
     1
  0
VERTEX
  5
26F
  8
IMPORTIEREN_-_N085-1212TB0
 10
1.050000000000034
 20
-32.18738835307516
 30
0.0
 42
0.4142135623730951
  0
VERTEX
  5
270
  8
IMPORTIEREN_-_N085-1212TB0
 10
0.9500000000000339
 20
-32.28738835307516
 30
0.0
 42
0.4142135623730951
  0
VERTEX
  5
271
  8
IMPORTIEREN_-_N085-1212TB0
 10
1.050000000000034
 20
-32.38738835307516
 30
0.0
 42
0.4142135623730951
  0
VERTEX
  5
272
  8
IMPORTIEREN_-_N085-1212TB0
 10
1.150000000000034
 20
-32.28738835307516
 30
0.0
 42
0.4142135623730951
  0
SEQEND
  5
364
  8
IMPORTIEREN_-_N085-1212TB0
  0
POLYLINE
  5
E9
  8
IMPORTIEREN_-_N085-1212TB0
 66
     1
 10
0.0
 20
0.0
 30
0.0
 70
     1
  0
VERTEX
  5
273
  8
IMPORTIEREN_-_N085-1212TB0
 10
0.3498596488396877
 20
-31.38098983351964
 30
0.0
 42
0.4142135623730951
  0
VERTEX
  5
274
  8
IMPORTIEREN_-_N085-1212TB0
 10
0.2498596488396871
 20
-31.48098983351964
 30
0.0
 42
0.4142135623730951
  0
VERTEX
  5
275
  8
IMPORTIEREN_-_N085-1212TB0
 10
0.3498596488396877
 20
-31.58098983351965
 30
0.0
 42
0.4142135623730951
  0
VERTEX
  5
276
  8
IMPORTIEREN_-_N085-1212TB0
 10
0.4498596488396873
 20
-31.48098983351964
 30
0.0
 42
0.4142135623730951
  0
SEQEND
  5
365
  8
IMPORTIEREN_-_N085-1212TB0
  0
POLYLINE
  5
EA
  8
IMPORTIEREN_-_N085-1212TB0
 66
     1
 10
0.0
 20
0.0
 30
0.0
 70
     1
  0
VERTEX
  5
277
  8
IMPORTIEREN_-_N085-1212TB0
 10
0.2248596488397205
 20
-32.9330101664811
 30
0.0
  0
VERTEX
  5
278
  8
IMPORTIEREN_-_N085-1212TB0
 10
0.1748596488397194
 20
-32.9330101664811
 30
0.0
  0
VERTEX
  5
279
  8
IMPORTIEREN_-_N085-1212TB0
 10
0.1746847722862892
 20
-31.6219779795591
 30
0.0
  0
VERTEX
  5
27A
  8
IMPORTIEREN_-_N085-1212TB0
 10
0.1379478264613074
 20
-31.55659656148718
 30
0.0
  0
VERTEX
  5
27B
  8
IMPORTIEREN_-_N085-1212TB0
 10
0.1248596488396867
 20
-31.48098983351968
 30
0.0
  0
VERTEX
  5
27C
  8
IMPORTIEREN_-_N085-1212TB0
 10
0.1380183847727268
 20
-31.40524223902167
 30
0.0
  0
VERTEX
  5
27D
  8
IMPORTIEREN_-_N085-1212TB0
 10
0.1745885891094936
 20
-31.34148521178238
 30
0.0
  0
VERTEX
  5
27E
  8
IMPORTIEREN_-_N085-1212TB0
 10
0.1748596488397194
 20
-30.8349898335189
 30
0.0
  0
VERTEX
  5
27F
  8
IMPORTIEREN_-_N085-1212TB0
 10
0.5248596488397199
 20
-30.8349898335189
 30
0.0
  0
VERTEX
  5
280
  8
IMPORTIEREN_-_N085-1212TB0
 10
0.5251307085699648
 20
-31.34022904428643
 30
0.0
  0
VERTEX
  5
281
  8
IMPORTIEREN_-_N085-1212TB0
 10
0.5617009129066727
 20
-31.40508521808474
 30
0.0
  0
VERTEX
  5
282
  8
IMPORTIEREN_-_N085-1212TB0
 10
0.5748596488396864
 20
-31.48098983351968
 30
0.0
  0
VERTEX
  5
283
  8
IMPORTIEREN_-_N085-1212TB0
 10
0.5617009129066741
 20
-31.55689444895461
 30
0.0
  0
VERTEX
  5
284
  8
IMPORTIEREN_-_N085-1212TB0
 10
0.5251307085699684
 20
-31.62175062275292
 30
0.0
  0
VERTEX
  5
285
  8
IMPORTIEREN_-_N085-1212TB0
 10
0.5248596488397199
 20
-32.9330101664811
 30
0.0
  0
VERTEX
  5
286
  8
IMPORTIEREN_-_N085-1212TB0
 10
0.4748596488397197
 20
-32.9330101664811
 30
0.0
 42
0.4142135623730951
  0
VERTEX
  5
287
  8
IMPORTIEREN_-_N085-1212TB0
 10
0.3498596488397201
 20
-32.8080101664811
 30
0.0
 42
0.4142135623730951
  0
SEQEND
  5
366
  8
IMPORTIEREN_-_N085-1212TB0
  0
POLYLINE
  5
EB
  8
IMPORTIEREN_-_N085-1212TB0
 66
     1
 10
0.0
 20
0.0
 30
0.0
 70
     1
  0
VERTEX
  5
288
  8
IMPORTIEREN_-_N085-1212TB0
 10
0.9248596488397203
 20
-32.9330101664811
 30
0.0
  0
VERTEX
  5
289
  8
IMPORTIEREN_-_N085-1212TB0
 10
0.87485964883972
 20
-32.9330101664811
 30
0.0
  0
VERTEX
  5
28A
  8
IMPORTIEREN_-_N085-1212TB0
 10
0.8746843970747546
 20
-32.42821296849208
 30
0.0
  0
VERTEX
  5
28B
  8
IMPORTIEREN_-_N085-1212TB0
 10
0.8381608362599698
 20
-32.36333224401243
 30
0.0
  0
VERTEX
  5
28C
  8
IMPORTIEREN_-_N085-1212TB0
 10
0.8250000000000326
 20
-32.28738835307519
 30
0.0
  0
VERTEX
  5
28D
  8
IMPORTIEREN_-_N085-1212TB0
 10
0.8381608362599655
 20
-32.21144446213798
 30
0.0
  0
VERTEX
  5
28E
  8
IMPORTIEREN_-_N085-1212TB0
 10
0.874684397074744
 20
-32.14656373765834
 30
0.0
  0
VERTEX
  5
28F
  8
IMPORTIEREN_-_N085-1212TB0
 10
0.87485964883972
 20
-30.8349898335189
 30
0.0
  0
VERTEX
  5
290
  8
IMPORTIEREN_-_N085-1212TB0
 10
1.22485964883972
 20
-30.8349898335189
 30
0.0
  0
VERTEX
  5
291
  8
IMPORTIEREN_-_N085-1212TB0
 10
1.225026758337966
 20
-32.14619490890922
 30
0.0
  0
VERTEX
  5
292
  8
IMPORTIEREN_-_N085-1212TB0
 10
1.261758618260289
 20
-32.21121733912194
 30
0.0
  0
VERTEX
  5
293
  8
IMPORTIEREN_-_N085-1212TB0
 10
1.275000000000033
 20
-32.28738835307519
 30
0.0
  0
VERTEX
  5
294
  8
IMPORTIEREN_-_N085-1212TB0
 10
1.261758618259218
 20
-32.36355936703229
 30
0.0
  0
VERTEX
  5
295
  8
IMPORTIEREN_-_N085-1212TB0
 10
1.225026758335443
 20
-32.42858179724742
 30
0.0
  0
VERTEX
  5
296
  8
IMPORTIEREN_-_N085-1212TB0
 10
1.22485964883972
 20
-32.9330101664811
 30
0.0
  0
VERTEX
  5
297
  8
IMPORTIEREN_-_N085-1212TB0
 10
1.174859648839719
 20
-32.9330101664811
 30
0.0
 42
0.4142135623730951
  0
VERTEX
  5
298
  8
IMPORTIEREN_-_N085-1212TB0
 10
1.04985964883972
 20
-32.8080101664811
 30
0.0
 42
0.4142135623730951
  0
SEQEND
  5
367
  8
IMPORTIEREN_-_N085-1212TB0
  0
POLYLINE
  5
EC
  8
IMPORTIEREN_-_N085-1212TB0
 66
     1
 10
0.0
 20
0.0
 30
0.0
 70
     1
  0
VERTEX
  5
299
  8
IMPORTIEREN_-_N085-1212TB0
 10
3.850000000000034
 20
-32.18738835307516
 30
0.0
 42
0.4142135623730951
  0
VERTEX
  5
29A
  8
IMPORTIEREN_-_N085-1212TB0
 10
3.750000000000033
 20
-32.28738835307516
 30
0.0
 42
0.4142135623730951
  0
VERTEX
  5
29B
  8
IMPORTIEREN_-_N085-1212TB0
 10
3.850000000000034
 20
-32.38738835307516
 30
0.0
 42
0.4142135623730951
  0
VERTEX
  5
29C
  8
IMPORTIEREN_-_N085-1212TB0
 10
3.950000000000033
 20
-32.28738835307516
 30
0.0
 42
0.4142135623730951
  0
SEQEND
  5
368
  8
IMPORTIEREN_-_N085-1212TB0
  0
POLYLINE
  5
ED
  8
IMPORTIEREN_-_N085-1212TB0
 66
     1
 10
0.0
 20
0.0
 30
0.0
 70
     1
  0
VERTEX
  5
29D
  8
IMPORTIEREN_-_N085-1212TB0
 10
3.149859648839687
 20
-31.38098983351964
 30
0.0
 42
0.4142135623730951
  0
VERTEX
  5
29E
  8
IMPORTIEREN_-_N085-1212TB0
 10
3.049859648839687
 20
-31.48098983351964
 30
0.0
 42
0.4142135623730951
  0
VERTEX
  5
29F
  8
IMPORTIEREN_-_N085-1212TB0
 10
3.149859648839687
 20
-31.58098983351965
 30
0.0
 42
0.4142135623730951
  0
VERTEX
  5
2A0
  8
IMPORTIEREN_-_N085-1212TB0
 10
3.249859648839687
 20
-31.48098983351964
 30
0.0
 42
0.4142135623730951
  0
SEQEND
  5
369
  8
IMPORTIEREN_-_N085-1212TB0
  0
POLYLINE
  5
EE
  8
IMPORTIEREN_-_N085-1212TB0
 66
     1
 10
0.0
 20
0.0
 30
0.0
 70
     1
  0
VERTEX
  5
2A1
  8
IMPORTIEREN_-_N085-1212TB0
 10
3.02485964883972
 20
-32.9330101664811
 30
0.0
  0
VERTEX
  5
2A2
  8
IMPORTIEREN_-_N085-1212TB0
 10
2.97485964883972
 20
-32.9330101664811
 30
0.0
  0
VERTEX
  5
2A3
  8
IMPORTIEREN_-_N085-1212TB0
 10
2.974684772286289
 20
-31.6219779795591
 30
0.0
  0
VERTEX
  5
2A4
  8
IMPORTIEREN_-_N085-1212TB0
 10
2.937947826461307
 20
-31.55659656148718
 30
0.0
  0
VERTEX
  5
2A5
  8
IMPORTIEREN_-_N085-1212TB0
 10
2.924859648839686
 20
-31.48098983351968
 30
0.0
  0
VERTEX
  5
2A6
  8
IMPORTIEREN_-_N085-1212TB0
 10
2.938018384772726
 20
-31.40524223902167
 30
0.0
  0
VERTEX
  5
2A7
  8
IMPORTIEREN_-_N085-1212TB0
 10
2.974588589109494
 20
-31.34148521178238
 30
0.0
  0
VERTEX
  5
2A8
  8
IMPORTIEREN_-_N085-1212TB0
 10
2.97485964883972
 20
-30.8349898335189
 30
0.0
  0
VERTEX
  5
2A9
  8
IMPORTIEREN_-_N085-1212TB0
 10
3.324859648839719
 20
-30.8349898335189
 30
0.0
  0
VERTEX
  5
2AA
  8
IMPORTIEREN_-_N085-1212TB0
 10
3.325130708569965
 20
-31.34022904428643
 30
0.0
  0
VERTEX
  5
2AB
  8
IMPORTIEREN_-_N085-1212TB0
 10
3.361700912906673
 20
-31.40508521808474
 30
0.0
  0
VERTEX
  5
2AC
  8
IMPORTIEREN_-_N085-1212TB0
 10
3.374859648839686
 20
-31.48098983351968
 30
0.0
  0
VERTEX
  5
2AD
  8
IMPORTIEREN_-_N085-1212TB0
 10
3.361700912906674
 20
-31.55689444895461
 30
0.0
  0
VERTEX
  5
2AE
  8
IMPORTIEREN_-_N085-1212TB0
 10
3.325130708569968
 20
-31.62175062275292
 30
0.0
  0
VERTEX
  5
2AF
  8
IMPORTIEREN_-_N085-1212TB0
 10
3.324859648839719
 20
-32.9330101664811
 30
0.0
  0
VERTEX
  5
2B0
  8
IMPORTIEREN_-_N085-1212TB0
 10
3.274859648839719
 20
-32.9330101664811
 30
0.0
 42
0.4142135623730951
  0
VERTEX
  5
2B1
  8
IMPORTIEREN_-_N085-1212TB0
 10
3.149859648839719
 20
-32.8080101664811
 30
0.0
 42
0.4142135623730951
  0
SEQEND
  5
36A
  8
IMPORTIEREN_-_N085-1212TB0
  0
POLYLINE
  5
EF
  8
IMPORTIEREN_-_N085-1212TB0
 66
     1
 10
0.0
 20
0.0
 30
0.0
 70
     1
  0
VERTEX
  5
2B2
  8
IMPORTIEREN_-_N085-1212TB0
 10
3.724859648839721
 20
-32.9330101664811
 30
0.0
  0
VERTEX
  5
2B3
  8
IMPORTIEREN_-_N085-1212TB0
 10
3.67485964883972
 20
-32.9330101664811
 30
0.0
  0
VERTEX
  5
2B4
  8
IMPORTIEREN_-_N085-1212TB0
 10
3.674684397074754
 20
-32.42821296849208
 30
0.0
  0
VERTEX
  5
2B5
  8
IMPORTIEREN_-_N085-1212TB0
 10
3.63816083625997
 20
-32.36333224401243
 30
0.0
  0
VERTEX
  5
2B6
  8
IMPORTIEREN_-_N085-1212TB0
 10
3.625000000000032
 20
-32.28738835307519
 30
0.0
  0
VERTEX
  5
2B7
  8
IMPORTIEREN_-_N085-1212TB0
 10
3.638160836259965
 20
-32.21144446213798
 30
0.0
  0
VERTEX
  5
2B8
  8
IMPORTIEREN_-_N085-1212TB0
 10
3.674684397074743
 20
-32.14656373765834
 30
0.0
  0
VERTEX
  5
2B9
  8
IMPORTIEREN_-_N085-1212TB0
 10
3.67485964883972
 20
-30.8349898335189
 30
0.0
  0
VERTEX
  5
2BA
  8
IMPORTIEREN_-_N085-1212TB0
 10
4.024859648839719
 20
-30.8349898335189
 30
0.0
  0
VERTEX
  5
2BB
  8
IMPORTIEREN_-_N085-1212TB0
 10
4.025026758337965
 20
-32.14619490890922
 30
0.0
  0
VERTEX
  5
2BC
  8
IMPORTIEREN_-_N085-1212TB0
 10
4.061758618260289
 20
-32.21121733912194
 30
0.0
  0
VERTEX
  5
2BD
  8
IMPORTIEREN_-_N085-1212TB0
 10
4.075000000000033
 20
-32.28738835307519
 30
0.0
  0
VERTEX
  5
2BE
  8
IMPORTIEREN_-_N085-1212TB0
 10
4.061758618259217
 20
-32.36355936703229
 30
0.0
  0
VERTEX
  5
2BF
  8
IMPORTIEREN_-_N085-1212TB0
 10
4.025026758335443
 20
-32.42858179724742
 30
0.0
  0
VERTEX
  5
2C0
  8
IMPORTIEREN_-_N085-1212TB0
 10
4.024859648839719
 20
-32.9330101664811
 30
0.0
  0
VERTEX
  5
2C1
  8
IMPORTIEREN_-_N085-1212TB0
 10
3.974859648839719
 20
-32.9330101664811
 30
0.0
 42
0.4142135623730951
  0
VERTEX
  5
2C2
  8
IMPORTIEREN_-_N085-1212TB0
 10
3.84985964883972
 20
-32.8080101664811
 30
0.0
 42
0.4142135623730951
  0
SEQEND
  5
36B
  8
IMPORTIEREN_-_N085-1212TB0
  0
POLYLINE
  5
F0
  8
IMPORTIEREN_-_N085-1212TB0
 66
     1
 10
0.0
 20
0.0
 30
0.0
 70
     1
  0
VERTEX
  5
2C3
  8
IMPORTIEREN_-_N085-1212TB0
 10
2.450000000000034
 20
-32.18738835307516
 30
0.0
 42
0.4142135623730951
  0
VERTEX
  5
2C4
  8
IMPORTIEREN_-_N085-1212TB0
 10
2.350000000000033
 20
-32.28738835307516
 30
0.0
 42
0.4142135623730951
  0
VERTEX
  5
2C5
  8
IMPORTIEREN_-_N085-1212TB0
 10
2.450000000000034
 20
-32.38738835307516
 30
0.0
 42
0.4142135623730951
  0
VERTEX
  5
2C6
  8
IMPORTIEREN_-_N085-1212TB0
 10
2.550000000000034
 20
-32.28738835307516
 30
0.0
 42
0.4142135623730951
  0
SEQEND
  5
36C
  8
IMPORTIEREN_-_N085-1212TB0
  0
POLYLINE
  5
F1
  8
IMPORTIEREN_-_N085-1212TB0
 66
     1
 10
0.0
 20
0.0
 30
0.0
 70
     1
  0
VERTEX
  5
2C7
  8
IMPORTIEREN_-_N085-1212TB0
 10
1.749859648839688
 20
-31.38098983351964
 30
0.0
 42
0.4142135623730951
  0
VERTEX
  5
2C8
  8
IMPORTIEREN_-_N085-1212TB0
 10
1.649859648839687
 20
-31.48098983351964
 30
0.0
 42
0.4142135623730951
  0
VERTEX
  5
2C9
  8
IMPORTIEREN_-_N085-1212TB0
 10
1.749859648839688
 20
-31.58098983351965
 30
0.0
 42
0.4142135623730951
  0
VERTEX
  5
2CA
  8
IMPORTIEREN_-_N085-1212TB0
 10
1.849859648839687
 20
-31.48098983351964
 30
0.0
 42
0.4142135623730951
  0
SEQEND
  5
36D
  8
IMPORTIEREN_-_N085-1212TB0
  0
POLYLINE
  5
F2
  8
IMPORTIEREN_-_N085-1212TB0
 66
     1
 10
0.0
 20
0.0
 30
0.0
 70
     1
  0
VERTEX
  5
2CB
  8
IMPORTIEREN_-_N085-1212TB0
 10
1.62485964883972
 20
-32.9330101664811
 30
0.0
  0
VERTEX
  5
2CC
  8
IMPORTIEREN_-_N085-1212TB0
 10
1.57485964883972
 20
-32.9330101664811
 30
0.0
  0
VERTEX
  5
2CD
  8
IMPORTIEREN_-_N085-1212TB0
 10
1.57468477228629
 20
-31.6219779795591
 30
0.0
  0
VERTEX
  5
2CE
  8
IMPORTIEREN_-_N085-1212TB0
 10
1.537947826461307
 20
-31.55659656148718
 30
0.0
  0
VERTEX
  5
2CF
  8
IMPORTIEREN_-_N085-1212TB0
 10
1.524859648839686
 20
-31.48098983351968
 30
0.0
  0
VERTEX
  5
2D0
  8
IMPORTIEREN_-_N085-1212TB0
 10
1.538018384772726
 20
-31.40524223902167
 30
0.0
  0
VERTEX
  5
2D1
  8
IMPORTIEREN_-_N085-1212TB0
 10
1.574588589109494
 20
-31.34148521178238
 30
0.0
  0
VERTEX
  5
2D2
  8
IMPORTIEREN_-_N085-1212TB0
 10
1.57485964883972
 20
-30.8349898335189
 30
0.0
  0
VERTEX
  5
2D3
  8
IMPORTIEREN_-_N085-1212TB0
 10
1.92485964883972
 20
-30.8349898335189
 30
0.0
  0
VERTEX
  5
2D4
  8
IMPORTIEREN_-_N085-1212TB0
 10
1.925130708569965
 20
-31.34022904428643
 30
0.0
  0
VERTEX
  5
2D5
  8
IMPORTIEREN_-_N085-1212TB0
 10
1.961700912906672
 20
-31.40508521808474
 30
0.0
  0
VERTEX
  5
2D6
  8
IMPORTIEREN_-_N085-1212TB0
 10
1.974859648839686
 20
-31.48098983351968
 30
0.0
  0
VERTEX
  5
2D7
  8
IMPORTIEREN_-_N085-1212TB0
 10
1.961700912906674
 20
-31.55689444895461
 30
0.0
  0
VERTEX
  5
2D8
  8
IMPORTIEREN_-_N085-1212TB0
 10
1.925130708569968
 20
-31.62175062275292
 30
0.0
  0
VERTEX
  5
2D9
  8
IMPORTIEREN_-_N085-1212TB0
 10
1.92485964883972
 20
-32.9330101664811
 30
0.0
  0
VERTEX
  5
2DA
  8
IMPORTIEREN_-_N085-1212TB0
 10
1.87485964883972
 20
-32.9330101664811
 30
0.0
 42
0.4142135623730951
  0
VERTEX
  5
2DB
  8
IMPORTIEREN_-_N085-1212TB0
 10
1.74985964883972
 20
-32.8080101664811
 30
0.0
 42
0.4142135623730951
  0
SEQEND
  5
36E
  8
IMPORTIEREN_-_N085-1212TB0
  0
POLYLINE
  5
F3
  8
IMPORTIEREN_-_N085-1212TB0
 66
     1
 10
0.0
 20
0.0
 30
0.0
 70
     1
  0
VERTEX
  5
2DC
  8
IMPORTIEREN_-_N085-1212TB0
 10
2.324859648839721
 20
-32.9330101664811
 30
0.0
  0
VERTEX
  5
2DD
  8
IMPORTIEREN_-_N085-1212TB0
 10
2.27485964883972
 20
-32.9330101664811
 30
0.0
  0
VERTEX
  5
2DE
  8
IMPORTIEREN_-_N085-1212TB0
 10
2.274684397074754
 20
-32.42821296849208
 30
0.0
  0
VERTEX
  5
2DF
  8
IMPORTIEREN_-_N085-1212TB0
 10
2.23816083625997
 20
-32.36333224401243
 30
0.0
  0
VERTEX
  5
2E0
  8
IMPORTIEREN_-_N085-1212TB0
 10
2.225000000000033
 20
-32.28738835307519
 30
0.0
  0
VERTEX
  5
2E1
  8
IMPORTIEREN_-_N085-1212TB0
 10
2.238160836259966
 20
-32.21144446213798
 30
0.0
  0
VERTEX
  5
2E2
  8
IMPORTIEREN_-_N085-1212TB0
 10
2.274684397074744
 20
-32.14656373765834
 30
0.0
  0
VERTEX
  5
2E3
  8
IMPORTIEREN_-_N085-1212TB0
 10
2.27485964883972
 20
-30.8349898335189
 30
0.0
  0
VERTEX
  5
2E4
  8
IMPORTIEREN_-_N085-1212TB0
 10
2.62485964883972
 20
-30.8349898335189
 30
0.0
  0
VERTEX
  5
2E5
  8
IMPORTIEREN_-_N085-1212TB0
 10
2.625026758337966
 20
-32.14619490890922
 30
0.0
  0
VERTEX
  5
2E6
  8
IMPORTIEREN_-_N085-1212TB0
 10
2.661758618260288
 20
-32.21121733912194
 30
0.0
  0
VERTEX
  5
2E7
  8
IMPORTIEREN_-_N085-1212TB0
 10
2.675000000000032
 20
-32.28738835307519
 30
0.0
  0
VERTEX
  5
2E8
  8
IMPORTIEREN_-_N085-1212TB0
 10
2.661758618259217
 20
-32.36355936703229
 30
0.0
  0
VERTEX
  5
2E9
  8
IMPORTIEREN_-_N085-1212TB0
 10
2.625026758335442
 20
-32.42858179724742
 30
0.0
  0
VERTEX
  5
2EA
  8
IMPORTIEREN_-_N085-1212TB0
 10
2.62485964883972
 20
-32.9330101664811
 30
0.0
  0
VERTEX
  5
2EB
  8
IMPORTIEREN_-_N085-1212TB0
 10
2.57485964883972
 20
-32.9330101664811
 30
0.0
 42
0.4142135623730951
  0
VERTEX
  5
2EC
  8
IMPORTIEREN_-_N085-1212TB0
 10
2.44985964883972
 20
-32.8080101664811
 30
0.0
 42
0.4142135623730951
  0
SEQEND
  5
36F
  8
IMPORTIEREN_-_N085-1212TB0
  0
ENDSEC
  0
EOF
