M48
;Layer_Color=9474304
;FILE_FORMAT=4:4
METRIC,LZ
;TYPE=PLATED
T1F00S00C0.3000
T3F00S00C0.9000
T5F00S00C2.7000
;TYPE=NON_PLATED
T6F00S00C0.6500
T7F00S00C1.1520
T8F00S00C1.5000
T11F00S00C2.0500
T13F00S00C2.4000
%
T01
X00375Y-00575
X00425
X00475
X00525
X00575
X00625
X00672446Y-00572271
X00671Y-00565
X00672446Y-00557729
X00676565Y-00551565
X00682729Y-00547446
X0069Y-00546
X00697271Y-00547446
X00703435Y-00551565
X00707554Y-00557729
X00709Y-00565
X00707554Y-00572271
X00703435Y-00578435
X00697271Y-00582554
X0069Y-00584
X00682729Y-00582554
X00676565Y-00578435
X007Y-00525
X0065
X006
X0055
X005
X0045
X00445Y-0048
X00475Y-00475
X0044Y-00442
X00445Y-00435
X0045Y-00425
X005
X0055
X00575Y-00375
X00625
X00675
X007Y-00325
Y-00425
X0065
X00675Y-00475
X00525Y-00375
X00475
X00425
X00375
X004Y-00425
X0035
Y-00525
X004
X0045Y-00325
X00325Y-00375
X00275
X00225
X00195Y-004
X0019Y-0043
X0020525Y-0043
X00175Y-00438
X0017Y-004475
X00165Y-004525
X0018Y-00485
X002Y-00485
X002Y-00525
X0025
X003
X00315Y-00485
X00325Y-00475
X00275
X003Y-00425
X00325Y-00575
X00275
X00225
X00175
X00125
X00075
X00025
X-00025
X0005Y-00525
X001
X00075Y-00475
X00025
X001Y-00425
X0016Y-00375
X00185Y-0033
X002Y-0033
X0017Y-002925
X00165Y-005
X0016Y-00505
X-00018Y-00375
X-00033Y-0038
X-00043
Y-0037
X-0005Y-00425
X-0006Y-00442
X-0005Y-00525
X-00075Y-00575
X-00125
X-00175
X-00225
X-00275
X-00325
X-003Y-00525
X-0035
X-004
X-00375Y-00475
X-00325
X-00275
X-00225
X-00175
X-0015Y-00425
Y-00525
X-002
X-003Y-00425
X-0035
X-004
X-00375Y-00375
X-00325
X-00275
X-003Y-00325
X-0035
X-004
X-00425Y-00375
Y-00475
X-00475
X-00525
X-00575
X-00625
X-006Y-00425
X-0055
X-005
X-0045
X-00475Y-00375
X-0047475Y-003325
X-0054975Y-0033125
X-0056475
X-0057475
X-0056985Y-003366
X-0055985
X-00575Y-00375
X-00525
X-0054Y-0030025
X-0065Y-00325
X-00625Y-00375
X-0065Y-00425
Y-00525
X-006
X-0055
X-005
X-0045
X-00625Y-00575
X-00672446Y-00572271
X-00671Y-00565
X-00672446Y-00557729
X-00676565Y-00551565
X-00682729Y-00547446
X-0069Y-00546
X-00697271Y-00547446
X-00703435Y-00551565
X-00707554Y-00557729
X-00709Y-00565
X-00707554Y-00572271
X-00703435Y-00578435
X-00697271Y-00582554
X-0069Y-00584
X-00682729Y-00582554
X-00676565Y-00578435
X-0065Y-00225
X-00625Y-00175
X-00575
X-00555Y-00243
Y-0025
Y-00257
Y-00264
X-00475Y-00275
Y-00175
X-00476Y-00024269
X-00484Y-00024311
X-0049275Y-00024328
X-0046725Y-00023986
X-0045275Y-00024328
X-00471Y00045
X-005Y00075
X-00534Y00038
X-00542
Y00031
X-00534Y00026
X-00542Y00045
X-00549Y0000275
X-00577Y-00005
X-0059024Y-00021
X-0065Y-00025
X-00625Y00025
X-00605Y00065
X-00595Y00098
X-0065Y00075
X-00625Y-00075
X-00575
X-0065Y-00125
X-004
X-0035
X-003
X-0025
X-002
X-0015
X-001465Y-00116
X-001Y-00125
X-0005
X-0007Y-0008
X-00085Y-00063
X-00164Y-00073
X-00175Y-00075
X-001885Y-0004
X-001955
X-002025Y-00035
X-002095Y-0003
X-002165Y-00025
X-0025Y-00025
X-00285Y0001
Y0002
X-0029Y00015
X-00328Y-0000288
X-003655
X-0035Y-00025
X-004185Y-00023704
X-0042725Y-00023986
X-00436Y-00024269
X-00444Y-00024311
X-00413Y00001599
X-0041Y00023
X-00415Y00028
X-00425Y00025
Y-00075
X-00375
X-00325
X-00275
X-00225
Y-00175
X-00175
X-00125
X-00075
X-0005Y-00225
X-001
X-0015
X-002
X-0025
X-003
X-0035
X-00325Y-00175
X-00275
Y-00275
X-00225
X-00185Y-00285
X-00075Y-00275
X-0006Y-00287
X-00325Y-00275
X-00445Y-00264
Y-00257
Y-0025
Y-00243
X-00425Y-00175
X-00375
X-0035Y00075
X-0036Y0009595
X-002Y00075
X-0015
X-0005
X0005
X001
X0016Y0007
X00165Y00075
X0018Y0009
X002Y0009
X0021Y00015
X00225Y00025
X00275
X00325
X00315Y0009
X003115Y-0004
X003045Y-0005
X002975Y-00035
X002905Y-0003
X002835Y-00025
X00275Y-00075
X00325
X00336Y-00073
X003Y-00125
X0025
X00275Y-00175
X00325
X003Y-00225
X0025
X00275Y-00275
X00315Y-00285
X00225Y-00275
X0019Y-00275
X00175Y-00283
X0015Y-00225
X001
X0005
X0
X00025Y-00175
X00075
X00125
X0015Y-00125
X001
X001035Y-00116
X00086Y-00073
X00075Y-00075
X000615Y-0004
X000545Y-00045
X000475Y-00035
X000405Y-0003
X000335Y-00025
X00025Y-00075
X-00025
X0Y-00125
X0005
X-00025Y-00175
Y-00275
X00025
X00065Y-00285
X00225Y-00175
Y-00075
X00165Y-00063
X0017Y0001
X00175Y0002
X00375Y00025
X00425
X00475
X00525
X00575
X00625
X00675
X007Y00075
X0065
X006
X0055
X005
X0045
X00445Y00095
X00415Y-00063
X00475Y-00075
X00525
X005545Y-00055
X005615Y-0004
X005475Y-00035
X005405Y-0003
X005335Y-00025
X0055Y-00025
X006
X0065
X007
X00665Y-00063
X0065Y-00125
X007
X00675Y-00175
X00625
X00575
X00525
X00475
X00425
X00375
X004Y-00125
X0045
X005
X0055
X006
X006035Y-00116
X00586Y-00073
X00575Y-00075
X006Y-00225
X0065
X007
X00675Y-00275
X00565Y-00285
X00525Y-00275
X00475
X0044Y-00287
X00425Y-00275
X0045Y-00225
X005
X0055
X004
X0035
Y-00125
X003535Y-00116
X00375Y00125
X0044Y00133
X00445Y0014
X0045Y00175
X005
X0055
X006
X0065
X007
X00675Y00225
X00625
X00575
X00525
X00475
X00425
X00375
X004Y00275
X0035
Y00375
X004
X0045
X005
X0055
X006
X0065
X007
X00675Y00425
X00625
X00575
X00525
X00475
X00425
X00375
X003535Y00459
X0045Y00475
X005
X00586Y00502
X006035Y00459
X007Y00475
X00675Y00325
X007Y00275
X0065
X006
X0055
X00565Y0029
X005Y00275
X0044Y00288
X00425Y00325
X00475
Y00125
X004Y00175
X0035
X00675Y00125
X00325
X00275
X003Y00175
X0025
X00275Y00225
X00325
X003Y00275
X00315Y0029
X0025Y00275
X00225Y00325
X00175
X00175Y00292
X0017Y002825
X0015Y00275
X001
X0005
X00065Y0029
X00075Y00225
X00125
X0016Y002
X0018Y00245
X0019Y003
X002Y00375
X0025
X003
X00325Y00425
X00275
X00225
X00175
X00125
X00075
X00025
X-00025
X0Y00475
Y00375
X0005
X001
X0015
X001035Y00459
X00086Y00502
X002Y00475
X0025
X00336Y00502
X00225Y00225
X0019Y001575
Y00145
X00175Y00137
X0017Y001275
X00165Y001225
X00125Y00125
X00075
X001Y00175
X00025Y00225
X-00025
X-00018Y002
X-00033Y00195
X-00043
Y00205
X0Y00275
X-00025Y00325
X-0006Y00288
X-001Y00275
X-0015
X-002
X-00185Y0029
X-00175Y00225
X-00125
X-0015Y00175
X-00125Y00125
X-00175
X-00275
X-0036745Y0012135
Y0013405
Y0014675
Y0015945
X-0033Y00222
X-0032Y00227
X-00315Y00232
X-00325Y00237
X-00275Y00225
X-00225
X-0025Y00275
X-00275Y00325
X-0025Y00375
X-002
X-0015
X-001
X-0005
Y00475
X-0007Y00495
X-00164Y00502
X-001465Y00459
X-00125Y00425
X-00175
X-00225
X-00275
X-0025Y00475
X-00345Y0044
X-0037
X-00378769
X-0038Y00427
X-00388
Y00435
X-00425Y00402538
Y00393769
X-00425Y00385
X-00337Y003765
X-0035Y00315
X-003875Y0025425
X-00433481Y0027975
X-0044225
X-0005Y00175
X-0006Y00133
X-00515Y00132
Y0014
X-00518Y00124
X-00575Y00125
X-00625
X-00605Y00165
X-00591Y00205
X-00586Y00215
X-00581Y0022
X-00576Y00225
X-00571Y0022
X-00566Y00215
X-00561Y0021
X-00587Y0024
X-00582Y00246
X-00589Y002575
X-00586Y0030476
Y0032
X-00567Y00319
X-0056031Y0031881
X-0056Y00326
X-00555Y00333
X-00552Y00347
X-00591
Y0034
X-00615Y00339
Y00347
Y00355
X-00632074Y00364926
X-00632037Y00371963
X-00632Y00379
Y00389
X-00627Y00384
Y00394
X-00653Y00397
Y00385
X-00671Y00384
Y00391
Y00398
Y00405
Y00427
Y00434
Y00441
Y00448
Y00455
Y00462
Y00469
Y00476
Y00483
Y0049
Y00497
Y00504
X-0065Y00475
X-0061865Y00489
X-0058625Y00489
X-0055Y00475
X-0054Y00455
X-00545Y0045
X-0055Y00445
X-00565Y00439
X-00571Y00435
X-00575Y00405
X-00585
Y00395
Y00385
X-00575
X-00575372Y00394372
X-00565Y00395
Y00385
Y00375
X-00575
X-00586117Y00375099
X-00595Y00375
Y00385
Y00395
Y00405
X-00565
X-00515
Y00415
Y00425
Y00435
Y00445
X-0051Y0044
Y0043
Y0042
Y0041
Y004
X-0051Y0039
X-00515Y00395
X-0052Y00371
X-00492Y0034
X-00485
X-004675Y00346231
X-00458731
Y00355
X-004675
X-00452Y0034
X-00451019Y0027975
X-004675Y0025727
X-00464Y00243
X-00485Y00246
X-0047Y0022
X-00465Y00215
X-0047Y0021
X-00464748Y00205
X-00471Y00185
X-00503Y00304
Y00311
X-00509Y00299
X-00568Y00311
X-0059825Y003015
X-0065Y0029
X-00625Y00225
X-0065Y00175
X-00692Y00376
X-00699
X-00706
X-00713
X-0065Y00427
X-00643
X-00622
X-00621Y0044
X-0051Y00462
Y00484
X-0049
X-0047975Y0047
X-004575Y005025
X-00450981Y00435769
Y00427
X-0045975
X-005Y00575
X-00555Y00544
Y00537
Y0053
Y00523
X-00671Y00525
Y00518
Y00511
X-00676565Y00551565
X-00682729Y00547446
X-0069Y00546
X-00697271Y00547446
X-00703435Y00551565
X-00707554Y00557729
X-00709Y00565
X-00707554Y00572271
X-00703435Y00578435
X-00697271Y00582554
X-0069Y00584
X-00682729Y00582554
X-00676565Y00578435
X-00672446Y00572271
X-00671Y00565
X-00672446Y00557729
X-00445Y00544
Y00537
Y0053
Y00523
X-00425Y0058
X-00405
X-00356Y0057
X-0035Y00575
X-00356Y00536
X-003625Y0051
X-003475
X-003325Y0051
X-003175
X-00284Y0055
X-00277Y00545
X-0027Y0054
X-0025Y00575
X-002
X-002025Y0054
X-001955Y00535
X-001885
X-002095Y00545
X-002165Y0055
X-0015Y00575
X-001
X-0005
X-00085Y00512
X-003Y00575
X0
X0005
X000475Y0054
X000405Y00545
X000335Y0055
X000545Y0053
X000615Y00535
X001Y00575
X0015
X002
X0025
X003
X002975Y0054
X002905Y00545
X002835Y0055
X003115Y00535
X003045Y00525
X00165Y00512
X0035Y00575
X004
X0045
X005
X0055
X005475Y0054
X005405Y00545
X005335Y0055
X005615Y00535
X005545Y0052
X00575Y00525
X00625
X00675
X00665Y00512
X00676565Y00551565
X00682729Y00547446
X0069Y00546
X00697271Y00547446
X00703435Y00551565
X00707554Y00557729
X00709Y00565
X00707554Y00572271
X00703435Y00578435
X00697271Y00582554
X0069Y00584
X00682729Y00582554
X00676565Y00578435
X00672446Y00572271
X00671Y00565
X00672446Y00557729
X0065Y00575
X006
X00415Y00512
T03
X0000875Y-0049685
Y-0047145
Y-0044605
Y-0042065
X000115Y-0039175
X-000135
X-002385
X-002635
X-0024125Y-0042065
Y-0044605
Y-0047145
Y-0049685
Y0007815
Y0010355
X0000875
Y0007815
Y0012895
Y0015435
X000115Y0018325
X-000135
X-002385
X-002635
X-0024125Y0015435
Y0012895
T05
X0069Y-00565
X-0069
Y00565
X0069
T06
X-005289Y005372
X-004711
T07
X007125Y-005225
X-007125
Y005225
X007125
T08
X00007Y-0051875
X-00243
Y0005625
X00007
T11
X-005Y00115
T13
X-00325Y-002185
M30
