G04*
G04 #@! TF.GenerationSoftware,Altium Limited,Altium Designer,22.2.1 (43)*
G04*
G04 Layer_Physical_Order=4*
G04 Layer_Color=16711680*
%FSLAX44Y44*%
%MOMM*%
G71*
G04*
G04 #@! TF.SameCoordinates,A4FAE18D-661E-41B9-AA1C-1E8D17E7CC58*
G04*
G04*
G04 #@! TF.FilePolarity,Positive*
G04*
G01*
G75*
%ADD12C,0.2540*%
%ADD18C,0.1524*%
%ADD119C,0.3810*%
G04:AMPARAMS|DCode=128|XSize=3.6mm|YSize=2.2mm|CornerRadius=0.55mm|HoleSize=0mm|Usage=FLASHONLY|Rotation=90.000|XOffset=0mm|YOffset=0mm|HoleType=Round|Shape=RoundedRectangle|*
%AMROUNDEDRECTD128*
21,1,3.6000,1.1000,0,0,90.0*
21,1,2.5000,2.2000,0,0,90.0*
1,1,1.1000,0.5500,1.2500*
1,1,1.1000,0.5500,-1.2500*
1,1,1.1000,-0.5500,-1.2500*
1,1,1.1000,-0.5500,1.2500*
%
%ADD128ROUNDEDRECTD128*%
%ADD129C,2.0000*%
%ADD130O,1.2000X2.1000*%
%ADD131O,1.2000X2.3000*%
%ADD132C,1.1520*%
%ADD133C,5.0000*%
%ADD134C,0.6200*%
%ADD135C,0.5500*%
%ADD136R,0.3200X1.8000*%
%ADD137R,2.0000X3.0000*%
%ADD138R,0.4000X2.7000*%
%ADD139R,7.0000X8.0000*%
%ADD140R,6.0000X6.0000*%
G36*
X647500Y594640D02*
X649348Y594397D01*
X651070Y593684D01*
X652549Y592549D01*
X653683Y591070D01*
X654397Y589348D01*
X654640Y587500D01*
X654651D01*
Y565000D01*
X654651Y565000D01*
X654597D01*
X655033Y559462D01*
X656330Y554060D01*
X658456Y548927D01*
X661358Y544190D01*
X664966Y539966D01*
X669191Y536358D01*
X673927Y533456D01*
X679060Y531330D01*
X684462Y530033D01*
X690000Y529597D01*
Y529651D01*
X690000Y529651D01*
X707778D01*
X708119Y528381D01*
X708027Y528329D01*
X706671Y526973D01*
X705712Y525312D01*
X705216Y523459D01*
Y521541D01*
X705712Y519688D01*
X706671Y518027D01*
X708027Y516671D01*
X709688Y515712D01*
X711541Y515216D01*
X713459D01*
X715312Y515712D01*
X716973Y516671D01*
X718329Y518027D01*
X718381Y518119D01*
X719651Y517778D01*
X719651Y-517778D01*
X718381Y-518119D01*
X718329Y-518027D01*
X716973Y-516671D01*
X715312Y-515712D01*
X713459Y-515216D01*
X711541D01*
X709688Y-515712D01*
X708027Y-516671D01*
X706671Y-518027D01*
X705712Y-519688D01*
X705216Y-521541D01*
Y-523459D01*
X705712Y-525312D01*
X706671Y-526973D01*
X708027Y-528329D01*
X708119Y-528381D01*
X707778Y-529651D01*
X690000D01*
X690000Y-529651D01*
Y-529597D01*
X684462Y-530033D01*
X679060Y-531330D01*
X673927Y-533456D01*
X669191Y-536358D01*
X664966Y-539966D01*
X661358Y-544190D01*
X658456Y-548927D01*
X656330Y-554060D01*
X655033Y-559462D01*
X654597Y-565000D01*
X654651D01*
X654651Y-565000D01*
Y-587500D01*
X654640D01*
X654397Y-589348D01*
X653683Y-591070D01*
X652549Y-592549D01*
X651070Y-593684D01*
X649348Y-594397D01*
X647500Y-594640D01*
Y-594651D01*
X-646230Y-594651D01*
X-647500Y-594640D01*
X-647500Y-594640D01*
X-647500Y-594640D01*
X-649348Y-594397D01*
X-651070Y-593684D01*
X-652549Y-592549D01*
X-653683Y-591070D01*
X-654397Y-589348D01*
X-654640Y-587500D01*
X-654651D01*
Y-565000D01*
X-654651Y-565000D01*
X-654597D01*
X-655033Y-559462D01*
X-656330Y-554060D01*
X-658456Y-548927D01*
X-661358Y-544190D01*
X-664966Y-539966D01*
X-669191Y-536358D01*
X-673927Y-533456D01*
X-679060Y-531330D01*
X-684462Y-530033D01*
X-690000Y-529597D01*
Y-529651D01*
X-690000Y-529651D01*
X-707778D01*
X-708119Y-528381D01*
X-708027Y-528329D01*
X-706671Y-526973D01*
X-705712Y-525312D01*
X-705216Y-523459D01*
Y-521541D01*
X-705712Y-519688D01*
X-706671Y-518027D01*
X-708027Y-516671D01*
X-709688Y-515712D01*
X-711541Y-515216D01*
X-713459D01*
X-715312Y-515712D01*
X-716973Y-516671D01*
X-718329Y-518027D01*
X-718381Y-518119D01*
X-719651Y-517778D01*
X-719651Y382151D01*
X-680000D01*
X-678910Y382368D01*
X-677986Y382986D01*
X-677368Y383910D01*
X-677151Y385000D01*
Y410000D01*
Y422000D01*
Y532120D01*
X-673927Y533456D01*
X-669191Y536358D01*
X-664966Y539966D01*
X-661358Y544190D01*
X-658456Y548927D01*
X-656330Y554060D01*
X-655033Y559462D01*
X-654597Y565000D01*
X-654651D01*
Y587500D01*
X-654640D01*
X-654397Y589348D01*
X-653683Y591070D01*
X-652549Y592549D01*
X-651070Y593684D01*
X-649348Y594397D01*
X-647500Y594640D01*
Y594651D01*
X647500Y594651D01*
Y594640D01*
D02*
G37*
%LPC*%
G36*
X-455530Y586946D02*
Y575270D01*
X-448186D01*
Y578500D01*
X-448480Y580729D01*
X-449340Y582807D01*
X-450709Y584591D01*
X-452493Y585960D01*
X-454571Y586820D01*
X-455530Y586946D01*
D02*
G37*
G36*
X-541930D02*
Y575270D01*
X-534586D01*
Y578500D01*
X-534880Y580729D01*
X-535740Y582807D01*
X-537109Y584591D01*
X-538893Y585960D01*
X-540971Y586820D01*
X-541930Y586946D01*
D02*
G37*
G36*
X-544470D02*
X-545429Y586820D01*
X-547507Y585960D01*
X-549291Y584591D01*
X-550660Y582807D01*
X-551520Y580729D01*
X-551814Y578500D01*
Y575270D01*
X-544470D01*
Y586946D01*
D02*
G37*
G36*
X-458070D02*
X-459029Y586820D01*
X-461107Y585960D01*
X-462891Y584591D01*
X-464260Y582807D01*
X-465120Y580729D01*
X-465414Y578500D01*
Y575270D01*
X-458070D01*
Y586946D01*
D02*
G37*
G36*
X-438750Y576608D02*
X-439500D01*
X-439800Y576548D01*
X-442548D01*
Y574847D01*
X-446916Y570479D01*
X-448186Y571005D01*
Y572730D01*
X-455530D01*
Y561054D01*
X-454571Y561180D01*
X-453128Y561777D01*
X-451858Y561017D01*
Y546184D01*
X-453128Y545423D01*
X-454571Y546020D01*
X-455530Y546147D01*
Y532200D01*
Y518254D01*
X-454571Y518380D01*
X-453128Y518978D01*
X-451858Y518217D01*
Y502750D01*
X-451621Y501561D01*
X-450947Y500552D01*
X-442548Y492153D01*
Y490452D01*
X-439800D01*
X-439500Y490392D01*
X-438750D01*
X-438450Y490452D01*
X-366452D01*
Y506112D01*
X-365182Y506638D01*
X-364921Y506377D01*
X-363350Y505726D01*
X-361650D01*
X-360079Y506377D01*
X-358877Y507579D01*
X-358487Y508519D01*
X-352891Y514115D01*
X-351225D01*
X-350699Y512845D01*
X-351123Y512421D01*
X-351774Y510850D01*
Y509150D01*
X-351123Y507579D01*
X-349921Y506377D01*
X-348350Y505726D01*
X-346650D01*
X-345079Y506377D01*
X-343877Y507579D01*
X-343487Y508519D01*
X-340891Y511115D01*
X-336951D01*
X-336774Y510850D01*
Y509150D01*
X-336385Y508210D01*
Y496109D01*
X-349609Y482885D01*
X-485549D01*
X-485726Y483150D01*
Y484850D01*
X-486377Y486421D01*
X-487579Y487623D01*
X-488519Y488013D01*
X-492253Y491747D01*
X-493513Y492589D01*
X-495000Y492885D01*
X-555061D01*
X-555547Y494058D01*
X-549053Y500552D01*
X-548379Y501561D01*
X-548142Y502750D01*
Y518217D01*
X-546872Y518978D01*
X-545429Y518380D01*
X-544470Y518254D01*
Y532200D01*
Y546147D01*
X-545429Y546020D01*
X-546872Y545423D01*
X-548142Y546184D01*
Y561017D01*
X-546872Y561777D01*
X-545429Y561180D01*
X-544470Y561054D01*
Y572730D01*
X-551814D01*
Y571005D01*
X-553084Y570479D01*
X-557452Y574847D01*
Y576548D01*
X-560200D01*
X-560500Y576608D01*
X-561250D01*
X-561550Y576548D01*
X-633548D01*
Y490452D01*
X-623326D01*
X-622924Y489850D01*
Y488150D01*
X-622273Y486579D01*
X-621071Y485377D01*
X-620131Y484987D01*
X-616397Y481253D01*
X-615137Y480411D01*
X-613650Y480115D01*
X-511790D01*
X-510850Y479726D01*
X-510564D01*
X-510038Y478456D01*
X-534535Y453958D01*
X-535726Y454564D01*
Y455850D01*
X-536377Y457421D01*
X-537579Y458623D01*
X-539150Y459274D01*
X-540850D01*
X-541790Y458885D01*
X-557000D01*
X-558487Y458589D01*
X-559747Y457747D01*
X-573747Y443747D01*
X-574589Y442487D01*
X-574885Y441000D01*
Y436790D01*
X-575274Y435850D01*
Y434150D01*
X-574623Y432579D01*
X-573421Y431377D01*
X-571850Y430726D01*
X-570150D01*
X-568579Y431377D01*
X-567377Y432579D01*
X-566880Y433778D01*
X-565850Y434726D01*
X-564150D01*
X-562579Y435377D01*
X-561377Y436579D01*
X-560987Y437519D01*
X-555270Y443236D01*
X-553772Y442938D01*
X-553623Y442579D01*
X-552421Y441377D01*
X-550850Y440726D01*
X-549564D01*
X-548958Y439535D01*
X-549747Y438747D01*
X-550589Y437487D01*
X-550885Y436000D01*
Y359609D01*
X-551609Y358885D01*
X-583000D01*
X-584487Y358589D01*
X-585747Y357747D01*
X-592481Y351013D01*
X-593421Y350623D01*
X-594623Y349421D01*
X-595274Y347850D01*
Y346150D01*
X-594623Y344579D01*
X-593544Y343500D01*
X-594623Y342421D01*
X-595274Y340850D01*
Y339150D01*
X-594623Y337579D01*
X-593421Y336377D01*
X-591850Y335726D01*
X-590150D01*
X-588579Y336377D01*
X-587377Y337579D01*
X-586987Y338519D01*
X-577391Y348115D01*
X-556451D01*
X-556274Y347850D01*
Y346150D01*
X-555885Y345210D01*
Y342000D01*
X-555589Y340513D01*
X-554747Y339253D01*
X-553885Y338391D01*
Y289038D01*
X-555058Y288552D01*
X-564115Y297609D01*
Y309210D01*
X-563726Y310150D01*
Y311850D01*
X-564377Y313421D01*
X-564833Y313877D01*
X-564846Y313898D01*
X-564579Y315377D01*
X-563377Y316579D01*
X-562726Y318150D01*
Y319850D01*
X-563138Y320845D01*
X-562412Y322115D01*
X-561790D01*
X-560850Y321726D01*
X-559150D01*
X-557579Y322377D01*
X-556377Y323579D01*
X-555726Y325150D01*
Y326850D01*
X-556377Y328421D01*
X-557579Y329623D01*
X-559150Y330274D01*
X-560850D01*
X-561790Y329885D01*
X-588000D01*
X-589487Y329589D01*
X-590747Y328747D01*
X-599845Y319648D01*
X-601115Y320174D01*
Y345000D01*
X-601411Y346487D01*
X-602253Y347747D01*
X-610987Y356481D01*
X-611377Y357421D01*
X-612579Y358623D01*
X-614150Y359274D01*
X-615850D01*
X-616845Y358862D01*
X-618115Y359588D01*
Y389000D01*
X-618411Y390487D01*
X-619253Y391747D01*
X-622987Y395481D01*
X-623377Y396421D01*
X-624579Y397623D01*
X-626150Y398274D01*
X-627850D01*
X-629421Y397623D01*
X-630623Y396421D01*
X-631274Y394850D01*
Y393274D01*
X-632850D01*
X-634421Y392623D01*
X-635623Y391421D01*
X-636013Y390481D01*
X-645747Y380747D01*
X-646589Y379487D01*
X-646885Y378000D01*
Y338757D01*
X-646589Y337271D01*
X-645747Y336011D01*
X-632685Y322948D01*
Y288870D01*
X-632389Y287383D01*
X-631547Y286123D01*
X-613877Y268453D01*
X-612617Y267611D01*
X-611130Y267315D01*
X-588809D01*
X-586885Y265391D01*
Y255609D01*
X-589747Y252747D01*
X-590589Y251487D01*
X-590885Y250000D01*
Y241790D01*
X-591274Y240850D01*
Y239150D01*
X-590623Y237579D01*
X-589421Y236377D01*
X-588355Y235935D01*
X-587941Y234553D01*
X-593747Y228747D01*
X-594589Y227487D01*
X-594885Y226000D01*
Y206790D01*
X-595274Y205850D01*
Y204150D01*
X-594623Y202579D01*
X-593421Y201377D01*
X-591850Y200726D01*
X-590150D01*
X-588579Y201377D01*
X-587377Y202579D01*
X-586726Y204150D01*
Y205850D01*
X-587115Y206790D01*
Y210549D01*
X-586850Y210726D01*
X-585150D01*
X-583579Y211377D01*
X-582377Y212579D01*
X-581726Y214150D01*
Y215726D01*
X-580150D01*
X-578579Y216377D01*
X-577377Y217579D01*
X-576726Y219150D01*
Y220726D01*
X-575274D01*
Y219150D01*
X-574623Y217579D01*
X-573421Y216377D01*
X-571850Y215726D01*
X-570274D01*
Y214150D01*
X-569623Y212579D01*
X-568421Y211377D01*
X-566850Y210726D01*
X-565274D01*
Y209150D01*
X-564623Y207579D01*
X-563421Y206377D01*
X-561850Y205726D01*
X-560150D01*
X-559885Y205549D01*
Y18000D01*
X-559589Y16514D01*
X-558747Y15253D01*
X-526747Y-16747D01*
X-525487Y-17589D01*
X-524000Y-17885D01*
X-463163D01*
X-462417Y-19155D01*
X-462635Y-20250D01*
Y-20894D01*
X-463905Y-21287D01*
X-464829Y-20363D01*
X-466400Y-19712D01*
X-468100D01*
X-469671Y-20363D01*
X-470873Y-21565D01*
X-470996Y-21862D01*
X-472371D01*
X-472377Y-21848D01*
X-473579Y-20645D01*
X-475150Y-19994D01*
X-476850D01*
X-478421Y-20645D01*
X-479197Y-21421D01*
X-479972Y-21729D01*
X-480828Y-21438D01*
X-481579Y-20688D01*
X-483150Y-20037D01*
X-484850D01*
X-486421Y-20688D01*
X-487623Y-21890D01*
X-487691Y-22054D01*
X-489066D01*
X-489127Y-21907D01*
X-490329Y-20705D01*
X-491900Y-20054D01*
X-493600D01*
X-495171Y-20705D01*
X-496373Y-21907D01*
X-497024Y-23478D01*
Y-25178D01*
X-496635Y-26118D01*
Y-76291D01*
X-497597Y-77253D01*
X-498439Y-78513D01*
X-498735Y-80000D01*
Y-297630D01*
X-499908Y-298116D01*
X-500887Y-297137D01*
X-502315Y-296182D01*
X-504000Y-295847D01*
X-556801D01*
X-557182Y-294577D01*
X-549053Y-286448D01*
X-548379Y-285439D01*
X-548142Y-284250D01*
Y-222750D01*
X-548379Y-221561D01*
X-549053Y-220553D01*
X-557452Y-212153D01*
Y-210452D01*
X-560200D01*
X-560500Y-210392D01*
X-561250D01*
X-561550Y-210452D01*
X-633548D01*
Y-296548D01*
X-592682D01*
X-592156Y-297818D01*
X-592963Y-298625D01*
X-593918Y-300053D01*
X-594253Y-301738D01*
Y-303952D01*
X-594498D01*
Y-304460D01*
X-598990D01*
Y-314456D01*
X-599652Y-315452D01*
X-600260Y-315452D01*
X-625748D01*
Y-351548D01*
X-599652D01*
Y-328536D01*
X-598990Y-327540D01*
X-598382Y-327540D01*
X-596120D01*
Y-316000D01*
X-594498D01*
Y-327540D01*
X-594498D01*
Y-328048D01*
X-578735D01*
Y-329701D01*
X-579024Y-330400D01*
Y-332100D01*
X-578373Y-333671D01*
X-577171Y-334873D01*
X-575600Y-335524D01*
X-574275D01*
X-574124Y-335750D01*
Y-337450D01*
X-573473Y-339021D01*
X-572271Y-340223D01*
X-570700Y-340874D01*
X-569000D01*
X-567429Y-340223D01*
X-566227Y-339021D01*
X-565576Y-337450D01*
Y-337195D01*
X-564306Y-336596D01*
X-564124Y-336746D01*
Y-337450D01*
X-563473Y-339021D01*
X-562271Y-340223D01*
X-560700Y-340874D01*
X-559000D01*
X-557429Y-340223D01*
X-556227Y-339021D01*
X-555576Y-337450D01*
Y-335750D01*
X-555965Y-334810D01*
Y-329002D01*
X-555202Y-328048D01*
X-555005D01*
X-553735Y-329002D01*
Y-329701D01*
X-554024Y-330400D01*
Y-332100D01*
X-553373Y-333671D01*
X-552171Y-334873D01*
X-550600Y-335524D01*
X-548900D01*
X-547329Y-334873D01*
X-546127Y-333671D01*
X-545476Y-332100D01*
Y-330400D01*
X-545924Y-329318D01*
X-545476Y-328048D01*
X-545202D01*
Y-327540D01*
X-541120D01*
Y-316000D01*
X-538580D01*
Y-327540D01*
X-536120D01*
Y-316000D01*
X-533580D01*
Y-327540D01*
X-531120D01*
Y-316000D01*
X-528580D01*
Y-327540D01*
X-526120D01*
Y-316000D01*
X-523580D01*
Y-327540D01*
X-521120D01*
Y-316000D01*
X-518580D01*
Y-327540D01*
X-516120D01*
Y-316000D01*
X-513580D01*
Y-327540D01*
X-511120D01*
Y-316000D01*
X-509499D01*
Y-327540D01*
X-509498D01*
Y-328048D01*
X-475202D01*
Y-328048D01*
X-474498D01*
Y-328048D01*
X-450202D01*
Y-328048D01*
X-449694Y-327540D01*
X-445710Y-327540D01*
X-445048Y-328536D01*
Y-351548D01*
X-418952D01*
Y-315452D01*
X-444440D01*
X-445048Y-315452D01*
X-445710Y-314456D01*
Y-304460D01*
X-450202D01*
Y-303952D01*
X-450965D01*
Y-288225D01*
X-449696Y-287699D01*
X-442548Y-294847D01*
Y-296548D01*
X-439800D01*
X-439500Y-296608D01*
X-438750D01*
X-438450Y-296548D01*
X-366452D01*
Y-210452D01*
X-438450D01*
X-438750Y-210392D01*
X-439500D01*
X-439800Y-210452D01*
X-442548D01*
Y-212153D01*
X-449696Y-219301D01*
X-450965Y-218775D01*
Y-81609D01*
X-424503Y-55147D01*
X-423661Y-53886D01*
X-423365Y-52400D01*
Y-26445D01*
X-422251Y-26158D01*
X-422095Y-26153D01*
X-420921Y-27327D01*
X-419350Y-27978D01*
X-417650D01*
X-416079Y-27327D01*
X-414877Y-26125D01*
X-414226Y-24554D01*
Y-22854D01*
X-414877Y-21283D01*
X-416079Y-20081D01*
X-417019Y-19691D01*
X-423652Y-13058D01*
X-423166Y-11885D01*
X-333120D01*
X-331634Y-11589D01*
X-330373Y-10747D01*
X-326519Y-6892D01*
X-325579Y-6503D01*
X-324377Y-5301D01*
X-323726Y-3730D01*
Y-2030D01*
X-324377Y-459D01*
X-325579Y743D01*
X-327150Y1394D01*
X-328850D01*
X-330421Y743D01*
X-331623Y-459D01*
X-332013Y-1399D01*
X-334729Y-4115D01*
X-360969D01*
X-361226Y-3730D01*
Y-2030D01*
X-361877Y-459D01*
X-363079Y743D01*
X-364650Y1394D01*
X-366350D01*
X-367290Y1005D01*
X-408726D01*
Y2449D01*
X-409377Y4020D01*
X-410579Y5222D01*
X-412150Y5873D01*
X-413850D01*
X-415421Y5222D01*
X-416623Y4020D01*
X-417274Y2449D01*
Y1005D01*
X-521269D01*
X-543115Y22852D01*
Y26549D01*
X-542850Y26726D01*
X-541150D01*
X-540210Y27115D01*
X-538451D01*
X-538274Y26850D01*
Y25150D01*
X-537623Y23579D01*
X-536421Y22377D01*
X-534850Y21726D01*
X-533150D01*
X-531579Y22377D01*
X-530377Y23579D01*
X-529987Y24519D01*
X-528108Y26398D01*
X-526730Y25980D01*
X-526589Y25271D01*
X-525747Y24011D01*
X-510989Y9253D01*
X-509729Y8411D01*
X-508243Y8115D01*
X-296609D01*
X-295747Y7253D01*
X-294487Y6411D01*
X-293000Y6115D01*
X-286790D01*
X-285850Y5726D01*
X-284150D01*
X-282579Y6377D01*
X-281377Y7579D01*
X-280726Y9150D01*
Y10850D01*
X-281377Y12421D01*
X-282579Y13623D01*
X-284150Y14274D01*
X-285726D01*
Y15726D01*
X-284150D01*
X-282579Y16377D01*
X-281377Y17579D01*
X-280726Y19150D01*
Y20850D01*
X-281377Y22421D01*
X-282579Y23623D01*
X-284150Y24274D01*
X-285850D01*
X-286790Y23885D01*
X-293000D01*
X-294487Y23589D01*
X-295747Y22747D01*
X-296609Y21885D01*
X-405549D01*
X-405726Y22150D01*
Y23850D01*
X-406115Y24790D01*
Y33000D01*
X-406411Y34487D01*
X-407253Y35747D01*
X-408115Y36609D01*
Y142000D01*
X-408411Y143487D01*
X-409253Y144747D01*
X-464059Y199553D01*
X-463571Y200861D01*
X-462958Y201115D01*
X-452709D01*
X-371463Y119869D01*
X-371073Y118929D01*
X-369871Y117727D01*
X-368300Y117076D01*
X-366600D01*
X-365029Y117727D01*
X-363827Y118929D01*
X-363176Y120500D01*
Y122200D01*
X-363827Y123771D01*
X-365029Y124973D01*
X-365969Y125363D01*
X-369508Y128902D01*
X-368788Y129978D01*
X-368300Y129776D01*
X-366600D01*
X-365029Y130427D01*
X-363827Y131629D01*
X-363176Y133200D01*
Y134900D01*
X-363827Y136471D01*
X-365029Y137673D01*
X-365969Y138063D01*
X-369508Y141602D01*
X-368788Y142678D01*
X-368300Y142476D01*
X-366600D01*
X-365029Y143127D01*
X-363827Y144329D01*
X-363176Y145900D01*
Y147600D01*
X-363827Y149171D01*
X-365029Y150373D01*
X-365969Y150763D01*
X-369508Y154302D01*
X-368788Y155378D01*
X-368300Y155176D01*
X-366600D01*
X-365029Y155827D01*
X-363827Y157029D01*
X-363176Y158600D01*
Y160300D01*
X-363827Y161871D01*
X-365029Y163073D01*
X-365969Y163463D01*
X-425253Y222747D01*
X-426513Y223589D01*
X-428000Y223885D01*
X-468210D01*
X-469150Y224274D01*
X-470850D01*
X-472421Y223623D01*
X-473623Y222421D01*
X-474274Y220850D01*
Y219150D01*
X-473623Y217579D01*
X-472421Y216377D01*
X-470850Y215726D01*
X-469274D01*
Y214274D01*
X-470850D01*
X-472421Y213623D01*
X-473623Y212421D01*
X-474065Y211355D01*
X-475447Y210941D01*
X-486115Y221609D01*
Y240336D01*
X-485134Y241142D01*
X-485000Y241115D01*
X-483513Y241411D01*
X-482253Y242253D01*
X-481411Y243513D01*
X-481403Y243552D01*
X-481377Y243579D01*
X-480726Y245150D01*
Y246850D01*
X-481115Y247790D01*
Y338210D01*
X-480726Y339150D01*
Y340850D01*
X-481377Y342421D01*
X-482579Y343623D01*
X-482629Y343877D01*
X-472917Y353590D01*
X-471419Y353292D01*
X-471123Y352579D01*
X-469921Y351377D01*
X-469743Y351303D01*
Y349928D01*
X-469921Y349854D01*
X-471123Y348652D01*
X-471774Y347081D01*
Y345381D01*
X-471123Y343810D01*
X-469921Y342608D01*
X-468350Y341957D01*
X-466650D01*
X-465079Y342608D01*
X-463877Y343810D01*
X-463803Y343988D01*
X-462428D01*
X-462355Y343810D01*
X-461152Y342608D01*
X-459581Y341957D01*
X-457881D01*
X-456310Y342608D01*
X-455108Y343810D01*
X-454457Y345381D01*
Y347081D01*
X-455108Y348652D01*
X-456310Y349854D01*
X-456488Y349928D01*
Y351303D01*
X-456310Y351377D01*
X-455108Y352579D01*
X-454457Y354150D01*
Y355850D01*
X-455108Y357421D01*
X-456310Y358623D01*
X-457881Y359274D01*
X-459581D01*
X-461152Y358623D01*
X-462355Y357421D01*
X-462428Y357243D01*
X-463803D01*
X-463877Y357421D01*
X-465079Y358623D01*
X-465792Y358918D01*
X-466090Y360417D01*
X-453891Y372615D01*
X-338790D01*
X-337850Y372226D01*
X-336150D01*
X-335155Y372638D01*
X-333885Y371912D01*
Y223790D01*
X-334274Y222850D01*
Y221150D01*
X-333885Y220210D01*
Y88500D01*
X-333589Y87013D01*
X-332747Y85753D01*
X-220513Y-26481D01*
X-220385Y-26790D01*
Y-78652D01*
X-221548D01*
Y-79160D01*
X-222230D01*
Y-95200D01*
Y-111240D01*
X-221548D01*
Y-111748D01*
X-183452D01*
Y-111240D01*
X-182770D01*
Y-95200D01*
Y-79160D01*
X-183452D01*
Y-78652D01*
X-184615D01*
Y-41790D01*
X-184226Y-40850D01*
Y-39150D01*
X-184615Y-38210D01*
Y-29500D01*
X-184911Y-28013D01*
X-185753Y-26753D01*
X-311115Y98609D01*
Y230210D01*
X-310726Y231150D01*
Y232850D01*
X-311115Y233790D01*
X-311115Y448391D01*
X-262253Y497253D01*
X-261411Y498513D01*
X-261115Y500000D01*
Y536391D01*
X-246391Y551115D01*
X-220951D01*
X-220774Y550850D01*
Y549150D01*
X-220385Y548210D01*
Y496348D01*
X-221548D01*
Y495840D01*
X-222230D01*
Y479800D01*
Y463760D01*
X-221548D01*
Y463252D01*
X-183452D01*
Y463760D01*
X-182770D01*
Y479800D01*
Y495840D01*
X-183452D01*
Y496348D01*
X-184615D01*
Y533210D01*
X-184226Y534150D01*
Y535850D01*
X-184877Y537421D01*
X-186079Y538623D01*
X-187019Y539013D01*
X-205753Y557747D01*
X-207013Y558589D01*
X-208500Y558885D01*
X-248000D01*
X-249487Y558589D01*
X-250747Y557747D01*
X-266123Y542371D01*
X-266377Y542421D01*
X-267579Y543623D01*
X-269150Y544274D01*
X-270850D01*
X-271519Y543997D01*
X-272726Y544872D01*
Y545850D01*
X-273377Y547421D01*
X-274579Y548623D01*
X-276150Y549274D01*
X-277850D01*
X-278519Y548997D01*
X-279726Y549872D01*
Y550850D01*
X-280377Y552421D01*
X-281579Y553623D01*
X-283150Y554274D01*
X-284850D01*
X-286421Y553623D01*
X-287623Y552421D01*
X-288274Y550850D01*
Y549150D01*
X-287885Y548210D01*
Y505852D01*
X-332747Y460989D01*
X-333589Y459729D01*
X-333885Y458243D01*
Y381088D01*
X-335155Y380362D01*
X-336150Y380774D01*
X-337850D01*
X-338790Y380385D01*
X-421908D01*
X-422301Y381655D01*
X-421377Y382579D01*
X-420726Y384150D01*
Y385850D01*
X-421377Y387421D01*
X-422579Y388623D01*
X-422757Y388697D01*
Y390072D01*
X-422579Y390145D01*
X-421377Y391348D01*
X-420726Y392919D01*
Y394619D01*
X-421377Y396190D01*
X-422579Y397392D01*
X-422757Y397466D01*
Y398840D01*
X-422579Y398914D01*
X-421377Y400117D01*
X-420726Y401688D01*
Y403388D01*
X-421377Y404959D01*
X-422579Y406161D01*
X-424150Y406812D01*
X-425850D01*
X-427421Y406161D01*
X-428623Y404959D01*
X-429274Y403388D01*
Y401688D01*
X-428623Y400117D01*
X-427421Y398914D01*
X-427243Y398840D01*
Y397466D01*
X-427421Y397392D01*
X-428623Y396190D01*
X-429274Y394619D01*
Y392919D01*
X-428623Y391348D01*
X-427421Y390145D01*
X-427243Y390072D01*
Y388697D01*
X-427421Y388623D01*
X-428623Y387421D01*
X-429274Y385850D01*
Y384150D01*
X-428623Y382579D01*
X-427699Y381655D01*
X-428092Y380385D01*
X-455500D01*
X-456987Y380089D01*
X-458247Y379247D01*
X-481942Y355552D01*
X-483115Y356038D01*
Y444391D01*
X-461391Y466115D01*
X-334000D01*
X-332513Y466411D01*
X-331253Y467253D01*
X-305253Y493253D01*
X-304411Y494513D01*
X-304115Y496000D01*
Y513000D01*
X-304411Y514487D01*
X-305253Y515747D01*
X-310253Y520747D01*
X-311513Y521589D01*
X-313000Y521885D01*
X-354500D01*
X-355987Y521589D01*
X-357247Y520747D01*
X-363981Y514013D01*
X-364921Y513623D01*
X-365182Y513362D01*
X-366452Y513888D01*
Y576548D01*
X-438450D01*
X-438750Y576608D01*
D02*
G37*
G36*
X-355150Y574274D02*
X-356850D01*
X-358421Y573623D01*
X-359623Y572421D01*
X-360274Y570850D01*
Y569150D01*
X-359623Y567579D01*
X-358421Y566377D01*
X-356850Y565726D01*
X-355150D01*
X-353579Y566377D01*
X-352377Y567579D01*
X-351726Y569150D01*
Y570850D01*
X-352377Y572421D01*
X-353579Y573623D01*
X-355150Y574274D01*
D02*
G37*
G36*
X-534586Y572730D02*
X-541930D01*
Y561054D01*
X-540971Y561180D01*
X-538893Y562040D01*
X-537109Y563409D01*
X-535740Y565193D01*
X-534880Y567271D01*
X-534586Y569500D01*
Y572730D01*
D02*
G37*
G36*
X-458070D02*
X-465414D01*
Y569500D01*
X-465120Y567271D01*
X-464260Y565193D01*
X-462891Y563409D01*
X-461107Y562040D01*
X-459029Y561180D01*
X-458070Y561054D01*
Y572730D01*
D02*
G37*
G36*
Y546147D02*
X-459029Y546020D01*
X-461107Y545160D01*
X-462891Y543791D01*
X-464260Y542007D01*
X-465120Y539929D01*
X-465257Y538888D01*
X-466561Y538717D01*
X-467053Y539904D01*
X-468396Y541247D01*
X-470150Y541974D01*
X-472050D01*
X-473804Y541247D01*
X-475147Y539904D01*
X-475874Y538150D01*
Y536250D01*
X-475147Y534496D01*
X-473804Y533153D01*
X-472050Y532426D01*
X-470150D01*
X-468396Y533153D01*
X-467053Y534496D01*
X-466684Y535387D01*
X-465414Y535134D01*
Y533470D01*
X-458070D01*
Y546147D01*
D02*
G37*
G36*
X-541930D02*
Y533470D01*
X-534586D01*
Y535134D01*
X-533316Y535387D01*
X-532947Y534496D01*
X-531604Y533153D01*
X-529850Y532426D01*
X-527950D01*
X-526196Y533153D01*
X-524853Y534496D01*
X-524126Y536250D01*
Y538150D01*
X-524853Y539904D01*
X-526196Y541247D01*
X-527950Y541974D01*
X-529850D01*
X-531604Y541247D01*
X-532947Y539904D01*
X-533439Y538717D01*
X-534743Y538888D01*
X-534880Y539929D01*
X-535740Y542007D01*
X-537109Y543791D01*
X-538893Y545160D01*
X-540971Y546020D01*
X-541930Y546147D01*
D02*
G37*
G36*
X-534586Y530930D02*
X-541930D01*
Y518254D01*
X-540971Y518380D01*
X-538893Y519240D01*
X-537109Y520609D01*
X-535740Y522393D01*
X-534880Y524471D01*
X-534586Y526700D01*
Y530930D01*
D02*
G37*
G36*
X-458070Y530930D02*
X-465414D01*
Y526700D01*
X-465120Y524471D01*
X-464260Y522393D01*
X-462891Y520609D01*
X-461107Y519240D01*
X-459029Y518380D01*
X-458070Y518254D01*
Y530930D01*
D02*
G37*
G36*
X665850Y516274D02*
X664150D01*
X663210Y515885D01*
X602000D01*
X600513Y515589D01*
X599253Y514747D01*
X593753Y509247D01*
X592911Y507987D01*
X592615Y506500D01*
Y502674D01*
X591345Y502148D01*
X590013Y503481D01*
X589623Y504421D01*
X588421Y505623D01*
X586850Y506274D01*
X585150D01*
X583579Y505623D01*
X582377Y504421D01*
X581987Y503481D01*
X579753Y501247D01*
X578911Y499987D01*
X578615Y498500D01*
Y496348D01*
X577452D01*
Y495840D01*
X576770D01*
Y479800D01*
Y463760D01*
X577452D01*
Y463252D01*
X601548D01*
Y463760D01*
X602230D01*
Y479800D01*
Y495840D01*
X601548D01*
Y496348D01*
X600385D01*
Y504891D01*
X603609Y508115D01*
X663210D01*
X664150Y507726D01*
X665850D01*
X667421Y508377D01*
X668623Y509579D01*
X669274Y511150D01*
Y512850D01*
X668623Y514421D01*
X667421Y515623D01*
X665850Y516274D01*
D02*
G37*
G36*
X415850D02*
X414150D01*
X413210Y515885D01*
X352000D01*
X350513Y515589D01*
X349253Y514747D01*
X343753Y509247D01*
X342911Y507987D01*
X342615Y506500D01*
Y502674D01*
X341345Y502148D01*
X340013Y503481D01*
X339623Y504421D01*
X338421Y505623D01*
X336850Y506274D01*
X335150D01*
X333579Y505623D01*
X332377Y504421D01*
X331987Y503481D01*
X329753Y501247D01*
X328911Y499987D01*
X328615Y498500D01*
Y496348D01*
X327452D01*
Y495840D01*
X326770D01*
Y479800D01*
Y463760D01*
X327452D01*
Y463252D01*
X351548D01*
Y463760D01*
X352230D01*
Y479800D01*
Y495840D01*
X351548D01*
Y496348D01*
X350385D01*
Y504891D01*
X353609Y508115D01*
X413210D01*
X414150Y507726D01*
X415850D01*
X417421Y508377D01*
X418623Y509579D01*
X419274Y511150D01*
Y512850D01*
X418623Y514421D01*
X417421Y515623D01*
X415850Y516274D01*
D02*
G37*
G36*
X165850D02*
X164150D01*
X163210Y515885D01*
X102000D01*
X100513Y515589D01*
X99253Y514747D01*
X93753Y509247D01*
X92911Y507987D01*
X92615Y506500D01*
Y502674D01*
X91345Y502148D01*
X90013Y503481D01*
X89623Y504421D01*
X88421Y505623D01*
X86850Y506274D01*
X85150D01*
X83579Y505623D01*
X82377Y504421D01*
X81987Y503481D01*
X79753Y501247D01*
X78911Y499987D01*
X78615Y498500D01*
Y496348D01*
X77452D01*
Y495840D01*
X76770D01*
Y479800D01*
Y463760D01*
X77452D01*
Y463252D01*
X101548D01*
Y463760D01*
X102230D01*
Y479800D01*
Y495840D01*
X101548D01*
Y496348D01*
X100385D01*
Y504891D01*
X103609Y508115D01*
X163210D01*
X164150Y507726D01*
X165850D01*
X167421Y508377D01*
X168623Y509579D01*
X169274Y511150D01*
Y512850D01*
X168623Y514421D01*
X167421Y515623D01*
X165850Y516274D01*
D02*
G37*
G36*
X-84150D02*
X-85850D01*
X-86790Y515885D01*
X-148000D01*
X-149487Y515589D01*
X-150747Y514747D01*
X-156247Y509247D01*
X-157089Y507987D01*
X-157385Y506500D01*
Y502674D01*
X-158655Y502148D01*
X-159987Y503481D01*
X-160377Y504421D01*
X-161579Y505623D01*
X-163150Y506274D01*
X-164850D01*
X-166421Y505623D01*
X-167623Y504421D01*
X-168013Y503481D01*
X-170247Y501247D01*
X-171089Y499987D01*
X-171385Y498500D01*
Y496348D01*
X-172548D01*
Y495840D01*
X-173230D01*
Y479800D01*
Y463760D01*
X-172548D01*
Y463252D01*
X-148452D01*
Y463760D01*
X-147770D01*
Y479800D01*
Y495840D01*
X-148452D01*
Y496348D01*
X-149615D01*
Y504891D01*
X-146391Y508115D01*
X-86790D01*
X-85850Y507726D01*
X-84150D01*
X-82579Y508377D01*
X-81377Y509579D01*
X-80726Y511150D01*
Y512850D01*
X-81377Y514421D01*
X-82579Y515623D01*
X-84150Y516274D01*
D02*
G37*
G36*
X-141960Y495840D02*
X-145230D01*
Y481070D01*
X-141960D01*
Y495840D01*
D02*
G37*
G36*
X275230D02*
X271960D01*
Y481070D01*
X275230D01*
Y495840D01*
D02*
G37*
G36*
X25230D02*
X21960D01*
Y481070D01*
X25230D01*
Y495840D01*
D02*
G37*
G36*
X-224770D02*
X-228040D01*
Y481070D01*
X-224770D01*
Y495840D01*
D02*
G37*
G36*
X525230D02*
X521960D01*
Y481070D01*
X525230D01*
Y495840D01*
D02*
G37*
G36*
X358040D02*
X354770D01*
Y481070D01*
X358040D01*
Y495840D01*
D02*
G37*
G36*
X108040D02*
X104770D01*
Y481070D01*
X108040D01*
Y495840D01*
D02*
G37*
G36*
X608040D02*
X604770D01*
Y481070D01*
X608040D01*
Y495840D01*
D02*
G37*
G36*
Y478530D02*
X604770D01*
Y463760D01*
X608040D01*
Y478530D01*
D02*
G37*
G36*
X574230Y495840D02*
X569770D01*
Y479800D01*
Y463760D01*
X574230D01*
Y479800D01*
Y495840D01*
D02*
G37*
G36*
X525230Y478530D02*
X521960D01*
Y463760D01*
X525230D01*
Y478530D01*
D02*
G37*
G36*
X358040Y478530D02*
X354770D01*
Y463760D01*
X358040D01*
Y478530D01*
D02*
G37*
G36*
X324230Y495840D02*
X319770D01*
Y479800D01*
Y463760D01*
X324230D01*
Y479800D01*
Y495840D01*
D02*
G37*
G36*
X275230Y478530D02*
X271960D01*
Y463760D01*
X275230D01*
Y478530D01*
D02*
G37*
G36*
X108040Y478530D02*
X104770D01*
Y463760D01*
X108040D01*
Y478530D01*
D02*
G37*
G36*
X74230Y495840D02*
X69770D01*
Y479800D01*
Y463760D01*
X74230D01*
Y479800D01*
Y495840D01*
D02*
G37*
G36*
X25230Y478530D02*
X21960D01*
Y463760D01*
X25230D01*
Y478530D01*
D02*
G37*
G36*
X-141960D02*
X-145230D01*
Y463760D01*
X-141960D01*
Y478530D01*
D02*
G37*
G36*
X-175770Y495840D02*
X-180230D01*
Y479800D01*
Y463760D01*
X-175770D01*
Y479800D01*
Y495840D01*
D02*
G37*
G36*
X-224770Y478530D02*
X-228040D01*
Y463760D01*
X-224770D01*
Y478530D01*
D02*
G37*
G36*
X534350Y554274D02*
X532650D01*
X531079Y553623D01*
X529877Y552421D01*
X529226Y550850D01*
Y549150D01*
X529615Y548210D01*
Y496348D01*
X528452D01*
Y495840D01*
X527770D01*
Y479800D01*
Y463760D01*
X528452D01*
Y463252D01*
X566548D01*
Y463760D01*
X567230D01*
Y479800D01*
Y495840D01*
X566548D01*
Y496348D01*
X565385D01*
Y533210D01*
X565774Y534150D01*
Y535850D01*
X565123Y537421D01*
X563921Y538623D01*
X562350Y539274D01*
X560650D01*
X559079Y538623D01*
X557877Y537421D01*
X557226Y535850D01*
Y534150D01*
X557615Y533210D01*
Y524588D01*
X556345Y523862D01*
X555350Y524274D01*
X553650D01*
X552655Y523862D01*
X551385Y524588D01*
Y538210D01*
X551774Y539150D01*
Y540850D01*
X551123Y542421D01*
X549921Y543623D01*
X548350Y544274D01*
X546650D01*
X545980Y543997D01*
X544774Y544872D01*
Y545850D01*
X544123Y547421D01*
X542921Y548623D01*
X541350Y549274D01*
X539650D01*
X538980Y548997D01*
X537774Y549872D01*
Y550850D01*
X537123Y552421D01*
X535921Y553623D01*
X534350Y554274D01*
D02*
G37*
G36*
X284350D02*
X282650D01*
X281079Y553623D01*
X279877Y552421D01*
X279226Y550850D01*
Y549150D01*
X279615Y548210D01*
Y496348D01*
X278452D01*
Y495840D01*
X277770D01*
Y479800D01*
Y463760D01*
X278452D01*
Y463252D01*
X316548D01*
Y463760D01*
X317230D01*
Y479800D01*
Y495840D01*
X316548D01*
Y496348D01*
X315385D01*
Y533210D01*
X315774Y534150D01*
Y535850D01*
X315123Y537421D01*
X313921Y538623D01*
X312350Y539274D01*
X310650D01*
X309079Y538623D01*
X307877Y537421D01*
X307226Y535850D01*
Y534150D01*
X307615Y533210D01*
Y529588D01*
X306345Y528862D01*
X305350Y529274D01*
X303650D01*
X302655Y528862D01*
X301385Y529588D01*
Y538210D01*
X301774Y539150D01*
Y540850D01*
X301123Y542421D01*
X299921Y543623D01*
X298350Y544274D01*
X296650D01*
X295980Y543997D01*
X294774Y544872D01*
Y545850D01*
X294123Y547421D01*
X292921Y548623D01*
X291350Y549274D01*
X289650D01*
X288981Y548997D01*
X287774Y549872D01*
Y550850D01*
X287123Y552421D01*
X285921Y553623D01*
X284350Y554274D01*
D02*
G37*
G36*
X34350D02*
X32650D01*
X31079Y553623D01*
X29877Y552421D01*
X29226Y550850D01*
Y549150D01*
X29615Y548210D01*
Y496348D01*
X28452D01*
Y495840D01*
X27770D01*
Y479800D01*
Y463760D01*
X28452D01*
Y463252D01*
X66548D01*
Y463760D01*
X67230D01*
Y479800D01*
Y495840D01*
X66548D01*
Y496348D01*
X65385D01*
Y533210D01*
X65774Y534150D01*
Y535850D01*
X65123Y537421D01*
X63921Y538623D01*
X62350Y539274D01*
X60650D01*
X59079Y538623D01*
X57877Y537421D01*
X57226Y535850D01*
Y534872D01*
X56019Y533997D01*
X55350Y534274D01*
X53650D01*
X52655Y533862D01*
X51385Y534588D01*
Y538210D01*
X51774Y539150D01*
Y540850D01*
X51123Y542421D01*
X49921Y543623D01*
X48350Y544274D01*
X46650D01*
X45981Y543997D01*
X44774Y544872D01*
Y545850D01*
X44123Y547421D01*
X42921Y548623D01*
X41350Y549274D01*
X39650D01*
X38981Y548997D01*
X37774Y549872D01*
Y550850D01*
X37123Y552421D01*
X35921Y553623D01*
X34350Y554274D01*
D02*
G37*
G36*
X-369150Y444274D02*
X-370850D01*
X-372421Y443623D01*
X-373623Y442421D01*
X-373697Y442243D01*
X-375072D01*
X-375146Y442421D01*
X-376348Y443623D01*
X-377919Y444274D01*
X-379619D01*
X-381190Y443623D01*
X-382392Y442421D01*
X-383043Y440850D01*
Y439150D01*
X-382392Y437579D01*
X-381190Y436377D01*
X-379619Y435726D01*
X-377919D01*
X-376348Y436377D01*
X-375146Y437579D01*
X-375072Y437757D01*
X-373697D01*
X-373623Y437579D01*
X-372421Y436377D01*
X-370850Y435726D01*
X-369150D01*
X-367579Y436377D01*
X-366377Y437579D01*
X-365726Y439150D01*
Y440850D01*
X-366377Y442421D01*
X-367579Y443623D01*
X-369150Y444274D01*
D02*
G37*
G36*
X-620150Y444274D02*
X-621850D01*
X-623421Y443623D01*
X-624623Y442421D01*
X-625274Y440850D01*
Y439150D01*
X-624623Y437579D01*
X-623421Y436377D01*
X-621850Y435726D01*
X-620150D01*
X-618579Y436377D01*
X-617377Y437579D01*
X-616726Y439150D01*
Y440850D01*
X-617377Y442421D01*
X-618579Y443623D01*
X-620150Y444274D01*
D02*
G37*
G36*
X-344150Y444274D02*
X-345850D01*
X-347421Y443623D01*
X-348623Y442421D01*
X-349274Y440850D01*
Y439150D01*
X-348623Y437579D01*
X-347421Y436377D01*
X-345850Y435726D01*
X-344150D01*
X-342579Y436377D01*
X-341376Y437579D01*
X-340726Y439150D01*
Y440850D01*
X-341376Y442421D01*
X-342579Y443623D01*
X-344150Y444274D01*
D02*
G37*
G36*
X-450131Y440043D02*
X-451831D01*
X-453402Y439392D01*
X-454604Y438190D01*
X-455255Y436619D01*
Y434919D01*
X-454604Y433348D01*
X-453402Y432146D01*
X-453224Y432072D01*
Y430697D01*
X-453402Y430623D01*
X-454604Y429421D01*
X-454678Y429243D01*
X-456053D01*
X-456127Y429421D01*
X-457329Y430623D01*
X-458900Y431274D01*
X-460600D01*
X-462171Y430623D01*
X-463373Y429421D01*
X-464024Y427850D01*
Y426150D01*
X-463373Y424579D01*
X-462171Y423377D01*
X-460600Y422726D01*
X-458900D01*
X-457329Y423377D01*
X-456127Y424579D01*
X-456053Y424757D01*
X-454678D01*
X-454604Y424579D01*
X-453402Y423377D01*
X-451831Y422726D01*
X-450131D01*
X-448560Y423377D01*
X-447358Y424579D01*
X-446707Y426150D01*
Y427850D01*
X-447358Y429421D01*
X-448560Y430623D01*
X-448738Y430697D01*
Y432072D01*
X-448560Y432146D01*
X-447358Y433348D01*
X-446707Y434919D01*
Y436619D01*
X-447358Y438190D01*
X-448560Y439392D01*
X-450131Y440043D01*
D02*
G37*
G36*
X-387150Y439274D02*
X-388850D01*
X-390421Y438623D01*
X-391623Y437421D01*
X-392274Y435850D01*
Y434150D01*
X-391623Y432579D01*
X-390860Y431816D01*
X-390560Y431000D01*
X-390860Y430184D01*
X-391623Y429421D01*
X-392274Y427850D01*
Y426150D01*
X-391623Y424579D01*
X-390421Y423377D01*
X-388850Y422726D01*
X-387150D01*
X-385579Y423377D01*
X-384816Y424140D01*
X-384000Y424440D01*
X-383184Y424140D01*
X-382421Y423377D01*
X-380850Y422726D01*
X-379150D01*
X-377579Y423377D01*
X-376377Y424579D01*
X-375726Y426150D01*
Y427850D01*
X-376377Y429421D01*
X-377579Y430623D01*
X-379150Y431274D01*
X-380850D01*
X-382421Y430623D01*
X-383184Y429860D01*
X-384000Y429560D01*
X-384816Y429860D01*
X-385140Y430184D01*
X-385440Y431000D01*
X-385140Y431816D01*
X-384377Y432579D01*
X-383726Y434150D01*
Y435850D01*
X-384377Y437421D01*
X-385579Y438623D01*
X-387150Y439274D01*
D02*
G37*
G36*
X-652150Y401274D02*
X-653850D01*
X-655421Y400623D01*
X-656623Y399421D01*
X-657274Y397850D01*
Y396150D01*
X-656623Y394579D01*
X-655421Y393377D01*
X-653850Y392726D01*
X-652150D01*
X-650579Y393377D01*
X-649377Y394579D01*
X-648726Y396150D01*
Y397850D01*
X-649377Y399421D01*
X-650579Y400623D01*
X-652150Y401274D01*
D02*
G37*
G36*
Y389274D02*
X-653850D01*
X-655421Y388624D01*
X-656623Y387421D01*
X-657274Y385850D01*
Y384150D01*
X-656623Y382579D01*
X-655421Y381377D01*
X-653850Y380726D01*
X-652150D01*
X-650579Y381377D01*
X-649377Y382579D01*
X-648726Y384150D01*
Y385850D01*
X-649377Y387421D01*
X-650579Y388624D01*
X-652150Y389274D01*
D02*
G37*
G36*
X628978Y333694D02*
X628027Y333649D01*
X501972Y333649D01*
X501019Y333693D01*
X500852Y333632D01*
X500678Y333673D01*
X498721Y333353D01*
X498569Y333259D01*
X498391Y333262D01*
X496542Y332546D01*
X496413Y332422D01*
X496238Y332389D01*
X494576Y331306D01*
X494476Y331159D01*
X494311Y331091D01*
X492909Y329689D01*
X492840Y329524D01*
X492693Y329423D01*
X491610Y327762D01*
X491577Y327587D01*
X491454Y327458D01*
X490737Y325609D01*
X490741Y325430D01*
X490647Y325279D01*
X490327Y323322D01*
X490368Y323148D01*
X490307Y322980D01*
X490349Y322067D01*
X490304Y321140D01*
X490365Y320971D01*
X490323Y320797D01*
X490645Y318813D01*
X490739Y318661D01*
X490734Y318482D01*
X491459Y316607D01*
X491582Y316478D01*
X491615Y316302D01*
X492712Y314617D01*
X492859Y314516D01*
X492928Y314351D01*
X494349Y312929D01*
X494515Y312861D01*
X494616Y312713D01*
X496300Y311616D01*
X496476Y311584D01*
X496606Y311460D01*
X498481Y310736D01*
X498660Y310740D01*
X498812Y310646D01*
X500796Y310325D01*
X500970Y310366D01*
X501138Y310306D01*
X502103Y310352D01*
X627892Y310352D01*
X628853Y310300D01*
X629023Y310360D01*
X629198Y310317D01*
X631187Y310630D01*
X631341Y310724D01*
X631521Y310719D01*
X633402Y311439D01*
X633532Y311563D01*
X633710Y311596D01*
X635399Y312692D01*
X635501Y312840D01*
X635668Y312910D01*
X637092Y314333D01*
X637160Y314500D01*
X637309Y314602D01*
X638405Y316291D01*
X638438Y316469D01*
X638562Y316599D01*
X639282Y318480D01*
X639277Y318660D01*
X639371Y318814D01*
X639684Y320803D01*
X639641Y320979D01*
X639701Y321148D01*
X639651Y322070D01*
X639695Y322978D01*
X639634Y323146D01*
X639675Y323320D01*
X639357Y325279D01*
X639263Y325431D01*
X639268Y325609D01*
X638552Y327460D01*
X638429Y327589D01*
X638396Y327765D01*
X637313Y329428D01*
X637166Y329529D01*
X637097Y329694D01*
X635694Y331097D01*
X635529Y331165D01*
X635428Y331313D01*
X633765Y332396D01*
X633590Y332428D01*
X633460Y332552D01*
X631610Y333268D01*
X631431Y333263D01*
X631279Y333357D01*
X629320Y333675D01*
X629146Y333634D01*
X628978Y333694D01*
D02*
G37*
G36*
X378978D02*
X378027Y333649D01*
X251972Y333649D01*
X251019Y333693D01*
X250852Y333632D01*
X250678Y333673D01*
X248721Y333353D01*
X248569Y333259D01*
X248391Y333262D01*
X246542Y332546D01*
X246413Y332422D01*
X246238Y332389D01*
X244576Y331306D01*
X244476Y331159D01*
X244311Y331091D01*
X242909Y329689D01*
X242840Y329524D01*
X242693Y329423D01*
X241610Y327762D01*
X241577Y327587D01*
X241454Y327458D01*
X240737Y325609D01*
X240741Y325430D01*
X240647Y325279D01*
X240327Y323322D01*
X240368Y323148D01*
X240307Y322980D01*
X240349Y322067D01*
X240304Y321140D01*
X240365Y320971D01*
X240324Y320797D01*
X240645Y318813D01*
X240739Y318661D01*
X240734Y318482D01*
X241459Y316607D01*
X241582Y316478D01*
X241615Y316302D01*
X242712Y314617D01*
X242859Y314516D01*
X242928Y314351D01*
X244349Y312929D01*
X244515Y312861D01*
X244616Y312713D01*
X246300Y311616D01*
X246476Y311584D01*
X246606Y311460D01*
X248481Y310736D01*
X248659Y310740D01*
X248812Y310646D01*
X250796Y310325D01*
X250970Y310366D01*
X251138Y310306D01*
X252103Y310352D01*
X377892Y310352D01*
X378853Y310300D01*
X379023Y310360D01*
X379198Y310317D01*
X381187Y310630D01*
X381341Y310724D01*
X381521Y310719D01*
X383402Y311439D01*
X383532Y311563D01*
X383710Y311596D01*
X385399Y312692D01*
X385501Y312840D01*
X385668Y312910D01*
X387092Y314333D01*
X387160Y314500D01*
X387309Y314602D01*
X388405Y316291D01*
X388438Y316469D01*
X388562Y316599D01*
X389282Y318480D01*
X389277Y318660D01*
X389371Y318814D01*
X389684Y320803D01*
X389641Y320979D01*
X389701Y321148D01*
X389651Y322070D01*
X389695Y322978D01*
X389634Y323146D01*
X389675Y323320D01*
X389357Y325279D01*
X389263Y325431D01*
X389268Y325609D01*
X388552Y327460D01*
X388429Y327589D01*
X388396Y327765D01*
X387313Y329428D01*
X387166Y329529D01*
X387097Y329694D01*
X385694Y331097D01*
X385529Y331165D01*
X385428Y331313D01*
X383765Y332396D01*
X383590Y332428D01*
X383460Y332552D01*
X381610Y333268D01*
X381431Y333263D01*
X381279Y333357D01*
X379320Y333675D01*
X379146Y333634D01*
X378978Y333694D01*
D02*
G37*
G36*
X128978D02*
X128027Y333649D01*
X1972Y333649D01*
X1019Y333693D01*
X852Y333632D01*
X678Y333673D01*
X-1279Y333353D01*
X-1431Y333259D01*
X-1609Y333262D01*
X-3458Y332546D01*
X-3587Y332422D01*
X-3762Y332389D01*
X-5424Y331306D01*
X-5524Y331159D01*
X-5689Y331091D01*
X-7091Y329689D01*
X-7160Y329524D01*
X-7307Y329423D01*
X-8390Y327762D01*
X-8423Y327587D01*
X-8546Y327458D01*
X-9263Y325609D01*
X-9259Y325430D01*
X-9353Y325279D01*
X-9673Y323322D01*
X-9632Y323148D01*
X-9693Y322980D01*
X-9651Y322067D01*
X-9696Y321140D01*
X-9635Y320971D01*
X-9676Y320797D01*
X-9355Y318813D01*
X-9261Y318661D01*
X-9266Y318482D01*
X-8541Y316607D01*
X-8418Y316478D01*
X-8385Y316302D01*
X-7288Y314617D01*
X-7141Y314516D01*
X-7072Y314351D01*
X-5651Y312929D01*
X-5486Y312861D01*
X-5384Y312713D01*
X-3700Y311616D01*
X-3524Y311584D01*
X-3394Y311460D01*
X-1519Y310736D01*
X-1340Y310740D01*
X-1188Y310646D01*
X796Y310325D01*
X970Y310366D01*
X1138Y310306D01*
X2103Y310352D01*
X127892Y310352D01*
X128853Y310300D01*
X129023Y310360D01*
X129198Y310317D01*
X131187Y310630D01*
X131341Y310724D01*
X131521Y310719D01*
X133402Y311439D01*
X133532Y311563D01*
X133710Y311596D01*
X135399Y312692D01*
X135501Y312840D01*
X135668Y312910D01*
X137092Y314333D01*
X137161Y314500D01*
X137309Y314602D01*
X138405Y316291D01*
X138438Y316469D01*
X138562Y316599D01*
X139282Y318480D01*
X139277Y318660D01*
X139371Y318814D01*
X139684Y320803D01*
X139642Y320979D01*
X139701Y321148D01*
X139651Y322070D01*
X139694Y322978D01*
X139634Y323146D01*
X139675Y323320D01*
X139357Y325279D01*
X139263Y325431D01*
X139268Y325609D01*
X138552Y327460D01*
X138429Y327589D01*
X138396Y327765D01*
X137313Y329428D01*
X137166Y329529D01*
X137097Y329694D01*
X135694Y331097D01*
X135529Y331165D01*
X135428Y331313D01*
X133765Y332396D01*
X133589Y332428D01*
X133460Y332552D01*
X131610Y333268D01*
X131431Y333263D01*
X131279Y333357D01*
X129320Y333675D01*
X129146Y333634D01*
X128978Y333694D01*
D02*
G37*
G36*
X-121022D02*
X-121973Y333649D01*
X-248028Y333649D01*
X-248981Y333693D01*
X-249148Y333632D01*
X-249322Y333673D01*
X-251279Y333353D01*
X-251431Y333259D01*
X-251609Y333262D01*
X-253458Y332546D01*
X-253587Y332422D01*
X-253762Y332389D01*
X-255424Y331306D01*
X-255524Y331159D01*
X-255689Y331091D01*
X-257091Y329689D01*
X-257160Y329524D01*
X-257307Y329423D01*
X-258390Y327762D01*
X-258423Y327587D01*
X-258546Y327458D01*
X-259263Y325609D01*
X-259259Y325430D01*
X-259353Y325279D01*
X-259673Y323322D01*
X-259632Y323148D01*
X-259693Y322980D01*
X-259651Y322067D01*
X-259696Y321140D01*
X-259635Y320971D01*
X-259676Y320797D01*
X-259355Y318813D01*
X-259261Y318661D01*
X-259266Y318482D01*
X-258541Y316607D01*
X-258418Y316478D01*
X-258385Y316302D01*
X-257288Y314617D01*
X-257141Y314516D01*
X-257072Y314351D01*
X-255651Y312929D01*
X-255485Y312861D01*
X-255384Y312713D01*
X-253700Y311616D01*
X-253524Y311584D01*
X-253394Y311460D01*
X-251519Y310736D01*
X-251341Y310740D01*
X-251188Y310646D01*
X-249204Y310325D01*
X-249030Y310366D01*
X-248862Y310306D01*
X-247897Y310352D01*
X-122108Y310352D01*
X-121147Y310300D01*
X-120977Y310360D01*
X-120802Y310317D01*
X-118813Y310630D01*
X-118659Y310724D01*
X-118479Y310719D01*
X-116598Y311439D01*
X-116468Y311563D01*
X-116290Y311596D01*
X-114601Y312692D01*
X-114499Y312840D01*
X-114332Y312910D01*
X-112908Y314333D01*
X-112839Y314500D01*
X-112691Y314602D01*
X-111595Y316291D01*
X-111562Y316469D01*
X-111438Y316599D01*
X-110718Y318480D01*
X-110723Y318660D01*
X-110629Y318814D01*
X-110316Y320803D01*
X-110359Y320979D01*
X-110299Y321148D01*
X-110349Y322070D01*
X-110306Y322978D01*
X-110366Y323146D01*
X-110325Y323320D01*
X-110643Y325279D01*
X-110737Y325431D01*
X-110732Y325609D01*
X-111448Y327460D01*
X-111571Y327589D01*
X-111604Y327765D01*
X-112687Y329428D01*
X-112834Y329529D01*
X-112903Y329694D01*
X-114306Y331097D01*
X-114471Y331165D01*
X-114572Y331313D01*
X-116235Y332396D01*
X-116411Y332428D01*
X-116540Y332552D01*
X-118390Y333268D01*
X-118569Y333263D01*
X-118721Y333357D01*
X-120680Y333675D01*
X-120854Y333634D01*
X-121022Y333694D01*
D02*
G37*
G36*
X-349150Y319274D02*
X-350850D01*
X-351790Y318885D01*
X-370000D01*
X-371487Y318589D01*
X-372747Y317747D01*
X-377747Y312747D01*
X-378589Y311487D01*
X-378885Y310000D01*
Y256609D01*
X-388609Y246885D01*
X-462210D01*
X-463150Y247274D01*
X-464850D01*
X-466421Y246623D01*
X-467623Y245421D01*
X-468274Y243850D01*
Y242150D01*
X-467623Y240579D01*
X-466421Y239377D01*
X-464850Y238726D01*
X-463150D01*
X-462210Y239115D01*
X-387000D01*
X-385513Y239411D01*
X-384253Y240253D01*
X-372253Y252253D01*
X-371411Y253513D01*
X-371115Y255000D01*
Y308391D01*
X-368391Y311115D01*
X-351790D01*
X-350850Y310726D01*
X-349150D01*
X-347579Y311377D01*
X-346377Y312579D01*
X-345726Y314150D01*
Y315850D01*
X-346377Y317421D01*
X-347579Y318623D01*
X-349150Y319274D01*
D02*
G37*
G36*
X190850Y304274D02*
X189150D01*
X187579Y303623D01*
X186377Y302421D01*
X185726Y300850D01*
Y299150D01*
X186377Y297579D01*
X187579Y296376D01*
X189150Y295726D01*
X190850D01*
X192421Y296376D01*
X193623Y297579D01*
X194274Y299150D01*
Y300850D01*
X193623Y302421D01*
X192421Y303623D01*
X190850Y304274D01*
D02*
G37*
G36*
X-649150Y294274D02*
X-650850D01*
X-652421Y293623D01*
X-653623Y292421D01*
X-654274Y290850D01*
Y289150D01*
X-653623Y287579D01*
X-652421Y286377D01*
X-650850Y285726D01*
X-649150D01*
X-647579Y286377D01*
X-646377Y287579D01*
X-645726Y289150D01*
Y290850D01*
X-646377Y292421D01*
X-647579Y293623D01*
X-649150Y294274D01*
D02*
G37*
G36*
X440850Y292274D02*
X439150D01*
X437579Y291623D01*
X436377Y290421D01*
X435726Y288850D01*
Y287150D01*
X436377Y285579D01*
X437579Y284377D01*
X439150Y283726D01*
X440850D01*
X442421Y284377D01*
X443623Y285579D01*
X444274Y287150D01*
Y288850D01*
X443623Y290421D01*
X442421Y291623D01*
X440850Y292274D01*
D02*
G37*
G36*
X-70000Y500050D02*
X-71933Y499666D01*
X-73571Y498571D01*
X-74666Y496933D01*
X-75050Y495000D01*
Y-80000D01*
X-74666Y-81933D01*
X-73571Y-83571D01*
X-71933Y-84666D01*
X-70000Y-85050D01*
X-68067Y-84666D01*
X-66429Y-83571D01*
X-65334Y-81933D01*
X-64950Y-80000D01*
Y130463D01*
X-63680Y130716D01*
X-63623Y130579D01*
X-62421Y129377D01*
X-60850Y128726D01*
X-59150D01*
X-57579Y129377D01*
X-56377Y130579D01*
X-55726Y132150D01*
Y133850D01*
X-56377Y135421D01*
X-57579Y136623D01*
X-59150Y137274D01*
X-60850D01*
X-62421Y136623D01*
X-63623Y135421D01*
X-63680Y135284D01*
X-64950Y135537D01*
Y285463D01*
X-63680Y285716D01*
X-63623Y285579D01*
X-62421Y284377D01*
X-60850Y283726D01*
X-59150D01*
X-57579Y284377D01*
X-56377Y285579D01*
X-55726Y287150D01*
Y288850D01*
X-56377Y290421D01*
X-57579Y291623D01*
X-59150Y292274D01*
X-60850D01*
X-62421Y291623D01*
X-63623Y290421D01*
X-63680Y290284D01*
X-64950Y290537D01*
Y495000D01*
X-65334Y496933D01*
X-66429Y498571D01*
X-68067Y499666D01*
X-70000Y500050D01*
D02*
G37*
G36*
X-432631Y284024D02*
X-434331D01*
X-435902Y283373D01*
X-437104Y282171D01*
X-437178Y281993D01*
X-438553D01*
X-438627Y282171D01*
X-439829Y283373D01*
X-441400Y284024D01*
X-443100D01*
X-444671Y283373D01*
X-445873Y282171D01*
X-445947Y281993D01*
X-447322D01*
X-447396Y282171D01*
X-448598Y283373D01*
X-450169Y284024D01*
X-451869D01*
X-453440Y283373D01*
X-454642Y282171D01*
X-455293Y280600D01*
Y278900D01*
X-454642Y277329D01*
X-453440Y276127D01*
X-451869Y275476D01*
X-450169D01*
X-448598Y276127D01*
X-447396Y277329D01*
X-447322Y277507D01*
X-445947D01*
X-445873Y277329D01*
X-444671Y276127D01*
X-443100Y275476D01*
X-441400D01*
X-439829Y276127D01*
X-438627Y277329D01*
X-438553Y277507D01*
X-437178D01*
X-437104Y277329D01*
X-435902Y276127D01*
X-434331Y275476D01*
X-432631D01*
X-431060Y276127D01*
X-429858Y277329D01*
X-429207Y278900D01*
Y280600D01*
X-429858Y282171D01*
X-431060Y283373D01*
X-432631Y284024D01*
D02*
G37*
G36*
X-32150Y199274D02*
X-33850D01*
X-34790Y198885D01*
X-41210D01*
X-42150Y199274D01*
X-43850D01*
X-45421Y198623D01*
X-46623Y197421D01*
X-47274Y195850D01*
Y194150D01*
X-46623Y192579D01*
X-45421Y191377D01*
X-43850Y190726D01*
X-42150D01*
X-41210Y191115D01*
X-34790D01*
X-33850Y190726D01*
X-32150D01*
X-30579Y191377D01*
X-29377Y192579D01*
X-28726Y194150D01*
Y195850D01*
X-29377Y197421D01*
X-30579Y198623D01*
X-32150Y199274D01*
D02*
G37*
G36*
X-42150Y209274D02*
X-43850D01*
X-45421Y208623D01*
X-46623Y207421D01*
X-47274Y205850D01*
Y204150D01*
X-46623Y202579D01*
X-45421Y201377D01*
X-43850Y200726D01*
X-42150D01*
X-41210Y201115D01*
X-24609D01*
X-22013Y198519D01*
X-21623Y197579D01*
X-20421Y196377D01*
X-19235Y195885D01*
X-19019Y194645D01*
X-19037Y194533D01*
X-21200Y193284D01*
X-23535Y190950D01*
X-25185Y188090D01*
X-26040Y184901D01*
Y184520D01*
X-14770D01*
Y196757D01*
X-14896Y197060D01*
X-14377Y197579D01*
X-13726Y199150D01*
Y200850D01*
X-14377Y202421D01*
X-15579Y203623D01*
X-16519Y204013D01*
X-20253Y207747D01*
X-21513Y208589D01*
X-23000Y208885D01*
X-41210D01*
X-42150Y209274D01*
D02*
G37*
G36*
X-264770Y195790D02*
X-265151D01*
X-268340Y194935D01*
X-271200Y193284D01*
X-273535Y190950D01*
X-275186Y188090D01*
X-276040Y184901D01*
Y184520D01*
X-264770D01*
Y195790D01*
D02*
G37*
G36*
X-11849D02*
X-12230D01*
Y183250D01*
Y170710D01*
X-11849D01*
X-8660Y171565D01*
X-5800Y173216D01*
X-3465Y175550D01*
X-1815Y178410D01*
X-1132Y180959D01*
X183D01*
X761Y178802D01*
X2279Y176174D01*
X4424Y174028D01*
X7052Y172511D01*
X9983Y171726D01*
X13017D01*
X15948Y172511D01*
X18576Y174028D01*
X20721Y176174D01*
X22239Y178802D01*
X23024Y181733D01*
Y184767D01*
X22239Y187698D01*
X20721Y190326D01*
X18576Y192472D01*
X15948Y193989D01*
X13017Y194774D01*
X9983D01*
X7052Y193989D01*
X4424Y192472D01*
X2279Y190326D01*
X761Y187698D01*
X183Y185541D01*
X-1132D01*
X-1815Y188090D01*
X-3465Y190950D01*
X-5800Y193284D01*
X-8660Y194935D01*
X-11849Y195790D01*
D02*
G37*
G36*
X-261849D02*
X-262230D01*
Y183250D01*
Y170710D01*
X-261849D01*
X-258660Y171565D01*
X-255800Y173216D01*
X-253465Y175550D01*
X-251815Y178410D01*
X-251131Y180959D01*
X-249817D01*
X-249239Y178802D01*
X-247722Y176174D01*
X-245576Y174028D01*
X-242948Y172511D01*
X-240017Y171726D01*
X-236983D01*
X-234052Y172511D01*
X-231424Y174028D01*
X-229279Y176174D01*
X-227761Y178802D01*
X-226976Y181733D01*
Y184767D01*
X-227761Y187698D01*
X-229279Y190326D01*
X-231424Y192472D01*
X-234052Y193989D01*
X-236983Y194774D01*
X-240017D01*
X-242948Y193989D01*
X-245576Y192472D01*
X-247722Y190326D01*
X-249239Y187698D01*
X-249817Y185541D01*
X-251131D01*
X-251815Y188090D01*
X-253465Y190950D01*
X-255800Y193284D01*
X-258660Y194935D01*
X-261849Y195790D01*
D02*
G37*
G36*
X-14770Y181980D02*
X-26040D01*
Y181599D01*
X-25185Y178410D01*
X-23535Y175550D01*
X-21200Y173216D01*
X-18340Y171565D01*
X-15151Y170710D01*
X-14770D01*
Y181980D01*
D02*
G37*
G36*
X-264770D02*
X-276040D01*
Y181599D01*
X-275186Y178410D01*
X-273535Y175550D01*
X-271200Y173216D01*
X-268340Y171565D01*
X-265151Y170710D01*
X-264770D01*
Y181980D01*
D02*
G37*
G36*
X10401Y166890D02*
X10020D01*
Y155620D01*
X21290D01*
Y156001D01*
X20435Y159190D01*
X18785Y162050D01*
X16450Y164384D01*
X13590Y166035D01*
X10401Y166890D01*
D02*
G37*
G36*
X-239599D02*
X-239980D01*
Y155620D01*
X-228710D01*
Y156001D01*
X-229565Y159190D01*
X-231215Y162050D01*
X-233550Y164384D01*
X-236410Y166035D01*
X-239599Y166890D01*
D02*
G37*
G36*
X7480D02*
X7099D01*
X3910Y166035D01*
X1050Y164384D01*
X-1285Y162050D01*
X-2935Y159190D01*
X-3790Y156001D01*
Y155620D01*
X7480D01*
Y166890D01*
D02*
G37*
G36*
X-242520D02*
X-242901D01*
X-246090Y166035D01*
X-248950Y164384D01*
X-251285Y162050D01*
X-252935Y159190D01*
X-253790Y156001D01*
Y155620D01*
X-242520D01*
Y166890D01*
D02*
G37*
G36*
X21290Y153080D02*
X10020D01*
Y141810D01*
X10401D01*
X13590Y142665D01*
X16450Y144316D01*
X18785Y146650D01*
X20435Y149510D01*
X21290Y152699D01*
Y153080D01*
D02*
G37*
G36*
X7480D02*
X-3790D01*
Y152699D01*
X-2935Y149510D01*
X-1285Y146650D01*
X1050Y144316D01*
X3910Y142665D01*
X7099Y141810D01*
X7480D01*
Y153080D01*
D02*
G37*
G36*
X-228710D02*
X-239980D01*
Y141810D01*
X-239599D01*
X-236410Y142665D01*
X-233550Y144316D01*
X-231215Y146650D01*
X-229565Y149510D01*
X-228710Y152699D01*
Y153080D01*
D02*
G37*
G36*
X-242520D02*
X-253790D01*
Y152699D01*
X-252935Y149510D01*
X-251285Y146650D01*
X-248950Y144316D01*
X-246090Y142665D01*
X-242901Y141810D01*
X-242520D01*
Y153080D01*
D02*
G37*
G36*
X175850Y296274D02*
X174150D01*
X172579Y295623D01*
X171377Y294421D01*
X170726Y292850D01*
Y291150D01*
X171115Y290210D01*
Y286951D01*
X170850Y286774D01*
X169150D01*
X167579Y286123D01*
X166377Y284921D01*
X165726Y283350D01*
Y281650D01*
X166115Y280710D01*
Y129290D01*
X165726Y128350D01*
Y126774D01*
X164150D01*
X163885Y126951D01*
Y198210D01*
X164274Y199150D01*
Y200850D01*
X163623Y202421D01*
X162421Y203623D01*
X160850Y204274D01*
X159150D01*
X157579Y203623D01*
X156377Y202421D01*
X155726Y200850D01*
Y199150D01*
X156115Y198210D01*
Y71790D01*
X155726Y70850D01*
Y69150D01*
X156377Y67579D01*
X157579Y66377D01*
X159150Y65726D01*
X160850D01*
X162421Y66377D01*
X163623Y67579D01*
X164274Y69150D01*
Y70726D01*
X165850D01*
X166115Y70549D01*
Y11790D01*
X165726Y10850D01*
Y9150D01*
X166115Y8210D01*
Y-58549D01*
X165850Y-58726D01*
X164150D01*
X163210Y-59115D01*
X102000D01*
X100513Y-59411D01*
X99253Y-60253D01*
X93753Y-65753D01*
X92911Y-67013D01*
X92615Y-68500D01*
Y-72326D01*
X91345Y-72852D01*
X90013Y-71519D01*
X89623Y-70579D01*
X88421Y-69377D01*
X86850Y-68726D01*
X85150D01*
X83579Y-69377D01*
X82377Y-70579D01*
X81987Y-71519D01*
X79753Y-73753D01*
X78911Y-75013D01*
X78615Y-76500D01*
Y-78652D01*
X77452D01*
Y-79160D01*
X76770D01*
Y-95200D01*
Y-111240D01*
X77452D01*
Y-111748D01*
X101548D01*
Y-111240D01*
X102230D01*
Y-95200D01*
Y-79160D01*
X101548D01*
Y-78652D01*
X100385D01*
Y-70109D01*
X103609Y-66885D01*
X163210D01*
X164150Y-67274D01*
X165850D01*
X166115Y-67451D01*
Y-290710D01*
X165726Y-291650D01*
Y-293350D01*
X166115Y-294290D01*
Y-445710D01*
X165726Y-446650D01*
Y-448226D01*
X164150D01*
X163885Y-448049D01*
Y-376790D01*
X164274Y-375850D01*
Y-374150D01*
X163623Y-372579D01*
X162421Y-371377D01*
X160850Y-370726D01*
X159150D01*
X157579Y-371377D01*
X156377Y-372579D01*
X155726Y-374150D01*
Y-375850D01*
X156115Y-376790D01*
Y-503210D01*
X155726Y-504150D01*
Y-505850D01*
X156377Y-507421D01*
X157579Y-508623D01*
X159150Y-509274D01*
X160850D01*
X162421Y-508623D01*
X163623Y-507421D01*
X164274Y-505850D01*
Y-504274D01*
X165850D01*
X167421Y-503623D01*
X168623Y-502421D01*
X169274Y-500850D01*
Y-499150D01*
X168885Y-498210D01*
Y-454290D01*
X169274Y-453350D01*
Y-451774D01*
X170850D01*
X172421Y-451123D01*
X173623Y-449921D01*
X174274Y-448350D01*
Y-446650D01*
X173885Y-445710D01*
Y-442989D01*
X175155Y-442557D01*
X176115Y-443434D01*
Y-465000D01*
X176411Y-466487D01*
X177253Y-467747D01*
X177253Y-467747D01*
X195987Y-486481D01*
X196138Y-486845D01*
X195412Y-488115D01*
X188609D01*
X184013Y-483519D01*
X183623Y-482579D01*
X182421Y-481377D01*
X180850Y-480726D01*
X179150D01*
X177579Y-481377D01*
X176377Y-482579D01*
X175726Y-484150D01*
Y-485850D01*
X176377Y-487421D01*
X177579Y-488623D01*
X178519Y-489013D01*
X184253Y-494747D01*
X185513Y-495589D01*
X187000Y-495885D01*
X202000D01*
X203487Y-495589D01*
X204747Y-494747D01*
X207747Y-491747D01*
X208589Y-490487D01*
X208885Y-489000D01*
Y-477500D01*
X208589Y-476013D01*
X207747Y-474753D01*
X198885Y-465891D01*
Y-401790D01*
X199274Y-400850D01*
Y-399150D01*
X198885Y-398210D01*
Y-345609D01*
X212747Y-331747D01*
X213589Y-330487D01*
X213885Y-329000D01*
X213885Y13210D01*
X214274Y14150D01*
Y15850D01*
X213885Y16790D01*
Y17000D01*
X213589Y18487D01*
X212747Y19747D01*
X211487Y20589D01*
X210000Y20885D01*
X209866Y20858D01*
X208885Y21664D01*
Y220000D01*
X208589Y221487D01*
X207747Y222747D01*
X184013Y246481D01*
X183623Y247421D01*
X182421Y248623D01*
X180850Y249274D01*
X179150D01*
X178885Y249451D01*
Y290210D01*
X179274Y291150D01*
Y292850D01*
X178623Y294421D01*
X177421Y295623D01*
X175850Y296274D01*
D02*
G37*
G36*
X10267Y140474D02*
X7233D01*
X4302Y139689D01*
X1674Y138172D01*
X-472Y136026D01*
X-1989Y133398D01*
X-2774Y130467D01*
Y127433D01*
X-1989Y124502D01*
X-472Y121874D01*
X1674Y119728D01*
X4302Y118211D01*
X7233Y117426D01*
X10267D01*
X13198Y118211D01*
X15826Y119728D01*
X17972Y121874D01*
X19489Y124502D01*
X20274Y127433D01*
Y130467D01*
X19489Y133398D01*
X17972Y136026D01*
X15826Y138172D01*
X13198Y139689D01*
X10267Y140474D01*
D02*
G37*
G36*
X-239733D02*
X-242767D01*
X-245698Y139689D01*
X-248326Y138172D01*
X-250471Y136026D01*
X-251989Y133398D01*
X-252774Y130467D01*
Y127433D01*
X-251989Y124502D01*
X-250471Y121874D01*
X-248326Y119728D01*
X-245698Y118211D01*
X-242767Y117426D01*
X-239733D01*
X-236802Y118211D01*
X-234174Y119728D01*
X-232029Y121874D01*
X-230511Y124502D01*
X-229726Y127433D01*
Y130467D01*
X-230511Y133398D01*
X-232029Y136026D01*
X-234174Y138172D01*
X-236802Y139689D01*
X-239733Y140474D01*
D02*
G37*
G36*
X570500Y135609D02*
X566270D01*
Y116270D01*
X578609D01*
Y127500D01*
X578333Y129599D01*
X577523Y131555D01*
X576234Y133234D01*
X574555Y134523D01*
X572599Y135333D01*
X570500Y135609D01*
D02*
G37*
G36*
X563730D02*
X559500D01*
X557401Y135333D01*
X555445Y134523D01*
X553766Y133234D01*
X552477Y131555D01*
X551667Y129599D01*
X551391Y127500D01*
Y116270D01*
X563730D01*
Y135609D01*
D02*
G37*
G36*
X617500Y134585D02*
X606500D01*
X604666Y134343D01*
X602958Y133636D01*
X601490Y132510D01*
X600364Y131042D01*
X599657Y129334D01*
X599415Y127500D01*
Y102500D01*
X599657Y100666D01*
X600364Y98958D01*
X601490Y97491D01*
X602958Y96365D01*
X604666Y95657D01*
X606500Y95415D01*
X617500D01*
X619334Y95657D01*
X621042Y96365D01*
X622510Y97491D01*
X623635Y98958D01*
X624343Y100666D01*
X624585Y102500D01*
Y127500D01*
X624343Y129334D01*
X623635Y131042D01*
X622510Y132510D01*
X621042Y133636D01*
X619334Y134343D01*
X617500Y134585D01*
D02*
G37*
G36*
X523500D02*
X512500D01*
X510666Y134343D01*
X508958Y133636D01*
X507490Y132510D01*
X506365Y131042D01*
X505657Y129334D01*
X505415Y127500D01*
Y102500D01*
X505657Y100666D01*
X506365Y98958D01*
X507490Y97491D01*
X508958Y96365D01*
X510666Y95657D01*
X512500Y95415D01*
X523500D01*
X525334Y95657D01*
X527042Y96365D01*
X528510Y97491D01*
X529635Y98958D01*
X530343Y100666D01*
X530585Y102500D01*
Y127500D01*
X530343Y129334D01*
X529635Y131042D01*
X528510Y132510D01*
X527042Y133636D01*
X525334Y134343D01*
X523500Y134585D01*
D02*
G37*
G36*
X578609Y113730D02*
X566270D01*
Y94391D01*
X570500D01*
X572599Y94667D01*
X574555Y95477D01*
X576234Y96766D01*
X577523Y98445D01*
X578333Y100401D01*
X578609Y102500D01*
Y113730D01*
D02*
G37*
G36*
X563730D02*
X551391D01*
Y102500D01*
X551667Y100401D01*
X552477Y98445D01*
X553766Y96766D01*
X555445Y95477D01*
X557401Y94667D01*
X559500Y94391D01*
X563730D01*
Y113730D01*
D02*
G37*
G36*
X-594150Y102274D02*
X-595850D01*
X-597421Y101623D01*
X-598623Y100421D01*
X-599274Y98850D01*
Y97150D01*
X-598623Y95579D01*
X-597421Y94377D01*
X-595850Y93726D01*
X-594150D01*
X-592579Y94377D01*
X-591377Y95579D01*
X-590726Y97150D01*
Y98850D01*
X-591377Y100421D01*
X-592579Y101623D01*
X-594150Y102274D01*
D02*
G37*
G36*
X10267Y115074D02*
X7233D01*
X4302Y114289D01*
X1674Y112772D01*
X-472Y110626D01*
X-1989Y107998D01*
X-2774Y105067D01*
Y102033D01*
X-1989Y99102D01*
X-472Y96474D01*
X1674Y94328D01*
X4302Y92811D01*
X7233Y92026D01*
X10267D01*
X13198Y92811D01*
X15826Y94328D01*
X17972Y96474D01*
X19489Y99102D01*
X20274Y102033D01*
Y105067D01*
X19489Y107998D01*
X17972Y110626D01*
X15826Y112772D01*
X13198Y114289D01*
X10267Y115074D01*
D02*
G37*
G36*
X-239733D02*
X-242767D01*
X-245698Y114289D01*
X-248326Y112772D01*
X-250471Y110626D01*
X-251989Y107998D01*
X-252774Y105067D01*
Y102033D01*
X-251989Y99102D01*
X-250471Y96474D01*
X-248326Y94328D01*
X-245698Y92811D01*
X-242767Y92026D01*
X-239733D01*
X-236802Y92811D01*
X-234174Y94328D01*
X-232029Y96474D01*
X-230511Y99102D01*
X-229726Y102033D01*
Y105067D01*
X-230511Y107998D01*
X-232029Y110626D01*
X-234174Y112772D01*
X-236802Y114289D01*
X-239733Y115074D01*
D02*
G37*
G36*
X-359150Y100224D02*
X-360850D01*
X-362421Y99573D01*
X-363623Y98371D01*
X-364274Y96800D01*
Y95100D01*
X-363623Y93529D01*
X-362421Y92327D01*
X-360850Y91676D01*
X-359150D01*
X-357579Y92327D01*
X-356377Y93529D01*
X-355726Y95100D01*
Y96800D01*
X-356377Y98371D01*
X-357579Y99573D01*
X-359150Y100224D01*
D02*
G37*
G36*
X445850Y144274D02*
X444150D01*
X442579Y143623D01*
X441377Y142421D01*
X440726Y140850D01*
Y139150D01*
X441003Y138481D01*
X440392Y137274D01*
X439150D01*
X437579Y136623D01*
X436377Y135421D01*
X435726Y133850D01*
Y132150D01*
X436377Y130579D01*
X437579Y129377D01*
X439150Y128726D01*
X440850D01*
X441115Y128549D01*
Y96790D01*
X440726Y95850D01*
Y94150D01*
X441377Y92579D01*
X442579Y91377D01*
X444150Y90726D01*
X445850D01*
X447421Y91377D01*
X448623Y92579D01*
X449274Y94150D01*
Y95850D01*
X448885Y96790D01*
Y138210D01*
X449274Y139150D01*
Y140850D01*
X448623Y142421D01*
X447421Y143623D01*
X445850Y144274D01*
D02*
G37*
G36*
X10267Y89674D02*
X7233D01*
X4302Y88889D01*
X1674Y87372D01*
X-472Y85226D01*
X-1989Y82598D01*
X-2774Y79667D01*
Y76633D01*
X-1989Y73702D01*
X-472Y71074D01*
X1674Y68928D01*
X4302Y67411D01*
X7233Y66626D01*
X10267D01*
X13198Y67411D01*
X15826Y68928D01*
X17972Y71074D01*
X19489Y73702D01*
X20274Y76633D01*
Y79667D01*
X19489Y82598D01*
X17972Y85226D01*
X15826Y87372D01*
X13198Y88889D01*
X10267Y89674D01*
D02*
G37*
G36*
X-239733D02*
X-242767D01*
X-245698Y88889D01*
X-248326Y87372D01*
X-250471Y85226D01*
X-251989Y82598D01*
X-252774Y79667D01*
Y76633D01*
X-251989Y73702D01*
X-250471Y71074D01*
X-248326Y68928D01*
X-245698Y67411D01*
X-242767Y66626D01*
X-239733D01*
X-236802Y67411D01*
X-234174Y68928D01*
X-232029Y71074D01*
X-230511Y73702D01*
X-229726Y76633D01*
Y79667D01*
X-230511Y82598D01*
X-232029Y85226D01*
X-234174Y87372D01*
X-236802Y88889D01*
X-239733Y89674D01*
D02*
G37*
G36*
X8188Y65274D02*
X5812D01*
X3517Y64659D01*
X1459Y63471D01*
X-221Y61791D01*
X-1409Y59733D01*
X-2024Y57438D01*
Y55062D01*
X-1409Y52767D01*
X-221Y50709D01*
X1459Y49029D01*
X3517Y47841D01*
X5812Y47226D01*
X8188D01*
X10483Y47841D01*
X12541Y49029D01*
X14221Y50709D01*
X15409Y52767D01*
X16024Y55062D01*
Y57438D01*
X15409Y59733D01*
X14221Y61791D01*
X12541Y63471D01*
X10483Y64659D01*
X8188Y65274D01*
D02*
G37*
G36*
X-241812D02*
X-244188D01*
X-246483Y64659D01*
X-248541Y63471D01*
X-250221Y61791D01*
X-251409Y59733D01*
X-252024Y57438D01*
Y55062D01*
X-251409Y52767D01*
X-250221Y50709D01*
X-248541Y49029D01*
X-246483Y47841D01*
X-244188Y47226D01*
X-241812D01*
X-239517Y47841D01*
X-237459Y49029D01*
X-235779Y50709D01*
X-234591Y52767D01*
X-233976Y55062D01*
Y57438D01*
X-234591Y59733D01*
X-235779Y61791D01*
X-237459Y63471D01*
X-239517Y64659D01*
X-241812Y65274D01*
D02*
G37*
G36*
X150500Y186650D02*
X135500D01*
X135197Y186524D01*
X133976D01*
Y185303D01*
X133850Y185000D01*
Y168900D01*
X124500D01*
X124197Y168774D01*
X122976D01*
Y167553D01*
X122850Y167250D01*
Y145250D01*
X122976Y144947D01*
Y143726D01*
X124197D01*
X124500Y143600D01*
X133850D01*
Y99150D01*
X124500D01*
X124197Y99024D01*
X122976D01*
Y97803D01*
X122850Y97500D01*
Y75500D01*
X122976Y75197D01*
Y73976D01*
X124197D01*
X124500Y73850D01*
X133850D01*
Y45000D01*
X133976Y44697D01*
Y43476D01*
X135197D01*
X135500Y43351D01*
X150500D01*
X150803Y43476D01*
X152024D01*
Y44697D01*
X152150Y45000D01*
Y75500D01*
X152150Y75500D01*
Y97500D01*
X152150Y97500D01*
Y145250D01*
X152150Y145250D01*
Y167250D01*
X152150Y167250D01*
Y185000D01*
X152024Y185303D01*
Y186524D01*
X150803D01*
X150500Y186650D01*
D02*
G37*
G36*
X-99500D02*
X-114500D01*
X-114803Y186524D01*
X-116024D01*
Y185303D01*
X-116150Y185000D01*
Y168900D01*
X-125500D01*
X-125803Y168774D01*
X-127024D01*
Y167553D01*
X-127150Y167250D01*
Y145250D01*
X-127024Y144947D01*
Y143726D01*
X-125803D01*
X-125500Y143600D01*
X-116150D01*
Y99150D01*
X-125500D01*
X-125803Y99024D01*
X-127024D01*
Y97803D01*
X-127150Y97500D01*
Y75500D01*
X-127024Y75197D01*
Y73976D01*
X-125803D01*
X-125500Y73850D01*
X-116150D01*
Y45000D01*
X-116024Y44697D01*
Y43476D01*
X-114803D01*
X-114500Y43351D01*
X-99500D01*
X-99197Y43476D01*
X-97976D01*
Y44697D01*
X-97851Y45000D01*
Y75500D01*
X-97850Y75500D01*
Y97500D01*
X-97851Y97500D01*
Y145250D01*
X-97850Y145250D01*
Y167250D01*
X-97851Y167250D01*
Y185000D01*
X-97976Y185303D01*
Y186524D01*
X-99197D01*
X-99500Y186650D01*
D02*
G37*
G36*
X-576150Y-726D02*
X-577850D01*
X-579421Y-1377D01*
X-580623Y-2579D01*
X-581274Y-4150D01*
Y-5850D01*
X-580623Y-7421D01*
X-579421Y-8623D01*
X-577850Y-9274D01*
X-576150D01*
X-574579Y-8623D01*
X-573377Y-7421D01*
X-572726Y-5850D01*
Y-4150D01*
X-573377Y-2579D01*
X-574579Y-1377D01*
X-576150Y-726D01*
D02*
G37*
G36*
X665850Y-58726D02*
X664150D01*
X663210Y-59115D01*
X602000D01*
X600513Y-59411D01*
X599253Y-60253D01*
X593753Y-65753D01*
X592911Y-67013D01*
X592615Y-68500D01*
Y-72326D01*
X591345Y-72852D01*
X590013Y-71519D01*
X589623Y-70579D01*
X588421Y-69377D01*
X586850Y-68726D01*
X585150D01*
X583579Y-69377D01*
X582377Y-70579D01*
X581987Y-71519D01*
X579753Y-73753D01*
X578911Y-75013D01*
X578615Y-76500D01*
Y-78652D01*
X577452D01*
Y-79160D01*
X576770D01*
Y-95200D01*
Y-111240D01*
X577452D01*
Y-111748D01*
X601548D01*
Y-111240D01*
X602230D01*
Y-95200D01*
Y-79160D01*
X601548D01*
Y-78652D01*
X600385D01*
Y-70109D01*
X603609Y-66885D01*
X663210D01*
X664150Y-67274D01*
X665850D01*
X667421Y-66623D01*
X668623Y-65421D01*
X669274Y-63850D01*
Y-62150D01*
X668623Y-60579D01*
X667421Y-59377D01*
X665850Y-58726D01*
D02*
G37*
G36*
X415850D02*
X414150D01*
X413210Y-59115D01*
X352000D01*
X350513Y-59411D01*
X349253Y-60253D01*
X343753Y-65753D01*
X342911Y-67013D01*
X342615Y-68500D01*
Y-72326D01*
X341345Y-72852D01*
X340013Y-71519D01*
X339623Y-70579D01*
X338421Y-69377D01*
X336850Y-68726D01*
X335150D01*
X333579Y-69377D01*
X332377Y-70579D01*
X331987Y-71519D01*
X329753Y-73753D01*
X328911Y-75013D01*
X328615Y-76500D01*
Y-78652D01*
X327452D01*
Y-79160D01*
X326770D01*
Y-95200D01*
Y-111240D01*
X327452D01*
Y-111748D01*
X351548D01*
Y-111240D01*
X352230D01*
Y-95200D01*
Y-79160D01*
X351548D01*
Y-78652D01*
X350385D01*
Y-70109D01*
X353609Y-66885D01*
X413210D01*
X414150Y-67274D01*
X415850D01*
X417421Y-66623D01*
X418623Y-65421D01*
X419274Y-63850D01*
Y-62150D01*
X418623Y-60579D01*
X417421Y-59377D01*
X415850Y-58726D01*
D02*
G37*
G36*
X-84150D02*
X-85850D01*
X-86790Y-59115D01*
X-148000D01*
X-149487Y-59411D01*
X-150747Y-60253D01*
X-156247Y-65753D01*
X-157089Y-67013D01*
X-157385Y-68500D01*
Y-72326D01*
X-158655Y-72852D01*
X-159987Y-71519D01*
X-160377Y-70579D01*
X-161579Y-69377D01*
X-163150Y-68726D01*
X-164850D01*
X-166421Y-69377D01*
X-167623Y-70579D01*
X-168013Y-71519D01*
X-170247Y-73753D01*
X-171089Y-75013D01*
X-171385Y-76500D01*
Y-78652D01*
X-172548D01*
Y-79160D01*
X-173230D01*
Y-95200D01*
Y-111240D01*
X-172548D01*
Y-111748D01*
X-148452D01*
Y-111240D01*
X-147770D01*
Y-95200D01*
Y-79160D01*
X-148452D01*
Y-78652D01*
X-149615D01*
Y-70109D01*
X-146391Y-66885D01*
X-86790D01*
X-85850Y-67274D01*
X-84150D01*
X-82579Y-66623D01*
X-81377Y-65421D01*
X-80726Y-63850D01*
Y-62150D01*
X-81377Y-60579D01*
X-82579Y-59377D01*
X-84150Y-58726D01*
D02*
G37*
G36*
X-141960Y-79160D02*
X-145230D01*
Y-93930D01*
X-141960D01*
Y-79160D01*
D02*
G37*
G36*
X275230D02*
X271960D01*
Y-93930D01*
X275230D01*
Y-79160D01*
D02*
G37*
G36*
X25230D02*
X21960D01*
Y-93930D01*
X25230D01*
Y-79160D01*
D02*
G37*
G36*
X-224770D02*
X-228040D01*
Y-93930D01*
X-224770D01*
Y-79160D01*
D02*
G37*
G36*
X525230D02*
X521960D01*
Y-93930D01*
X525230D01*
Y-79160D01*
D02*
G37*
G36*
X358040D02*
X354770D01*
Y-93930D01*
X358040D01*
Y-79160D01*
D02*
G37*
G36*
X108040D02*
X104770D01*
Y-93930D01*
X108040D01*
Y-79160D01*
D02*
G37*
G36*
X608040D02*
X604770D01*
Y-93930D01*
X608040D01*
Y-79160D01*
D02*
G37*
G36*
Y-96470D02*
X604770D01*
Y-111240D01*
X608040D01*
Y-96470D01*
D02*
G37*
G36*
X574230Y-79160D02*
X569770D01*
Y-95200D01*
Y-111240D01*
X574230D01*
Y-95200D01*
Y-79160D01*
D02*
G37*
G36*
X525230Y-96470D02*
X521960D01*
Y-111240D01*
X525230D01*
Y-96470D01*
D02*
G37*
G36*
X358040Y-96470D02*
X354770D01*
Y-111240D01*
X358040D01*
Y-96470D01*
D02*
G37*
G36*
X324230Y-79160D02*
X319770D01*
Y-95200D01*
Y-111240D01*
X324230D01*
Y-95200D01*
Y-79160D01*
D02*
G37*
G36*
X275230Y-96470D02*
X271960D01*
Y-111240D01*
X275230D01*
Y-96470D01*
D02*
G37*
G36*
X108040Y-96470D02*
X104770D01*
Y-111240D01*
X108040D01*
Y-96470D01*
D02*
G37*
G36*
X74230Y-79160D02*
X69770D01*
Y-95200D01*
Y-111240D01*
X74230D01*
Y-95200D01*
Y-79160D01*
D02*
G37*
G36*
X25230Y-96470D02*
X21960D01*
Y-111240D01*
X25230D01*
Y-96470D01*
D02*
G37*
G36*
X-141960D02*
X-145230D01*
Y-111240D01*
X-141960D01*
Y-96470D01*
D02*
G37*
G36*
X-175770Y-79160D02*
X-180230D01*
Y-95200D01*
Y-111240D01*
X-175770D01*
Y-95200D01*
Y-79160D01*
D02*
G37*
G36*
X-224770Y-96470D02*
X-228040D01*
Y-111240D01*
X-224770D01*
Y-96470D01*
D02*
G37*
G36*
X534350Y-20726D02*
X532650D01*
X531079Y-21377D01*
X529877Y-22579D01*
X529226Y-24150D01*
Y-25850D01*
X529615Y-26790D01*
Y-78652D01*
X528452D01*
Y-79160D01*
X527770D01*
Y-95200D01*
Y-111240D01*
X528452D01*
Y-111748D01*
X566548D01*
Y-111240D01*
X567230D01*
Y-95200D01*
Y-79160D01*
X566548D01*
Y-78652D01*
X565385D01*
Y-41790D01*
X565774Y-40850D01*
Y-39150D01*
X565123Y-37579D01*
X563921Y-36377D01*
X562350Y-35726D01*
X560650D01*
X559079Y-36377D01*
X557877Y-37579D01*
X557226Y-39150D01*
Y-40850D01*
X557615Y-41790D01*
Y-50412D01*
X556345Y-51138D01*
X555350Y-50726D01*
X553650D01*
X552655Y-51138D01*
X551385Y-50412D01*
Y-36790D01*
X551774Y-35850D01*
Y-34150D01*
X551123Y-32579D01*
X549921Y-31377D01*
X548350Y-30726D01*
X546650D01*
X545980Y-31003D01*
X544774Y-30128D01*
Y-29150D01*
X544123Y-27579D01*
X542921Y-26377D01*
X541350Y-25726D01*
X539650D01*
X538980Y-26003D01*
X537774Y-25128D01*
Y-24150D01*
X537123Y-22579D01*
X535921Y-21377D01*
X534350Y-20726D01*
D02*
G37*
G36*
X284350D02*
X282650D01*
X281079Y-21377D01*
X279877Y-22579D01*
X279226Y-24150D01*
Y-25850D01*
X279615Y-26790D01*
Y-78652D01*
X278452D01*
Y-79160D01*
X277770D01*
Y-95200D01*
Y-111240D01*
X278452D01*
Y-111748D01*
X316548D01*
Y-111240D01*
X317230D01*
Y-95200D01*
Y-79160D01*
X316548D01*
Y-78652D01*
X315385D01*
Y-41790D01*
X315774Y-40850D01*
Y-39150D01*
X315123Y-37579D01*
X313921Y-36377D01*
X312350Y-35726D01*
X310650D01*
X309079Y-36377D01*
X307877Y-37579D01*
X307226Y-39150D01*
Y-40850D01*
X307615Y-41790D01*
Y-45412D01*
X306345Y-46138D01*
X305350Y-45726D01*
X303650D01*
X302655Y-46138D01*
X301385Y-45412D01*
Y-36790D01*
X301774Y-35850D01*
Y-34150D01*
X301123Y-32579D01*
X299921Y-31377D01*
X298350Y-30726D01*
X296650D01*
X295980Y-31003D01*
X294774Y-30128D01*
Y-29150D01*
X294123Y-27579D01*
X292921Y-26377D01*
X291350Y-25726D01*
X289650D01*
X288981Y-26003D01*
X287774Y-25128D01*
Y-24150D01*
X287123Y-22579D01*
X285921Y-21377D01*
X284350Y-20726D01*
D02*
G37*
G36*
X34350D02*
X32650D01*
X31079Y-21377D01*
X29877Y-22579D01*
X29226Y-24150D01*
Y-25850D01*
X29615Y-26790D01*
Y-78652D01*
X28452D01*
Y-79160D01*
X27770D01*
Y-95200D01*
Y-111240D01*
X28452D01*
Y-111748D01*
X66548D01*
Y-111240D01*
X67230D01*
Y-95200D01*
Y-79160D01*
X66548D01*
Y-78652D01*
X65385D01*
Y-41790D01*
X65774Y-40850D01*
Y-39150D01*
X65123Y-37579D01*
X63921Y-36377D01*
X62350Y-35726D01*
X60650D01*
X59079Y-36377D01*
X57877Y-37579D01*
X57226Y-39150D01*
Y-40128D01*
X56019Y-41003D01*
X55350Y-40726D01*
X53650D01*
X52655Y-41138D01*
X51385Y-40412D01*
Y-36790D01*
X51774Y-35850D01*
Y-34150D01*
X51123Y-32579D01*
X49921Y-31377D01*
X48350Y-30726D01*
X46650D01*
X45981Y-31003D01*
X44774Y-30128D01*
Y-29150D01*
X44123Y-27579D01*
X42921Y-26377D01*
X41350Y-25726D01*
X39650D01*
X38981Y-26003D01*
X37774Y-25128D01*
Y-24150D01*
X37123Y-22579D01*
X35921Y-21377D01*
X34350Y-20726D01*
D02*
G37*
G36*
X-323219Y-204976D02*
X-326780D01*
X-330220Y-205898D01*
X-333304Y-207678D01*
X-335822Y-210196D01*
X-337602Y-213280D01*
X-338524Y-216719D01*
Y-220280D01*
X-337602Y-223720D01*
X-335822Y-226804D01*
X-333304Y-229322D01*
X-330220Y-231102D01*
X-326780Y-232024D01*
X-323219D01*
X-319780Y-231102D01*
X-316696Y-229322D01*
X-314178Y-226804D01*
X-312398Y-223720D01*
X-311476Y-220280D01*
Y-216719D01*
X-312398Y-213280D01*
X-314178Y-210196D01*
X-316696Y-207678D01*
X-319780Y-205898D01*
X-323219Y-204976D01*
D02*
G37*
G36*
X628978Y-241306D02*
X628027Y-241351D01*
X501972Y-241351D01*
X501019Y-241307D01*
X500852Y-241368D01*
X500678Y-241327D01*
X498721Y-241647D01*
X498569Y-241742D01*
X498391Y-241737D01*
X496542Y-242454D01*
X496413Y-242578D01*
X496238Y-242610D01*
X494576Y-243694D01*
X494476Y-243841D01*
X494311Y-243909D01*
X492909Y-245311D01*
X492840Y-245476D01*
X492693Y-245577D01*
X491610Y-247238D01*
X491577Y-247413D01*
X491454Y-247542D01*
X490737Y-249391D01*
X490741Y-249570D01*
X490647Y-249721D01*
X490327Y-251678D01*
X490368Y-251852D01*
X490307Y-252020D01*
X490349Y-252933D01*
X490304Y-253860D01*
X490365Y-254028D01*
X490323Y-254203D01*
X490645Y-256187D01*
X490739Y-256339D01*
X490734Y-256518D01*
X491459Y-258393D01*
X491582Y-258522D01*
X491615Y-258698D01*
X492712Y-260383D01*
X492859Y-260484D01*
X492928Y-260649D01*
X494349Y-262071D01*
X494515Y-262139D01*
X494616Y-262287D01*
X496300Y-263384D01*
X496476Y-263416D01*
X496606Y-263540D01*
X498481Y-264264D01*
X498660Y-264260D01*
X498812Y-264354D01*
X500796Y-264675D01*
X500970Y-264634D01*
X501138Y-264694D01*
X502103Y-264648D01*
X627892Y-264648D01*
X628853Y-264700D01*
X629023Y-264640D01*
X629198Y-264683D01*
X631187Y-264370D01*
X631341Y-264276D01*
X631521Y-264281D01*
X633402Y-263561D01*
X633532Y-263437D01*
X633710Y-263404D01*
X635399Y-262308D01*
X635501Y-262160D01*
X635668Y-262090D01*
X637092Y-260667D01*
X637160Y-260500D01*
X637309Y-260398D01*
X638405Y-258709D01*
X638438Y-258531D01*
X638562Y-258401D01*
X639282Y-256520D01*
X639277Y-256340D01*
X639371Y-256186D01*
X639684Y-254197D01*
X639641Y-254021D01*
X639701Y-253852D01*
X639651Y-252930D01*
X639695Y-252022D01*
X639634Y-251854D01*
X639675Y-251680D01*
X639357Y-249722D01*
X639263Y-249569D01*
X639268Y-249391D01*
X638552Y-247540D01*
X638429Y-247411D01*
X638396Y-247235D01*
X637313Y-245572D01*
X637166Y-245471D01*
X637097Y-245306D01*
X635694Y-243903D01*
X635529Y-243835D01*
X635428Y-243687D01*
X633765Y-242604D01*
X633590Y-242572D01*
X633460Y-242448D01*
X631610Y-241733D01*
X631431Y-241737D01*
X631279Y-241643D01*
X629320Y-241325D01*
X629146Y-241366D01*
X628978Y-241306D01*
D02*
G37*
G36*
X378978D02*
X378027Y-241351D01*
X251972Y-241351D01*
X251019Y-241307D01*
X250852Y-241368D01*
X250678Y-241327D01*
X248721Y-241647D01*
X248569Y-241742D01*
X248391Y-241737D01*
X246542Y-242454D01*
X246413Y-242578D01*
X246238Y-242610D01*
X244576Y-243694D01*
X244476Y-243841D01*
X244311Y-243909D01*
X242909Y-245311D01*
X242840Y-245476D01*
X242693Y-245577D01*
X241610Y-247238D01*
X241577Y-247413D01*
X241454Y-247542D01*
X240737Y-249391D01*
X240741Y-249570D01*
X240647Y-249721D01*
X240327Y-251678D01*
X240368Y-251852D01*
X240307Y-252020D01*
X240349Y-252933D01*
X240304Y-253860D01*
X240365Y-254028D01*
X240324Y-254203D01*
X240645Y-256187D01*
X240739Y-256339D01*
X240734Y-256518D01*
X241459Y-258393D01*
X241582Y-258522D01*
X241615Y-258698D01*
X242712Y-260383D01*
X242859Y-260484D01*
X242928Y-260649D01*
X244349Y-262071D01*
X244515Y-262139D01*
X244616Y-262287D01*
X246300Y-263384D01*
X246476Y-263416D01*
X246606Y-263540D01*
X248481Y-264264D01*
X248659Y-264260D01*
X248812Y-264354D01*
X250796Y-264675D01*
X250970Y-264634D01*
X251138Y-264694D01*
X252103Y-264648D01*
X377892Y-264648D01*
X378853Y-264700D01*
X379023Y-264640D01*
X379198Y-264683D01*
X381187Y-264370D01*
X381341Y-264276D01*
X381521Y-264281D01*
X383402Y-263561D01*
X383532Y-263437D01*
X383710Y-263404D01*
X385399Y-262308D01*
X385501Y-262160D01*
X385668Y-262090D01*
X387092Y-260667D01*
X387160Y-260500D01*
X387309Y-260398D01*
X388405Y-258709D01*
X388438Y-258531D01*
X388562Y-258401D01*
X389282Y-256520D01*
X389277Y-256340D01*
X389371Y-256186D01*
X389684Y-254197D01*
X389641Y-254021D01*
X389701Y-253852D01*
X389651Y-252930D01*
X389695Y-252022D01*
X389634Y-251854D01*
X389675Y-251680D01*
X389357Y-249722D01*
X389263Y-249569D01*
X389268Y-249391D01*
X388552Y-247540D01*
X388429Y-247411D01*
X388396Y-247235D01*
X387313Y-245572D01*
X387166Y-245471D01*
X387097Y-245306D01*
X385694Y-243903D01*
X385529Y-243835D01*
X385428Y-243687D01*
X383765Y-242604D01*
X383590Y-242572D01*
X383460Y-242448D01*
X381610Y-241733D01*
X381431Y-241737D01*
X381279Y-241643D01*
X379320Y-241325D01*
X379146Y-241366D01*
X378978Y-241306D01*
D02*
G37*
G36*
X128978D02*
X128027Y-241351D01*
X1972Y-241351D01*
X1019Y-241307D01*
X852Y-241368D01*
X678Y-241327D01*
X-1279Y-241647D01*
X-1431Y-241742D01*
X-1609Y-241737D01*
X-3458Y-242454D01*
X-3587Y-242578D01*
X-3762Y-242610D01*
X-5424Y-243694D01*
X-5524Y-243841D01*
X-5689Y-243909D01*
X-7091Y-245311D01*
X-7160Y-245476D01*
X-7307Y-245577D01*
X-8390Y-247238D01*
X-8423Y-247413D01*
X-8546Y-247542D01*
X-9263Y-249391D01*
X-9259Y-249570D01*
X-9353Y-249721D01*
X-9673Y-251678D01*
X-9632Y-251852D01*
X-9693Y-252020D01*
X-9651Y-252933D01*
X-9696Y-253860D01*
X-9635Y-254028D01*
X-9676Y-254203D01*
X-9355Y-256187D01*
X-9261Y-256339D01*
X-9266Y-256518D01*
X-8541Y-258393D01*
X-8418Y-258522D01*
X-8385Y-258698D01*
X-7288Y-260383D01*
X-7141Y-260484D01*
X-7072Y-260649D01*
X-5651Y-262071D01*
X-5486Y-262139D01*
X-5384Y-262287D01*
X-3700Y-263384D01*
X-3524Y-263416D01*
X-3394Y-263540D01*
X-1519Y-264264D01*
X-1340Y-264260D01*
X-1188Y-264354D01*
X796Y-264675D01*
X970Y-264634D01*
X1138Y-264694D01*
X2103Y-264648D01*
X127892Y-264648D01*
X128853Y-264700D01*
X129023Y-264640D01*
X129198Y-264683D01*
X131187Y-264370D01*
X131341Y-264276D01*
X131521Y-264281D01*
X133402Y-263561D01*
X133532Y-263437D01*
X133710Y-263404D01*
X135399Y-262308D01*
X135501Y-262160D01*
X135668Y-262090D01*
X137092Y-260667D01*
X137161Y-260500D01*
X137309Y-260398D01*
X138405Y-258709D01*
X138438Y-258531D01*
X138562Y-258401D01*
X139282Y-256520D01*
X139277Y-256340D01*
X139371Y-256186D01*
X139684Y-254197D01*
X139642Y-254021D01*
X139701Y-253852D01*
X139651Y-252930D01*
X139694Y-252022D01*
X139634Y-251854D01*
X139675Y-251680D01*
X139357Y-249722D01*
X139263Y-249569D01*
X139268Y-249391D01*
X138552Y-247540D01*
X138429Y-247411D01*
X138396Y-247235D01*
X137313Y-245572D01*
X137166Y-245471D01*
X137097Y-245306D01*
X135694Y-243903D01*
X135529Y-243835D01*
X135428Y-243687D01*
X133765Y-242604D01*
X133589Y-242572D01*
X133460Y-242448D01*
X131610Y-241733D01*
X131431Y-241737D01*
X131279Y-241643D01*
X129320Y-241325D01*
X129146Y-241366D01*
X128978Y-241306D01*
D02*
G37*
G36*
X-121022D02*
X-121973Y-241351D01*
X-248028Y-241351D01*
X-248981Y-241307D01*
X-249148Y-241368D01*
X-249322Y-241327D01*
X-251279Y-241647D01*
X-251431Y-241742D01*
X-251609Y-241737D01*
X-253458Y-242454D01*
X-253587Y-242578D01*
X-253762Y-242610D01*
X-255424Y-243694D01*
X-255524Y-243841D01*
X-255689Y-243909D01*
X-257091Y-245311D01*
X-257160Y-245476D01*
X-257307Y-245577D01*
X-258390Y-247238D01*
X-258423Y-247413D01*
X-258546Y-247542D01*
X-259263Y-249391D01*
X-259259Y-249570D01*
X-259353Y-249721D01*
X-259673Y-251678D01*
X-259632Y-251852D01*
X-259693Y-252020D01*
X-259651Y-252933D01*
X-259696Y-253860D01*
X-259635Y-254028D01*
X-259676Y-254203D01*
X-259355Y-256187D01*
X-259261Y-256339D01*
X-259266Y-256518D01*
X-258541Y-258393D01*
X-258418Y-258522D01*
X-258385Y-258698D01*
X-257288Y-260383D01*
X-257141Y-260484D01*
X-257072Y-260649D01*
X-255651Y-262071D01*
X-255485Y-262139D01*
X-255384Y-262287D01*
X-253700Y-263384D01*
X-253524Y-263416D01*
X-253394Y-263540D01*
X-251519Y-264264D01*
X-251341Y-264260D01*
X-251188Y-264354D01*
X-249204Y-264675D01*
X-249030Y-264634D01*
X-248862Y-264694D01*
X-247897Y-264648D01*
X-122108Y-264648D01*
X-121147Y-264700D01*
X-120977Y-264640D01*
X-120802Y-264683D01*
X-118813Y-264370D01*
X-118659Y-264276D01*
X-118479Y-264281D01*
X-116598Y-263561D01*
X-116468Y-263437D01*
X-116290Y-263404D01*
X-114601Y-262308D01*
X-114499Y-262160D01*
X-114332Y-262090D01*
X-112908Y-260667D01*
X-112839Y-260500D01*
X-112691Y-260398D01*
X-111595Y-258709D01*
X-111562Y-258531D01*
X-111438Y-258401D01*
X-110718Y-256520D01*
X-110723Y-256340D01*
X-110629Y-256186D01*
X-110316Y-254197D01*
X-110359Y-254021D01*
X-110299Y-253852D01*
X-110349Y-252930D01*
X-110306Y-252022D01*
X-110366Y-251854D01*
X-110325Y-251680D01*
X-110643Y-249722D01*
X-110737Y-249569D01*
X-110732Y-249391D01*
X-111448Y-247540D01*
X-111571Y-247411D01*
X-111604Y-247235D01*
X-112687Y-245572D01*
X-112834Y-245471D01*
X-112903Y-245306D01*
X-114306Y-243903D01*
X-114471Y-243835D01*
X-114572Y-243687D01*
X-116235Y-242604D01*
X-116411Y-242572D01*
X-116540Y-242448D01*
X-118390Y-241733D01*
X-118569Y-241737D01*
X-118721Y-241643D01*
X-120680Y-241325D01*
X-120854Y-241366D01*
X-121022Y-241306D01*
D02*
G37*
G36*
X440850Y-282726D02*
X439150D01*
X437579Y-283377D01*
X436377Y-284579D01*
X435726Y-286150D01*
Y-287850D01*
X436377Y-289421D01*
X437579Y-290623D01*
X439150Y-291274D01*
X440850D01*
X442421Y-290623D01*
X443623Y-289421D01*
X444274Y-287850D01*
Y-286150D01*
X443623Y-284579D01*
X442421Y-283377D01*
X440850Y-282726D01*
D02*
G37*
G36*
X-59150D02*
X-60850D01*
X-62421Y-283377D01*
X-63623Y-284579D01*
X-64274Y-286150D01*
Y-287850D01*
X-63623Y-289421D01*
X-62421Y-290623D01*
X-60850Y-291274D01*
X-59150D01*
X-57579Y-290623D01*
X-56377Y-289421D01*
X-55726Y-287850D01*
Y-286150D01*
X-56377Y-284579D01*
X-57579Y-283377D01*
X-59150Y-282726D01*
D02*
G37*
G36*
X-32150Y-375726D02*
X-33850D01*
X-34790Y-376115D01*
X-41210D01*
X-42150Y-375726D01*
X-43850D01*
X-45421Y-376377D01*
X-46623Y-377579D01*
X-47274Y-379150D01*
Y-380850D01*
X-46623Y-382421D01*
X-45421Y-383623D01*
X-43850Y-384274D01*
X-42150D01*
X-41210Y-383885D01*
X-34790D01*
X-33850Y-384274D01*
X-32150D01*
X-30579Y-383623D01*
X-29377Y-382421D01*
X-28726Y-380850D01*
Y-379150D01*
X-29377Y-377579D01*
X-30579Y-376377D01*
X-32150Y-375726D01*
D02*
G37*
G36*
X-42150Y-365726D02*
X-43850D01*
X-45421Y-366377D01*
X-46623Y-367579D01*
X-47274Y-369150D01*
Y-370850D01*
X-46623Y-372421D01*
X-45421Y-373623D01*
X-43850Y-374274D01*
X-42150D01*
X-41210Y-373885D01*
X-24609D01*
X-22013Y-376481D01*
X-21623Y-377421D01*
X-20421Y-378623D01*
X-19235Y-379115D01*
X-19019Y-380355D01*
X-19037Y-380467D01*
X-21200Y-381716D01*
X-23535Y-384050D01*
X-25185Y-386910D01*
X-26040Y-390099D01*
Y-390480D01*
X-14770D01*
Y-378243D01*
X-14896Y-377940D01*
X-14377Y-377421D01*
X-13726Y-375850D01*
Y-374150D01*
X-14377Y-372579D01*
X-15579Y-371377D01*
X-16519Y-370987D01*
X-20253Y-367253D01*
X-21513Y-366411D01*
X-23000Y-366115D01*
X-41210D01*
X-42150Y-365726D01*
D02*
G37*
G36*
X-264770Y-379210D02*
X-265151D01*
X-268340Y-380065D01*
X-271200Y-381716D01*
X-273535Y-384050D01*
X-275186Y-386910D01*
X-276040Y-390099D01*
Y-390480D01*
X-264770D01*
Y-379210D01*
D02*
G37*
G36*
X-11849D02*
X-12230D01*
Y-391750D01*
Y-404290D01*
X-11849D01*
X-8660Y-403435D01*
X-5800Y-401785D01*
X-3465Y-399450D01*
X-1815Y-396590D01*
X-1132Y-394041D01*
X183D01*
X761Y-396198D01*
X2279Y-398826D01*
X4424Y-400971D01*
X7052Y-402489D01*
X9983Y-403274D01*
X13017D01*
X15948Y-402489D01*
X18576Y-400971D01*
X20721Y-398826D01*
X22239Y-396198D01*
X23024Y-393267D01*
Y-390233D01*
X22239Y-387302D01*
X20721Y-384674D01*
X18576Y-382528D01*
X15948Y-381011D01*
X13017Y-380226D01*
X9983D01*
X7052Y-381011D01*
X4424Y-382528D01*
X2279Y-384674D01*
X761Y-387302D01*
X183Y-389459D01*
X-1132D01*
X-1815Y-386910D01*
X-3465Y-384050D01*
X-5800Y-381716D01*
X-8660Y-380065D01*
X-11849Y-379210D01*
D02*
G37*
G36*
X-261849D02*
X-262230D01*
Y-391750D01*
Y-404290D01*
X-261849D01*
X-258660Y-403435D01*
X-255800Y-401785D01*
X-253465Y-399450D01*
X-251815Y-396590D01*
X-251131Y-394041D01*
X-249817D01*
X-249239Y-396198D01*
X-247722Y-398826D01*
X-245576Y-400971D01*
X-242948Y-402489D01*
X-240017Y-403274D01*
X-236983D01*
X-234052Y-402489D01*
X-231424Y-400971D01*
X-229279Y-398826D01*
X-227761Y-396198D01*
X-226976Y-393267D01*
Y-390233D01*
X-227761Y-387302D01*
X-229279Y-384674D01*
X-231424Y-382528D01*
X-234052Y-381011D01*
X-236983Y-380226D01*
X-240017D01*
X-242948Y-381011D01*
X-245576Y-382528D01*
X-247722Y-384674D01*
X-249239Y-387302D01*
X-249817Y-389459D01*
X-251131D01*
X-251815Y-386910D01*
X-253465Y-384050D01*
X-255800Y-381716D01*
X-258660Y-380065D01*
X-261849Y-379210D01*
D02*
G37*
G36*
X-14770Y-393020D02*
X-26040D01*
Y-393401D01*
X-25185Y-396590D01*
X-23535Y-399450D01*
X-21200Y-401785D01*
X-18340Y-403435D01*
X-15151Y-404290D01*
X-14770D01*
Y-393020D01*
D02*
G37*
G36*
X-264770D02*
X-276040D01*
Y-393401D01*
X-275186Y-396590D01*
X-273535Y-399450D01*
X-271200Y-401785D01*
X-268340Y-403435D01*
X-265151Y-404290D01*
X-264770D01*
Y-393020D01*
D02*
G37*
G36*
X10401Y-408110D02*
X10020D01*
Y-419380D01*
X21290D01*
Y-418999D01*
X20435Y-415810D01*
X18785Y-412950D01*
X16450Y-410616D01*
X13590Y-408965D01*
X10401Y-408110D01*
D02*
G37*
G36*
X-239599D02*
X-239980D01*
Y-419380D01*
X-228710D01*
Y-418999D01*
X-229565Y-415810D01*
X-231215Y-412950D01*
X-233550Y-410616D01*
X-236410Y-408965D01*
X-239599Y-408110D01*
D02*
G37*
G36*
X7480D02*
X7099D01*
X3910Y-408965D01*
X1050Y-410616D01*
X-1285Y-412950D01*
X-2935Y-415810D01*
X-3790Y-418999D01*
Y-419380D01*
X7480D01*
Y-408110D01*
D02*
G37*
G36*
X-242520D02*
X-242901D01*
X-246090Y-408965D01*
X-248950Y-410616D01*
X-251285Y-412950D01*
X-252935Y-415810D01*
X-253790Y-418999D01*
Y-419380D01*
X-242520D01*
Y-408110D01*
D02*
G37*
G36*
X21290Y-421920D02*
X10020D01*
Y-433190D01*
X10401D01*
X13590Y-432335D01*
X16450Y-430685D01*
X18785Y-428350D01*
X20435Y-425490D01*
X21290Y-422301D01*
Y-421920D01*
D02*
G37*
G36*
X7480D02*
X-3790D01*
Y-422301D01*
X-2935Y-425490D01*
X-1285Y-428350D01*
X1050Y-430685D01*
X3910Y-432335D01*
X7099Y-433190D01*
X7480D01*
Y-421920D01*
D02*
G37*
G36*
X-228710D02*
X-239980D01*
Y-433190D01*
X-239599D01*
X-236410Y-432335D01*
X-233550Y-430685D01*
X-231215Y-428350D01*
X-229565Y-425490D01*
X-228710Y-422301D01*
Y-421920D01*
D02*
G37*
G36*
X-242520D02*
X-253790D01*
Y-422301D01*
X-252935Y-425490D01*
X-251285Y-428350D01*
X-248950Y-430685D01*
X-246090Y-432335D01*
X-242901Y-433190D01*
X-242520D01*
Y-421920D01*
D02*
G37*
G36*
X-59150Y-437726D02*
X-60850D01*
X-62421Y-438377D01*
X-63623Y-439579D01*
X-64274Y-441150D01*
Y-442850D01*
X-63623Y-444421D01*
X-62421Y-445623D01*
X-60850Y-446274D01*
X-59150D01*
X-57579Y-445623D01*
X-56377Y-444421D01*
X-55726Y-442850D01*
Y-441150D01*
X-56377Y-439579D01*
X-57579Y-438377D01*
X-59150Y-437726D01*
D02*
G37*
G36*
X10267Y-434526D02*
X7233D01*
X4302Y-435311D01*
X1674Y-436828D01*
X-472Y-438974D01*
X-1989Y-441602D01*
X-2774Y-444533D01*
Y-447567D01*
X-1989Y-450498D01*
X-472Y-453126D01*
X1674Y-455271D01*
X4302Y-456789D01*
X7233Y-457574D01*
X10267D01*
X13198Y-456789D01*
X15826Y-455271D01*
X17972Y-453126D01*
X19489Y-450498D01*
X20274Y-447567D01*
Y-444533D01*
X19489Y-441602D01*
X17972Y-438974D01*
X15826Y-436828D01*
X13198Y-435311D01*
X10267Y-434526D01*
D02*
G37*
G36*
X-239733D02*
X-242767D01*
X-245698Y-435311D01*
X-248326Y-436828D01*
X-250471Y-438974D01*
X-251989Y-441602D01*
X-252774Y-444533D01*
Y-447567D01*
X-251989Y-450498D01*
X-250471Y-453126D01*
X-248326Y-455271D01*
X-245698Y-456789D01*
X-242767Y-457574D01*
X-239733D01*
X-236802Y-456789D01*
X-234174Y-455271D01*
X-232029Y-453126D01*
X-230511Y-450498D01*
X-229726Y-447567D01*
Y-444533D01*
X-230511Y-441602D01*
X-232029Y-438974D01*
X-234174Y-436828D01*
X-236802Y-435311D01*
X-239733Y-434526D01*
D02*
G37*
G36*
X570500Y-439391D02*
X566270D01*
Y-458730D01*
X578609D01*
Y-447500D01*
X578333Y-445401D01*
X577523Y-443445D01*
X576234Y-441766D01*
X574555Y-440477D01*
X572599Y-439667D01*
X570500Y-439391D01*
D02*
G37*
G36*
X563730D02*
X559500D01*
X557401Y-439667D01*
X555445Y-440477D01*
X553766Y-441766D01*
X552477Y-443445D01*
X551667Y-445401D01*
X551391Y-447500D01*
Y-458730D01*
X563730D01*
Y-439391D01*
D02*
G37*
G36*
X617500Y-440415D02*
X606500D01*
X604666Y-440657D01*
X602958Y-441365D01*
X601490Y-442491D01*
X600364Y-443958D01*
X599657Y-445666D01*
X599415Y-447500D01*
Y-472500D01*
X599657Y-474334D01*
X600364Y-476042D01*
X601490Y-477510D01*
X602958Y-478635D01*
X604666Y-479343D01*
X606500Y-479585D01*
X617500D01*
X619334Y-479343D01*
X621042Y-478635D01*
X622510Y-477510D01*
X623635Y-476042D01*
X624343Y-474334D01*
X624585Y-472500D01*
Y-447500D01*
X624343Y-445666D01*
X623635Y-443958D01*
X622510Y-442491D01*
X621042Y-441365D01*
X619334Y-440657D01*
X617500Y-440415D01*
D02*
G37*
G36*
X523500D02*
X512500D01*
X510666Y-440657D01*
X508958Y-441365D01*
X507490Y-442491D01*
X506365Y-443958D01*
X505657Y-445666D01*
X505415Y-447500D01*
Y-472500D01*
X505657Y-474334D01*
X506365Y-476042D01*
X507490Y-477510D01*
X508958Y-478635D01*
X510666Y-479343D01*
X512500Y-479585D01*
X523500D01*
X525334Y-479343D01*
X527042Y-478635D01*
X528510Y-477510D01*
X529635Y-476042D01*
X530343Y-474334D01*
X530585Y-472500D01*
Y-447500D01*
X530343Y-445666D01*
X529635Y-443958D01*
X528510Y-442491D01*
X527042Y-441365D01*
X525334Y-440657D01*
X523500Y-440415D01*
D02*
G37*
G36*
X578609Y-461270D02*
X566270D01*
Y-480609D01*
X570500D01*
X572599Y-480333D01*
X574555Y-479523D01*
X576234Y-478234D01*
X577523Y-476555D01*
X578333Y-474599D01*
X578609Y-472500D01*
Y-461270D01*
D02*
G37*
G36*
X563730D02*
X551391D01*
Y-472500D01*
X551667Y-474599D01*
X552477Y-476555D01*
X553766Y-478234D01*
X555445Y-479523D01*
X557401Y-480333D01*
X559500Y-480609D01*
X563730D01*
Y-461270D01*
D02*
G37*
G36*
X10267Y-459926D02*
X7233D01*
X4302Y-460711D01*
X1674Y-462229D01*
X-472Y-464374D01*
X-1989Y-467002D01*
X-2774Y-469933D01*
Y-472967D01*
X-1989Y-475898D01*
X-472Y-478526D01*
X1674Y-480672D01*
X4302Y-482189D01*
X7233Y-482974D01*
X10267D01*
X13198Y-482189D01*
X15826Y-480672D01*
X17972Y-478526D01*
X19489Y-475898D01*
X20274Y-472967D01*
Y-469933D01*
X19489Y-467002D01*
X17972Y-464374D01*
X15826Y-462229D01*
X13198Y-460711D01*
X10267Y-459926D01*
D02*
G37*
G36*
X-239733D02*
X-242767D01*
X-245698Y-460711D01*
X-248326Y-462229D01*
X-250471Y-464374D01*
X-251989Y-467002D01*
X-252774Y-469933D01*
Y-472967D01*
X-251989Y-475898D01*
X-250471Y-478526D01*
X-248326Y-480672D01*
X-245698Y-482189D01*
X-242767Y-482974D01*
X-239733D01*
X-236802Y-482189D01*
X-234174Y-480672D01*
X-232029Y-478526D01*
X-230511Y-475898D01*
X-229726Y-472967D01*
Y-469933D01*
X-230511Y-467002D01*
X-232029Y-464374D01*
X-234174Y-462229D01*
X-236802Y-460711D01*
X-239733Y-459926D01*
D02*
G37*
G36*
X445850Y-430726D02*
X444150D01*
X442579Y-431377D01*
X441377Y-432579D01*
X440726Y-434150D01*
Y-435850D01*
X441003Y-436520D01*
X440392Y-437726D01*
X439150D01*
X437579Y-438377D01*
X436377Y-439579D01*
X435726Y-441150D01*
Y-442850D01*
X436377Y-444421D01*
X437579Y-445623D01*
X439150Y-446274D01*
X440850D01*
X441115Y-446451D01*
Y-478210D01*
X440726Y-479150D01*
Y-480850D01*
X441377Y-482421D01*
X442579Y-483623D01*
X444150Y-484274D01*
X445850D01*
X447421Y-483623D01*
X448623Y-482421D01*
X449274Y-480850D01*
Y-479150D01*
X448885Y-478210D01*
Y-436790D01*
X449274Y-435850D01*
Y-434150D01*
X448623Y-432579D01*
X447421Y-431377D01*
X445850Y-430726D01*
D02*
G37*
G36*
X10267Y-485326D02*
X7233D01*
X4302Y-486111D01*
X1674Y-487629D01*
X-472Y-489774D01*
X-1989Y-492402D01*
X-2774Y-495333D01*
Y-498367D01*
X-1989Y-501298D01*
X-472Y-503926D01*
X1674Y-506072D01*
X4302Y-507589D01*
X7233Y-508374D01*
X10267D01*
X13198Y-507589D01*
X15826Y-506072D01*
X17972Y-503926D01*
X19489Y-501298D01*
X20274Y-498367D01*
Y-495333D01*
X19489Y-492402D01*
X17972Y-489774D01*
X15826Y-487629D01*
X13198Y-486111D01*
X10267Y-485326D01*
D02*
G37*
G36*
X-239733D02*
X-242767D01*
X-245698Y-486111D01*
X-248326Y-487629D01*
X-250471Y-489774D01*
X-251989Y-492402D01*
X-252774Y-495333D01*
Y-498367D01*
X-251989Y-501298D01*
X-250471Y-503926D01*
X-248326Y-506072D01*
X-245698Y-507589D01*
X-242767Y-508374D01*
X-239733D01*
X-236802Y-507589D01*
X-234174Y-506072D01*
X-232029Y-503926D01*
X-230511Y-501298D01*
X-229726Y-498367D01*
Y-495333D01*
X-230511Y-492402D01*
X-232029Y-489774D01*
X-234174Y-487629D01*
X-236802Y-486111D01*
X-239733Y-485326D01*
D02*
G37*
G36*
X8188Y-509726D02*
X5812D01*
X3517Y-510341D01*
X1459Y-511529D01*
X-221Y-513209D01*
X-1409Y-515267D01*
X-2024Y-517562D01*
Y-519938D01*
X-1409Y-522233D01*
X-221Y-524291D01*
X1459Y-525971D01*
X3517Y-527159D01*
X5812Y-527774D01*
X8188D01*
X10483Y-527159D01*
X12541Y-525971D01*
X14221Y-524291D01*
X15409Y-522233D01*
X16024Y-519938D01*
Y-517562D01*
X15409Y-515267D01*
X14221Y-513209D01*
X12541Y-511529D01*
X10483Y-510341D01*
X8188Y-509726D01*
D02*
G37*
G36*
X-241812D02*
X-244188D01*
X-246483Y-510341D01*
X-248541Y-511529D01*
X-250221Y-513209D01*
X-251409Y-515267D01*
X-252024Y-517562D01*
Y-519938D01*
X-251409Y-522233D01*
X-250221Y-524291D01*
X-248541Y-525971D01*
X-246483Y-527159D01*
X-244188Y-527774D01*
X-241812D01*
X-239517Y-527159D01*
X-237459Y-525971D01*
X-235779Y-524291D01*
X-234591Y-522233D01*
X-233976Y-519938D01*
Y-517562D01*
X-234591Y-515267D01*
X-235779Y-513209D01*
X-237459Y-511529D01*
X-239517Y-510341D01*
X-241812Y-509726D01*
D02*
G37*
G36*
X150500Y-388350D02*
X135500D01*
X135197Y-388476D01*
X133976D01*
Y-389697D01*
X133850Y-390000D01*
Y-406100D01*
X124500D01*
X124197Y-406226D01*
X122976D01*
Y-407447D01*
X122850Y-407750D01*
Y-429750D01*
X122976Y-430053D01*
Y-431274D01*
X124197D01*
X124500Y-431400D01*
X133850D01*
Y-475850D01*
X124500D01*
X124197Y-475976D01*
X122976D01*
Y-477197D01*
X122850Y-477500D01*
Y-499500D01*
X122976Y-499803D01*
Y-501024D01*
X124197D01*
X124500Y-501150D01*
X133850D01*
Y-530000D01*
X133976Y-530303D01*
Y-531524D01*
X135197D01*
X135500Y-531650D01*
X150500D01*
X150803Y-531524D01*
X152024D01*
Y-530303D01*
X152150Y-530000D01*
Y-499500D01*
X152150Y-499500D01*
Y-477500D01*
X152150Y-477500D01*
Y-429750D01*
X152150Y-429750D01*
Y-407750D01*
X152150Y-407750D01*
Y-390000D01*
X152024Y-389697D01*
Y-388476D01*
X150803D01*
X150500Y-388350D01*
D02*
G37*
G36*
X-99500D02*
X-114500D01*
X-114803Y-388476D01*
X-116024D01*
Y-389697D01*
X-116150Y-390000D01*
Y-406100D01*
X-125500D01*
X-125803Y-406226D01*
X-127024D01*
Y-407447D01*
X-127150Y-407750D01*
Y-429750D01*
X-127024Y-430053D01*
Y-431274D01*
X-125803D01*
X-125500Y-431400D01*
X-116150D01*
Y-475850D01*
X-125500D01*
X-125803Y-475976D01*
X-127024D01*
Y-477197D01*
X-127150Y-477500D01*
Y-499500D01*
X-127024Y-499803D01*
Y-501024D01*
X-125803D01*
X-125500Y-501150D01*
X-116150D01*
Y-530000D01*
X-116024Y-530303D01*
Y-531524D01*
X-114803D01*
X-114500Y-531650D01*
X-99500D01*
X-99197Y-531524D01*
X-97976D01*
Y-530303D01*
X-97851Y-530000D01*
Y-499500D01*
X-97850Y-499500D01*
Y-477500D01*
X-97851Y-477500D01*
Y-429750D01*
X-97850Y-429750D01*
Y-407750D01*
X-97851Y-407750D01*
Y-390000D01*
X-97976Y-389697D01*
Y-388476D01*
X-99197D01*
X-99500Y-388350D01*
D02*
G37*
G36*
X-378946Y-553311D02*
X-380027Y-553362D01*
X-595974Y-553362D01*
X-597057Y-553313D01*
X-597225Y-553373D01*
X-597398Y-553333D01*
X-599612Y-553695D01*
X-599764Y-553789D01*
X-599942Y-553785D01*
X-602034Y-554596D01*
X-602163Y-554719D01*
X-602338Y-554752D01*
X-604217Y-555977D01*
X-604318Y-556124D01*
X-604483Y-556192D01*
X-606069Y-557779D01*
X-606138Y-557943D01*
X-606285Y-558044D01*
X-607510Y-559924D01*
X-607543Y-560099D01*
X-607666Y-560228D01*
X-608477Y-562319D01*
X-608473Y-562498D01*
X-608567Y-562649D01*
X-608929Y-564863D01*
X-608888Y-565037D01*
X-608949Y-565205D01*
X-608901Y-566248D01*
X-608951Y-567292D01*
X-608891Y-567461D01*
X-608932Y-567635D01*
X-608574Y-569851D01*
X-608480Y-570003D01*
X-608484Y-570182D01*
X-607675Y-572276D01*
X-607551Y-572405D01*
X-607519Y-572581D01*
X-606294Y-574462D01*
X-606146Y-574563D01*
X-606078Y-574729D01*
X-604491Y-576316D01*
X-604325Y-576385D01*
X-604224Y-576532D01*
X-602343Y-577757D01*
X-602167Y-577790D01*
X-602037Y-577913D01*
X-599944Y-578722D01*
X-599765Y-578718D01*
X-599612Y-578812D01*
X-597397Y-579170D01*
X-597222Y-579129D01*
X-597054Y-579190D01*
X-595972Y-579138D01*
X-380033D01*
X-378955Y-579196D01*
X-378784Y-579136D01*
X-378609Y-579179D01*
X-376388Y-578829D01*
X-376234Y-578735D01*
X-376054Y-578740D01*
X-373954Y-577936D01*
X-373823Y-577812D01*
X-373646Y-577779D01*
X-371759Y-576555D01*
X-371657Y-576407D01*
X-371491Y-576338D01*
X-369901Y-574748D01*
X-369832Y-574581D01*
X-369683Y-574479D01*
X-368459Y-572593D01*
X-368426Y-572415D01*
X-368302Y-572285D01*
X-367498Y-570185D01*
X-367503Y-570004D01*
X-367409Y-569851D01*
X-367060Y-567629D01*
X-367102Y-567454D01*
X-367042Y-567284D01*
X-367098Y-566246D01*
X-367049Y-565207D01*
X-367110Y-565039D01*
X-367068Y-564865D01*
X-367428Y-562649D01*
X-367522Y-562497D01*
X-367517Y-562319D01*
X-368327Y-560225D01*
X-368450Y-560096D01*
X-368483Y-559920D01*
X-369708Y-558039D01*
X-369855Y-557938D01*
X-369924Y-557773D01*
X-371511Y-556185D01*
X-371676Y-556117D01*
X-371777Y-555970D01*
X-373658Y-554745D01*
X-373834Y-554712D01*
X-373963Y-554589D01*
X-376057Y-553779D01*
X-376236Y-553783D01*
X-376388Y-553689D01*
X-378604Y-553330D01*
X-378778Y-553371D01*
X-378946Y-553311D01*
D02*
G37*
%LPD*%
G36*
X-438750Y493500D02*
X-439500D01*
X-448750Y502750D01*
Y564250D01*
X-439500Y573500D01*
X-438750D01*
Y493500D01*
D02*
G37*
G36*
X-551250Y564250D02*
Y502750D01*
X-560500Y493500D01*
X-561250D01*
Y573500D01*
X-560500D01*
X-551250Y564250D01*
D02*
G37*
G36*
X-471552Y470942D02*
X-492500Y449994D01*
X-505987Y463481D01*
X-506377Y464421D01*
X-507579Y465623D01*
X-507629Y465877D01*
X-501391Y472115D01*
X-472038D01*
X-471552Y470942D01*
D02*
G37*
G36*
X-570862Y320845D02*
X-571013Y320481D01*
X-575747Y315747D01*
X-576589Y314487D01*
X-576885Y313000D01*
Y298885D01*
X-593332D01*
X-594181Y300155D01*
X-593976Y300650D01*
Y302350D01*
X-594365Y303290D01*
Y314141D01*
X-590711Y317795D01*
X-589623Y317579D01*
X-588421Y316377D01*
X-586850Y315726D01*
X-585150D01*
X-583579Y316377D01*
X-582377Y317579D01*
X-581726Y319150D01*
Y320850D01*
X-581813Y321059D01*
X-581107Y322115D01*
X-571588D01*
X-570862Y320845D01*
D02*
G37*
G36*
X-496885Y292391D02*
Y218757D01*
X-496589Y217271D01*
X-495747Y216010D01*
X-470280Y190544D01*
X-470806Y189274D01*
X-471850D01*
X-473421Y188623D01*
X-474623Y187421D01*
X-475274Y185850D01*
Y184150D01*
X-474623Y182579D01*
X-473421Y181377D01*
X-471850Y180726D01*
X-470150D01*
X-468579Y181377D01*
X-467377Y182579D01*
X-466726Y184150D01*
Y185194D01*
X-465456Y185720D01*
X-418885Y139148D01*
Y29790D01*
X-419274Y28850D01*
Y27150D01*
X-418623Y25579D01*
X-417421Y24377D01*
X-415850Y23726D01*
X-414274D01*
Y22150D01*
X-414451Y21885D01*
X-504148D01*
X-513115Y30852D01*
Y61000D01*
X-513411Y62487D01*
X-514253Y63747D01*
X-519115Y68609D01*
Y110391D01*
X-513044Y116462D01*
X-511774Y115936D01*
Y113450D01*
X-510972Y110455D01*
X-509422Y107771D01*
X-507229Y105578D01*
X-504545Y104028D01*
X-501550Y103226D01*
X-498450D01*
X-495455Y104028D01*
X-492771Y105578D01*
X-490578Y107771D01*
X-489028Y110455D01*
X-488226Y113450D01*
Y116550D01*
X-489028Y119545D01*
X-490578Y122229D01*
X-492771Y124422D01*
X-495455Y125972D01*
X-498450Y126774D01*
X-501550D01*
X-504545Y125972D01*
X-505015Y125700D01*
X-506115Y126335D01*
Y147000D01*
X-506411Y148487D01*
X-507253Y149747D01*
X-510115Y152609D01*
Y294549D01*
X-509850Y294726D01*
X-508150D01*
X-506579Y295377D01*
X-505377Y296579D01*
X-504726Y298150D01*
Y298436D01*
X-503456Y298962D01*
X-496885Y292391D01*
D02*
G37*
G36*
X-438750Y-293500D02*
X-439500D01*
X-448750Y-284250D01*
Y-222750D01*
X-439500Y-213500D01*
X-438750D01*
Y-293500D01*
D02*
G37*
G36*
X-551250Y-222750D02*
Y-284250D01*
X-560500Y-293500D01*
X-561250D01*
Y-213500D01*
X-560500D01*
X-551250Y-222750D01*
D02*
G37*
G36*
X-473735Y-81174D02*
Y-302998D01*
X-474498Y-303952D01*
X-474696D01*
X-475965Y-302998D01*
Y-81609D01*
X-475005Y-80648D01*
X-473735Y-81174D01*
D02*
G37*
%LPC*%
G36*
X-451750Y124354D02*
X-458250D01*
X-460671Y124035D01*
X-462927Y123101D01*
X-464864Y121614D01*
X-466351Y119677D01*
X-467285Y117421D01*
X-467604Y115000D01*
X-467285Y112579D01*
X-466351Y110323D01*
X-464864Y108386D01*
X-462927Y106899D01*
X-460671Y105965D01*
X-458250Y105646D01*
X-451750D01*
X-449329Y105965D01*
X-447073Y106899D01*
X-445136Y108386D01*
X-443649Y110323D01*
X-442715Y112579D01*
X-442396Y115000D01*
X-442715Y117421D01*
X-443649Y119677D01*
X-445136Y121614D01*
X-447073Y123101D01*
X-449329Y124035D01*
X-451750Y124354D01*
D02*
G37*
G36*
X-470150Y49274D02*
X-471850D01*
X-473421Y48623D01*
X-474623Y47421D01*
X-475274Y45850D01*
Y44150D01*
X-474623Y42579D01*
X-473421Y41377D01*
X-471850Y40726D01*
X-470150D01*
X-468579Y41377D01*
X-467377Y42579D01*
X-466726Y44150D01*
Y45850D01*
X-467377Y47421D01*
X-468579Y48623D01*
X-470150Y49274D01*
D02*
G37*
%LPD*%
G36*
X201115Y218391D02*
Y94451D01*
X200850Y94274D01*
X199150D01*
X197579Y93623D01*
X196377Y92421D01*
X195726Y90850D01*
Y89150D01*
X196115Y88210D01*
Y-313391D01*
X185058Y-324448D01*
X183885Y-323962D01*
X183885Y88210D01*
X184274Y89150D01*
Y90850D01*
X183623Y92421D01*
X182421Y93623D01*
X180850Y94274D01*
X179150D01*
X178885Y94451D01*
Y135210D01*
X179274Y136150D01*
Y137850D01*
X178885Y138790D01*
Y238962D01*
X180058Y239448D01*
X201115Y218391D01*
D02*
G37*
%LPC*%
G36*
X190850Y149274D02*
X189150D01*
X187579Y148623D01*
X186377Y147421D01*
X185726Y145850D01*
Y144150D01*
X186377Y142579D01*
X187579Y141376D01*
X189150Y140726D01*
X190850D01*
X192421Y141376D01*
X193623Y142579D01*
X194274Y144150D01*
Y145850D01*
X193623Y147421D01*
X192421Y148623D01*
X190850Y149274D01*
D02*
G37*
G36*
Y-270726D02*
X189150D01*
X187579Y-271377D01*
X186377Y-272579D01*
X185726Y-274150D01*
Y-275850D01*
X186377Y-277421D01*
X187579Y-278624D01*
X189150Y-279274D01*
X190850D01*
X192421Y-278624D01*
X193623Y-277421D01*
X194274Y-275850D01*
Y-274150D01*
X193623Y-272579D01*
X192421Y-271377D01*
X190850Y-270726D01*
D02*
G37*
%LPD*%
D12*
X-540000Y-300250D02*
X-504000D01*
X-584750D02*
X-540000D01*
X-584850Y-316000D02*
Y-300350D01*
X-584950Y-300250D02*
X-584850Y-300350D01*
X-588362Y-300250D02*
X-584950D01*
X-589850Y-316000D02*
Y-301738D01*
Y-316000D02*
X-589846Y-315996D01*
X-589850Y-301738D02*
X-588362Y-300250D01*
X-584875Y-315975D02*
X-584850Y-316000D01*
X-504000Y-300250D02*
X-499850Y-304400D01*
Y-316000D02*
Y-304400D01*
X-579850Y-316000D02*
Y-300500D01*
X-380000Y-577500D02*
G03*
X-380000Y-555000I0J11250D01*
G01*
X-596000D02*
G03*
X-596000Y-577500I0J-11250D01*
G01*
X502000Y-243000D02*
G03*
X502000Y-263000I0J-10000D01*
G01*
X628000D02*
G03*
X628000Y-243000I0J10000D01*
G01*
X378000Y-263000D02*
G03*
X378000Y-243000I0J10000D01*
G01*
X252000D02*
G03*
X252000Y-263000I0J-10000D01*
G01*
X2000Y-243000D02*
G03*
X2000Y-263000I0J-10000D01*
G01*
X128000D02*
G03*
X128000Y-243000I0J10000D01*
G01*
X-122000Y-263000D02*
G03*
X-122000Y-243000I0J10000D01*
G01*
X-248000D02*
G03*
X-248000Y-263000I0J-10000D01*
G01*
X502000Y332000D02*
G03*
X502000Y312000I0J-10000D01*
G01*
X628000D02*
G03*
X628000Y332000I0J10000D01*
G01*
X378000Y312000D02*
G03*
X378000Y332000I0J10000D01*
G01*
X252000D02*
G03*
X252000Y312000I0J-10000D01*
G01*
X2000Y332000D02*
G03*
X2000Y312000I0J-10000D01*
G01*
X128000D02*
G03*
X128000Y332000I0J10000D01*
G01*
X-122000Y312000D02*
G03*
X-122000Y332000I0J10000D01*
G01*
X-248000D02*
G03*
X-248000Y312000I0J-10000D01*
G01*
X690000Y-600000D02*
G03*
X725000Y-565000I0J35000D01*
G01*
X-725000D02*
G03*
X-690000Y-600000I35000J0D01*
G01*
X725000Y565000D02*
G03*
X690000Y600000I-35000J0D01*
G01*
X-690000D02*
G03*
X-725000Y565000I0J-35000D01*
G01*
X-596000Y-577500D02*
X-380000D01*
X-596000Y-555000D02*
X-380000D01*
X502000Y-243000D02*
X628000D01*
X502000Y-263000D02*
X628000D01*
X252000D02*
X378000D01*
X252000Y-243000D02*
X378000D01*
X2000D02*
X128000D01*
X2000Y-263000D02*
X128000D01*
X-248000D02*
X-122000D01*
X-248000Y-243000D02*
X-122000D01*
X502000Y332000D02*
X628000D01*
X502000Y312000D02*
X628000D01*
X252000D02*
X378000D01*
X252000Y332000D02*
X378000D01*
X2000D02*
X128000D01*
X2000Y312000D02*
X128000D01*
X-248000D02*
X-122000D01*
X-248000Y332000D02*
X-122000D01*
X-725000Y-565000D02*
Y565000D01*
X-690000Y-600000D02*
X690000D01*
X725000Y-565000D02*
Y565000D01*
X-690000Y600000D02*
X690000D01*
D18*
X205000Y-489000D02*
Y-477500D01*
X195000Y-467500D02*
Y-400000D01*
Y-467500D02*
X205000Y-477500D01*
X-534000Y26000D02*
X-526000Y34000D01*
X-431204Y-11000D02*
X-418500Y-23704D01*
X-521757Y-8000D02*
X-333120D01*
X-553000Y19243D02*
X-522757Y-11000D01*
X-556000Y18000D02*
X-524000Y-14000D01*
X-550000Y20243D02*
X-521757Y-8000D01*
X-524000Y-14000D02*
X-437236D01*
X-522757Y-11000D02*
X-431204D01*
X-437236Y-14000D02*
X-427250Y-23986D01*
X-522878Y-2880D02*
X-365500D01*
X-547000Y21243D02*
X-522878Y-2880D01*
X-464000Y243000D02*
X-387000D01*
X-375000Y255000D01*
Y310000D01*
X-370000Y315000D01*
X-350000D01*
X-315000Y97000D02*
Y232188D01*
X-188500Y-40000D02*
Y-29500D01*
X-315000Y97000D02*
X-188500Y-29500D01*
X-320000Y94000D02*
X-202500Y-23500D01*
X-320000Y94000D02*
Y227000D01*
X-202500Y-35000D02*
Y-23500D01*
X-209500Y-30000D02*
Y-24500D01*
X-325000Y91000D02*
Y203032D01*
Y91000D02*
X-209500Y-24500D01*
X-330000Y88500D02*
X-216500Y-25000D01*
X-330000Y88500D02*
Y222000D01*
X-216500Y-95200D02*
Y-25000D01*
X-330000Y222000D02*
Y458243D01*
X-325000Y237000D02*
Y456000D01*
Y203032D02*
Y237000D01*
X-320000Y227000D02*
Y453000D01*
X-315000Y450000D02*
X-315000Y232188D01*
X-265000Y538000D02*
X-248000Y555000D01*
X-208500D02*
X-188500Y535000D01*
X-248000Y555000D02*
X-208500D01*
X-265000Y500000D02*
Y538000D01*
X-315000Y450000D02*
X-265000Y500000D01*
X-202500Y-95200D02*
Y-35000D01*
X-209500Y-95200D02*
Y-30000D01*
X-270000Y503000D02*
Y540000D01*
X-320000Y453000D02*
X-270000Y503000D01*
X-277000Y504000D02*
Y545000D01*
X-325000Y456000D02*
X-277000Y504000D01*
X-284000Y504243D02*
Y550000D01*
X-330000Y458243D02*
X-284000Y504243D01*
X-587000Y250000D02*
X-583000Y254000D01*
X-587000Y240000D02*
Y250000D01*
X-582000Y246000D02*
Y251000D01*
X-580000Y253000D01*
Y269000D01*
X-583000Y254000D02*
Y267000D01*
X-591000Y226000D02*
X-577000Y240000D01*
X-591000Y205000D02*
Y226000D01*
X-586000Y215000D02*
Y227000D01*
X-574119Y238881D01*
X-581000Y220000D02*
Y228000D01*
X-571000Y238000D01*
X-577000Y240000D02*
Y271000D01*
X-574119Y252940D02*
X-574000Y253060D01*
X-571000Y238000D02*
Y274688D01*
X-574119Y238881D02*
Y252940D01*
X-574000Y253060D02*
Y273000D01*
X-568000Y233000D02*
Y275930D01*
X-576000Y225000D02*
X-568000Y233000D01*
X-290000Y15000D02*
X-290000Y15000D01*
X-507000Y15000D02*
X-290000D01*
X-295000Y18000D02*
X-293000Y20000D01*
X-285000D01*
X-295000Y12000D02*
X-293000Y10000D01*
X-285000D01*
X210000Y15000D02*
Y17000D01*
Y15000D02*
X210000Y-329000D01*
X-505757Y18000D02*
X-295000D01*
X-520000Y28000D02*
X-507000Y15000D01*
X-508243Y12000D02*
X-295000D01*
X175000Y-283000D02*
Y137000D01*
X195000Y-344000D02*
X210000Y-329000D01*
X195000Y-400000D02*
Y-344000D01*
X200000Y-330000D02*
X205000Y-325000D01*
Y220000D01*
X170000Y-292500D02*
Y127500D01*
X-410000Y23000D02*
Y33000D01*
X-412000Y35000D02*
X-410000Y33000D01*
X-412000Y35000D02*
Y142000D01*
X-490000Y220000D02*
X-412000Y142000D01*
X-493000Y218757D02*
X-415000Y140757D01*
Y28000D02*
Y140757D01*
X-493000Y218757D02*
Y294000D01*
X-490000Y220000D02*
Y298000D01*
X-517000Y29243D02*
X-505757Y18000D01*
X-523000Y26757D02*
X-508243Y12000D01*
X-523000Y67000D02*
X-517000Y61000D01*
Y29243D02*
Y61000D01*
X-520000Y28000D02*
Y59000D01*
X-526000Y65000D02*
X-520000Y59000D01*
X-523000Y26757D02*
Y57000D01*
X-333120Y-8000D02*
X-328000Y-2880D01*
X-503000Y304000D02*
X-493000Y294000D01*
X-508000Y309000D02*
X-503000Y304000D01*
Y311000D02*
X-490000Y298000D01*
X-485000Y245000D02*
Y246000D01*
Y340000D01*
X-529000Y63000D02*
X-523000Y57000D01*
Y67000D02*
Y112000D01*
X-526000Y65000D02*
Y342000D01*
X-529000Y343000D02*
X-515000Y357000D01*
X-526000Y342000D02*
X-510000Y358000D01*
X-532000Y61000D02*
Y343757D01*
X-529000Y63000D02*
Y343000D01*
X-532000Y343757D02*
X-526000Y349757D01*
X-532000Y61000D02*
X-526000Y55000D01*
X-523000Y112000D02*
X-510000Y125000D01*
X-523000Y129000D02*
X-518000Y124000D01*
X-523000Y129000D02*
Y341413D01*
X-510000Y125000D02*
Y147000D01*
X-514000Y151000D02*
X-510000Y147000D01*
X-520000Y137000D02*
X-515000Y132000D01*
Y140000D02*
Y145000D01*
X-517000Y147000D02*
X-515000Y145000D01*
X-553000Y19243D02*
Y281000D01*
X-550000Y20243D02*
Y340000D01*
X-547000Y21243D02*
Y350000D01*
X-556000Y18000D02*
Y280000D01*
X-574850Y-331250D02*
Y-316000D01*
X-526000Y34000D02*
Y55000D01*
X-542000Y31000D02*
X-533000D01*
X-529000Y35000D01*
Y53000D01*
X-427250Y-52400D02*
Y-23986D01*
X-535000Y59000D02*
X-529000Y53000D01*
X-538000Y57000D02*
X-534000Y53000D01*
Y38000D02*
Y53000D01*
X-564850Y-331250D02*
Y-316000D01*
X-542000Y38000D02*
X-537000Y43000D01*
X-541000Y55000D02*
X-537000Y51000D01*
Y43000D02*
Y51000D01*
X-541000Y55000D02*
Y347485D01*
X-544000Y53000D02*
X-542000Y51000D01*
Y45000D02*
Y51000D01*
X-544000Y53000D02*
Y348728D01*
X-569850Y-336600D02*
Y-316000D01*
X-554850Y-342000D02*
X-548250D01*
X-591750D02*
X-554850D01*
X-561000Y215000D02*
X-559000Y217000D01*
Y279000D01*
X-561000Y210000D02*
Y215000D01*
X-566000D02*
X-562000Y219000D01*
Y278000D01*
X-565000Y226000D02*
Y277000D01*
X-571000Y220000D02*
X-565000Y226000D01*
X-470000Y220000D02*
X-428000D01*
X-367450Y159450D01*
X-465000Y215000D02*
X-435700D01*
X-367450Y146750D01*
X-443400Y210000D02*
X-367450Y134050D01*
X-470000Y210000D02*
X-443400D01*
X-464748Y205000D02*
X-451100D01*
X-367450Y121350D01*
X-587200Y271200D02*
X-583000Y267000D01*
X-611130Y271200D02*
X-587200D01*
X-585200Y274200D02*
X-580000Y269000D01*
X-583200Y277200D02*
X-577000Y271000D01*
X-573000Y297000D02*
X-556000Y280000D01*
X-603485Y289000D02*
X-577000D01*
X-568000Y296000D02*
X-553000Y281000D01*
X-606243Y283000D02*
X-579312D01*
X-575000Y295000D02*
X-559000Y279000D01*
X-577000Y289000D02*
X-565000Y277000D01*
X-601000Y295000D02*
X-575000D01*
X-602243Y292000D02*
X-576000D01*
X-573000Y297000D02*
Y313000D01*
X-605000Y286000D02*
X-578070D01*
X-607485Y280000D02*
X-581000D01*
X-579312Y283000D02*
X-571000Y274688D01*
X-568000Y296000D02*
Y311000D01*
X-576000Y292000D02*
X-562000Y278000D01*
X-581000Y280000D02*
X-574000Y273000D01*
X-578070Y286000D02*
X-568000Y275930D01*
X-608645Y277200D02*
X-583200D01*
X-622800Y291355D02*
X-608645Y277200D01*
X-609888Y274200D02*
X-585200D01*
X-628800Y288870D02*
X-611130Y271200D01*
X-625800Y290112D02*
X-609888Y274200D01*
X-620000Y292515D02*
X-607485Y280000D01*
X-617000Y293757D02*
X-606243Y283000D01*
X-614000Y295000D02*
X-605000Y286000D01*
X-628800Y288870D02*
Y324557D01*
X-625800Y290112D02*
Y325800D01*
X-643000Y338757D02*
X-628800Y324557D01*
X-640000Y340000D02*
X-625800Y325800D01*
X-622800Y291355D02*
Y326800D01*
X-637000Y341000D02*
Y367000D01*
Y341000D02*
X-622800Y326800D01*
X-620000Y292515D02*
Y327900D01*
X-632074Y339974D02*
X-620000Y327900D01*
X-617000Y293757D02*
Y329000D01*
X-627000Y339000D02*
X-617000Y329000D01*
X-614000Y295000D02*
Y330000D01*
X-622000Y338000D02*
X-614000Y330000D01*
X-552000Y342000D02*
Y347000D01*
Y342000D02*
X-550000Y340000D01*
X-588000Y326000D02*
X-560000D01*
X-598250Y315750D02*
X-588000Y326000D01*
X-598250Y301500D02*
Y315750D01*
X-605000Y299000D02*
Y345000D01*
X-611000Y296515D02*
Y335000D01*
X-608000Y297757D02*
Y340000D01*
Y297757D02*
X-602243Y292000D01*
X-605000Y299000D02*
X-601000Y295000D01*
X-611000Y296515D02*
X-603485Y289000D01*
X-573000Y313000D02*
X-567000Y319000D01*
X-508000Y309000D02*
Y336000D01*
X-505000Y317000D02*
X-503000Y315000D01*
Y311000D02*
Y315000D01*
X-505000Y317000D02*
Y335000D01*
X-509000Y299000D02*
Y304000D01*
X-511000Y306000D02*
X-509000Y304000D01*
X-511000Y306000D02*
Y337000D01*
X-493000Y355000D01*
X-517000Y147000D02*
Y339000D01*
X-508000Y336000D02*
X-490000Y354000D01*
X-514000Y338000D02*
X-496000Y356000D01*
X-505000Y335000D02*
X-487000Y353000D01*
X-514000Y151000D02*
Y338000D01*
X-517000Y339000D02*
X-499000Y357000D01*
X-520000Y137000D02*
Y340000D01*
X-502000Y358000D01*
X-523000Y341413D02*
X-505000Y359412D01*
X-487000Y353000D02*
Y446000D01*
X-490000Y354000D02*
Y447000D01*
X-493000Y355000D02*
Y445000D01*
X-496000Y356000D02*
Y437000D01*
X-499000Y357000D02*
Y434000D01*
X-502000Y358000D02*
Y430000D01*
X-505000Y359412D02*
Y425000D01*
X-510000Y358000D02*
Y390000D01*
X-515000Y357000D02*
Y395000D01*
X-526000Y349757D02*
Y395000D01*
X-492000Y340000D02*
X-455500Y376500D01*
X-538000Y57000D02*
Y346243D01*
X-535000Y59000D02*
Y345000D01*
X-544000Y348728D02*
X-538000Y354728D01*
X-541000Y347485D02*
X-535000Y353485D01*
X-538000Y346243D02*
X-532000Y352243D01*
X-535000Y345000D02*
X-529000Y351000D01*
X-541000Y356000D02*
Y410000D01*
X-547000Y350000D02*
X-541000Y356000D01*
X-549000Y352000D02*
X-544000Y357000D01*
Y435000D01*
X-579000Y352000D02*
X-549000D01*
X-547000Y358000D02*
Y436000D01*
X-583000Y355000D02*
X-550000D01*
X-547000Y358000D01*
X-591000Y347000D02*
X-583000Y355000D01*
X-591000Y340000D02*
X-579000Y352000D01*
X-455500Y376500D02*
X-337000D01*
X-487000Y446000D02*
X-463000Y470000D01*
X-490000Y447000D02*
X-464000Y473000D01*
X-510000Y462000D02*
X-493000Y445000D01*
X-515000D02*
X-504000D01*
X-496000Y437000D01*
X-495000Y489000D02*
X-490000Y484000D01*
X-586250Y489000D02*
X-495000D01*
X-571000Y435000D02*
Y441000D01*
X-557000Y455000D02*
X-540000D01*
X-571000Y441000D02*
X-557000Y455000D01*
X-565000Y439000D02*
X-554000Y450000D01*
X-643000Y378000D02*
X-632000Y389000D01*
X-643000Y338757D02*
Y378000D01*
X-640000Y371000D02*
X-632000Y379000D01*
X-640000Y340000D02*
Y371000D01*
X-637000Y367000D02*
X-632037Y371963D01*
X-632074Y339974D02*
Y364926D01*
X-627000Y339000D02*
Y384000D01*
Y394000D02*
X-622000Y389000D01*
Y338000D02*
Y389000D01*
X-464000Y473000D02*
X-335000D01*
X-463000Y470000D02*
X-334000D01*
X-308000Y496000D01*
Y513000D01*
X-313000Y518000D02*
X-308000Y513000D01*
X-311000Y497000D02*
Y511000D01*
X-335000Y473000D02*
X-311000Y497000D01*
X-315000Y515000D02*
X-311000Y511000D01*
X-354500Y518000D02*
X-313000D01*
X-362500Y510000D02*
X-354500Y518000D01*
X-342500Y515000D02*
X-315000D01*
X-347500Y510000D02*
X-342500Y515000D01*
X-503000Y476000D02*
X-336000D01*
X-317500Y494500D02*
Y510000D01*
X-336000Y476000D02*
X-317500Y494500D01*
X-510000Y440000D02*
X-505000D01*
X-499000Y434000D01*
X-507000Y435000D02*
X-502000Y430000D01*
X-515000Y435000D02*
X-507000D01*
X-510000Y430000D02*
X-505000Y425000D01*
X-544000Y435000D02*
X-503000Y476000D01*
X-348000Y479000D02*
X-332500Y494500D01*
X-547000Y436000D02*
X-504000Y479000D01*
X-348000D01*
X-554000Y450000D02*
X-545000D01*
X-613650Y484000D02*
X-510000D01*
X-618650Y489000D02*
X-613650Y484000D01*
X-615000Y339000D02*
X-611000Y335000D01*
X-615000Y347000D02*
X-608000Y340000D01*
X-615000Y355000D02*
X-605000Y345000D01*
X-535000Y353485D02*
Y404000D01*
X-524000Y415000D01*
X-541000Y410000D02*
X-526000Y425000D01*
X-532000Y352243D02*
Y401000D01*
X-526000Y395000D02*
X-521000Y400000D01*
X-529000Y351000D02*
Y398000D01*
X-538000Y407000D02*
X-525000Y420000D01*
X-532000Y401000D02*
X-523000Y410000D01*
X-529000Y398000D02*
X-522000Y405000D01*
X-538000Y354728D02*
Y407000D01*
X-525000Y420000D02*
X-510000D01*
X-522000Y405000D02*
X-515000D01*
X-521000Y400000D02*
X-510000D01*
X-526000Y425000D02*
X-515000D01*
X-524000Y415000D02*
X-515000D01*
X-523000Y410000D02*
X-510000D01*
X-332500Y494500D02*
Y510000D01*
X-458750Y-68900D02*
Y-20250D01*
X-456000Y-17500D01*
X-469850Y-80000D02*
X-458750Y-68900D01*
X-452750Y-67900D02*
Y-24328D01*
X-444000Y-64150D02*
Y-24311D01*
X-454850Y-80000D02*
X-427250Y-52400D01*
X-442769Y-17500D02*
X-436000Y-24269D01*
X33500Y-95200D02*
Y-25000D01*
X40500Y-95200D02*
Y-30000D01*
X47500Y-95200D02*
Y-35000D01*
X283500Y-95200D02*
Y-25000D01*
X290500Y-95200D02*
Y-30000D01*
X297500Y-95200D02*
Y-35000D01*
X533500Y-95200D02*
Y-25000D01*
X540500Y-95200D02*
Y-30000D01*
X547500Y-95200D02*
Y-35000D01*
X-195500Y-95200D02*
Y-40000D01*
X54500Y-95200D02*
Y-45000D01*
X61500Y-95200D02*
Y-40000D01*
X304500Y-95200D02*
Y-50000D01*
X311500Y-95200D02*
Y-40000D01*
X554500Y-95200D02*
Y-55000D01*
X561500Y-95200D02*
Y-40000D01*
X-188500Y-95200D02*
Y-40000D01*
Y479800D02*
Y535000D01*
X-148000Y512000D02*
X-85000D01*
X561500Y479800D02*
Y535000D01*
X554500Y479800D02*
Y520000D01*
X311500Y479800D02*
Y535000D01*
X304500Y479800D02*
Y525000D01*
X61500Y479800D02*
Y535000D01*
X54500Y479800D02*
Y530000D01*
X-195500Y479800D02*
Y535000D01*
X547500Y479800D02*
Y540000D01*
X540500Y479800D02*
Y545000D01*
X533500Y479800D02*
Y550000D01*
X297500Y479800D02*
Y540000D01*
X290500Y479800D02*
Y545000D01*
X283500Y479800D02*
Y550000D01*
X47500Y479800D02*
Y540000D01*
X40500Y479800D02*
Y545000D01*
X33500Y479800D02*
Y550000D01*
X187000Y-492000D02*
X202000D01*
X205000Y-489000D01*
X180000Y-485000D02*
X187000Y-492000D01*
X-43000Y-380000D02*
X-33000D01*
X-23000Y-370000D02*
X-18000Y-375000D01*
X-43000Y-370000D02*
X-23000D01*
X445000Y-480000D02*
Y-435000D01*
X160000Y-505000D02*
Y-375000D01*
X165000Y-500000D02*
Y-452500D01*
Y75000D02*
Y122500D01*
X160000Y70000D02*
Y200000D01*
X445000Y95000D02*
Y140000D01*
X-43000Y205000D02*
X-23000D01*
X-18000Y200000D01*
X-43000Y195000D02*
X-33000D01*
X180000Y245000D02*
X205000Y220000D01*
X200000Y-315000D02*
Y90000D01*
X185000Y-330000D02*
X200000Y-315000D01*
X180000Y-465000D02*
X180000Y90000D01*
X180000Y-465000D02*
X200000Y-485000D01*
X102000Y-63000D02*
X165000D01*
X170000Y-447500D02*
Y-292500D01*
X175000Y137000D02*
Y292000D01*
Y-438000D02*
Y-283000D01*
X170000Y127500D02*
Y282500D01*
X-544750Y-332500D02*
X-474750D01*
X-548250Y-342000D02*
X-544850Y-338600D01*
Y-332400D01*
X-544750Y-332500D01*
X-554850Y-342000D02*
Y-316000D01*
X-544850Y-332400D02*
Y-316000D01*
X-509850Y-332400D02*
Y-316000D01*
X-514850Y-332400D02*
Y-316000D01*
X-519850Y-332400D02*
Y-316000D01*
X-529850Y-332400D02*
Y-316000D01*
X-534850Y-332400D02*
Y-316000D01*
X-539850Y-332400D02*
Y-316000D01*
X-524850Y-332400D02*
Y-316000D01*
X-549850Y-329850D02*
Y-316000D01*
X-559850Y-336600D02*
Y-316000D01*
X-595000Y-316150D02*
X-594850Y-316000D01*
X-595000Y-338750D02*
Y-316150D01*
Y-338750D02*
X-591750Y-342000D01*
X-474750Y-332500D02*
X-452200D01*
X-474850Y-332400D02*
Y-316000D01*
Y-332400D02*
X-474750Y-332500D01*
X-449850Y-330150D02*
Y-316000D01*
X-452200Y-332500D02*
X-449850Y-330150D01*
X-594850D02*
Y-316000D01*
X-456000Y-17500D02*
X-442769D01*
X-464850Y-80000D02*
X-452750Y-67900D01*
X-459850Y-80000D02*
X-444000Y-64150D01*
X-467250Y-67400D02*
Y-23986D01*
X-479850Y-80000D02*
X-467250Y-67400D01*
X-476000Y-71150D02*
Y-24269D01*
X-484850Y-80000D02*
X-476000Y-71150D01*
X-489850Y-80000D02*
X-484000Y-74150D01*
Y-24311D01*
X-494850Y-80000D02*
X-492750Y-77900D01*
Y-24328D01*
X-454850Y-316000D02*
Y-80000D01*
X-459850Y-316000D02*
Y-80000D01*
X-464850Y-316000D02*
Y-80000D01*
X-469850Y-316000D02*
Y-80000D01*
X-494850Y-316000D02*
Y-80000D01*
X-489850Y-316000D02*
Y-80000D01*
X-484850Y-316000D02*
Y-80000D01*
X-479850Y-316000D02*
Y-80000D01*
X596500Y-95200D02*
Y-68500D01*
X602000Y-63000D02*
X665000D01*
X596500Y-68500D02*
X602000Y-63000D01*
X586000Y-73000D02*
X589500Y-76500D01*
X582500Y-95200D02*
Y-76500D01*
X586000Y-73000D01*
X589500Y-95200D02*
Y-76500D01*
X526500Y-111500D02*
X531000Y-116000D01*
X526500Y-111500D02*
Y-95200D01*
X603500Y-116000D02*
Y-95200D01*
X568500Y-116000D02*
Y-95200D01*
X531000Y-116000D02*
X568500D01*
X575500D02*
Y-95200D01*
X568500Y-116000D02*
X575500D01*
X603500D01*
X346500Y-95200D02*
Y-68500D01*
X352000Y-63000D02*
X415000D01*
X346500Y-68500D02*
X352000Y-63000D01*
X336000Y-73000D02*
X339500Y-76500D01*
X332500Y-95200D02*
Y-76500D01*
X336000Y-73000D01*
X339500Y-95200D02*
Y-76500D01*
X276500Y-111500D02*
X281000Y-116000D01*
X276500Y-111500D02*
Y-95200D01*
X353500Y-116000D02*
Y-95200D01*
X318500Y-116000D02*
Y-95200D01*
X281000Y-116000D02*
X318500D01*
X325500D02*
Y-95200D01*
X318500Y-116000D02*
X325500D01*
X353500D01*
X96500Y-95200D02*
Y-68500D01*
X102000Y-63000D01*
X86000Y-73000D02*
X89500Y-76500D01*
X82500Y-95200D02*
Y-76500D01*
X86000Y-73000D01*
X89500Y-95200D02*
Y-76500D01*
X26500Y-111500D02*
X31000Y-116000D01*
X26500Y-111500D02*
Y-95200D01*
X103500Y-116000D02*
Y-95200D01*
X68500Y-116000D02*
Y-95200D01*
X31000Y-116000D02*
X68500D01*
X75500D02*
Y-95200D01*
X68500Y-116000D02*
X75500D01*
X103500D01*
X-153500Y-95200D02*
Y-68500D01*
X-148000Y-63000D02*
X-85000D01*
X-153500Y-68500D02*
X-148000Y-63000D01*
X-164000Y-73000D02*
X-160500Y-76500D01*
X-167500Y-95200D02*
Y-76500D01*
X-164000Y-73000D01*
X-160500Y-95200D02*
Y-76500D01*
X-223500Y-111500D02*
X-219000Y-116000D01*
X-223500Y-111500D02*
Y-95200D01*
X-146500Y-116000D02*
Y-95200D01*
X-181500Y-116000D02*
Y-95200D01*
X-219000Y-116000D02*
X-181500D01*
X-174500D02*
Y-95200D01*
X-181500Y-116000D02*
X-174500D01*
X-146500D01*
X596500Y479800D02*
Y506500D01*
X602000Y512000D02*
X665000D01*
X596500Y506500D02*
X602000Y512000D01*
X586000Y502000D02*
X589500Y498500D01*
X582500Y479800D02*
Y498500D01*
X586000Y502000D01*
X589500Y479800D02*
Y498500D01*
X526500Y463500D02*
X531000Y459000D01*
X526500Y463500D02*
Y479800D01*
X603500Y459000D02*
Y479800D01*
X568500Y459000D02*
Y479800D01*
X531000Y459000D02*
X568500D01*
X575500D02*
Y479800D01*
X568500Y459000D02*
X575500D01*
X603500D01*
X346500Y479800D02*
Y506500D01*
X352000Y512000D02*
X415000D01*
X346500Y506500D02*
X352000Y512000D01*
X336000Y502000D02*
X339500Y498500D01*
X332500Y479800D02*
Y498500D01*
X336000Y502000D01*
X339500Y479800D02*
Y498500D01*
X276500Y463500D02*
X281000Y459000D01*
X276500Y463500D02*
Y479800D01*
X353500Y459000D02*
Y479800D01*
X318500Y459000D02*
Y479800D01*
X281000Y459000D02*
X318500D01*
X325500D02*
Y479800D01*
X318500Y459000D02*
X325500D01*
X353500D01*
X96500Y479800D02*
Y506500D01*
X102000Y512000D02*
X165000D01*
X96500Y506500D02*
X102000Y512000D01*
X86000Y502000D02*
X89500Y498500D01*
X82500Y479800D02*
Y498500D01*
X86000Y502000D01*
X89500Y479800D02*
Y498500D01*
X26500Y463500D02*
X31000Y459000D01*
X26500Y463500D02*
Y479800D01*
X103500Y459000D02*
Y479800D01*
X68500Y459000D02*
Y479800D01*
X31000Y459000D02*
X68500D01*
X75500D02*
Y479800D01*
X68500Y459000D02*
X75500D01*
X103500D01*
X-174500D02*
X-146500D01*
X-181500D02*
X-174500D01*
Y479800D01*
X-219000Y459000D02*
X-181500D01*
Y479800D01*
X-146500Y459000D02*
Y479800D01*
X-223500Y463500D02*
Y479800D01*
Y463500D02*
X-219000Y459000D01*
X-216500Y479800D02*
Y550000D01*
X-209500Y479800D02*
Y545000D01*
X-202500Y479800D02*
Y540000D01*
X-160500Y479800D02*
Y498500D01*
X-167500Y498500D02*
X-164000Y502000D01*
X-167500Y479800D02*
Y498500D01*
X-164000Y502000D02*
X-160500Y498500D01*
X-153500Y506500D02*
X-148000Y512000D01*
X-153500Y479800D02*
Y506500D01*
D119*
X-70000Y-80000D02*
Y495000D01*
D128*
X518000Y-460000D02*
D03*
X565000D02*
D03*
X612000D02*
D03*
X518000Y115000D02*
D03*
X565000D02*
D03*
X612000D02*
D03*
D129*
X8750Y-420650D02*
D03*
Y-471450D02*
D03*
Y-496850D02*
D03*
X11500Y-391750D02*
D03*
X-13500D02*
D03*
X8750Y-446050D02*
D03*
X-241250Y-420650D02*
D03*
Y-496850D02*
D03*
X-263500Y-391750D02*
D03*
X-238500D02*
D03*
X-241250Y-446050D02*
D03*
Y-471450D02*
D03*
X8750Y154350D02*
D03*
Y128950D02*
D03*
Y103550D02*
D03*
Y78150D02*
D03*
X11500Y183250D02*
D03*
X-13500D02*
D03*
X-241250Y154350D02*
D03*
Y128950D02*
D03*
Y103550D02*
D03*
Y78150D02*
D03*
X-238500Y183250D02*
D03*
X-263500D02*
D03*
D130*
X-543200Y574000D02*
D03*
X-456800D02*
D03*
D131*
X-543200Y532200D02*
D03*
X-456800D02*
D03*
D132*
X-712500Y522500D02*
D03*
X712500D02*
D03*
Y-522500D02*
D03*
X-712500D02*
D03*
D133*
X690000Y-565000D02*
D03*
X-690000D02*
D03*
X690000Y565000D02*
D03*
X-690000D02*
D03*
D134*
X675000Y525000D02*
D03*
X700000Y475000D02*
D03*
X675000Y425000D02*
D03*
X700000Y375000D02*
D03*
X675000Y325000D02*
D03*
X700000Y275000D02*
D03*
X675000Y225000D02*
D03*
X700000Y175000D02*
D03*
X675000Y125000D02*
D03*
X700000Y75000D02*
D03*
X675000Y25000D02*
D03*
X700000Y-25000D02*
D03*
Y-125000D02*
D03*
X675000Y-175000D02*
D03*
X700000Y-225000D02*
D03*
X675000Y-275000D02*
D03*
X700000Y-325000D02*
D03*
X675000Y-375000D02*
D03*
X700000Y-425000D02*
D03*
X675000Y-475000D02*
D03*
X700000Y-525000D02*
D03*
X650000Y575000D02*
D03*
X625000Y525000D02*
D03*
Y425000D02*
D03*
X650000Y375000D02*
D03*
Y275000D02*
D03*
X625000Y225000D02*
D03*
X650000Y175000D02*
D03*
Y75000D02*
D03*
X625000Y25000D02*
D03*
X650000Y-25000D02*
D03*
Y-125000D02*
D03*
X625000Y-175000D02*
D03*
X650000Y-225000D02*
D03*
X625000Y-375000D02*
D03*
X650000Y-425000D02*
D03*
Y-525000D02*
D03*
X625000Y-575000D02*
D03*
X600000Y575000D02*
D03*
X575000Y525000D02*
D03*
Y425000D02*
D03*
X600000Y375000D02*
D03*
Y275000D02*
D03*
X575000Y225000D02*
D03*
X600000Y175000D02*
D03*
Y75000D02*
D03*
X575000Y25000D02*
D03*
X600000Y-25000D02*
D03*
X575000Y-75000D02*
D03*
X600000Y-125000D02*
D03*
X575000Y-175000D02*
D03*
X600000Y-225000D02*
D03*
X575000Y-375000D02*
D03*
X600000Y-525000D02*
D03*
X575000Y-575000D02*
D03*
X550000Y575000D02*
D03*
X525000Y425000D02*
D03*
X550000Y375000D02*
D03*
Y275000D02*
D03*
X525000Y225000D02*
D03*
X550000Y175000D02*
D03*
Y75000D02*
D03*
X525000Y25000D02*
D03*
X550000Y-25000D02*
D03*
X525000Y-75000D02*
D03*
X550000Y-125000D02*
D03*
X525000Y-175000D02*
D03*
X550000Y-225000D02*
D03*
X525000Y-275000D02*
D03*
Y-375000D02*
D03*
X550000Y-425000D02*
D03*
Y-525000D02*
D03*
X525000Y-575000D02*
D03*
X500000Y575000D02*
D03*
Y475000D02*
D03*
X475000Y425000D02*
D03*
X500000Y375000D02*
D03*
X475000Y325000D02*
D03*
X500000Y275000D02*
D03*
X475000Y225000D02*
D03*
X500000Y175000D02*
D03*
X475000Y125000D02*
D03*
X500000Y75000D02*
D03*
X475000Y25000D02*
D03*
Y-75000D02*
D03*
X500000Y-125000D02*
D03*
X475000Y-175000D02*
D03*
X500000Y-225000D02*
D03*
X475000Y-275000D02*
D03*
Y-375000D02*
D03*
X500000Y-425000D02*
D03*
X475000Y-475000D02*
D03*
X500000Y-525000D02*
D03*
X475000Y-575000D02*
D03*
X450000Y575000D02*
D03*
Y475000D02*
D03*
X425000Y425000D02*
D03*
X450000Y375000D02*
D03*
X425000Y325000D02*
D03*
Y225000D02*
D03*
X450000Y175000D02*
D03*
Y75000D02*
D03*
X425000Y25000D02*
D03*
X450000Y-125000D02*
D03*
X425000Y-175000D02*
D03*
X450000Y-225000D02*
D03*
X425000Y-275000D02*
D03*
X450000Y-325000D02*
D03*
X425000Y-375000D02*
D03*
X450000Y-425000D02*
D03*
Y-525000D02*
D03*
X425000Y-575000D02*
D03*
X400000Y575000D02*
D03*
X375000Y425000D02*
D03*
X400000Y375000D02*
D03*
Y275000D02*
D03*
X375000Y225000D02*
D03*
X400000Y175000D02*
D03*
X375000Y125000D02*
D03*
Y25000D02*
D03*
X400000Y-125000D02*
D03*
X375000Y-175000D02*
D03*
X400000Y-225000D02*
D03*
X375000Y-375000D02*
D03*
X400000Y-425000D02*
D03*
Y-525000D02*
D03*
X375000Y-575000D02*
D03*
X350000Y575000D02*
D03*
X325000Y425000D02*
D03*
X350000Y375000D02*
D03*
Y275000D02*
D03*
X325000Y225000D02*
D03*
X350000Y175000D02*
D03*
X325000Y125000D02*
D03*
Y25000D02*
D03*
Y-75000D02*
D03*
X350000Y-125000D02*
D03*
X325000Y-175000D02*
D03*
X350000Y-225000D02*
D03*
X325000Y-375000D02*
D03*
X350000Y-425000D02*
D03*
X325000Y-475000D02*
D03*
X350000Y-525000D02*
D03*
X325000Y-575000D02*
D03*
X300000Y575000D02*
D03*
X275000Y425000D02*
D03*
X300000Y375000D02*
D03*
Y275000D02*
D03*
X275000Y225000D02*
D03*
X300000Y175000D02*
D03*
X275000Y125000D02*
D03*
Y25000D02*
D03*
Y-75000D02*
D03*
X300000Y-125000D02*
D03*
X275000Y-175000D02*
D03*
X300000Y-225000D02*
D03*
X275000Y-275000D02*
D03*
Y-375000D02*
D03*
X300000Y-425000D02*
D03*
X275000Y-475000D02*
D03*
X300000Y-525000D02*
D03*
X275000Y-575000D02*
D03*
X250000Y575000D02*
D03*
Y475000D02*
D03*
X225000Y425000D02*
D03*
X250000Y375000D02*
D03*
X225000Y325000D02*
D03*
X250000Y275000D02*
D03*
X225000Y225000D02*
D03*
X250000Y175000D02*
D03*
X225000Y25000D02*
D03*
Y-75000D02*
D03*
X250000Y-125000D02*
D03*
X225000Y-175000D02*
D03*
X250000Y-225000D02*
D03*
X225000Y-275000D02*
D03*
Y-375000D02*
D03*
X250000Y-525000D02*
D03*
X225000Y-575000D02*
D03*
X200000Y575000D02*
D03*
Y475000D02*
D03*
X175000Y425000D02*
D03*
X200000Y375000D02*
D03*
X175000Y325000D02*
D03*
X200000Y-525000D02*
D03*
X175000Y-575000D02*
D03*
X150000Y575000D02*
D03*
X125000Y425000D02*
D03*
X150000Y375000D02*
D03*
Y275000D02*
D03*
X125000Y225000D02*
D03*
Y125000D02*
D03*
X150000Y-125000D02*
D03*
X125000Y-175000D02*
D03*
X150000Y-225000D02*
D03*
X125000Y-575000D02*
D03*
X100000Y575000D02*
D03*
X75000Y425000D02*
D03*
X100000Y375000D02*
D03*
Y275000D02*
D03*
X75000Y225000D02*
D03*
X100000Y175000D02*
D03*
X75000Y125000D02*
D03*
X100000Y75000D02*
D03*
X75000Y-75000D02*
D03*
X100000Y-125000D02*
D03*
X75000Y-175000D02*
D03*
X100000Y-225000D02*
D03*
Y-425000D02*
D03*
X75000Y-475000D02*
D03*
X100000Y-525000D02*
D03*
X75000Y-575000D02*
D03*
X50000Y575000D02*
D03*
X25000Y425000D02*
D03*
X50000Y375000D02*
D03*
Y275000D02*
D03*
X25000Y225000D02*
D03*
X50000Y75000D02*
D03*
X25000Y-75000D02*
D03*
X50000Y-125000D02*
D03*
X25000Y-175000D02*
D03*
X50000Y-225000D02*
D03*
X25000Y-275000D02*
D03*
Y-475000D02*
D03*
X50000Y-525000D02*
D03*
X25000Y-575000D02*
D03*
X0Y575000D02*
D03*
Y475000D02*
D03*
X-25000Y425000D02*
D03*
X0Y375000D02*
D03*
X-25000Y325000D02*
D03*
X0Y275000D02*
D03*
X-25000Y225000D02*
D03*
Y-75000D02*
D03*
X0Y-125000D02*
D03*
X-25000Y-175000D02*
D03*
X0Y-225000D02*
D03*
X-25000Y-275000D02*
D03*
Y-575000D02*
D03*
X-50000Y575000D02*
D03*
Y475000D02*
D03*
Y375000D02*
D03*
Y175000D02*
D03*
Y75000D02*
D03*
Y-125000D02*
D03*
X-75000Y-175000D02*
D03*
X-50000Y-225000D02*
D03*
X-75000Y-275000D02*
D03*
X-50000Y-425000D02*
D03*
Y-525000D02*
D03*
X-75000Y-575000D02*
D03*
X-100000Y575000D02*
D03*
X-125000Y425000D02*
D03*
X-100000Y375000D02*
D03*
Y275000D02*
D03*
X-125000Y225000D02*
D03*
Y125000D02*
D03*
X-100000Y-125000D02*
D03*
X-125000Y-175000D02*
D03*
X-100000Y-225000D02*
D03*
X-125000Y-575000D02*
D03*
X-150000Y575000D02*
D03*
X-175000Y425000D02*
D03*
X-150000Y375000D02*
D03*
Y275000D02*
D03*
X-175000Y225000D02*
D03*
X-150000Y175000D02*
D03*
X-175000Y125000D02*
D03*
X-150000Y75000D02*
D03*
X-175000Y-75000D02*
D03*
X-150000Y-125000D02*
D03*
X-175000Y-175000D02*
D03*
X-150000Y-225000D02*
D03*
Y-425000D02*
D03*
X-175000Y-475000D02*
D03*
X-150000Y-525000D02*
D03*
X-175000Y-575000D02*
D03*
X-200000Y575000D02*
D03*
X-225000Y425000D02*
D03*
X-200000Y375000D02*
D03*
Y275000D02*
D03*
X-225000Y225000D02*
D03*
X-200000Y75000D02*
D03*
X-225000Y-75000D02*
D03*
X-200000Y-125000D02*
D03*
X-225000Y-175000D02*
D03*
X-200000Y-225000D02*
D03*
X-225000Y-275000D02*
D03*
Y-475000D02*
D03*
X-200000Y-525000D02*
D03*
X-225000Y-575000D02*
D03*
X-250000Y575000D02*
D03*
Y475000D02*
D03*
X-275000Y425000D02*
D03*
X-250000Y375000D02*
D03*
X-275000Y325000D02*
D03*
X-250000Y275000D02*
D03*
X-275000Y225000D02*
D03*
Y125000D02*
D03*
X-250000Y-25000D02*
D03*
X-275000Y-75000D02*
D03*
X-250000Y-125000D02*
D03*
X-275000Y-175000D02*
D03*
X-250000Y-225000D02*
D03*
X-275000Y-275000D02*
D03*
Y-375000D02*
D03*
Y-475000D02*
D03*
Y-575000D02*
D03*
X-300000Y575000D02*
D03*
X-325000Y-75000D02*
D03*
X-300000Y-125000D02*
D03*
X-325000Y-175000D02*
D03*
X-300000Y-225000D02*
D03*
X-325000Y-275000D02*
D03*
X-300000Y-325000D02*
D03*
X-325000Y-375000D02*
D03*
X-300000Y-425000D02*
D03*
X-325000Y-475000D02*
D03*
X-300000Y-525000D02*
D03*
X-325000Y-575000D02*
D03*
X-350000Y575000D02*
D03*
Y75000D02*
D03*
Y-25000D02*
D03*
X-375000Y-75000D02*
D03*
X-350000Y-125000D02*
D03*
X-375000Y-175000D02*
D03*
X-350000Y-225000D02*
D03*
Y-325000D02*
D03*
X-375000Y-375000D02*
D03*
X-350000Y-425000D02*
D03*
X-375000Y-475000D02*
D03*
X-350000Y-525000D02*
D03*
X-425000Y25000D02*
D03*
Y-75000D02*
D03*
X-400000Y-125000D02*
D03*
X-425000Y-175000D02*
D03*
X-400000Y-325000D02*
D03*
X-425000Y-375000D02*
D03*
X-400000Y-425000D02*
D03*
X-425000Y-475000D02*
D03*
X-400000Y-525000D02*
D03*
X-475000Y-175000D02*
D03*
Y-275000D02*
D03*
Y-375000D02*
D03*
X-450000Y-425000D02*
D03*
X-475000Y-475000D02*
D03*
X-450000Y-525000D02*
D03*
X-500000Y575000D02*
D03*
Y75000D02*
D03*
X-525000Y-375000D02*
D03*
X-500000Y-425000D02*
D03*
X-525000Y-475000D02*
D03*
X-500000Y-525000D02*
D03*
X-550000Y475000D02*
D03*
X-575000Y125000D02*
D03*
Y-75000D02*
D03*
Y-175000D02*
D03*
Y-375000D02*
D03*
X-550000Y-425000D02*
D03*
X-575000Y-475000D02*
D03*
X-550000Y-525000D02*
D03*
X-625000Y225000D02*
D03*
Y125000D02*
D03*
Y25000D02*
D03*
Y-75000D02*
D03*
Y-175000D02*
D03*
Y-375000D02*
D03*
X-600000Y-425000D02*
D03*
X-625000Y-475000D02*
D03*
X-600000Y-525000D02*
D03*
X-625000Y-575000D02*
D03*
X-650000Y475000D02*
D03*
Y175000D02*
D03*
Y75000D02*
D03*
Y-25000D02*
D03*
Y-125000D02*
D03*
Y-225000D02*
D03*
Y-325000D02*
D03*
Y-425000D02*
D03*
Y-525000D02*
D03*
X676565Y-551565D02*
D03*
X690000Y-546000D02*
D03*
X682729Y-547446D02*
D03*
X672446Y-557729D02*
D03*
X676565Y-578435D02*
D03*
X671000Y-565000D02*
D03*
X672446Y-572271D02*
D03*
X682729Y-582554D02*
D03*
X703435Y-551565D02*
D03*
X709000Y-565000D02*
D03*
X707554Y-557729D02*
D03*
X697271Y-547446D02*
D03*
X707554Y-572271D02*
D03*
X697271Y-582554D02*
D03*
X690000Y-584000D02*
D03*
X703435Y-578435D02*
D03*
X-703435D02*
D03*
X-690000Y-584000D02*
D03*
X-697271Y-582554D02*
D03*
X-707554Y-572271D02*
D03*
X-697271Y-547446D02*
D03*
X-707554Y-557729D02*
D03*
X-709000Y-565000D02*
D03*
X-703435Y-551565D02*
D03*
X-682729Y-582554D02*
D03*
X-672446Y-572271D02*
D03*
X-671000Y-565000D02*
D03*
X-676565Y-578435D02*
D03*
X-672446Y-557729D02*
D03*
X-682729Y-547446D02*
D03*
X-690000Y-546000D02*
D03*
X-676565Y-551565D02*
D03*
X703435Y578435D02*
D03*
X690000Y584000D02*
D03*
X697271Y582554D02*
D03*
X707554Y572271D02*
D03*
X697271Y547446D02*
D03*
X707554Y557729D02*
D03*
X709000Y565000D02*
D03*
X703435Y551565D02*
D03*
X682729Y582554D02*
D03*
X672446Y572271D02*
D03*
X671000Y565000D02*
D03*
X676565Y578435D02*
D03*
X672446Y557729D02*
D03*
X682729Y547446D02*
D03*
X690000Y546000D02*
D03*
X676565Y551565D02*
D03*
X-676565D02*
D03*
X-690000Y546000D02*
D03*
X-682729Y547446D02*
D03*
X-672446Y557729D02*
D03*
X-676565Y578435D02*
D03*
X-671000Y565000D02*
D03*
X-672446Y572271D02*
D03*
X-682729Y582554D02*
D03*
X-703435Y551565D02*
D03*
X-709000Y565000D02*
D03*
X-707554Y557729D02*
D03*
X-697271Y547446D02*
D03*
X-707554Y572271D02*
D03*
X-697271Y582554D02*
D03*
X-690000Y584000D02*
D03*
X-703435Y578435D02*
D03*
D135*
X-549000Y2750D02*
D03*
X190000Y157500D02*
D03*
X-479750Y470000D02*
D03*
X205250Y-430000D02*
D03*
X-555000Y333000D02*
D03*
X-590240Y-21000D02*
D03*
X-577000Y-5000D02*
D03*
X-534000Y26000D02*
D03*
X-653000Y385000D02*
D03*
X-345000Y440000D02*
D03*
X-450981Y435769D02*
D03*
X-425000Y402538D02*
D03*
X-458731Y346231D02*
D03*
Y355000D02*
D03*
X-467500Y346231D02*
D03*
Y355000D02*
D03*
X-425000Y393769D02*
D03*
X-356000Y570000D02*
D03*
X-650000Y290000D02*
D03*
X-70000Y-80000D02*
D03*
Y495000D02*
D03*
X-325000Y237000D02*
D03*
X-315000Y232000D02*
D03*
X-320000Y227000D02*
D03*
X-330000Y222000D02*
D03*
X-337000Y376500D02*
D03*
X-485000Y246000D02*
D03*
X-587000Y240000D02*
D03*
X-582000Y246000D02*
D03*
X-387500Y254250D02*
D03*
X-591000Y205000D02*
D03*
X-586000Y215000D02*
D03*
X-581000Y220000D02*
D03*
X-576000Y225000D02*
D03*
X-270000Y540000D02*
D03*
X-277000Y545000D02*
D03*
X-284000Y550000D02*
D03*
X-285000Y10000D02*
D03*
Y20000D02*
D03*
X-290000Y15000D02*
D03*
X170000Y10000D02*
D03*
X175000Y20000D02*
D03*
X210000Y15000D02*
D03*
X-410000Y23000D02*
D03*
X-415000Y28000D02*
D03*
X-471000Y185000D02*
D03*
X-365500Y-2880D02*
D03*
X-360000Y95950D02*
D03*
X-518000Y124000D02*
D03*
X-605000Y65000D02*
D03*
Y165000D02*
D03*
X-515000Y132000D02*
D03*
Y140000D02*
D03*
X-413000Y1599D02*
D03*
X-542000Y31000D02*
D03*
X-534000Y38000D02*
D03*
X-542000D02*
D03*
Y45000D02*
D03*
X-574750Y-331250D02*
D03*
X-569850Y-336600D02*
D03*
X-464000Y243000D02*
D03*
X-433481Y279750D02*
D03*
X-571000Y220000D02*
D03*
X-566000Y215000D02*
D03*
X-561000Y210000D02*
D03*
X-470000Y220000D02*
D03*
X-465000Y215000D02*
D03*
X-470000Y210000D02*
D03*
X-464748Y205000D02*
D03*
X-418500Y-23704D02*
D03*
X-589000Y257500D02*
D03*
X-568000Y311000D02*
D03*
X-567000Y319000D02*
D03*
X-586000Y304760D02*
D03*
X-598250Y301500D02*
D03*
X-509000Y299000D02*
D03*
X-503000Y304000D02*
D03*
X-492000Y340000D02*
D03*
X-552000Y347000D02*
D03*
X-560000Y326000D02*
D03*
X-503000Y311000D02*
D03*
X-510000Y462000D02*
D03*
Y484000D02*
D03*
X-550000Y445000D02*
D03*
X-565000Y439000D02*
D03*
X-485000Y340000D02*
D03*
X-515000Y445000D02*
D03*
X-510000Y440000D02*
D03*
X-540000Y455000D02*
D03*
X-545000Y450000D02*
D03*
X-490000Y484000D02*
D03*
X-591000Y340000D02*
D03*
Y347000D02*
D03*
X-515000Y435000D02*
D03*
X-510000Y430000D02*
D03*
X-515000Y425000D02*
D03*
X-510000Y420000D02*
D03*
X-515000Y415000D02*
D03*
X-510000Y410000D02*
D03*
X-515000Y405000D02*
D03*
X-510000Y400000D02*
D03*
X-515000Y395000D02*
D03*
X-510000Y390000D02*
D03*
X-356000Y536000D02*
D03*
X-317500Y510000D02*
D03*
X-332500D02*
D03*
X-425000Y580000D02*
D03*
X-405000D02*
D03*
X-347500Y510000D02*
D03*
X-362500D02*
D03*
X-622000Y427000D02*
D03*
X-650000D02*
D03*
X-643000D02*
D03*
X-713000Y376000D02*
D03*
X-706000D02*
D03*
X-699000D02*
D03*
X-692000D02*
D03*
X-671000Y525000D02*
D03*
Y518000D02*
D03*
Y511000D02*
D03*
Y504000D02*
D03*
Y497000D02*
D03*
Y490000D02*
D03*
Y483000D02*
D03*
Y476000D02*
D03*
Y469000D02*
D03*
Y462000D02*
D03*
Y455000D02*
D03*
Y427000D02*
D03*
Y434000D02*
D03*
Y441000D02*
D03*
Y448000D02*
D03*
Y384000D02*
D03*
Y391000D02*
D03*
Y398000D02*
D03*
Y405000D02*
D03*
X-452750Y-24328D02*
D03*
X-444000Y-24311D02*
D03*
X-427250Y-23986D02*
D03*
X-436000Y-24269D02*
D03*
X-555000Y-250000D02*
D03*
X-451019Y279750D02*
D03*
X-555000Y-243000D02*
D03*
Y-264000D02*
D03*
Y-257000D02*
D03*
X-445000Y-250000D02*
D03*
Y-257000D02*
D03*
Y-264000D02*
D03*
Y-243000D02*
D03*
Y544000D02*
D03*
Y523000D02*
D03*
Y530000D02*
D03*
Y537000D02*
D03*
X-618650Y489000D02*
D03*
X-555000Y537000D02*
D03*
Y530000D02*
D03*
Y523000D02*
D03*
Y544000D02*
D03*
X-442250Y279750D02*
D03*
X-202500Y-35000D02*
D03*
X-209500Y-30000D02*
D03*
X-216500Y-25000D02*
D03*
X33500D02*
D03*
X40500Y-30000D02*
D03*
X47500Y-35000D02*
D03*
X283500Y-25000D02*
D03*
X290500Y-30000D02*
D03*
X297500Y-35000D02*
D03*
X533500Y-25000D02*
D03*
X540500Y-30000D02*
D03*
X547500Y-35000D02*
D03*
X61500Y-40000D02*
D03*
X311500D02*
D03*
X561500D02*
D03*
X-188500D02*
D03*
X-195500D02*
D03*
X554500Y-55000D02*
D03*
X304500Y-50000D02*
D03*
X54500Y-45000D02*
D03*
Y530000D02*
D03*
X304500Y525000D02*
D03*
X554500Y520000D02*
D03*
X-195500Y535000D02*
D03*
X-188500D02*
D03*
X-85000Y512000D02*
D03*
X561500Y535000D02*
D03*
X311500D02*
D03*
X61500D02*
D03*
X547500Y540000D02*
D03*
X540500Y545000D02*
D03*
X533500Y550000D02*
D03*
X297500Y540000D02*
D03*
X290500Y545000D02*
D03*
X283500Y550000D02*
D03*
X47500Y540000D02*
D03*
X40500Y545000D02*
D03*
X33500Y550000D02*
D03*
X-216500D02*
D03*
X-209500Y545000D02*
D03*
X-202500Y540000D02*
D03*
X195000Y-400000D02*
D03*
X440000Y-442000D02*
D03*
X-60000D02*
D03*
X315000Y-485000D02*
D03*
X160000Y-505000D02*
D03*
X-43000Y-380000D02*
D03*
X-33000D02*
D03*
X-43000Y-370000D02*
D03*
X-18000Y-375000D02*
D03*
X160000Y-375000D02*
D03*
X445000Y-480000D02*
D03*
Y-435000D02*
D03*
X165000Y-500000D02*
D03*
Y-452500D02*
D03*
Y122500D02*
D03*
X170000Y127500D02*
D03*
X165000Y75000D02*
D03*
X445000Y140000D02*
D03*
Y95000D02*
D03*
X160000Y200000D02*
D03*
X-18000Y200000D02*
D03*
X-43000Y205000D02*
D03*
X-33000Y195000D02*
D03*
X-43000D02*
D03*
X315000Y90000D02*
D03*
X160000Y70000D02*
D03*
X-60000Y133000D02*
D03*
X440000D02*
D03*
X200000Y90000D02*
D03*
Y-485000D02*
D03*
Y-330000D02*
D03*
X165000Y-63000D02*
D03*
X180000Y90000D02*
D03*
X175000Y137000D02*
D03*
X190000Y145000D02*
D03*
X185000Y-330000D02*
D03*
X170000Y-292500D02*
D03*
X175000Y-283000D02*
D03*
X190000Y-275000D02*
D03*
Y-430000D02*
D03*
X175000Y-438000D02*
D03*
X170000Y-447500D02*
D03*
X180000Y-485000D02*
D03*
Y245000D02*
D03*
X170000Y282500D02*
D03*
X175000Y292000D02*
D03*
X190000Y300000D02*
D03*
X-595000Y98000D02*
D03*
X-549750Y-331250D02*
D03*
X-559850Y-336600D02*
D03*
X-564750Y-331250D02*
D03*
X-474750Y-332500D02*
D03*
X-540000Y-300250D02*
D03*
X-467250Y-23986D02*
D03*
X-476000Y-24269D02*
D03*
X-484000Y-24311D02*
D03*
X-492750Y-24328D02*
D03*
X440000Y288000D02*
D03*
X-60000D02*
D03*
X665000Y-63000D02*
D03*
X586000Y-73000D02*
D03*
X603500Y-116000D02*
D03*
X415000Y-63000D02*
D03*
X336000Y-73000D02*
D03*
X353500Y-116000D02*
D03*
X86000Y-73000D02*
D03*
X103500Y-116000D02*
D03*
X-85000Y-63000D02*
D03*
X-164000Y-73000D02*
D03*
X-146500Y-116000D02*
D03*
X665000Y512000D02*
D03*
X586000Y502000D02*
D03*
X603500Y459000D02*
D03*
X415000Y512000D02*
D03*
X336000Y502000D02*
D03*
X353500Y459000D02*
D03*
X165000Y512000D02*
D03*
X86000Y502000D02*
D03*
X103500Y459000D02*
D03*
X-146500D02*
D03*
X-164000Y502000D02*
D03*
X-185000Y290000D02*
D03*
X65000D02*
D03*
X315000D02*
D03*
X565000D02*
D03*
Y-285000D02*
D03*
X315000D02*
D03*
X65000D02*
D03*
X-185000D02*
D03*
X440000Y-287000D02*
D03*
X-60000D02*
D03*
X-425000Y385000D02*
D03*
X-586250Y489000D02*
D03*
X-328000Y-2880D02*
D03*
X-367450Y121350D02*
D03*
Y134050D02*
D03*
Y146750D02*
D03*
Y159450D02*
D03*
X-471000Y45000D02*
D03*
X-560310Y318810D02*
D03*
X-615000Y339000D02*
D03*
X-586000Y320000D02*
D03*
X-467500Y257270D02*
D03*
X-450981Y427000D02*
D03*
X-459750D02*
D03*
X-520000Y371000D02*
D03*
X-378769Y440000D02*
D03*
X-370000D02*
D03*
X-380000Y427000D02*
D03*
X-388000Y435000D02*
D03*
Y427000D02*
D03*
X-350000Y315000D02*
D03*
X-452000Y340000D02*
D03*
X-457500Y502500D02*
D03*
X-595000Y385000D02*
D03*
X-585000D02*
D03*
X-575000D02*
D03*
X-595000Y395000D02*
D03*
X-585000D02*
D03*
X-575372Y394372D02*
D03*
X-595000Y405000D02*
D03*
X-585000D02*
D03*
X-575000D02*
D03*
X-595000Y375000D02*
D03*
X-586117Y375099D02*
D03*
X-575000Y375000D02*
D03*
X-565000D02*
D03*
Y385000D02*
D03*
Y395000D02*
D03*
Y405000D02*
D03*
X-571000Y435000D02*
D03*
X-621000Y440000D02*
D03*
X-632074Y364926D02*
D03*
X-632037Y371963D02*
D03*
X-615000Y347000D02*
D03*
Y355000D02*
D03*
X-632000Y389000D02*
D03*
X-627000Y384000D02*
D03*
X-632000Y379000D02*
D03*
X-627000Y394000D02*
D03*
X-653000Y397000D02*
D03*
D136*
X-464850Y-316000D02*
D03*
X-524850D02*
D03*
X-504850D02*
D03*
X-484850D02*
D03*
X-549850D02*
D03*
X-569850D02*
D03*
X-589850D02*
D03*
X-459850D02*
D03*
X-449850D02*
D03*
X-454850D02*
D03*
X-474850D02*
D03*
X-479850D02*
D03*
X-469850D02*
D03*
X-489850D02*
D03*
X-494850D02*
D03*
X-499850D02*
D03*
X-509850D02*
D03*
X-514850D02*
D03*
X-519850D02*
D03*
X-529850D02*
D03*
X-534850D02*
D03*
X-539850D02*
D03*
X-544850D02*
D03*
X-554850D02*
D03*
X-559850D02*
D03*
X-564850D02*
D03*
X-574850D02*
D03*
X-579850D02*
D03*
X-584850D02*
D03*
X-594850D02*
D03*
D137*
X-612700Y-333500D02*
D03*
X-432000D02*
D03*
D138*
X568500Y-95200D02*
D03*
X575500D02*
D03*
X582500D02*
D03*
X589500D02*
D03*
X596500D02*
D03*
X603500D02*
D03*
X561500D02*
D03*
X554500D02*
D03*
X547500D02*
D03*
X540500D02*
D03*
X533500D02*
D03*
X526500D02*
D03*
X276500D02*
D03*
X283500D02*
D03*
X290500D02*
D03*
X297500D02*
D03*
X304500D02*
D03*
X311500D02*
D03*
X353500D02*
D03*
X346500D02*
D03*
X339500D02*
D03*
X332500D02*
D03*
X325500D02*
D03*
X318500D02*
D03*
X68500D02*
D03*
X75500D02*
D03*
X82500D02*
D03*
X89500D02*
D03*
X96500D02*
D03*
X103500D02*
D03*
X61500D02*
D03*
X54500D02*
D03*
X47500D02*
D03*
X40500D02*
D03*
X33500D02*
D03*
X26500D02*
D03*
X-223500D02*
D03*
X-216500D02*
D03*
X-209500D02*
D03*
X-202500D02*
D03*
X-195500D02*
D03*
X-188500D02*
D03*
X-146500D02*
D03*
X-153500D02*
D03*
X-160500D02*
D03*
X-167500D02*
D03*
X-174500D02*
D03*
X-181500D02*
D03*
X568500Y479800D02*
D03*
X575500D02*
D03*
X582500D02*
D03*
X589500D02*
D03*
X596500D02*
D03*
X603500D02*
D03*
X561500D02*
D03*
X554500D02*
D03*
X547500D02*
D03*
X540500D02*
D03*
X533500D02*
D03*
X526500D02*
D03*
X276500D02*
D03*
X283500D02*
D03*
X290500D02*
D03*
X297500D02*
D03*
X304500D02*
D03*
X311500D02*
D03*
X353500D02*
D03*
X346500D02*
D03*
X339500D02*
D03*
X332500D02*
D03*
X325500D02*
D03*
X318500D02*
D03*
X68500D02*
D03*
X75500D02*
D03*
X82500D02*
D03*
X89500D02*
D03*
X96500D02*
D03*
X103500D02*
D03*
X61500D02*
D03*
X54500D02*
D03*
X47500D02*
D03*
X40500D02*
D03*
X33500D02*
D03*
X26500D02*
D03*
X-223500D02*
D03*
X-216500D02*
D03*
X-209500D02*
D03*
X-202500D02*
D03*
X-195500D02*
D03*
X-188500D02*
D03*
X-146500D02*
D03*
X-153500D02*
D03*
X-160500D02*
D03*
X-167500D02*
D03*
X-174500D02*
D03*
X-181500D02*
D03*
D139*
X-595500Y-253500D02*
D03*
X-404500D02*
D03*
X-595500Y533500D02*
D03*
X-404500D02*
D03*
D140*
X-580000Y390000D02*
D03*
M02*
