M48
;Layer_Color=9474304
;FILE_FORMAT=4:4
METRIC,LZ
;TYPE=PLATED
T4F00S00C1.0000
;TYPE=NON_PLATED
T9F00S00C1.5000
T12F00S00C2.2000
%
G90
G05
T04
G00X00518Y-004665
M15
G01Y-004535
M16
G00X00565Y-004665
M15
G01Y-004535
M16
G00X00612Y-004535
M15
G01Y-004665
M16
G00X00612Y001215
M15
G01Y001085
M16
G00X00565Y001085
M15
G01Y001215
M16
G00X00518Y001085
M15
G01Y001215
M16
T09
G00X00143Y-005225
M15
G01Y-003975
M16
G00X-00107Y-005225
M15
G01Y-003975
M16
G00X00143Y000525
M15
G01Y001775
M16
G00X-00107Y000525
M15
G01Y001775
M16
T12
G00X001395Y-004885
M15
G01X001355
M16
G00X001395Y-0041875
M15
G01X001355
M16
G00X-001105Y-0041875
M15
G01X-001145
M16
G00X-001105Y-004885
M15
G01X-001145
M16
G00X-001105Y000865
M15
G01X-001145
M16
G00X001395Y000865
M15
G01X001355
M16
G00X001395Y0015625
M15
G01X001355
M16
G00X-001105Y0015625
M15
G01X-001145
M16
M30
