G04*
G04 #@! TF.GenerationSoftware,Altium Limited,Altium Designer,22.2.1 (43)*
G04*
G04 Layer_Color=128*
%FSLAX44Y44*%
%MOMM*%
G71*
G04*
G04 #@! TF.SameCoordinates,A4FAE18D-661E-41B9-AA1C-1E8D17E7CC58*
G04*
G04*
G04 #@! TF.FilePolarity,Positive*
G04*
G01*
G75*
%ADD12C,0.2540*%
%ADD136R,0.3200X1.8000*%
%ADD137R,2.0000X3.0000*%
%ADD138R,0.4000X2.7000*%
%ADD139R,7.0000X8.0000*%
D12*
X-380000Y-577500D02*
G03*
X-380000Y-555000I0J11250D01*
G01*
X-596000D02*
G03*
X-596000Y-577500I0J-11250D01*
G01*
X502000Y-243000D02*
G03*
X502000Y-263000I0J-10000D01*
G01*
X628000D02*
G03*
X628000Y-243000I0J10000D01*
G01*
X378000Y-263000D02*
G03*
X378000Y-243000I0J10000D01*
G01*
X252000D02*
G03*
X252000Y-263000I0J-10000D01*
G01*
X2000Y-243000D02*
G03*
X2000Y-263000I0J-10000D01*
G01*
X128000D02*
G03*
X128000Y-243000I0J10000D01*
G01*
X-122000Y-263000D02*
G03*
X-122000Y-243000I0J10000D01*
G01*
X-248000D02*
G03*
X-248000Y-263000I0J-10000D01*
G01*
X502000Y332000D02*
G03*
X502000Y312000I0J-10000D01*
G01*
X628000D02*
G03*
X628000Y332000I0J10000D01*
G01*
X378000Y312000D02*
G03*
X378000Y332000I0J10000D01*
G01*
X252000D02*
G03*
X252000Y312000I0J-10000D01*
G01*
X2000Y332000D02*
G03*
X2000Y312000I0J-10000D01*
G01*
X128000D02*
G03*
X128000Y332000I0J10000D01*
G01*
X-122000Y312000D02*
G03*
X-122000Y332000I0J10000D01*
G01*
X-248000D02*
G03*
X-248000Y312000I0J-10000D01*
G01*
X690000Y-600000D02*
G03*
X725000Y-565000I0J35000D01*
G01*
X-725000D02*
G03*
X-690000Y-600000I35000J0D01*
G01*
X725000Y565000D02*
G03*
X690000Y600000I-35000J0D01*
G01*
X-690000D02*
G03*
X-725000Y565000I0J-35000D01*
G01*
X-596000Y-577500D02*
X-380000D01*
X-596000Y-555000D02*
X-380000D01*
X502000Y-243000D02*
X628000D01*
X502000Y-263000D02*
X628000D01*
X252000D02*
X378000D01*
X252000Y-243000D02*
X378000D01*
X2000D02*
X128000D01*
X2000Y-263000D02*
X128000D01*
X-248000D02*
X-122000D01*
X-248000Y-243000D02*
X-122000D01*
X502000Y332000D02*
X628000D01*
X502000Y312000D02*
X628000D01*
X252000D02*
X378000D01*
X252000Y332000D02*
X378000D01*
X2000D02*
X128000D01*
X2000Y312000D02*
X128000D01*
X-248000D02*
X-122000D01*
X-248000Y332000D02*
X-122000D01*
X-725000Y-565000D02*
Y565000D01*
X-690000Y-600000D02*
X690000D01*
X725000Y-565000D02*
Y565000D01*
X-690000Y600000D02*
X690000D01*
D136*
X-464850Y-316000D02*
D03*
X-524850D02*
D03*
X-504850D02*
D03*
X-484850D02*
D03*
X-549850D02*
D03*
X-569850D02*
D03*
X-589850D02*
D03*
X-459850D02*
D03*
X-449850D02*
D03*
X-454850D02*
D03*
X-474850D02*
D03*
X-479850D02*
D03*
X-469850D02*
D03*
X-489850D02*
D03*
X-494850D02*
D03*
X-499850D02*
D03*
X-509850D02*
D03*
X-514850D02*
D03*
X-519850D02*
D03*
X-529850D02*
D03*
X-534850D02*
D03*
X-539850D02*
D03*
X-544850D02*
D03*
X-554850D02*
D03*
X-559850D02*
D03*
X-564850D02*
D03*
X-574850D02*
D03*
X-579850D02*
D03*
X-584850D02*
D03*
X-594850D02*
D03*
D137*
X-612700Y-333500D02*
D03*
X-432000D02*
D03*
D138*
X568500Y-95200D02*
D03*
X575500D02*
D03*
X582500D02*
D03*
X589500D02*
D03*
X596500D02*
D03*
X603500D02*
D03*
X561500D02*
D03*
X554500D02*
D03*
X547500D02*
D03*
X540500D02*
D03*
X533500D02*
D03*
X526500D02*
D03*
X276500D02*
D03*
X283500D02*
D03*
X290500D02*
D03*
X297500D02*
D03*
X304500D02*
D03*
X311500D02*
D03*
X353500D02*
D03*
X346500D02*
D03*
X339500D02*
D03*
X332500D02*
D03*
X325500D02*
D03*
X318500D02*
D03*
X68500D02*
D03*
X75500D02*
D03*
X82500D02*
D03*
X89500D02*
D03*
X96500D02*
D03*
X103500D02*
D03*
X61500D02*
D03*
X54500D02*
D03*
X47500D02*
D03*
X40500D02*
D03*
X33500D02*
D03*
X26500D02*
D03*
X-223500D02*
D03*
X-216500D02*
D03*
X-209500D02*
D03*
X-202500D02*
D03*
X-195500D02*
D03*
X-188500D02*
D03*
X-146500D02*
D03*
X-153500D02*
D03*
X-160500D02*
D03*
X-167500D02*
D03*
X-174500D02*
D03*
X-181500D02*
D03*
X568500Y479800D02*
D03*
X575500D02*
D03*
X582500D02*
D03*
X589500D02*
D03*
X596500D02*
D03*
X603500D02*
D03*
X561500D02*
D03*
X554500D02*
D03*
X547500D02*
D03*
X540500D02*
D03*
X533500D02*
D03*
X526500D02*
D03*
X276500D02*
D03*
X283500D02*
D03*
X290500D02*
D03*
X297500D02*
D03*
X304500D02*
D03*
X311500D02*
D03*
X353500D02*
D03*
X346500D02*
D03*
X339500D02*
D03*
X332500D02*
D03*
X325500D02*
D03*
X318500D02*
D03*
X68500D02*
D03*
X75500D02*
D03*
X82500D02*
D03*
X89500D02*
D03*
X96500D02*
D03*
X103500D02*
D03*
X61500D02*
D03*
X54500D02*
D03*
X47500D02*
D03*
X40500D02*
D03*
X33500D02*
D03*
X26500D02*
D03*
X-223500D02*
D03*
X-216500D02*
D03*
X-209500D02*
D03*
X-202500D02*
D03*
X-195500D02*
D03*
X-188500D02*
D03*
X-146500D02*
D03*
X-153500D02*
D03*
X-160500D02*
D03*
X-167500D02*
D03*
X-174500D02*
D03*
X-181500D02*
D03*
D139*
X-595500Y-253500D02*
D03*
X-404500D02*
D03*
X-595500Y533500D02*
D03*
X-404500D02*
D03*
M02*
