G04*
G04 #@! TF.GenerationSoftware,Altium Limited,Altium Designer,22.2.1 (43)*
G04*
G04 Layer_Color=8421504*
%FSLAX44Y44*%
%MOMM*%
G71*
G04*
G04 #@! TF.SameCoordinates,A4FAE18D-661E-41B9-AA1C-1E8D17E7CC58*
G04*
G04*
G04 #@! TF.FilePolarity,Positive*
G04*
G01*
G75*
%ADD12C,0.2540*%
%ADD31R,0.6350X0.8890*%
%ADD32R,2.7940X1.1430*%
%ADD33R,1.7780X1.1430*%
%ADD34R,0.8890X0.6350*%
%ADD35R,1.1430X1.7780*%
%ADD36R,0.6200X0.5700*%
%ADD37R,1.1430X2.7940*%
%ADD38R,2.2000X1.0000*%
%ADD39R,0.7000X1.0000*%
%ADD40R,1.0000X1.2000*%
%ADD41R,1.2000X1.0000*%
%ADD42R,0.6000X0.4000*%
%ADD43R,0.8000X0.8000*%
%ADD44R,2.0000X1.2500*%
%ADD45R,0.5700X0.6200*%
%ADD46R,2.2000X1.0000*%
%ADD47R,1.0500X0.6500*%
%ADD48R,0.6500X0.8000*%
%ADD49R,0.5000X0.8000*%
%ADD50C,1.0000*%
%ADD51R,3.5000X2.5000*%
%ADD52R,2.4000X1.5000*%
%ADD53R,4.0000X3.7500*%
%ADD54R,2.4000X1.3000*%
%ADD55R,0.6000X1.2500*%
%ADD56R,0.3000X1.2500*%
%ADD57O,0.2400X0.6000*%
%ADD58R,1.0000X2.0000*%
%ADD59O,0.6000X0.2400*%
%ADD60O,2.2000X0.6000*%
%ADD61O,0.4000X1.2600*%
%ADD62R,0.7000X1.2000*%
%ADD63R,0.3500X2.3000*%
%ADD64R,0.4000X0.9500*%
%ADD65R,1.3000X0.3500*%
%ADD66R,0.3500X1.0000*%
%ADD67R,0.3500X0.9000*%
%ADD68R,5.2000X5.2000*%
%ADD69O,0.7000X0.2000*%
%ADD70O,0.2000X0.7000*%
D12*
X-380000Y-577500D02*
G03*
X-380000Y-555000I0J11250D01*
G01*
X-596000D02*
G03*
X-596000Y-577500I0J-11250D01*
G01*
X502000Y-243000D02*
G03*
X502000Y-263000I0J-10000D01*
G01*
X628000D02*
G03*
X628000Y-243000I0J10000D01*
G01*
X378000Y-263000D02*
G03*
X378000Y-243000I0J10000D01*
G01*
X252000D02*
G03*
X252000Y-263000I0J-10000D01*
G01*
X2000Y-243000D02*
G03*
X2000Y-263000I0J-10000D01*
G01*
X128000D02*
G03*
X128000Y-243000I0J10000D01*
G01*
X-122000Y-263000D02*
G03*
X-122000Y-243000I0J10000D01*
G01*
X-248000D02*
G03*
X-248000Y-263000I0J-10000D01*
G01*
X502000Y332000D02*
G03*
X502000Y312000I0J-10000D01*
G01*
X628000D02*
G03*
X628000Y332000I0J10000D01*
G01*
X378000Y312000D02*
G03*
X378000Y332000I0J10000D01*
G01*
X252000D02*
G03*
X252000Y312000I0J-10000D01*
G01*
X2000Y332000D02*
G03*
X2000Y312000I0J-10000D01*
G01*
X128000D02*
G03*
X128000Y332000I0J10000D01*
G01*
X-122000Y312000D02*
G03*
X-122000Y332000I0J10000D01*
G01*
X-248000D02*
G03*
X-248000Y312000I0J-10000D01*
G01*
X690000Y-600000D02*
G03*
X725000Y-565000I0J35000D01*
G01*
X-725000D02*
G03*
X-690000Y-600000I35000J0D01*
G01*
X725000Y565000D02*
G03*
X690000Y600000I-35000J0D01*
G01*
X-690000D02*
G03*
X-725000Y565000I0J-35000D01*
G01*
X-596000Y-577500D02*
X-380000D01*
X-596000Y-555000D02*
X-380000D01*
X502000Y-243000D02*
X628000D01*
X502000Y-263000D02*
X628000D01*
X252000D02*
X378000D01*
X252000Y-243000D02*
X378000D01*
X2000D02*
X128000D01*
X2000Y-263000D02*
X128000D01*
X-248000D02*
X-122000D01*
X-248000Y-243000D02*
X-122000D01*
X502000Y332000D02*
X628000D01*
X502000Y312000D02*
X628000D01*
X252000D02*
X378000D01*
X252000Y332000D02*
X378000D01*
X2000D02*
X128000D01*
X2000Y312000D02*
X128000D01*
X-248000D02*
X-122000D01*
X-248000Y332000D02*
X-122000D01*
X-725000Y-565000D02*
Y565000D01*
X-690000Y-600000D02*
X690000D01*
X725000Y-565000D02*
Y565000D01*
X-690000Y600000D02*
X690000D01*
D31*
X-568120Y502500D02*
D03*
X-552880D02*
D03*
X-527620Y359000D02*
D03*
X-512380D02*
D03*
X-527620Y371000D02*
D03*
X-512380D02*
D03*
X-612620Y475000D02*
D03*
X-597380D02*
D03*
X-645380Y385000D02*
D03*
X-660620D02*
D03*
X-645380Y397000D02*
D03*
X-660620D02*
D03*
X182380Y-430000D02*
D03*
X197620D02*
D03*
X182380Y145000D02*
D03*
X197620D02*
D03*
X182380Y-275000D02*
D03*
X197620D02*
D03*
X182380Y300000D02*
D03*
X197620D02*
D03*
X-347380Y175000D02*
D03*
X-362620D02*
D03*
X-560120Y257500D02*
D03*
X-544880D02*
D03*
X-506880Y270000D02*
D03*
X-522120D02*
D03*
X-506880Y257000D02*
D03*
X-522120D02*
D03*
X-450120Y502500D02*
D03*
X-434880D02*
D03*
X-417620Y368000D02*
D03*
X-402380D02*
D03*
X-432380Y368000D02*
D03*
X-447620D02*
D03*
X-399880Y440000D02*
D03*
X-415120D02*
D03*
X-469880Y442000D02*
D03*
X-485120D02*
D03*
X-480120Y502500D02*
D03*
X-464880D02*
D03*
X-519880Y502500D02*
D03*
X-535120D02*
D03*
X-447380Y45000D02*
D03*
X-462620D02*
D03*
X-447380Y185000D02*
D03*
X-462620D02*
D03*
X-382620Y22500D02*
D03*
X-367380D02*
D03*
X-345120D02*
D03*
X-329880D02*
D03*
X-560120Y310000D02*
D03*
X-544880D02*
D03*
D32*
X-360000Y264760D02*
D03*
Y295240D02*
D03*
X-342500Y454760D02*
D03*
Y485240D02*
D03*
D33*
X-387500Y264760D02*
D03*
Y295240D02*
D03*
X-370000Y454760D02*
D03*
Y485240D02*
D03*
Y352740D02*
D03*
Y322260D02*
D03*
X-415000Y485240D02*
D03*
Y454760D02*
D03*
X-485000Y257260D02*
D03*
Y287740D02*
D03*
D34*
X-480000Y302380D02*
D03*
Y317620D02*
D03*
X-417500Y332620D02*
D03*
Y317380D02*
D03*
X-392500Y317380D02*
D03*
Y332620D02*
D03*
X-369000Y547380D02*
D03*
Y562620D02*
D03*
X-381000Y547380D02*
D03*
Y562620D02*
D03*
X-356000Y562620D02*
D03*
Y547380D02*
D03*
X-615000Y327620D02*
D03*
Y312380D02*
D03*
X-628000Y462620D02*
D03*
Y447380D02*
D03*
X-642000Y327620D02*
D03*
Y312380D02*
D03*
X-640000Y447380D02*
D03*
Y462620D02*
D03*
X-652000Y447380D02*
D03*
Y462620D02*
D03*
X-586000Y327620D02*
D03*
Y312380D02*
D03*
X-562000Y447380D02*
D03*
Y462620D02*
D03*
X-540000Y-12620D02*
D03*
Y2620D02*
D03*
X665000Y-102380D02*
D03*
Y-117620D02*
D03*
X415000Y-102380D02*
D03*
Y-117620D02*
D03*
X165000Y-102380D02*
D03*
Y-117620D02*
D03*
X-85000Y-102380D02*
D03*
Y-117620D02*
D03*
X665000Y472620D02*
D03*
Y457380D02*
D03*
X415000Y472620D02*
D03*
Y457380D02*
D03*
X165000Y472620D02*
D03*
Y457380D02*
D03*
X-85000Y472620D02*
D03*
Y457380D02*
D03*
X-325000Y329880D02*
D03*
Y345120D02*
D03*
X-467500Y272380D02*
D03*
Y287620D02*
D03*
X-350000Y329880D02*
D03*
Y345120D02*
D03*
X-492500Y317620D02*
D03*
Y302380D02*
D03*
X-467500D02*
D03*
Y317620D02*
D03*
X-465000Y462380D02*
D03*
Y477620D02*
D03*
X-480000Y477620D02*
D03*
Y462380D02*
D03*
X-405000Y332620D02*
D03*
Y317380D02*
D03*
X-603000Y312380D02*
D03*
Y327620D02*
D03*
X-580000Y462620D02*
D03*
Y447380D02*
D03*
X-630000Y327620D02*
D03*
Y312380D02*
D03*
X-595000Y122620D02*
D03*
Y107380D02*
D03*
X-525000Y-12620D02*
D03*
Y2620D02*
D03*
X-510000Y-12620D02*
D03*
Y2620D02*
D03*
X665000Y-72380D02*
D03*
Y-87620D02*
D03*
X415000Y-72380D02*
D03*
Y-87620D02*
D03*
X165000Y-72380D02*
D03*
Y-87620D02*
D03*
X-85000Y-72380D02*
D03*
Y-87620D02*
D03*
X665000Y502620D02*
D03*
Y487380D02*
D03*
X415000Y502620D02*
D03*
Y487380D02*
D03*
X165000Y502620D02*
D03*
Y487380D02*
D03*
X-85000Y502620D02*
D03*
Y487380D02*
D03*
X-337500Y345120D02*
D03*
Y329880D02*
D03*
D35*
X-389760Y350000D02*
D03*
X-420240D02*
D03*
X-647760Y369000D02*
D03*
X-678240D02*
D03*
X-559760Y-5000D02*
D03*
X-590240D02*
D03*
D36*
X-632500Y415950D02*
D03*
Y425550D02*
D03*
X-660500Y415950D02*
D03*
Y425550D02*
D03*
D37*
X-639240Y290000D02*
D03*
X-608760D02*
D03*
D38*
X-705000Y486000D02*
D03*
Y416000D02*
D03*
D39*
X-347000Y7000D02*
D03*
X-328000D02*
D03*
X-337500Y-17000D02*
D03*
X-562000Y297000D02*
D03*
X-543000D02*
D03*
X-552500Y273000D02*
D03*
X-347000Y387000D02*
D03*
X-328000D02*
D03*
X-337500Y363000D02*
D03*
X-347000Y427000D02*
D03*
X-328000D02*
D03*
X-337500Y403000D02*
D03*
X-363000Y403000D02*
D03*
X-382000D02*
D03*
X-372500Y427000D02*
D03*
X-417000Y427000D02*
D03*
X-398000D02*
D03*
X-407500Y403000D02*
D03*
X-442500Y427000D02*
D03*
X-452000Y403000D02*
D03*
X-433000D02*
D03*
X-487000Y427000D02*
D03*
X-468000D02*
D03*
X-477500Y403000D02*
D03*
X-384500Y7000D02*
D03*
X-365500D02*
D03*
X-375000Y-17000D02*
D03*
X-442500Y337000D02*
D03*
X-452000Y313000D02*
D03*
X-433000D02*
D03*
D40*
X-586300Y510000D02*
D03*
X-618700D02*
D03*
X-383800Y385000D02*
D03*
X-416200D02*
D03*
X-466200D02*
D03*
X-433800D02*
D03*
D41*
X-392500Y453800D02*
D03*
Y486200D02*
D03*
X-596500Y448500D02*
D03*
Y461500D02*
D03*
X-613500Y448500D02*
D03*
Y461500D02*
D03*
D42*
X-490500Y504000D02*
D03*
Y491000D02*
D03*
X-509500Y497499D02*
D03*
Y504000D02*
D03*
Y491000D02*
D03*
X-490500Y497501D02*
D03*
D43*
X-465000Y490000D02*
D03*
X-480000D02*
D03*
D44*
X-412500Y292750D02*
D03*
Y267250D02*
D03*
D45*
X-641700Y416000D02*
D03*
X-651300D02*
D03*
D46*
X-169000Y250000D02*
D03*
Y290000D02*
D03*
X-111000Y250000D02*
D03*
Y290000D02*
D03*
X-259000Y250000D02*
D03*
Y290000D02*
D03*
X-201000Y250000D02*
D03*
Y290000D02*
D03*
X-576000Y575000D02*
D03*
Y535000D02*
D03*
X-634000Y575000D02*
D03*
Y535000D02*
D03*
X581000Y-325000D02*
D03*
Y-285000D02*
D03*
X639000Y-325000D02*
D03*
Y-285000D02*
D03*
X491000Y-325000D02*
D03*
Y-285000D02*
D03*
X549000Y-325000D02*
D03*
Y-285000D02*
D03*
X331000Y-325000D02*
D03*
Y-285000D02*
D03*
X389000Y-325000D02*
D03*
Y-285000D02*
D03*
X241000Y-325000D02*
D03*
Y-285000D02*
D03*
X299000Y-325000D02*
D03*
Y-285000D02*
D03*
X81000Y-325000D02*
D03*
Y-285000D02*
D03*
X139000Y-325000D02*
D03*
Y-285000D02*
D03*
X-9000Y-325000D02*
D03*
Y-285000D02*
D03*
X49000Y-325000D02*
D03*
Y-285000D02*
D03*
X-169000Y-325000D02*
D03*
Y-285000D02*
D03*
X-111000Y-325000D02*
D03*
Y-285000D02*
D03*
X-259000Y-325000D02*
D03*
Y-285000D02*
D03*
X-201000Y-325000D02*
D03*
Y-285000D02*
D03*
X581000Y250000D02*
D03*
Y290000D02*
D03*
X639000Y250000D02*
D03*
Y290000D02*
D03*
X491000Y250000D02*
D03*
Y290000D02*
D03*
X549000Y250000D02*
D03*
Y290000D02*
D03*
X331000Y250000D02*
D03*
Y290000D02*
D03*
X389000Y250000D02*
D03*
Y290000D02*
D03*
X241000Y250000D02*
D03*
Y290000D02*
D03*
X299000Y250000D02*
D03*
Y290000D02*
D03*
X81000Y250000D02*
D03*
Y290000D02*
D03*
X139000Y250000D02*
D03*
Y290000D02*
D03*
X-9000Y250000D02*
D03*
Y290000D02*
D03*
X49000Y250000D02*
D03*
Y290000D02*
D03*
D47*
X-700750Y260750D02*
D03*
X-659250D02*
D03*
X-700750Y239250D02*
D03*
X-659250D02*
D03*
X-700750Y330750D02*
D03*
X-659250D02*
D03*
X-700750Y309250D02*
D03*
X-659250D02*
D03*
D48*
X427250Y-467000D02*
D03*
X452750D02*
D03*
X427250Y-453000D02*
D03*
X452750D02*
D03*
X427250Y108000D02*
D03*
X452750D02*
D03*
X427250Y122000D02*
D03*
X452750D02*
D03*
X-72750Y-467000D02*
D03*
X-47250D02*
D03*
X-72750Y-453000D02*
D03*
X-47250D02*
D03*
X-72750Y108000D02*
D03*
X-47250D02*
D03*
X-72750Y122000D02*
D03*
X-47250D02*
D03*
X-72750Y-312000D02*
D03*
X-47250D02*
D03*
X-72750Y-298000D02*
D03*
X-47250D02*
D03*
X-72750Y263000D02*
D03*
X-47250D02*
D03*
X-72750Y277000D02*
D03*
X-47250D02*
D03*
X427250Y-312000D02*
D03*
X452750D02*
D03*
X427250Y-298000D02*
D03*
X452750D02*
D03*
X427250Y263000D02*
D03*
X452750D02*
D03*
X427250Y277000D02*
D03*
X452750D02*
D03*
X-467250Y2000D02*
D03*
X-492750D02*
D03*
X-467250Y-12000D02*
D03*
X-492750D02*
D03*
X-427250Y2000D02*
D03*
X-452750D02*
D03*
X-427250Y-12000D02*
D03*
X-452750D02*
D03*
D49*
X444000Y-467000D02*
D03*
X436000D02*
D03*
X444000Y-453000D02*
D03*
X436000D02*
D03*
X444000Y108000D02*
D03*
X436000D02*
D03*
X444000Y122000D02*
D03*
X436000D02*
D03*
X-56000Y-467000D02*
D03*
X-64000D02*
D03*
X-56000Y-453000D02*
D03*
X-64000D02*
D03*
X-56000Y108000D02*
D03*
X-64000D02*
D03*
X-56000Y122000D02*
D03*
X-64000D02*
D03*
X-56000Y-312000D02*
D03*
X-64000D02*
D03*
X-56000Y-298000D02*
D03*
X-64000D02*
D03*
X-56000Y263000D02*
D03*
X-64000D02*
D03*
X-56000Y277000D02*
D03*
X-64000D02*
D03*
X444000Y-312000D02*
D03*
X436000D02*
D03*
X444000Y-298000D02*
D03*
X436000D02*
D03*
X444000Y263000D02*
D03*
X436000D02*
D03*
X444000Y277000D02*
D03*
X436000D02*
D03*
X-484000Y2000D02*
D03*
X-476000D02*
D03*
X-484000Y-12000D02*
D03*
X-476000D02*
D03*
X-444000Y2000D02*
D03*
X-436000D02*
D03*
X-444000Y-12000D02*
D03*
X-436000D02*
D03*
D50*
X-317500Y522500D02*
D03*
X-332500D02*
D03*
X-527500Y385000D02*
D03*
X-362500Y522500D02*
D03*
X-347500D02*
D03*
X-580000Y476000D02*
D03*
X-562000D02*
D03*
X-527000Y476000D02*
D03*
X-545000Y326000D02*
D03*
X202500Y-412500D02*
D03*
X177500Y-412500D02*
D03*
X190000D02*
D03*
X-337500Y315000D02*
D03*
X-492500Y330000D02*
D03*
X-452000Y250000D02*
D03*
X-640000Y262500D02*
D03*
X-437500Y355000D02*
D03*
X-357500Y440000D02*
D03*
X-367500Y385000D02*
D03*
X-482500D02*
D03*
X-367500Y370000D02*
D03*
D51*
X-421000Y165000D02*
D03*
Y65000D02*
D03*
X-579000D02*
D03*
Y165000D02*
D03*
D52*
X-576000Y140000D02*
D03*
Y90000D02*
D03*
X-422000D02*
D03*
Y140000D02*
D03*
Y115000D02*
D03*
D53*
X-500000Y182500D02*
D03*
Y47500D02*
D03*
D54*
X386000Y-435000D02*
D03*
Y-485000D02*
D03*
X244000Y-435000D02*
D03*
Y-485000D02*
D03*
X386000Y140000D02*
D03*
Y90000D02*
D03*
X244000Y140000D02*
D03*
Y90000D02*
D03*
D55*
X-532000Y525500D02*
D03*
X-524000D02*
D03*
X-476000D02*
D03*
X-468000D02*
D03*
D56*
X-517500D02*
D03*
X-512500D02*
D03*
X-507500D02*
D03*
X-502500D02*
D03*
X-497500D02*
D03*
X-492500D02*
D03*
X-487500D02*
D03*
X-482500D02*
D03*
D57*
X187500Y-443500D02*
D03*
X192500D02*
D03*
X187500Y-476500D02*
D03*
X192500D02*
D03*
X187500Y131500D02*
D03*
X192500D02*
D03*
X187500Y98500D02*
D03*
X192500D02*
D03*
X187500Y-288500D02*
D03*
X192500D02*
D03*
X187500Y-321500D02*
D03*
X192500D02*
D03*
X187500Y286500D02*
D03*
X192500D02*
D03*
X187500Y253500D02*
D03*
X192500D02*
D03*
D58*
X190000Y-460000D02*
D03*
Y115000D02*
D03*
Y-305000D02*
D03*
Y270000D02*
D03*
D59*
X178500Y-447500D02*
D03*
Y-452500D02*
D03*
Y-457500D02*
D03*
Y-462500D02*
D03*
Y-467500D02*
D03*
Y-472500D02*
D03*
X201500Y-447500D02*
D03*
Y-472500D02*
D03*
Y-452500D02*
D03*
Y-457500D02*
D03*
Y-462500D02*
D03*
Y-467500D02*
D03*
X178500Y127500D02*
D03*
Y122500D02*
D03*
Y117500D02*
D03*
Y112500D02*
D03*
Y107500D02*
D03*
Y102500D02*
D03*
X201500Y127500D02*
D03*
Y122500D02*
D03*
Y117500D02*
D03*
Y112500D02*
D03*
Y107500D02*
D03*
Y102500D02*
D03*
X178500Y-292500D02*
D03*
Y-297500D02*
D03*
Y-302500D02*
D03*
Y-307500D02*
D03*
Y-312500D02*
D03*
Y-317500D02*
D03*
X201500Y-292500D02*
D03*
Y-297500D02*
D03*
Y-302500D02*
D03*
Y-307500D02*
D03*
Y-312500D02*
D03*
Y-317500D02*
D03*
X178500Y282500D02*
D03*
Y277500D02*
D03*
Y272500D02*
D03*
Y267500D02*
D03*
Y262500D02*
D03*
Y257500D02*
D03*
X201500Y282500D02*
D03*
Y277500D02*
D03*
Y272500D02*
D03*
Y267500D02*
D03*
Y262500D02*
D03*
Y257500D02*
D03*
D60*
X-330500Y146750D02*
D03*
X-384500Y159450D02*
D03*
Y108650D02*
D03*
X-330500Y83250D02*
D03*
Y95950D02*
D03*
Y108650D02*
D03*
X-384500Y83250D02*
D03*
Y95950D02*
D03*
Y146750D02*
D03*
Y134050D02*
D03*
Y121350D02*
D03*
X-330500Y159450D02*
D03*
Y121350D02*
D03*
Y134050D02*
D03*
X-384500Y70550D02*
D03*
X-330500D02*
D03*
D61*
X-520750Y288000D02*
D03*
X-507750D02*
D03*
X-514250D02*
D03*
X-527250D02*
D03*
Y332000D02*
D03*
X-520750D02*
D03*
X-514250D02*
D03*
X-507750D02*
D03*
D62*
X-433000Y268000D02*
D03*
X-452000D02*
D03*
Y292000D02*
D03*
X-433000D02*
D03*
X-442500Y268000D02*
D03*
X-442500Y458000D02*
D03*
X-433000Y482000D02*
D03*
X-452000D02*
D03*
Y458000D02*
D03*
X-433000D02*
D03*
D63*
X-417250Y555000D02*
D03*
X-392750D02*
D03*
D64*
X-409250Y548250D02*
D03*
Y561750D02*
D03*
X-400750Y548250D02*
D03*
Y561750D02*
D03*
D65*
X-405000Y572250D02*
D03*
Y537750D02*
D03*
D66*
X-336500Y563500D02*
D03*
D67*
X-343500Y564000D02*
D03*
X-336500Y546000D02*
D03*
X-343500D02*
D03*
D68*
X-580000Y390000D02*
D03*
D69*
X-614500Y416000D02*
D03*
Y412000D02*
D03*
Y408000D02*
D03*
Y404000D02*
D03*
Y400000D02*
D03*
Y396000D02*
D03*
Y392000D02*
D03*
Y388000D02*
D03*
Y384000D02*
D03*
Y380000D02*
D03*
Y376000D02*
D03*
Y372000D02*
D03*
Y368000D02*
D03*
Y364000D02*
D03*
X-545500Y364000D02*
D03*
Y368000D02*
D03*
Y372000D02*
D03*
Y376000D02*
D03*
Y380000D02*
D03*
Y384000D02*
D03*
Y388000D02*
D03*
Y392000D02*
D03*
Y396000D02*
D03*
Y400000D02*
D03*
Y404000D02*
D03*
Y408000D02*
D03*
Y412000D02*
D03*
Y416000D02*
D03*
D70*
X-606000Y355500D02*
D03*
X-602000D02*
D03*
X-598000D02*
D03*
X-594000D02*
D03*
X-590000D02*
D03*
X-586000D02*
D03*
X-582000D02*
D03*
X-578000D02*
D03*
X-574000D02*
D03*
X-570000D02*
D03*
X-566000D02*
D03*
X-562000D02*
D03*
X-558000D02*
D03*
X-554000D02*
D03*
X-554000Y424500D02*
D03*
X-558000D02*
D03*
X-562000D02*
D03*
X-566000D02*
D03*
X-570000D02*
D03*
X-574000D02*
D03*
X-578000D02*
D03*
X-582000D02*
D03*
X-586000D02*
D03*
X-590000D02*
D03*
X-594000D02*
D03*
X-598000D02*
D03*
X-602000D02*
D03*
X-606000D02*
D03*
M02*
